<svg width="216" height="60" viewBox="0 0 216 60" fill="none" xmlns="http://www.w3.org/2000/svg">
<rect x="0.861328" y="0.150391" width="214.286" height="58.9798" rx="15" fill="white"/>
<path d="M40.536 19.2041C41.556 19.2041 42.4853 19.2381 43.324 19.3061C44.1627 19.3741 44.956 19.4648 45.704 19.5781C46.4747 19.6915 47.2227 19.8615 47.948 20.0881L47.54 23.8621C46.7467 23.8168 45.976 23.7828 45.228 23.7601C44.48 23.7375 43.732 23.7261 42.984 23.7261C42.236 23.7035 41.454 23.6921 40.638 23.6921C39.6633 23.6921 38.8473 23.7941 38.19 23.9981C37.5553 24.2021 37.0453 24.5875 36.66 25.1541C36.2747 25.6981 35.9913 26.4915 35.81 27.5341C35.6513 28.5541 35.572 29.8688 35.572 31.4781C35.572 33.4275 35.6967 34.9575 35.946 36.0681C36.1953 37.1788 36.6147 37.9721 37.204 38.4481C37.7933 38.9015 38.5867 39.1281 39.584 39.1281C40.264 39.1281 40.8873 39.0601 41.454 38.9241C42.0207 38.7881 42.542 38.6068 43.018 38.3801C43.494 38.1308 43.936 37.8928 44.344 37.6661L44.888 40.1141C44.548 40.5901 44.038 41.1001 43.358 41.6441C42.7007 42.1881 41.896 42.6528 40.944 43.0381C39.992 43.4235 38.904 43.6161 37.68 43.6161C35.912 43.6161 34.4613 43.1968 33.328 42.3581C32.2173 41.5195 31.4013 40.2048 30.88 38.4141C30.3587 36.6008 30.098 34.2548 30.098 31.3761C30.098 28.3161 30.4267 25.9021 31.084 24.1341C31.764 22.3661 32.8633 21.1081 34.382 20.3601C35.9233 19.5895 37.9747 19.2041 40.536 19.2041ZM48.764 29.6081V43.1401H44.922L44.208 39.5701L43.732 38.6181V29.6081H48.764ZM63.9769 25.9021C66.0849 25.9021 67.7735 26.1968 69.0429 26.7861C70.3122 27.3528 71.2189 28.2821 71.7629 29.5741C72.3295 30.8661 72.6129 32.6001 72.6129 34.7761C72.6129 36.9068 72.3295 38.6181 71.7629 39.9101C71.2189 41.2021 70.3122 42.1315 69.0429 42.6981C67.7735 43.2648 66.0849 43.5481 63.9769 43.5481C61.8915 43.5481 60.2029 43.2648 58.9109 42.6981C57.6415 42.1315 56.7235 41.2021 56.1569 39.9101C55.5902 38.6181 55.3069 36.9068 55.3069 34.7761C55.3069 32.6001 55.5902 30.8661 56.1569 29.5741C56.7235 28.2821 57.6415 27.3528 58.9109 26.7861C60.2029 26.1968 61.8915 25.9021 63.9769 25.9021ZM63.9769 29.5741C63.1155 29.5741 62.4355 29.7215 61.9369 30.0161C61.4382 30.3108 61.0869 30.8321 60.8829 31.5801C60.6789 32.3281 60.5769 33.3935 60.5769 34.7761C60.5769 36.1361 60.6789 37.1901 60.8829 37.9381C61.0869 38.6861 61.4382 39.2075 61.9369 39.5021C62.4355 39.7741 63.1155 39.9101 63.9769 39.9101C64.8382 39.9101 65.5182 39.7741 66.0169 39.5021C66.5155 39.2075 66.8669 38.6861 67.0709 37.9381C67.2749 37.1901 67.3769 36.1361 67.3769 34.7761C67.3769 33.3935 67.2749 32.3281 67.0709 31.5801C66.8669 30.8321 66.5155 30.3108 66.0169 30.0161C65.5182 29.7215 64.8382 29.5741 63.9769 29.5741ZM95.7215 19.6801V43.1401H90.5195V19.6801H95.7215ZM104.425 28.6901V32.6001H95.4495V28.6901H104.425ZM109.253 19.6801V43.1401H104.051V19.6801H109.253ZM125.077 25.9021C127.185 25.9021 128.874 26.1968 130.143 26.7861C131.413 27.3528 132.319 28.2821 132.863 29.5741C133.43 30.8661 133.713 32.6001 133.713 34.7761C133.713 36.9068 133.43 38.6181 132.863 39.9101C132.319 41.2021 131.413 42.1315 130.143 42.6981C128.874 43.2648 127.185 43.5481 125.077 43.5481C122.992 43.5481 121.303 43.2648 120.011 42.6981C118.742 42.1315 117.824 41.2021 117.257 39.9101C116.691 38.6181 116.407 36.9068 116.407 34.7761C116.407 32.6001 116.691 30.8661 117.257 29.5741C117.824 28.2821 118.742 27.3528 120.011 26.7861C121.303 26.1968 122.992 25.9021 125.077 25.9021ZM125.077 29.5741C124.216 29.5741 123.536 29.7215 123.037 30.0161C122.539 30.3108 122.187 30.8321 121.983 31.5801C121.779 32.3281 121.677 33.3935 121.677 34.7761C121.677 36.1361 121.779 37.1901 121.983 37.9381C122.187 38.6861 122.539 39.2075 123.037 39.5021C123.536 39.7741 124.216 39.9101 125.077 39.9101C125.939 39.9101 126.619 39.7741 127.117 39.5021C127.616 39.2075 127.967 38.6861 128.171 37.9381C128.375 37.1901 128.477 36.1361 128.477 34.7761C128.477 33.3935 128.375 32.3281 128.171 31.5801C127.967 30.8321 127.616 30.3108 127.117 30.0161C126.619 29.7215 125.939 29.5741 125.077 29.5741ZM161.826 25.9021C163.345 25.9021 164.501 26.2988 165.294 27.0921C166.087 27.8855 166.484 29.0415 166.484 30.5601V43.1401H161.486V32.1241C161.486 31.4215 161.35 30.9228 161.078 30.6281C160.806 30.3108 160.33 30.1521 159.65 30.1521C159.242 30.1521 158.857 30.2088 158.494 30.3221C158.131 30.4355 157.712 30.6168 157.236 30.8661C156.76 31.1155 156.182 31.4555 155.502 31.8861L155.23 29.0981C156.318 28.0328 157.383 27.2395 158.426 26.7181C159.491 26.1741 160.625 25.9021 161.826 25.9021ZM144.554 26.3441L145.064 29.6761L145.574 30.1181V43.1401H140.542V26.3441H144.554ZM151.354 25.9021C152.85 25.9021 153.983 26.2988 154.754 27.0921C155.547 27.8628 155.944 29.0188 155.944 30.5601V43.1401H151.116V32.1241C151.116 31.3988 150.957 30.8888 150.64 30.5941C150.345 30.2995 149.881 30.1521 149.246 30.1521C148.861 30.1521 148.475 30.2088 148.09 30.3221C147.727 30.4128 147.297 30.5828 146.798 30.8321C146.322 31.0815 145.733 31.4328 145.03 31.8861L144.724 29.0981C145.835 28.0328 146.911 27.2395 147.954 26.7181C148.997 26.1741 150.13 25.9021 151.354 25.9021ZM181.847 25.9021C184.68 25.9021 186.709 26.3895 187.933 27.3641C189.18 28.3161 189.803 29.7441 189.803 31.6481C189.826 33.1895 189.441 34.3455 188.647 35.1161C187.854 35.8641 186.482 36.2381 184.533 36.2381H175.149V33.4161H183.139C183.91 33.4161 184.397 33.2575 184.601 32.9401C184.828 32.6001 184.941 32.1355 184.941 31.5461C184.918 30.7528 184.68 30.2088 184.227 29.9141C183.797 29.5968 183.06 29.4381 182.017 29.4381C181.088 29.4381 180.362 29.5628 179.841 29.8121C179.32 30.0615 178.957 30.5375 178.753 31.2401C178.549 31.9428 178.447 32.9628 178.447 34.3001C178.447 35.7055 178.572 36.7935 178.821 37.5641C179.07 38.3121 179.49 38.8335 180.079 39.1281C180.691 39.4228 181.53 39.5701 182.595 39.5701C183.366 39.5701 184.318 39.5475 185.451 39.5021C186.607 39.4341 187.763 39.3321 188.919 39.1961L189.395 42.2901C188.738 42.6075 187.99 42.8568 187.151 43.0381C186.312 43.2195 185.451 43.3441 184.567 43.4121C183.683 43.5028 182.833 43.5481 182.017 43.5481C179.886 43.5481 178.164 43.2421 176.849 42.6301C175.557 41.9955 174.616 41.0321 174.027 39.7401C173.46 38.4481 173.177 36.7935 173.177 34.7761C173.177 32.5775 173.472 30.8321 174.061 29.5401C174.65 28.2481 175.58 27.3188 176.849 26.7521C178.118 26.1855 179.784 25.9021 181.847 25.9021Z" fill="#009EB4"/>
</svg>
