<svg width="400" height="226" viewBox="0 0 400 226" fill="none" xmlns="http://www.w3.org/2000/svg">
<rect x="1.5" y="2.38965" width="397" height="222" rx="18.5" fill="black" stroke="white" stroke-width="3"/>
<g clip-path="url(#clip0_174_696)">
<g opacity="0.69">
<path opacity="0.69" d="M199.998 183.932C247.059 183.932 285.209 157.111 285.209 124.027C285.209 90.9427 247.059 64.1226 199.998 64.1226C152.936 64.1226 114.786 90.9427 114.786 124.027C114.786 157.111 152.936 183.932 199.998 183.932Z" fill="url(#paint0_radial_174_696)"/>
</g>
<g opacity="0.69">
<path opacity="0.69" d="M199.998 183.932C247.059 183.932 285.209 157.111 285.209 124.027C285.209 90.9427 247.059 64.1226 199.998 64.1226C152.936 64.1226 114.786 90.9427 114.786 124.027C114.786 157.111 152.936 183.932 199.998 183.932Z" fill="url(#paint1_radial_174_696)"/>
</g>
<g style="mix-blend-mode:screen" opacity="0.98">
<path d="M323.652 254.123C328.564 240.374 331.241 225.567 331.241 210.134C331.241 137.805 272.483 79.1711 200.001 79.1711C127.52 79.1711 68.7617 137.805 68.7617 210.134C68.7617 225.567 71.438 240.374 76.3511 254.123H323.652Z" fill="url(#paint2_radial_174_696)"/>
</g>
<path opacity="0.98" d="M315.136 254.123C320.379 240.464 323.254 225.635 323.254 210.134C323.254 142.206 268.071 87.1406 200 87.1406C131.928 87.1406 76.7466 142.206 76.7466 210.134C76.7466 225.635 79.6212 240.464 84.8646 254.123H315.136Z" fill="url(#paint3_radial_174_696)"/>
<path opacity="0.98" d="M315.136 254.123C320.379 240.464 323.254 225.635 323.254 210.134C323.254 142.206 268.071 87.1406 200 87.1406C131.928 87.1406 76.7466 142.206 76.7466 210.134C76.7466 225.635 79.6212 240.464 84.8646 254.123H315.136Z" fill="url(#paint4_radial_174_696)"/>
<path opacity="0.98" d="M315.136 254.123C320.379 240.464 323.254 225.635 323.254 210.134C323.254 142.206 268.071 87.1406 200 87.1406C131.928 87.1406 76.7466 142.206 76.7466 210.134C76.7466 225.635 79.6212 240.464 84.8646 254.123H315.136Z" fill="url(#paint5_radial_174_696)"/>
<g style="mix-blend-mode:screen" opacity="0.98">
<path d="M315.136 254.123C320.379 240.464 323.254 225.635 323.254 210.134C323.254 142.206 268.071 87.1406 200 87.1406C131.928 87.1406 76.7466 142.206 76.7466 210.134C76.7466 225.635 79.6212 240.464 84.8646 254.123H315.136Z" fill="url(#paint6_radial_174_696)"/>
</g>
<path d="M329.313 254.123C331.075 245.539 332 236.652 332 227.549C332 154.802 272.901 95.8274 200 95.8274C127.099 95.8274 68 154.802 68 227.549C68 236.652 68.9254 245.539 70.6869 254.123H329.313Z" fill="#00000F"/>
</g>
<rect x="68.5" y="33.4106" width="263" height="189" stroke="black"/>
<path d="M51.5938 26.3623H51.5674V47.8252C51.5674 49.7764 51.9277 50.9717 52.6484 51.4111C53.2637 51.7803 54.4854 51.9648 56.3135 51.9648C56.7354 51.9648 57.1924 51.9561 57.6846 51.9385H61.5605V58.3193H53.123C51.1719 58.3193 49.502 57.9326 48.1133 57.1592C46.7246 56.3857 45.6611 55.3486 44.9229 54.0479C44.2021 52.7471 43.8418 51.3057 43.8418 49.7236V20.5352H61.5605V27.0742L51.5938 26.3623ZM90.0846 26.2041C90.1549 26.4502 90.2164 26.8018 90.2691 27.2588C90.3395 27.6982 90.3746 28.0586 90.3746 28.3398V50.3564C90.3746 51.9385 90.0055 53.3799 89.2672 54.6807C88.5289 55.9639 87.4654 56.9922 86.0768 57.7656C84.7057 58.5391 83.0357 58.9258 81.067 58.9258H78.4566C76.5055 58.9258 74.8355 58.5391 73.4469 57.7656C72.0582 56.9922 70.9947 55.9639 70.2564 54.6807C69.5357 53.3799 69.1754 51.9385 69.1754 50.3564V28.498C69.1754 26.916 69.5357 25.4834 70.2564 24.2002C70.9947 22.8994 72.0582 21.8623 73.4469 21.0889C74.8355 20.3154 76.5055 19.9287 78.4566 19.9287H81.067C83.5104 19.9287 85.5055 20.5176 87.0523 21.6953C88.5992 22.8555 89.61 24.3584 90.0846 26.2041ZM82.6227 32.6641C82.6227 31.0117 82.5787 29.7285 82.4908 28.8145C82.4029 27.9004 82.1568 27.2676 81.7525 26.916C81.3658 26.5469 80.7066 26.3623 79.775 26.3623C78.8434 26.3623 78.1754 26.5469 77.7711 26.916C77.3668 27.2676 77.1207 27.9004 77.0328 28.8145C76.9449 29.7285 76.901 31.0117 76.901 32.6641V46.1904C76.901 47.8428 76.9449 49.126 77.0328 50.04C77.1207 50.9541 77.358 51.5957 77.7447 51.9648C78.149 52.3164 78.8258 52.4922 79.775 52.4922C80.7242 52.4922 81.3922 52.3164 81.7789 51.9648C82.1832 51.5957 82.4205 50.9541 82.4908 50.04C82.5787 49.126 82.6227 47.8428 82.6227 46.1904V32.6641ZM123.328 20.5352H132.768V58.3193H125.016V28.4717L120.006 33.9824V58.3193H112.254V33.9824L107.244 28.4717V58.3193H99.5187V20.5352H108.932L116.13 27.6279L123.328 20.5352ZM156.467 25.8086L152.564 25.6504V52.8086L156.467 52.8877V58.3193H142.044L139.75 53.415L144.812 53.0459V25.6504L142.044 25.7822L139.75 20.5615L156.467 20.5352V25.8086ZM178.293 20.5352H186.019V58.3193H178.293V39.2559L172.704 31.8467V58.3193H165.083V20.4824L172.545 20.5088L172.73 20.7197L178.293 28.0762V20.5352ZM206.158 45.9004L203.864 40.6797L215.677 40.6533V58.3193H204.128C202.177 58.3193 200.507 57.9326 199.118 57.1592C197.747 56.3857 196.692 55.3486 195.954 54.0479C195.216 52.7471 194.847 51.3057 194.847 49.7236V29.1309C194.847 27.5488 195.216 26.1074 195.954 24.8066C196.692 23.5059 197.747 22.4688 199.118 21.6953C200.507 20.9219 202.177 20.5352 204.128 20.5352H215.677L214.754 35.248L208.584 34.7998V27.0742H208.057C206.826 27.0742 205.824 27.127 205.051 27.2324C204.277 27.3379 203.706 27.5488 203.337 27.8652C202.985 28.1641 202.774 28.6035 202.704 29.1836C202.634 29.7637 202.599 30.5283 202.599 31.4775V46.4805C202.616 48.748 203.021 50.2334 203.812 50.9365C204.585 51.6045 205.912 51.9385 207.793 51.9385H207.951V45.8213L206.158 45.9004ZM261.361 35.248L255.191 34.7998V26.916H255.032C254.611 26.8984 254.224 26.8896 253.872 26.8896C252.22 26.8896 251.06 27.0303 250.392 27.3115C249.724 27.5928 249.363 28.4541 249.311 29.8955C249.293 30.124 249.276 30.4053 249.258 30.7393C249.258 31.0732 249.249 31.416 249.232 31.7676C249.232 32.1016 249.232 32.3828 249.232 32.6113V32.9805L262.6 42.5518V49.6973C262.6 51.2793 262.231 52.7207 261.492 54.0215C260.754 55.3223 259.691 56.3594 258.302 57.1328C256.931 57.9062 255.27 58.293 253.319 58.293H242.086V44.8193L248.256 45.2676L249.021 51.9121C249.671 51.9121 250.26 51.9209 250.787 51.9385C251.156 51.9561 251.499 51.9648 251.816 51.9648C252.659 51.9648 253.371 51.9121 253.951 51.8066C254.531 51.6836 254.927 51.3057 255.138 50.6729C255.349 50.0225 255.454 48.959 255.454 47.4824V47.0078L242.086 37.252V29.1309C242.086 27.5488 242.446 26.1074 243.167 24.8066C243.905 23.5059 244.969 22.4688 246.358 21.6953C247.746 20.9219 249.416 20.5352 251.367 20.5352H262.283L261.361 35.248ZM291.256 26.2041C291.326 26.4502 291.387 26.8018 291.44 27.2588C291.511 27.6982 291.546 28.0586 291.546 28.3398V50.3564C291.546 51.9385 291.177 53.3799 290.438 54.6807C289.7 55.9639 288.637 56.9922 287.248 57.7656C285.877 58.5391 284.207 58.9258 282.238 58.9258H279.628C277.677 58.9258 276.007 58.5391 274.618 57.7656C273.229 56.9922 272.166 55.9639 271.428 54.6807C270.707 53.3799 270.346 51.9385 270.346 50.3564V28.498C270.346 26.916 270.707 25.4834 271.428 24.2002C272.166 22.8994 273.229 21.8623 274.618 21.0889C276.007 20.3154 277.677 19.9287 279.628 19.9287H282.238C284.681 19.9287 286.677 20.5176 288.223 21.6953C289.77 22.8555 290.781 24.3584 291.256 26.2041ZM283.794 32.6641C283.794 31.0117 283.75 29.7285 283.662 28.8145C283.574 27.9004 283.328 27.2676 282.924 26.916C282.537 26.5469 281.878 26.3623 280.946 26.3623C280.014 26.3623 279.346 26.5469 278.942 26.916C278.538 27.2676 278.292 27.9004 278.204 28.8145C278.116 29.7285 278.072 31.0117 278.072 32.6641V46.1904C278.072 47.8428 278.116 49.126 278.204 50.04C278.292 50.9541 278.529 51.5957 278.916 51.9648C279.32 52.3164 279.997 52.4922 280.946 52.4922C281.895 52.4922 282.563 52.3164 282.95 51.9648C283.354 51.5957 283.592 50.9541 283.662 50.04C283.75 49.126 283.794 47.8428 283.794 46.1904V32.6641ZM321.072 26.2041C321.142 26.4502 321.204 26.8018 321.256 27.2588C321.327 27.6982 321.362 28.0586 321.362 28.3398V50.3564C321.362 51.9385 320.993 53.3799 320.254 54.6807C319.516 55.9639 318.453 56.9922 317.064 57.7656C315.693 58.5391 314.023 58.9258 312.054 58.9258H309.444C307.493 58.9258 305.823 58.5391 304.434 57.7656C303.045 56.9922 301.982 55.9639 301.244 54.6807C300.523 53.3799 300.163 51.9385 300.163 50.3564V28.498C300.163 26.916 300.523 25.4834 301.244 24.2002C301.982 22.8994 303.045 21.8623 304.434 21.0889C305.823 20.3154 307.493 19.9287 309.444 19.9287H312.054C314.497 19.9287 316.493 20.5176 318.039 21.6953C319.586 22.8555 320.597 24.3584 321.072 26.2041ZM313.61 32.6641C313.61 31.0117 313.566 29.7285 313.478 28.8145C313.39 27.9004 313.144 27.2676 312.74 26.916C312.353 26.5469 311.694 26.3623 310.762 26.3623C309.83 26.3623 309.163 26.5469 308.758 26.916C308.354 27.2676 308.108 27.9004 308.02 28.8145C307.932 29.7285 307.888 31.0117 307.888 32.6641V46.1904C307.888 47.8428 307.932 49.126 308.02 50.04C308.108 50.9541 308.345 51.5957 308.732 51.9648C309.136 52.3164 309.813 52.4922 310.762 52.4922C311.711 52.4922 312.379 52.3164 312.766 51.9648C313.17 51.5957 313.408 50.9541 313.478 50.04C313.566 49.126 313.61 47.8428 313.61 46.1904V32.6641ZM343.637 20.5352H351.362V58.3193H343.637V39.2559L338.047 31.8467V58.3193H330.427V20.4824L337.889 20.5088L338.073 20.7197L343.637 28.0762V20.5352Z" fill="white"/>
<path d="M51.5938 26.3623L51.665 25.3648L51.6294 25.3623H51.5938V26.3623ZM51.5674 26.3623V25.3623H50.5674V26.3623H51.5674ZM52.6484 51.4111L52.1278 52.2649L52.1339 52.2686L52.6484 51.4111ZM57.6846 51.9385V50.9385H57.6667L57.6489 50.9391L57.6846 51.9385ZM61.5605 51.9385H62.5605V50.9385H61.5605V51.9385ZM61.5605 58.3193V59.3193H62.5605V58.3193H61.5605ZM44.9229 54.0479L44.0481 54.5325L44.0532 54.5415L44.9229 54.0479ZM43.8418 20.5352V19.5352H42.8418V20.5352H43.8418ZM61.5605 20.5352H62.5605V19.5352H61.5605V20.5352ZM61.5605 27.0742L61.4893 28.0717L62.5605 28.1482V27.0742H61.5605ZM51.5938 25.3623H51.5674V27.3623H51.5938V25.3623ZM50.5674 26.3623V47.8252H52.5674V26.3623H50.5674ZM50.5674 47.8252C50.5674 48.8501 50.6606 49.7452 50.8802 50.4737C51.0982 51.1967 51.4761 51.8675 52.1278 52.2649L53.169 50.5573C53.1001 50.5153 52.9375 50.3688 52.7951 49.8964C52.6543 49.4296 52.5674 48.7514 52.5674 47.8252H50.5674ZM52.1339 52.2686C52.6065 52.5522 53.2165 52.7155 53.8767 52.8152C54.5544 52.9176 55.3707 52.9648 56.3135 52.9648V50.9648C55.4281 50.9648 54.7196 50.9198 54.1755 50.8376C53.614 50.7528 53.3056 50.6393 53.1629 50.5536L52.1339 52.2686ZM56.3135 52.9648C56.749 52.9648 57.2181 52.9558 57.7203 52.9378L57.6489 50.9391C57.1667 50.9563 56.7217 50.9648 56.3135 50.9648V52.9648ZM57.6846 52.9385H61.5605V50.9385H57.6846V52.9385ZM60.5605 51.9385V58.3193H62.5605V51.9385H60.5605ZM61.5605 57.3193H53.123V59.3193H61.5605V57.3193ZM53.123 57.3193C51.3038 57.3193 49.8095 56.9592 48.5999 56.2855L47.6267 58.0328C49.1944 58.906 51.04 59.3193 53.123 59.3193V57.3193ZM48.5999 56.2855C47.3608 55.5955 46.4346 54.6855 45.7925 53.5542L44.0532 54.5415C44.8876 56.0117 46.0884 57.176 47.6267 58.0328L48.5999 56.2855ZM45.7976 53.5632C45.1643 52.4202 44.8418 51.1473 44.8418 49.7236H42.8418C42.8418 51.464 43.24 53.0739 44.0481 54.5325L45.7976 53.5632ZM44.8418 49.7236V20.5352H42.8418V49.7236H44.8418ZM43.8418 21.5352H61.5605V19.5352H43.8418V21.5352ZM60.5605 20.5352V27.0742H62.5605V20.5352H60.5605ZM61.6318 26.0768L51.665 25.3648L51.5225 27.3598L61.4893 28.0717L61.6318 26.0768ZM90.0846 26.2041L89.1161 26.4531L89.1194 26.466L89.123 26.4788L90.0846 26.2041ZM90.2691 27.2588L89.2757 27.3734L89.2782 27.3952L89.2817 27.4168L90.2691 27.2588ZM89.2672 54.6807L90.134 55.1794L90.1369 55.1743L89.2672 54.6807ZM86.0768 57.7656L85.5902 56.892L85.5854 56.8946L86.0768 57.7656ZM70.2564 54.6807L69.3817 55.1653L69.3856 55.1724L69.3897 55.1794L70.2564 54.6807ZM70.2564 24.2002L69.3868 23.7066L69.3846 23.7105L70.2564 24.2002ZM87.0523 21.6953L86.4466 22.491L86.4523 22.4953L87.0523 21.6953ZM81.7525 26.916L81.0621 27.6394L81.0788 27.6554L81.0964 27.6706L81.7525 26.916ZM77.7711 26.916L78.4273 27.6706L78.4364 27.6627L78.4454 27.6545L77.7711 26.916ZM77.7447 51.9648L77.0542 52.6882L77.071 52.7042L77.0885 52.7194L77.7447 51.9648ZM81.7789 51.9648L82.4516 52.7048L82.4532 52.7033L81.7789 51.9648ZM82.4908 50.04L81.4954 49.9443L81.4945 49.9538L81.4938 49.9633L82.4908 50.04ZM89.123 26.4788C89.171 26.6468 89.2252 26.9351 89.2757 27.3734L91.2626 27.1442C91.2077 26.6684 91.1387 26.2536 91.0461 25.9294L89.123 26.4788ZM89.2817 27.4168C89.3479 27.8303 89.3746 28.1328 89.3746 28.3398H91.3746C91.3746 27.9844 91.331 27.5662 91.2566 27.1008L89.2817 27.4168ZM89.3746 28.3398V50.3564H91.3746V28.3398H89.3746ZM89.3746 50.3564C89.3746 51.7758 89.0454 53.0455 88.3975 54.1871L90.1369 55.1743C90.9655 53.7142 91.3746 52.1012 91.3746 50.3564H89.3746ZM88.4004 54.182C87.7592 55.2964 86.8326 56.2 85.5902 56.892L86.5633 58.6393C88.0983 57.7844 89.2986 56.6313 90.134 55.1794L88.4004 54.182ZM85.5854 56.8946C84.3974 57.5648 82.9061 57.9258 81.067 57.9258V59.9258C83.1654 59.9258 85.0139 59.5133 86.5681 58.6366L85.5854 56.8946ZM81.067 57.9258H78.4566V59.9258H81.067V57.9258ZM78.4566 57.9258C76.6374 57.9258 75.1431 57.5657 73.9335 56.892L72.9603 58.6393C74.528 59.5124 76.3736 59.9258 78.4566 59.9258V57.9258ZM73.9335 56.892C72.691 56.2 71.7644 55.2964 71.1232 54.182L69.3897 55.1794C70.225 56.6313 71.4254 57.7844 72.9603 58.6393L73.9335 56.892ZM71.1312 54.196C70.4979 53.053 70.1754 51.7801 70.1754 50.3564H68.1754C68.1754 52.0968 68.5736 53.7067 69.3817 55.1653L71.1312 54.196ZM70.1754 50.3564V28.498H68.1754V50.3564H70.1754ZM70.1754 28.498C70.1754 27.0743 70.4979 25.8124 71.1283 24.6899L69.3846 23.7105C68.5736 25.1544 68.1754 26.7578 68.1754 28.498H70.1754ZM71.1261 24.6938C71.7682 23.5625 72.6944 22.6526 73.9335 21.9625L72.9603 20.2152C71.422 21.072 70.2212 22.2363 69.3868 23.7066L71.1261 24.6938ZM73.9335 21.9625C75.1431 21.2888 76.6374 20.9287 78.4566 20.9287V18.9287C76.3736 18.9287 74.528 19.3421 72.9603 20.2152L73.9335 21.9625ZM78.4566 20.9287H81.067V18.9287H78.4566V20.9287ZM81.067 20.9287C83.3485 20.9287 85.1143 21.4766 86.4466 22.491L87.6581 20.8997C85.8966 19.5585 83.6722 18.9287 81.067 18.9287V20.9287ZM86.4523 22.4953C87.8202 23.5212 88.699 24.8311 89.1161 26.4531L91.0531 25.9551C90.5209 23.8857 89.3782 22.1897 87.6523 20.8953L86.4523 22.4953ZM83.6227 32.6641C83.6227 31.0007 83.5787 29.6802 83.4862 28.7187L81.4954 28.9102C81.5787 29.7768 81.6227 31.0228 81.6227 32.6641H83.6227ZM83.4862 28.7187C83.39 27.7184 83.1045 26.7665 82.4087 26.1614L81.0964 27.6706C81.2091 27.7687 81.4158 28.0824 81.4954 28.9102L83.4862 28.7187ZM82.443 26.1927C81.7733 25.5534 80.788 25.3623 79.775 25.3623V27.3623C80.6253 27.3623 80.9583 27.5403 81.0621 27.6394L82.443 26.1927ZM79.775 25.3623C78.7558 25.3623 77.7775 25.556 77.0968 26.1775L78.4454 27.6545C78.5733 27.5377 78.931 27.3623 79.775 27.3623V25.3623ZM77.1149 26.1614C76.4191 26.7665 76.1336 27.7184 76.0374 28.7187L78.0282 28.9102C78.1078 28.0824 78.3145 27.7687 78.4273 27.6706L77.1149 26.1614ZM76.0374 28.7187C75.945 29.6802 75.901 31.0007 75.901 32.6641H77.901C77.901 31.0228 77.9449 29.7768 78.0282 28.9102L76.0374 28.7187ZM75.901 32.6641V46.1904H77.901V32.6641H75.901ZM75.901 46.1904C75.901 47.8538 75.945 49.1743 76.0374 50.1357L78.0282 49.9443C77.9449 49.0777 77.901 47.8317 77.901 46.1904H75.901ZM76.0374 50.1357C76.1332 51.132 76.4064 52.0698 77.0542 52.6882L78.4352 51.2415C78.3096 51.1216 78.1082 50.7762 78.0282 49.9443L76.0374 50.1357ZM77.0885 52.7194C77.7706 53.3126 78.7525 53.4922 79.775 53.4922V51.4922C78.8991 51.4922 78.5274 51.3203 78.4009 51.2102L77.0885 52.7194ZM79.775 53.4922C80.7908 53.4922 81.78 53.3153 82.4516 52.7048L81.1062 51.2249C81.0044 51.3175 80.6576 51.4922 79.775 51.4922V53.4922ZM82.4532 52.7033C83.1373 52.0787 83.4104 51.1245 83.4879 50.1167L81.4938 49.9633C81.4307 50.7837 81.2291 51.1127 81.1046 51.2264L82.4532 52.7033ZM83.4862 50.1357C83.5787 49.1743 83.6227 47.8538 83.6227 46.1904H81.6227C81.6227 47.8317 81.5787 49.0777 81.4954 49.9443L83.4862 50.1357ZM83.6227 46.1904V32.6641H81.6227V46.1904H83.6227ZM123.328 20.5352V19.5352H122.918L122.626 19.8229L123.328 20.5352ZM132.768 20.5352H133.768V19.5352H132.768V20.5352ZM132.768 58.3193V59.3193H133.768V58.3193H132.768ZM125.016 58.3193H124.016V59.3193H125.016V58.3193ZM125.016 28.4717H126.016V25.8851L124.276 27.799L125.016 28.4717ZM120.006 33.9824L119.266 33.3097L119.006 33.5958V33.9824H120.006ZM120.006 58.3193V59.3193H121.006V58.3193H120.006ZM112.254 58.3193H111.254V59.3193H112.254V58.3193ZM112.254 33.9824H113.254V33.5958L112.994 33.3097L112.254 33.9824ZM107.244 28.4717L107.984 27.799L106.244 25.8851V28.4717H107.244ZM107.244 58.3193V59.3193H108.244V58.3193H107.244ZM99.5187 58.3193H98.5187V59.3193H99.5187V58.3193ZM99.5187 20.5352V19.5352H98.5187V20.5352H99.5187ZM108.932 20.5352L109.634 19.8229L109.342 19.5352H108.932V20.5352ZM116.13 27.6279L115.428 28.3402L116.13 29.0318L116.832 28.3402L116.13 27.6279ZM123.328 21.5352H132.768V19.5352H123.328V21.5352ZM131.768 20.5352V58.3193H133.768V20.5352H131.768ZM132.768 57.3193H125.016V59.3193H132.768V57.3193ZM126.016 58.3193V28.4717H124.016V58.3193H126.016ZM124.276 27.799L119.266 33.3097L120.746 34.6551L125.756 29.1444L124.276 27.799ZM119.006 33.9824V58.3193H121.006V33.9824H119.006ZM120.006 57.3193H112.254V59.3193H120.006V57.3193ZM113.254 58.3193V33.9824H111.254V58.3193H113.254ZM112.994 33.3097L107.984 27.799L106.504 29.1444L111.514 34.6551L112.994 33.3097ZM106.244 28.4717V58.3193H108.244V28.4717H106.244ZM107.244 57.3193H99.5187V59.3193H107.244V57.3193ZM100.519 58.3193V20.5352H98.5187V58.3193H100.519ZM99.5187 21.5352H108.932V19.5352H99.5187V21.5352ZM108.23 21.2475L115.428 28.3402L116.832 26.9156L109.634 19.8229L108.23 21.2475ZM116.832 28.3402L124.03 21.2475L122.626 19.8229L115.428 26.9156L116.832 28.3402ZM156.467 25.8086L156.426 26.8078L157.467 26.85V25.8086H156.467ZM152.564 25.6504L152.605 24.6512L151.564 24.609V25.6504H152.564ZM152.564 52.8086H151.564V53.7885L152.544 53.8084L152.564 52.8086ZM156.467 52.8877H157.467V51.9078L156.487 51.8879L156.467 52.8877ZM156.467 58.3193V59.3193H157.467V58.3193H156.467ZM142.044 58.3193L141.138 58.743L141.408 59.3193H142.044V58.3193ZM139.75 53.415L139.677 52.4177L138.229 52.5233L138.844 53.8387L139.75 53.415ZM144.812 53.0459L144.885 54.0433L145.812 53.9756V53.0459H144.812ZM144.812 25.6504H145.812V24.6016L144.765 24.6515L144.812 25.6504ZM142.044 25.7822L141.128 26.1845L141.405 26.8138L142.091 26.7811L142.044 25.7822ZM139.75 20.5615L139.748 19.5615L138.219 19.5639L138.834 20.9638L139.75 20.5615ZM156.467 20.5352H157.467V19.5336L156.465 19.5352L156.467 20.5352ZM156.507 24.8094L152.605 24.6512L152.524 26.6496L156.426 26.8078L156.507 24.8094ZM151.564 25.6504V52.8086H153.564V25.6504H151.564ZM152.544 53.8084L156.446 53.8875L156.487 51.8879L152.585 51.8088L152.544 53.8084ZM155.467 52.8877V58.3193H157.467V52.8877H155.467ZM156.467 57.3193H142.044V59.3193H156.467V57.3193ZM142.95 57.8956L140.656 52.9914L138.844 53.8387L141.138 58.743L142.95 57.8956ZM139.823 54.4124L144.885 54.0433L144.74 52.0485L139.677 52.4177L139.823 54.4124ZM145.812 53.0459V25.6504H143.812V53.0459H145.812ZM144.765 24.6515L141.996 24.7834L142.091 26.7811L144.86 26.6493L144.765 24.6515ZM142.959 25.38L140.665 20.1592L138.834 20.9638L141.128 26.1845L142.959 25.38ZM139.751 21.5615L156.468 21.5352L156.465 19.5352L139.748 19.5615L139.751 21.5615ZM155.467 20.5352V25.8086H157.467V20.5352H155.467ZM178.293 20.5352V19.5352H177.293V20.5352H178.293ZM186.019 20.5352H187.019V19.5352H186.019V20.5352ZM186.019 58.3193V59.3193H187.019V58.3193H186.019ZM178.293 58.3193H177.293V59.3193H178.293V58.3193ZM178.293 39.2559H179.293V38.9209L179.092 38.6536L178.293 39.2559ZM172.704 31.8467L173.502 31.2444L171.704 28.8608V31.8467H172.704ZM172.704 58.3193V59.3193H173.704V58.3193H172.704ZM165.083 58.3193H164.083V59.3193H165.083V58.3193ZM165.083 20.4824L165.087 19.4824L164.083 19.4789V20.4824H165.083ZM172.545 20.5088L173.298 19.8503L173 19.5104L172.549 19.5088L172.545 20.5088ZM172.73 20.7197L173.527 20.1165L173.506 20.0881L173.482 20.0612L172.73 20.7197ZM178.293 28.0762L177.496 28.6794L179.293 31.0563V28.0762H178.293ZM178.293 21.5352H186.019V19.5352H178.293V21.5352ZM185.019 20.5352V58.3193H187.019V20.5352H185.019ZM186.019 57.3193H178.293V59.3193H186.019V57.3193ZM179.293 58.3193V39.2559H177.293V58.3193H179.293ZM179.092 38.6536L173.502 31.2444L171.905 32.4489L177.495 39.8581L179.092 38.6536ZM171.704 31.8467V58.3193H173.704V31.8467H171.704ZM172.704 57.3193H165.083V59.3193H172.704V57.3193ZM166.083 58.3193V20.4824H164.083V58.3193H166.083ZM165.08 21.4824L172.542 21.5088L172.549 19.5088L165.087 19.4824L165.08 21.4824ZM171.793 21.1673L171.977 21.3782L173.482 20.0612L173.298 19.8503L171.793 21.1673ZM171.932 21.3229L177.496 28.6794L179.091 27.473L173.527 20.1165L171.932 21.3229ZM179.293 28.0762V20.5352H177.293V28.0762H179.293ZM206.158 45.9004L205.243 46.3027L205.518 46.9296L206.202 46.8994L206.158 45.9004ZM203.864 40.6797L203.862 39.6797L202.334 39.6831L202.949 41.082L203.864 40.6797ZM215.677 40.6533H216.677V39.6511L215.675 39.6533L215.677 40.6533ZM215.677 58.3193V59.3193H216.677V58.3193H215.677ZM199.118 57.1592L198.627 58.0302L198.632 58.0328L199.118 57.1592ZM199.118 21.6953L198.632 20.8217L198.627 20.8243L199.118 21.6953ZM215.677 20.5352L216.675 20.5978L216.741 19.5352H215.677V20.5352ZM214.754 35.248L214.681 36.2454L215.689 36.3186L215.752 35.3106L214.754 35.248ZM208.584 34.7998H207.584V35.7298L208.512 35.7972L208.584 34.7998ZM208.584 27.0742H209.584V26.0742H208.584V27.0742ZM203.337 27.8652L203.985 28.6272L203.988 28.6245L203.337 27.8652ZM202.599 46.4805H201.599L201.599 46.4882L202.599 46.4805ZM203.812 50.9365L203.147 51.6839L203.152 51.6887L203.158 51.6933L203.812 50.9365ZM207.951 51.9385V52.9385H208.951V51.9385H207.951ZM207.951 45.8213H208.951V44.7762L207.907 44.8223L207.951 45.8213ZM207.074 45.4981L204.78 40.2774L202.949 41.082L205.243 46.3027L207.074 45.4981ZM203.866 41.6797L215.679 41.6533L215.675 39.6533L203.862 39.6797L203.866 41.6797ZM214.677 40.6533V58.3193H216.677V40.6533H214.677ZM215.677 57.3193H204.128V59.3193H215.677V57.3193ZM204.128 57.3193C202.309 57.3193 200.814 56.9592 199.605 56.2855L198.632 58.0328C200.199 58.906 202.045 59.3193 204.128 59.3193V57.3193ZM199.609 56.2882C198.388 55.599 197.468 54.6888 196.824 53.5542L195.084 54.5415C195.917 56.0084 197.106 57.1725 198.627 58.0302L199.609 56.2882ZM196.824 53.5542C196.176 52.4127 195.847 51.143 195.847 49.7236H193.847C193.847 51.4683 194.256 53.0814 195.084 54.5415L196.824 53.5542ZM195.847 49.7236V29.1309H193.847V49.7236H195.847ZM195.847 29.1309C195.847 27.7115 196.176 26.4418 196.824 25.3002L195.084 24.313C194.256 25.7731 193.847 27.3861 193.847 29.1309H195.847ZM196.824 25.3002C197.468 24.1657 198.388 23.2555 199.609 22.5663L198.627 20.8243C197.106 21.682 195.917 22.846 195.084 24.313L196.824 25.3002ZM199.605 22.5689C200.814 21.8952 202.309 21.5352 204.128 21.5352V19.5352C202.045 19.5352 200.199 19.9485 198.632 20.8217L199.605 22.5689ZM204.128 21.5352H215.677V19.5352H204.128V21.5352ZM214.679 20.4726L213.756 35.1854L215.752 35.3106L216.675 20.5978L214.679 20.4726ZM214.826 34.2507L208.656 33.8024L208.512 35.7972L214.681 36.2454L214.826 34.2507ZM209.584 34.7998V27.0742H207.584V34.7998H209.584ZM208.584 26.0742H208.057V28.0742H208.584V26.0742ZM208.057 26.0742C206.804 26.0742 205.752 26.1276 204.916 26.2416L205.186 28.2233C205.897 28.1263 206.849 28.0742 208.057 28.0742V26.0742ZM204.916 26.2416C204.057 26.3587 203.265 26.6098 202.686 27.106L203.988 28.6245C204.147 28.4879 204.498 28.3171 205.186 28.2233L204.916 26.2416ZM202.689 27.1033C202.099 27.6051 201.804 28.3026 201.711 29.0633L203.697 29.3039C203.745 28.9044 203.872 28.723 203.985 28.6272L202.689 27.1033ZM201.711 29.0633C201.634 29.7001 201.599 30.5096 201.599 31.4775H203.599C203.599 30.5471 203.633 29.8273 203.697 29.3039L201.711 29.0633ZM201.599 31.4775V46.4805H203.599V31.4775H201.599ZM201.599 46.4882C201.608 47.6716 201.717 48.7029 201.95 49.5578C202.181 50.4071 202.555 51.1572 203.147 51.6839L204.476 50.1891C204.277 50.0127 204.053 49.6685 203.88 49.0325C203.708 48.4021 203.607 47.5569 203.599 46.4727L201.599 46.4882ZM203.158 51.6933C204.213 52.6049 205.851 52.9385 207.793 52.9385V50.9385C205.973 50.9385 204.957 50.6041 204.465 50.1797L203.158 51.6933ZM207.793 52.9385H207.951V50.9385H207.793V52.9385ZM208.951 51.9385V45.8213H206.951V51.9385H208.951ZM207.907 44.8223L206.114 44.9014L206.202 46.8994L207.995 46.8203L207.907 44.8223ZM261.361 35.248L261.288 36.2454L262.295 36.3186L262.359 35.3106L261.361 35.248ZM255.191 34.7998H254.191V35.7298L255.118 35.7972L255.191 34.7998ZM255.191 26.916H256.191V25.916H255.191V26.916ZM255.032 26.916L254.991 27.9151L255.012 27.916H255.032V26.916ZM249.311 29.8955L250.308 29.9722L250.309 29.9522L250.31 29.9321L249.311 29.8955ZM249.258 30.7393L248.259 30.6867L248.258 30.713V30.7393H249.258ZM249.232 31.7676L248.233 31.7176L248.232 31.7426V31.7676H249.232ZM249.232 32.9805H248.232V33.4944L248.649 33.7936L249.232 32.9805ZM262.6 42.5518H263.6V42.0378L263.182 41.7387L262.6 42.5518ZM258.302 57.1328L257.815 56.2592L257.811 56.2618L258.302 57.1328ZM242.086 58.293H241.086V59.293H242.086V58.293ZM242.086 44.8193L242.159 43.822L241.086 43.744V44.8193H242.086ZM248.256 45.2676L249.249 45.1533L249.155 44.3302L248.329 44.2702L248.256 45.2676ZM249.021 51.9121L248.027 52.0264L248.129 52.9121H249.021V51.9121ZM250.787 51.9385L250.835 50.9396L250.828 50.9393L250.821 50.939L250.787 51.9385ZM253.951 51.8066L254.13 52.7905L254.145 52.7879L254.159 52.7849L253.951 51.8066ZM255.138 50.6729L256.087 50.9891L256.089 50.9814L255.138 50.6729ZM255.454 47.0078H256.454V46.4996L256.044 46.2L255.454 47.0078ZM242.086 37.252H241.086V37.7601L241.497 38.0597L242.086 37.252ZM243.167 24.8066L242.297 24.313L242.292 24.322L243.167 24.8066ZM262.283 20.5352L263.281 20.5978L263.348 19.5352H262.283V20.5352ZM261.433 34.2507L255.263 33.8024L255.118 35.7972L261.288 36.2454L261.433 34.2507ZM256.191 34.7998V26.916H254.191V34.7998H256.191ZM255.191 25.916H255.032V27.916H255.191V25.916ZM255.074 25.9169C254.641 25.8988 254.24 25.8896 253.872 25.8896V27.8896C254.208 27.8896 254.58 27.898 254.991 27.9151L255.074 25.9169ZM253.872 25.8896C252.214 25.8896 250.874 26.0235 250.004 26.3899L250.78 28.2332C251.246 28.037 252.226 27.8896 253.872 27.8896V25.8896ZM250.004 26.3899C249.364 26.6591 248.949 27.1828 248.698 27.7825C248.453 28.3675 248.34 29.0764 248.311 29.8589L250.31 29.9321C250.334 29.2732 250.427 28.8308 250.543 28.5544C250.653 28.2928 250.751 28.2452 250.78 28.2332L250.004 26.3899ZM248.314 29.8188C248.295 30.0581 248.277 30.348 248.259 30.6867L250.257 30.7918C250.274 30.4626 250.291 30.19 250.308 29.9722L248.314 29.8188ZM248.258 30.7393C248.258 31.0557 248.25 31.3818 248.233 31.7176L250.23 31.8175C250.249 31.4502 250.258 31.0908 250.258 30.7393H248.258ZM248.232 31.7676C248.232 31.7682 248.232 31.7689 248.232 31.7695C248.232 31.7702 248.232 31.7708 248.232 31.7715C248.232 31.7721 248.232 31.7728 248.232 31.7734C248.232 31.7741 248.232 31.7747 248.232 31.7754C248.232 31.776 248.232 31.7767 248.232 31.7773C248.232 31.778 248.232 31.7786 248.232 31.7793C248.232 31.7799 248.232 31.7806 248.232 31.7812C248.232 31.7819 248.232 31.7825 248.232 31.7832C248.232 31.7838 248.232 31.7845 248.232 31.7851C248.232 31.7858 248.232 31.7864 248.232 31.7871C248.232 31.7877 248.232 31.7884 248.232 31.789C248.232 31.7897 248.232 31.7903 248.232 31.791C248.232 31.7916 248.232 31.7923 248.232 31.7929C248.232 31.7936 248.232 31.7942 248.232 31.7949C248.232 31.7955 248.232 31.7962 248.232 31.7968C248.232 31.7974 248.232 31.7981 248.232 31.7987C248.232 31.7994 248.232 31.8 248.232 31.8007C248.232 31.8013 248.232 31.802 248.232 31.8026C248.232 31.8033 248.232 31.8039 248.232 31.8045C248.232 31.8052 248.232 31.8058 248.232 31.8065C248.232 31.8071 248.232 31.8078 248.232 31.8084C248.232 31.8091 248.232 31.8097 248.232 31.8103C248.232 31.811 248.232 31.8116 248.232 31.8123C248.232 31.8129 248.232 31.8136 248.232 31.8142C248.232 31.8148 248.232 31.8155 248.232 31.8161C248.232 31.8168 248.232 31.8174 248.232 31.8181C248.232 31.8187 248.232 31.8193 248.232 31.82C248.232 31.8206 248.232 31.8213 248.232 31.8219C248.232 31.8225 248.232 31.8232 248.232 31.8238C248.232 31.8245 248.232 31.8251 248.232 31.8257C248.232 31.8264 248.232 31.827 248.232 31.8277C248.232 31.8283 248.232 31.8289 248.232 31.8296C248.232 31.8302 248.232 31.8309 248.232 31.8315C248.232 31.8321 248.232 31.8328 248.232 31.8334C248.232 31.8341 248.232 31.8347 248.232 31.8353C248.232 31.836 248.232 31.8366 248.232 31.8372C248.232 31.8379 248.232 31.8385 248.232 31.8392C248.232 31.8398 248.232 31.8404 248.232 31.8411C248.232 31.8417 248.232 31.8423 248.232 31.843C248.232 31.8436 248.232 31.8443 248.232 31.8449C248.232 31.8455 248.232 31.8462 248.232 31.8468C248.232 31.8474 248.232 31.8481 248.232 31.8487C248.232 31.8493 248.232 31.85 248.232 31.8506C248.232 31.8512 248.232 31.8519 248.232 31.8525C248.232 31.8531 248.232 31.8538 248.232 31.8544C248.232 31.8551 248.232 31.8557 248.232 31.8563C248.232 31.857 248.232 31.8576 248.232 31.8582C248.232 31.8589 248.232 31.8595 248.232 31.8601C248.232 31.8608 248.232 31.8614 248.232 31.862C248.232 31.8627 248.232 31.8633 248.232 31.8639C248.232 31.8645 248.232 31.8652 248.232 31.8658C248.232 31.8664 248.232 31.8671 248.232 31.8677C248.232 31.8683 248.232 31.869 248.232 31.8696C248.232 31.8702 248.232 31.8709 248.232 31.8715C248.232 31.8721 248.232 31.8728 248.232 31.8734C248.232 31.874 248.232 31.8746 248.232 31.8753C248.232 31.8759 248.232 31.8765 248.232 31.8772C248.232 31.8778 248.232 31.8784 248.232 31.8791C248.232 31.8797 248.232 31.8803 248.232 31.8809C248.232 31.8816 248.232 31.8822 248.232 31.8828C248.232 31.8834 248.232 31.8841 248.232 31.8847C248.232 31.8853 248.232 31.886 248.232 31.8866C248.232 31.8872 248.232 31.8878 248.232 31.8885C248.232 31.8891 248.232 31.8897 248.232 31.8904C248.232 31.891 248.232 31.8916 248.232 31.8922C248.232 31.8929 248.232 31.8935 248.232 31.8941C248.232 31.8947 248.232 31.8954 248.232 31.896C248.232 31.8966 248.232 31.8972 248.232 31.8979C248.232 31.8985 248.232 31.8991 248.232 31.8997C248.232 31.9004 248.232 31.901 248.232 31.9016C248.232 31.9022 248.232 31.9029 248.232 31.9035C248.232 31.9041 248.232 31.9047 248.232 31.9053C248.232 31.906 248.232 31.9066 248.232 31.9072C248.232 31.9078 248.232 31.9085 248.232 31.9091C248.232 31.9097 248.232 31.9103 248.232 31.911C248.232 31.9116 248.232 31.9122 248.232 31.9128C248.232 31.9134 248.232 31.9141 248.232 31.9147C248.232 31.9153 248.232 31.9159 248.232 31.9165C248.232 31.9172 248.232 31.9178 248.232 31.9184C248.232 31.919 248.232 31.9197 248.232 31.9203C248.232 31.9209 248.232 31.9215 248.232 31.9221C248.232 31.9228 248.232 31.9234 248.232 31.924C248.232 31.9246 248.232 31.9252 248.232 31.9258C248.232 31.9265 248.232 31.9271 248.232 31.9277C248.232 31.9283 248.232 31.9289 248.232 31.9296C248.232 31.9302 248.232 31.9308 248.232 31.9314C248.232 31.932 248.232 31.9326 248.232 31.9333C248.232 31.9339 248.232 31.9345 248.232 31.9351C248.232 31.9357 248.232 31.9363 248.232 31.937C248.232 31.9376 248.232 31.9382 248.232 31.9388C248.232 31.9394 248.232 31.94 248.232 31.9407C248.232 31.9413 248.232 31.9419 248.232 31.9425C248.232 31.9431 248.232 31.9437 248.232 31.9444C248.232 31.945 248.232 31.9456 248.232 31.9462C248.232 31.9468 248.232 31.9474 248.232 31.948C248.232 31.9487 248.232 31.9493 248.232 31.9499C248.232 31.9505 248.232 31.9511 248.232 31.9517C248.232 31.9523 248.232 31.9529 248.232 31.9536C248.232 31.9542 248.232 31.9548 248.232 31.9554C248.232 31.956 248.232 31.9566 248.232 31.9572C248.232 31.9578 248.232 31.9585 248.232 31.9591C248.232 31.9597 248.232 31.9603 248.232 31.9609C248.232 31.9615 248.232 31.9621 248.232 31.9627C248.232 31.9634 248.232 31.964 248.232 31.9646C248.232 31.9652 248.232 31.9658 248.232 31.9664C248.232 31.967 248.232 31.9676 248.232 31.9682C248.232 31.9688 248.232 31.9695 248.232 31.9701C248.232 31.9707 248.232 31.9713 248.232 31.9719C248.232 31.9725 248.232 31.9731 248.232 31.9737C248.232 31.9743 248.232 31.9749 248.232 31.9755C248.232 31.9761 248.232 31.9768 248.232 31.9774C248.232 31.978 248.232 31.9786 248.232 31.9792C248.232 31.9798 248.232 31.9804 248.232 31.981C248.232 31.9816 248.232 31.9822 248.232 31.9828C248.232 31.9834 248.232 31.984 248.232 31.9846C248.232 31.9853 248.232 31.9859 248.232 31.9865C248.232 31.9871 248.232 31.9877 248.232 31.9883C248.232 31.9889 248.232 31.9895 248.232 31.9901C248.232 31.9907 248.232 31.9913 248.232 31.9919C248.232 31.9925 248.232 31.9931 248.232 31.9937C248.232 31.9943 248.232 31.9949 248.232 31.9955C248.232 31.9961 248.232 31.9967 248.232 31.9973C248.232 31.9979 248.232 31.9985 248.232 31.9992C248.232 31.9998 248.232 32.0004 248.232 32.001C248.232 32.0016 248.232 32.0022 248.232 32.0028C248.232 32.0034 248.232 32.004 248.232 32.0046C248.232 32.0052 248.232 32.0058 248.232 32.0064C248.232 32.007 248.232 32.0076 248.232 32.0082C248.232 32.0088 248.232 32.0094 248.232 32.01C248.232 32.0106 248.232 32.0112 248.232 32.0118C248.232 32.0124 248.232 32.013 248.232 32.0136C248.232 32.0142 248.232 32.0148 248.232 32.0154C248.232 32.016 248.232 32.0166 248.232 32.0172C248.232 32.0178 248.232 32.0184 248.232 32.019C248.232 32.0196 248.232 32.0202 248.232 32.0208C248.232 32.0214 248.232 32.022 248.232 32.0226C248.232 32.0232 248.232 32.0238 248.232 32.0244C248.232 32.0249 248.232 32.0255 248.232 32.0261C248.232 32.0267 248.232 32.0273 248.232 32.0279C248.232 32.0285 248.232 32.0291 248.232 32.0297C248.232 32.0303 248.232 32.0309 248.232 32.0315C248.232 32.0321 248.232 32.0327 248.232 32.0333C248.232 32.0339 248.232 32.0345 248.232 32.0351C248.232 32.0357 248.232 32.0363 248.232 32.0369C248.232 32.0375 248.232 32.0381 248.232 32.0386C248.232 32.0392 248.232 32.0398 248.232 32.0404C248.232 32.041 248.232 32.0416 248.232 32.0422C248.232 32.0428 248.232 32.0434 248.232 32.044C248.232 32.0446 248.232 32.0452 248.232 32.0458C248.232 32.0464 248.232 32.0469 248.232 32.0475C248.232 32.0481 248.232 32.0487 248.232 32.0493C248.232 32.0499 248.232 32.0505 248.232 32.0511C248.232 32.0517 248.232 32.0523 248.232 32.0529C248.232 32.0535 248.232 32.054 248.232 32.0546C248.232 32.0552 248.232 32.0558 248.232 32.0564C248.232 32.057 248.232 32.0576 248.232 32.0582C248.232 32.0588 248.232 32.0594 248.232 32.0599C248.232 32.0605 248.232 32.0611 248.232 32.0617C248.232 32.0623 248.232 32.0629 248.232 32.0635C248.232 32.0641 248.232 32.0647 248.232 32.0652C248.232 32.0658 248.232 32.0664 248.232 32.067C248.232 32.0676 248.232 32.0682 248.232 32.0688C248.232 32.0694 248.232 32.0699 248.232 32.0705C248.232 32.0711 248.232 32.0717 248.232 32.0723C248.232 32.0729 248.232 32.0735 248.232 32.074C248.232 32.0746 248.232 32.0752 248.232 32.0758C248.232 32.0764 248.232 32.077 248.232 32.0776C248.232 32.0781 248.232 32.0787 248.232 32.0793C248.232 32.0799 248.232 32.0805 248.232 32.0811C248.232 32.0816 248.232 32.0822 248.232 32.0828C248.232 32.0834 248.232 32.084 248.232 32.0846C248.232 32.0852 248.232 32.0857 248.232 32.0863C248.232 32.0869 248.232 32.0875 248.232 32.0881C248.232 32.0886 248.232 32.0892 248.232 32.0898C248.232 32.0904 248.232 32.091 248.232 32.0916C248.232 32.0921 248.232 32.0927 248.232 32.0933C248.232 32.0939 248.232 32.0945 248.232 32.095C248.232 32.0956 248.232 32.0962 248.232 32.0968C248.232 32.0974 248.232 32.098 248.232 32.0985C248.232 32.0991 248.232 32.0997 248.232 32.1003C248.232 32.1009 248.232 32.1014 248.232 32.102C248.232 32.1026 248.232 32.1032 248.232 32.1038C248.232 32.1043 248.232 32.1049 248.232 32.1055C248.232 32.1061 248.232 32.1066 248.232 32.1072C248.232 32.1078 248.232 32.1084 248.232 32.109C248.232 32.1095 248.232 32.1101 248.232 32.1107C248.232 32.1113 248.232 32.1118 248.232 32.1124C248.232 32.113 248.232 32.1136 248.232 32.1142C248.232 32.1147 248.232 32.1153 248.232 32.1159C248.232 32.1165 248.232 32.117 248.232 32.1176C248.232 32.1182 248.232 32.1188 248.232 32.1193C248.232 32.1199 248.232 32.1205 248.232 32.1211C248.232 32.1216 248.232 32.1222 248.232 32.1228C248.232 32.1234 248.232 32.1239 248.232 32.1245C248.232 32.1251 248.232 32.1257 248.232 32.1262C248.232 32.1268 248.232 32.1274 248.232 32.128C248.232 32.1285 248.232 32.1291 248.232 32.1297C248.232 32.1302 248.232 32.1308 248.232 32.1314C248.232 32.132 248.232 32.1325 248.232 32.1331C248.232 32.1337 248.232 32.1343 248.232 32.1348C248.232 32.1354 248.232 32.136 248.232 32.1365C248.232 32.1371 248.232 32.1377 248.232 32.1383C248.232 32.1388 248.232 32.1394 248.232 32.14C248.232 32.1405 248.232 32.1411 248.232 32.1417C248.232 32.1422 248.232 32.1428 248.232 32.1434C248.232 32.144 248.232 32.1445 248.232 32.1451C248.232 32.1457 248.232 32.1462 248.232 32.1468C248.232 32.1474 248.232 32.1479 248.232 32.1485C248.232 32.1491 248.232 32.1496 248.232 32.1502C248.232 32.1508 248.232 32.1514 248.232 32.1519C248.232 32.1525 248.232 32.1531 248.232 32.1536C248.232 32.1542 248.232 32.1548 248.232 32.1553C248.232 32.1559 248.232 32.1565 248.232 32.157C248.232 32.1576 248.232 32.1582 248.232 32.1587C248.232 32.1593 248.232 32.1599 248.232 32.1604C248.232 32.161 248.232 32.1616 248.232 32.1621C248.232 32.1627 248.232 32.1633 248.232 32.1638C248.232 32.1644 248.232 32.1649 248.232 32.1655C248.232 32.1661 248.232 32.1666 248.232 32.1672C248.232 32.1678 248.232 32.1683 248.232 32.1689C248.232 32.1695 248.232 32.17 248.232 32.1706C248.232 32.1712 248.232 32.1717 248.232 32.1723C248.232 32.1728 248.232 32.1734 248.232 32.174C248.232 32.1745 248.232 32.1751 248.232 32.1757C248.232 32.1762 248.232 32.1768 248.232 32.1773C248.232 32.1779 248.232 32.1785 248.232 32.179C248.232 32.1796 248.232 32.1801 248.232 32.1807C248.232 32.1813 248.232 32.1818 248.232 32.1824C248.232 32.1829 248.232 32.1835 248.232 32.1841C248.232 32.1846 248.232 32.1852 248.232 32.1857C248.232 32.1863 248.232 32.1869 248.232 32.1874C248.232 32.188 248.232 32.1885 248.232 32.1891C248.232 32.1897 248.232 32.1902 248.232 32.1908C248.232 32.1913 248.232 32.1919 248.232 32.1925C248.232 32.193 248.232 32.1936 248.232 32.1941C248.232 32.1947 248.232 32.1952 248.232 32.1958C248.232 32.1964 248.232 32.1969 248.232 32.1975C248.232 32.198 248.232 32.1986 248.232 32.1991C248.232 32.1997 248.232 32.2003 248.232 32.2008C248.232 32.2014 248.232 32.2019 248.232 32.2025C248.232 32.203 248.232 32.2036 248.232 32.2041C248.232 32.2047 248.232 32.2053 248.232 32.2058C248.232 32.2064 248.232 32.2069 248.232 32.2075C248.232 32.208 248.232 32.2086 248.232 32.2091C248.232 32.2097 248.232 32.2102 248.232 32.2108C248.232 32.2114 248.232 32.2119 248.232 32.2125C248.232 32.213 248.232 32.2136 248.232 32.2141C248.232 32.2147 248.232 32.2152 248.232 32.2158C248.232 32.2163 248.232 32.2169 248.232 32.2174C248.232 32.218 248.232 32.2185 248.232 32.2191C248.232 32.2196 248.232 32.2202 248.232 32.2207C248.232 32.2213 248.232 32.2219 248.232 32.2224C248.232 32.223 248.232 32.2235 248.232 32.2241C248.232 32.2246 248.232 32.2252 248.232 32.2257C248.232 32.2263 248.232 32.2268 248.232 32.2274C248.232 32.2279 248.232 32.2285 248.232 32.229C248.232 32.2296 248.232 32.2301 248.232 32.2307C248.232 32.2312 248.232 32.2317 248.232 32.2323C248.232 32.2328 248.232 32.2334 248.232 32.2339C248.232 32.2345 248.232 32.235 248.232 32.2356C248.232 32.2361 248.232 32.2367 248.232 32.2372C248.232 32.2378 248.232 32.2383 248.232 32.2389C248.232 32.2394 248.232 32.24 248.232 32.2405C248.232 32.2411 248.232 32.2416 248.232 32.2421C248.232 32.2427 248.232 32.2432 248.232 32.2438C248.232 32.2443 248.232 32.2449 248.232 32.2454C248.232 32.246 248.232 32.2465 248.232 32.2471C248.232 32.2476 248.232 32.2481 248.232 32.2487C248.232 32.2492 248.232 32.2498 248.232 32.2503C248.232 32.2509 248.232 32.2514 248.232 32.252C248.232 32.2525 248.232 32.253 248.232 32.2536C248.232 32.2541 248.232 32.2547 248.232 32.2552C248.232 32.2558 248.232 32.2563 248.232 32.2568C248.232 32.2574 248.232 32.2579 248.232 32.2585C248.232 32.259 248.232 32.2596 248.232 32.2601C248.232 32.2606 248.232 32.2612 248.232 32.2617C248.232 32.2623 248.232 32.2628 248.232 32.2633C248.232 32.2639 248.232 32.2644 248.232 32.265C248.232 32.2655 248.232 32.266 248.232 32.2666C248.232 32.2671 248.232 32.2677 248.232 32.2682C248.232 32.2687 248.232 32.2693 248.232 32.2698C248.232 32.2704 248.232 32.2709 248.232 32.2714C248.232 32.272 248.232 32.2725 248.232 32.2731C248.232 32.2736 248.232 32.2741 248.232 32.2747C248.232 32.2752 248.232 32.2757 248.232 32.2763C248.232 32.2768 248.232 32.2774 248.232 32.2779C248.232 32.2784 248.232 32.279 248.232 32.2795C248.232 32.28 248.232 32.2806 248.232 32.2811C248.232 32.2817 248.232 32.2822 248.232 32.2827C248.232 32.2833 248.232 32.2838 248.232 32.2843C248.232 32.2849 248.232 32.2854 248.232 32.2859C248.232 32.2865 248.232 32.287 248.232 32.2875C248.232 32.2881 248.232 32.2886 248.232 32.2892C248.232 32.2897 248.232 32.2902 248.232 32.2908C248.232 32.2913 248.232 32.2918 248.232 32.2924C248.232 32.2929 248.232 32.2934 248.232 32.294C248.232 32.2945 248.232 32.295 248.232 32.2956C248.232 32.2961 248.232 32.2966 248.232 32.2972C248.232 32.2977 248.232 32.2982 248.232 32.2987C248.232 32.2993 248.232 32.2998 248.232 32.3003C248.232 32.3009 248.232 32.3014 248.232 32.3019C248.232 32.3025 248.232 32.303 248.232 32.3035C248.232 32.3041 248.232 32.3046 248.232 32.3051C248.232 32.3057 248.232 32.3062 248.232 32.3067C248.232 32.3072 248.232 32.3078 248.232 32.3083C248.232 32.3088 248.232 32.3094 248.232 32.3099C248.232 32.3104 248.232 32.311 248.232 32.3115C248.232 32.312 248.232 32.3125 248.232 32.3131C248.232 32.3136 248.232 32.3141 248.232 32.3146C248.232 32.3152 248.232 32.3157 248.232 32.3162C248.232 32.3168 248.232 32.3173 248.232 32.3178C248.232 32.3183 248.232 32.3189 248.232 32.3194C248.232 32.3199 248.232 32.3204 248.232 32.321C248.232 32.3215 248.232 32.322 248.232 32.3226C248.232 32.3231 248.232 32.3236 248.232 32.3241C248.232 32.3247 248.232 32.3252 248.232 32.3257C248.232 32.3262 248.232 32.3268 248.232 32.3273C248.232 32.3278 248.232 32.3283 248.232 32.3289C248.232 32.3294 248.232 32.3299 248.232 32.3304C248.232 32.331 248.232 32.3315 248.232 32.332C248.232 32.3325 248.232 32.333 248.232 32.3336C248.232 32.3341 248.232 32.3346 248.232 32.3351C248.232 32.3357 248.232 32.3362 248.232 32.3367C248.232 32.3372 248.232 32.3378 248.232 32.3383C248.232 32.3388 248.232 32.3393 248.232 32.3398C248.232 32.3404 248.232 32.3409 248.232 32.3414C248.232 32.3419 248.232 32.3424 248.232 32.343C248.232 32.3435 248.232 32.344 248.232 32.3445C248.232 32.345 248.232 32.3456 248.232 32.3461C248.232 32.3466 248.232 32.3471 248.232 32.3476C248.232 32.3482 248.232 32.3487 248.232 32.3492C248.232 32.3497 248.232 32.3502 248.232 32.3508C248.232 32.3513 248.232 32.3518 248.232 32.3523C248.232 32.3528 248.232 32.3534 248.232 32.3539C248.232 32.3544 248.232 32.3549 248.232 32.3554C248.232 32.3559 248.232 32.3565 248.232 32.357C248.232 32.3575 248.232 32.358 248.232 32.3585C248.232 32.359 248.232 32.3596 248.232 32.3601C248.232 32.3606 248.232 32.3611 248.232 32.3616C248.232 32.3621 248.232 32.3627 248.232 32.3632C248.232 32.3637 248.232 32.3642 248.232 32.3647C248.232 32.3652 248.232 32.3657 248.232 32.3663C248.232 32.3668 248.232 32.3673 248.232 32.3678C248.232 32.3683 248.232 32.3688 248.232 32.3694C248.232 32.3699 248.232 32.3704 248.232 32.3709C248.232 32.3714 248.232 32.3719 248.232 32.3724C248.232 32.3729 248.232 32.3735 248.232 32.374C248.232 32.3745 248.232 32.375 248.232 32.3755C248.232 32.376 248.232 32.3765 248.232 32.377C248.232 32.3776 248.232 32.3781 248.232 32.3786C248.232 32.3791 248.232 32.3796 248.232 32.3801C248.232 32.3806 248.232 32.3811 248.232 32.3816C248.232 32.3822 248.232 32.3827 248.232 32.3832C248.232 32.3837 248.232 32.3842 248.232 32.3847C248.232 32.3852 248.232 32.3857 248.232 32.3862C248.232 32.3867 248.232 32.3873 248.232 32.3878C248.232 32.3883 248.232 32.3888 248.232 32.3893C248.232 32.3898 248.232 32.3903 248.232 32.3908C248.232 32.3913 248.232 32.3918 248.232 32.3923C248.232 32.3928 248.232 32.3934 248.232 32.3939C248.232 32.3944 248.232 32.3949 248.232 32.3954C248.232 32.3959 248.232 32.3964 248.232 32.3969C248.232 32.3974 248.232 32.3979 248.232 32.3984C248.232 32.3989 248.232 32.3994 248.232 32.3999C248.232 32.4004 248.232 32.401 248.232 32.4015C248.232 32.402 248.232 32.4025 248.232 32.403C248.232 32.4035 248.232 32.404 248.232 32.4045C248.232 32.405 248.232 32.4055 248.232 32.406C248.232 32.4065 248.232 32.407 248.232 32.4075C248.232 32.408 248.232 32.4085 248.232 32.409C248.232 32.4095 248.232 32.41 248.232 32.4105C248.232 32.411 248.232 32.4115 248.232 32.412C248.232 32.4125 248.232 32.413 248.232 32.4136C248.232 32.4141 248.232 32.4146 248.232 32.4151C248.232 32.4156 248.232 32.4161 248.232 32.4166C248.232 32.4171 248.232 32.4176 248.232 32.4181C248.232 32.4186 248.232 32.4191 248.232 32.4196C248.232 32.4201 248.232 32.4206 248.232 32.4211C248.232 32.4216 248.232 32.4221 248.232 32.4226C248.232 32.4231 248.232 32.4236 248.232 32.4241C248.232 32.4246 248.232 32.4251 248.232 32.4256C248.232 32.4261 248.232 32.4266 248.232 32.4271C248.232 32.4276 248.232 32.4281 248.232 32.4286C248.232 32.4291 248.232 32.4296 248.232 32.4301C248.232 32.4306 248.232 32.431 248.232 32.4315C248.232 32.432 248.232 32.4325 248.232 32.433C248.232 32.4335 248.232 32.434 248.232 32.4345C248.232 32.435 248.232 32.4355 248.232 32.436C248.232 32.4365 248.232 32.437 248.232 32.4375C248.232 32.438 248.232 32.4385 248.232 32.439C248.232 32.4395 248.232 32.44 248.232 32.4405C248.232 32.441 248.232 32.4415 248.232 32.442C248.232 32.4425 248.232 32.443 248.232 32.4434C248.232 32.4439 248.232 32.4444 248.232 32.4449C248.232 32.4454 248.232 32.4459 248.232 32.4464C248.232 32.4469 248.232 32.4474 248.232 32.4479C248.232 32.4484 248.232 32.4489 248.232 32.4494C248.232 32.4499 248.232 32.4504 248.232 32.4508C248.232 32.4513 248.232 32.4518 248.232 32.4523C248.232 32.4528 248.232 32.4533 248.232 32.4538C248.232 32.4543 248.232 32.4548 248.232 32.4553C248.232 32.4558 248.232 32.4562 248.232 32.4567C248.232 32.4572 248.232 32.4577 248.232 32.4582C248.232 32.4587 248.232 32.4592 248.232 32.4597C248.232 32.4602 248.232 32.4607 248.232 32.4611C248.232 32.4616 248.232 32.4621 248.232 32.4626C248.232 32.4631 248.232 32.4636 248.232 32.4641C248.232 32.4646 248.232 32.4651 248.232 32.4655C248.232 32.466 248.232 32.4665 248.232 32.467C248.232 32.4675 248.232 32.468 248.232 32.4685C248.232 32.469 248.232 32.4694 248.232 32.4699C248.232 32.4704 248.232 32.4709 248.232 32.4714C248.232 32.4719 248.232 32.4724 248.232 32.4729C248.232 32.4733 248.232 32.4738 248.232 32.4743C248.232 32.4748 248.232 32.4753 248.232 32.4758C248.232 32.4763 248.232 32.4767 248.232 32.4772C248.232 32.4777 248.232 32.4782 248.232 32.4787C248.232 32.4792 248.232 32.4796 248.232 32.4801C248.232 32.4806 248.232 32.4811 248.232 32.4816C248.232 32.4821 248.232 32.4826 248.232 32.483C248.232 32.4835 248.232 32.484 248.232 32.4845C248.232 32.485 248.232 32.4855 248.232 32.4859C248.232 32.4864 248.232 32.4869 248.232 32.4874C248.232 32.4879 248.232 32.4883 248.232 32.4888C248.232 32.4893 248.232 32.4898 248.232 32.4903C248.232 32.4908 248.232 32.4912 248.232 32.4917C248.232 32.4922 248.232 32.4927 248.232 32.4932C248.232 32.4936 248.232 32.4941 248.232 32.4946C248.232 32.4951 248.232 32.4956 248.232 32.496C248.232 32.4965 248.232 32.497 248.232 32.4975C248.232 32.498 248.232 32.4984 248.232 32.4989C248.232 32.4994 248.232 32.4999 248.232 32.5003C248.232 32.5008 248.232 32.5013 248.232 32.5018C248.232 32.5023 248.232 32.5027 248.232 32.5032C248.232 32.5037 248.232 32.5042 248.232 32.5047C248.232 32.5051 248.232 32.5056 248.232 32.5061C248.232 32.5066 248.232 32.507 248.232 32.5075C248.232 32.508 248.232 32.5085 248.232 32.5089C248.232 32.5094 248.232 32.5099 248.232 32.5104C248.232 32.5108 248.232 32.5113 248.232 32.5118C248.232 32.5123 248.232 32.5127 248.232 32.5132C248.232 32.5137 248.232 32.5142 248.232 32.5146C248.232 32.5151 248.232 32.5156 248.232 32.5161C248.232 32.5165 248.232 32.517 248.232 32.5175C248.232 32.518 248.232 32.5184 248.232 32.5189C248.232 32.5194 248.232 32.5199 248.232 32.5203C248.232 32.5208 248.232 32.5213 248.232 32.5217C248.232 32.5222 248.232 32.5227 248.232 32.5232C248.232 32.5236 248.232 32.5241 248.232 32.5246C248.232 32.525 248.232 32.5255 248.232 32.526C248.232 32.5265 248.232 32.5269 248.232 32.5274C248.232 32.5279 248.232 32.5283 248.232 32.5288C248.232 32.5293 248.232 32.5298 248.232 32.5302C248.232 32.5307 248.232 32.5312 248.232 32.5316C248.232 32.5321 248.232 32.5326 248.232 32.533C248.232 32.5335 248.232 32.534 248.232 32.5345C248.232 32.5349 248.232 32.5354 248.232 32.5359C248.232 32.5363 248.232 32.5368 248.232 32.5373C248.232 32.5377 248.232 32.5382 248.232 32.5387C248.232 32.5391 248.232 32.5396 248.232 32.5401C248.232 32.5405 248.232 32.541 248.232 32.5415C248.232 32.5419 248.232 32.5424 248.232 32.5429C248.232 32.5433 248.232 32.5438 248.232 32.5443C248.232 32.5447 248.232 32.5452 248.232 32.5457C248.232 32.5461 248.232 32.5466 248.232 32.5471C248.232 32.5475 248.232 32.548 248.232 32.5485C248.232 32.5489 248.232 32.5494 248.232 32.5499C248.232 32.5503 248.232 32.5508 248.232 32.5512C248.232 32.5517 248.232 32.5522 248.232 32.5526C248.232 32.5531 248.232 32.5536 248.232 32.554C248.232 32.5545 248.232 32.555 248.232 32.5554C248.232 32.5559 248.232 32.5563 248.232 32.5568C248.232 32.5573 248.232 32.5577 248.232 32.5582C248.232 32.5587 248.232 32.5591 248.232 32.5596C248.232 32.56 248.232 32.5605 248.232 32.561C248.232 32.5614 248.232 32.5619 248.232 32.5623C248.232 32.5628 248.232 32.5633 248.232 32.5637C248.232 32.5642 248.232 32.5646 248.232 32.5651C248.232 32.5656 248.232 32.566 248.232 32.5665C248.232 32.5669 248.232 32.5674 248.232 32.5679C248.232 32.5683 248.232 32.5688 248.232 32.5692C248.232 32.5697 248.232 32.5702 248.232 32.5706C248.232 32.5711 248.232 32.5715 248.232 32.572C248.232 32.5724 248.232 32.5729 248.232 32.5734C248.232 32.5738 248.232 32.5743 248.232 32.5747C248.232 32.5752 248.232 32.5757 248.232 32.5761C248.232 32.5766 248.232 32.577 248.232 32.5775C248.232 32.5779 248.232 32.5784 248.232 32.5788C248.232 32.5793 248.232 32.5798 248.232 32.5802C248.232 32.5807 248.232 32.5811 248.232 32.5816C248.232 32.582 248.232 32.5825 248.232 32.5829C248.232 32.5834 248.232 32.5839 248.232 32.5843C248.232 32.5848 248.232 32.5852 248.232 32.5857C248.232 32.5861 248.232 32.5866 248.232 32.587C248.232 32.5875 248.232 32.5879 248.232 32.5884C248.232 32.5888 248.232 32.5893 248.232 32.5898C248.232 32.5902 248.232 32.5907 248.232 32.5911C248.232 32.5916 248.232 32.592 248.232 32.5925C248.232 32.5929 248.232 32.5934 248.232 32.5938C248.232 32.5943 248.232 32.5947 248.232 32.5952C248.232 32.5956 248.232 32.5961 248.232 32.5965C248.232 32.597 248.232 32.5974 248.232 32.5979C248.232 32.5983 248.232 32.5988 248.232 32.5992C248.232 32.5997 248.232 32.6001 248.232 32.6006C248.232 32.601 248.232 32.6015 248.232 32.6019C248.232 32.6024 248.232 32.6028 248.232 32.6033C248.232 32.6037 248.232 32.6042 248.232 32.6046C248.232 32.6051 248.232 32.6055 248.232 32.606C248.232 32.6064 248.232 32.6069 248.232 32.6073C248.232 32.6078 248.232 32.6082 248.232 32.6086C248.232 32.6091 248.232 32.6095 248.232 32.61C248.232 32.6104 248.232 32.6109 248.232 32.6113H250.232C250.232 32.6109 250.232 32.6104 250.232 32.61C250.232 32.6095 250.232 32.6091 250.232 32.6086C250.232 32.6082 250.232 32.6078 250.232 32.6073C250.232 32.6069 250.232 32.6064 250.232 32.606C250.232 32.6055 250.232 32.6051 250.232 32.6046C250.232 32.6042 250.232 32.6037 250.232 32.6033C250.232 32.6028 250.232 32.6024 250.232 32.6019C250.232 32.6015 250.232 32.601 250.232 32.6006C250.232 32.6001 250.232 32.5997 250.232 32.5992C250.232 32.5988 250.232 32.5983 250.232 32.5979C250.232 32.5974 250.232 32.597 250.232 32.5965C250.232 32.5961 250.232 32.5956 250.232 32.5952C250.232 32.5947 250.232 32.5943 250.232 32.5938C250.232 32.5934 250.232 32.5929 250.232 32.5925C250.232 32.592 250.232 32.5916 250.232 32.5911C250.232 32.5907 250.232 32.5902 250.232 32.5898C250.232 32.5893 250.232 32.5888 250.232 32.5884C250.232 32.5879 250.232 32.5875 250.232 32.587C250.232 32.5866 250.232 32.5861 250.232 32.5857C250.232 32.5852 250.232 32.5848 250.232 32.5843C250.232 32.5839 250.232 32.5834 250.232 32.5829C250.232 32.5825 250.232 32.582 250.232 32.5816C250.232 32.5811 250.232 32.5807 250.232 32.5802C250.232 32.5798 250.232 32.5793 250.232 32.5788C250.232 32.5784 250.232 32.5779 250.232 32.5775C250.232 32.577 250.232 32.5766 250.232 32.5761C250.232 32.5757 250.232 32.5752 250.232 32.5747C250.232 32.5743 250.232 32.5738 250.232 32.5734C250.232 32.5729 250.232 32.5724 250.232 32.572C250.232 32.5715 250.232 32.5711 250.232 32.5706C250.232 32.5702 250.232 32.5697 250.232 32.5692C250.232 32.5688 250.232 32.5683 250.232 32.5679C250.232 32.5674 250.232 32.5669 250.232 32.5665C250.232 32.566 250.232 32.5656 250.232 32.5651C250.232 32.5646 250.232 32.5642 250.232 32.5637C250.232 32.5633 250.232 32.5628 250.232 32.5623C250.232 32.5619 250.232 32.5614 250.232 32.561C250.232 32.5605 250.232 32.56 250.232 32.5596C250.232 32.5591 250.232 32.5587 250.232 32.5582C250.232 32.5577 250.232 32.5573 250.232 32.5568C250.232 32.5563 250.232 32.5559 250.232 32.5554C250.232 32.555 250.232 32.5545 250.232 32.554C250.232 32.5536 250.232 32.5531 250.232 32.5526C250.232 32.5522 250.232 32.5517 250.232 32.5512C250.232 32.5508 250.232 32.5503 250.232 32.5499C250.232 32.5494 250.232 32.5489 250.232 32.5485C250.232 32.548 250.232 32.5475 250.232 32.5471C250.232 32.5466 250.232 32.5461 250.232 32.5457C250.232 32.5452 250.232 32.5447 250.232 32.5443C250.232 32.5438 250.232 32.5433 250.232 32.5429C250.232 32.5424 250.232 32.5419 250.232 32.5415C250.232 32.541 250.232 32.5405 250.232 32.5401C250.232 32.5396 250.232 32.5391 250.232 32.5387C250.232 32.5382 250.232 32.5377 250.232 32.5373C250.232 32.5368 250.232 32.5363 250.232 32.5359C250.232 32.5354 250.232 32.5349 250.232 32.5345C250.232 32.534 250.232 32.5335 250.232 32.533C250.232 32.5326 250.232 32.5321 250.232 32.5316C250.232 32.5312 250.232 32.5307 250.232 32.5302C250.232 32.5298 250.232 32.5293 250.232 32.5288C250.232 32.5283 250.232 32.5279 250.232 32.5274C250.232 32.5269 250.232 32.5265 250.232 32.526C250.232 32.5255 250.232 32.525 250.232 32.5246C250.232 32.5241 250.232 32.5236 250.232 32.5232C250.232 32.5227 250.232 32.5222 250.232 32.5217C250.232 32.5213 250.232 32.5208 250.232 32.5203C250.232 32.5199 250.232 32.5194 250.232 32.5189C250.232 32.5184 250.232 32.518 250.232 32.5175C250.232 32.517 250.232 32.5165 250.232 32.5161C250.232 32.5156 250.232 32.5151 250.232 32.5146C250.232 32.5142 250.232 32.5137 250.232 32.5132C250.232 32.5127 250.232 32.5123 250.232 32.5118C250.232 32.5113 250.232 32.5108 250.232 32.5104C250.232 32.5099 250.232 32.5094 250.232 32.5089C250.232 32.5085 250.232 32.508 250.232 32.5075C250.232 32.507 250.232 32.5066 250.232 32.5061C250.232 32.5056 250.232 32.5051 250.232 32.5047C250.232 32.5042 250.232 32.5037 250.232 32.5032C250.232 32.5027 250.232 32.5023 250.232 32.5018C250.232 32.5013 250.232 32.5008 250.232 32.5003C250.232 32.4999 250.232 32.4994 250.232 32.4989C250.232 32.4984 250.232 32.498 250.232 32.4975C250.232 32.497 250.232 32.4965 250.232 32.496C250.232 32.4956 250.232 32.4951 250.232 32.4946C250.232 32.4941 250.232 32.4936 250.232 32.4932C250.232 32.4927 250.232 32.4922 250.232 32.4917C250.232 32.4912 250.232 32.4908 250.232 32.4903C250.232 32.4898 250.232 32.4893 250.232 32.4888C250.232 32.4883 250.232 32.4879 250.232 32.4874C250.232 32.4869 250.232 32.4864 250.232 32.4859C250.232 32.4855 250.232 32.485 250.232 32.4845C250.232 32.484 250.232 32.4835 250.232 32.483C250.232 32.4826 250.232 32.4821 250.232 32.4816C250.232 32.4811 250.232 32.4806 250.232 32.4801C250.232 32.4796 250.232 32.4792 250.232 32.4787C250.232 32.4782 250.232 32.4777 250.232 32.4772C250.232 32.4767 250.232 32.4763 250.232 32.4758C250.232 32.4753 250.232 32.4748 250.232 32.4743C250.232 32.4738 250.232 32.4733 250.232 32.4729C250.232 32.4724 250.232 32.4719 250.232 32.4714C250.232 32.4709 250.232 32.4704 250.232 32.4699C250.232 32.4694 250.232 32.469 250.232 32.4685C250.232 32.468 250.232 32.4675 250.232 32.467C250.232 32.4665 250.232 32.466 250.232 32.4655C250.232 32.4651 250.232 32.4646 250.232 32.4641C250.232 32.4636 250.232 32.4631 250.232 32.4626C250.232 32.4621 250.232 32.4616 250.232 32.4611C250.232 32.4607 250.232 32.4602 250.232 32.4597C250.232 32.4592 250.232 32.4587 250.232 32.4582C250.232 32.4577 250.232 32.4572 250.232 32.4567C250.232 32.4562 250.232 32.4558 250.232 32.4553C250.232 32.4548 250.232 32.4543 250.232 32.4538C250.232 32.4533 250.232 32.4528 250.232 32.4523C250.232 32.4518 250.232 32.4513 250.232 32.4508C250.232 32.4504 250.232 32.4499 250.232 32.4494C250.232 32.4489 250.232 32.4484 250.232 32.4479C250.232 32.4474 250.232 32.4469 250.232 32.4464C250.232 32.4459 250.232 32.4454 250.232 32.4449C250.232 32.4444 250.232 32.4439 250.232 32.4434C250.232 32.443 250.232 32.4425 250.232 32.442C250.232 32.4415 250.232 32.441 250.232 32.4405C250.232 32.44 250.232 32.4395 250.232 32.439C250.232 32.4385 250.232 32.438 250.232 32.4375C250.232 32.437 250.232 32.4365 250.232 32.436C250.232 32.4355 250.232 32.435 250.232 32.4345C250.232 32.434 250.232 32.4335 250.232 32.433C250.232 32.4325 250.232 32.432 250.232 32.4315C250.232 32.431 250.232 32.4306 250.232 32.4301C250.232 32.4296 250.232 32.4291 250.232 32.4286C250.232 32.4281 250.232 32.4276 250.232 32.4271C250.232 32.4266 250.232 32.4261 250.232 32.4256C250.232 32.4251 250.232 32.4246 250.232 32.4241C250.232 32.4236 250.232 32.4231 250.232 32.4226C250.232 32.4221 250.232 32.4216 250.232 32.4211C250.232 32.4206 250.232 32.4201 250.232 32.4196C250.232 32.4191 250.232 32.4186 250.232 32.4181C250.232 32.4176 250.232 32.4171 250.232 32.4166C250.232 32.4161 250.232 32.4156 250.232 32.4151C250.232 32.4146 250.232 32.4141 250.232 32.4136C250.232 32.413 250.232 32.4125 250.232 32.412C250.232 32.4115 250.232 32.411 250.232 32.4105C250.232 32.41 250.232 32.4095 250.232 32.409C250.232 32.4085 250.232 32.408 250.232 32.4075C250.232 32.407 250.232 32.4065 250.232 32.406C250.232 32.4055 250.232 32.405 250.232 32.4045C250.232 32.404 250.232 32.4035 250.232 32.403C250.232 32.4025 250.232 32.402 250.232 32.4015C250.232 32.401 250.232 32.4004 250.232 32.3999C250.232 32.3994 250.232 32.3989 250.232 32.3984C250.232 32.3979 250.232 32.3974 250.232 32.3969C250.232 32.3964 250.232 32.3959 250.232 32.3954C250.232 32.3949 250.232 32.3944 250.232 32.3939C250.232 32.3934 250.232 32.3928 250.232 32.3923C250.232 32.3918 250.232 32.3913 250.232 32.3908C250.232 32.3903 250.232 32.3898 250.232 32.3893C250.232 32.3888 250.232 32.3883 250.232 32.3878C250.232 32.3873 250.232 32.3867 250.232 32.3862C250.232 32.3857 250.232 32.3852 250.232 32.3847C250.232 32.3842 250.232 32.3837 250.232 32.3832C250.232 32.3827 250.232 32.3822 250.232 32.3816C250.232 32.3811 250.232 32.3806 250.232 32.3801C250.232 32.3796 250.232 32.3791 250.232 32.3786C250.232 32.3781 250.232 32.3776 250.232 32.377C250.232 32.3765 250.232 32.376 250.232 32.3755C250.232 32.375 250.232 32.3745 250.232 32.374C250.232 32.3735 250.232 32.3729 250.232 32.3724C250.232 32.3719 250.232 32.3714 250.232 32.3709C250.232 32.3704 250.232 32.3699 250.232 32.3694C250.232 32.3688 250.232 32.3683 250.232 32.3678C250.232 32.3673 250.232 32.3668 250.232 32.3663C250.232 32.3657 250.232 32.3652 250.232 32.3647C250.232 32.3642 250.232 32.3637 250.232 32.3632C250.232 32.3627 250.232 32.3621 250.232 32.3616C250.232 32.3611 250.232 32.3606 250.232 32.3601C250.232 32.3596 250.232 32.359 250.232 32.3585C250.232 32.358 250.232 32.3575 250.232 32.357C250.232 32.3565 250.232 32.3559 250.232 32.3554C250.232 32.3549 250.232 32.3544 250.232 32.3539C250.232 32.3534 250.232 32.3528 250.232 32.3523C250.232 32.3518 250.232 32.3513 250.232 32.3508C250.232 32.3502 250.232 32.3497 250.232 32.3492C250.232 32.3487 250.232 32.3482 250.232 32.3476C250.232 32.3471 250.232 32.3466 250.232 32.3461C250.232 32.3456 250.232 32.345 250.232 32.3445C250.232 32.344 250.232 32.3435 250.232 32.343C250.232 32.3424 250.232 32.3419 250.232 32.3414C250.232 32.3409 250.232 32.3404 250.232 32.3398C250.232 32.3393 250.232 32.3388 250.232 32.3383C250.232 32.3378 250.232 32.3372 250.232 32.3367C250.232 32.3362 250.232 32.3357 250.232 32.3351C250.232 32.3346 250.232 32.3341 250.232 32.3336C250.232 32.333 250.232 32.3325 250.232 32.332C250.232 32.3315 250.232 32.331 250.232 32.3304C250.232 32.3299 250.232 32.3294 250.232 32.3289C250.232 32.3283 250.232 32.3278 250.232 32.3273C250.232 32.3268 250.232 32.3262 250.232 32.3257C250.232 32.3252 250.232 32.3247 250.232 32.3241C250.232 32.3236 250.232 32.3231 250.232 32.3226C250.232 32.322 250.232 32.3215 250.232 32.321C250.232 32.3204 250.232 32.3199 250.232 32.3194C250.232 32.3189 250.232 32.3183 250.232 32.3178C250.232 32.3173 250.232 32.3168 250.232 32.3162C250.232 32.3157 250.232 32.3152 250.232 32.3146C250.232 32.3141 250.232 32.3136 250.232 32.3131C250.232 32.3125 250.232 32.312 250.232 32.3115C250.232 32.311 250.232 32.3104 250.232 32.3099C250.232 32.3094 250.232 32.3088 250.232 32.3083C250.232 32.3078 250.232 32.3072 250.232 32.3067C250.232 32.3062 250.232 32.3057 250.232 32.3051C250.232 32.3046 250.232 32.3041 250.232 32.3035C250.232 32.303 250.232 32.3025 250.232 32.3019C250.232 32.3014 250.232 32.3009 250.232 32.3003C250.232 32.2998 250.232 32.2993 250.232 32.2987C250.232 32.2982 250.232 32.2977 250.232 32.2972C250.232 32.2966 250.232 32.2961 250.232 32.2956C250.232 32.295 250.232 32.2945 250.232 32.294C250.232 32.2934 250.232 32.2929 250.232 32.2924C250.232 32.2918 250.232 32.2913 250.232 32.2908C250.232 32.2902 250.232 32.2897 250.232 32.2892C250.232 32.2886 250.232 32.2881 250.232 32.2875C250.232 32.287 250.232 32.2865 250.232 32.2859C250.232 32.2854 250.232 32.2849 250.232 32.2843C250.232 32.2838 250.232 32.2833 250.232 32.2827C250.232 32.2822 250.232 32.2817 250.232 32.2811C250.232 32.2806 250.232 32.28 250.232 32.2795C250.232 32.279 250.232 32.2784 250.232 32.2779C250.232 32.2774 250.232 32.2768 250.232 32.2763C250.232 32.2757 250.232 32.2752 250.232 32.2747C250.232 32.2741 250.232 32.2736 250.232 32.2731C250.232 32.2725 250.232 32.272 250.232 32.2714C250.232 32.2709 250.232 32.2704 250.232 32.2698C250.232 32.2693 250.232 32.2687 250.232 32.2682C250.232 32.2677 250.232 32.2671 250.232 32.2666C250.232 32.266 250.232 32.2655 250.232 32.265C250.232 32.2644 250.232 32.2639 250.232 32.2633C250.232 32.2628 250.232 32.2623 250.232 32.2617C250.232 32.2612 250.232 32.2606 250.232 32.2601C250.232 32.2596 250.232 32.259 250.232 32.2585C250.232 32.2579 250.232 32.2574 250.232 32.2568C250.232 32.2563 250.232 32.2558 250.232 32.2552C250.232 32.2547 250.232 32.2541 250.232 32.2536C250.232 32.253 250.232 32.2525 250.232 32.252C250.232 32.2514 250.232 32.2509 250.232 32.2503C250.232 32.2498 250.232 32.2492 250.232 32.2487C250.232 32.2481 250.232 32.2476 250.232 32.2471C250.232 32.2465 250.232 32.246 250.232 32.2454C250.232 32.2449 250.232 32.2443 250.232 32.2438C250.232 32.2432 250.232 32.2427 250.232 32.2421C250.232 32.2416 250.232 32.2411 250.232 32.2405C250.232 32.24 250.232 32.2394 250.232 32.2389C250.232 32.2383 250.232 32.2378 250.232 32.2372C250.232 32.2367 250.232 32.2361 250.232 32.2356C250.232 32.235 250.232 32.2345 250.232 32.2339C250.232 32.2334 250.232 32.2328 250.232 32.2323C250.232 32.2317 250.232 32.2312 250.232 32.2307C250.232 32.2301 250.232 32.2296 250.232 32.229C250.232 32.2285 250.232 32.2279 250.232 32.2274C250.232 32.2268 250.232 32.2263 250.232 32.2257C250.232 32.2252 250.232 32.2246 250.232 32.2241C250.232 32.2235 250.232 32.223 250.232 32.2224C250.232 32.2219 250.232 32.2213 250.232 32.2207C250.232 32.2202 250.232 32.2196 250.232 32.2191C250.232 32.2185 250.232 32.218 250.232 32.2174C250.232 32.2169 250.232 32.2163 250.232 32.2158C250.232 32.2152 250.232 32.2147 250.232 32.2141C250.232 32.2136 250.232 32.213 250.232 32.2125C250.232 32.2119 250.232 32.2114 250.232 32.2108C250.232 32.2102 250.232 32.2097 250.232 32.2091C250.232 32.2086 250.232 32.208 250.232 32.2075C250.232 32.2069 250.232 32.2064 250.232 32.2058C250.232 32.2053 250.232 32.2047 250.232 32.2041C250.232 32.2036 250.232 32.203 250.232 32.2025C250.232 32.2019 250.232 32.2014 250.232 32.2008C250.232 32.2003 250.232 32.1997 250.232 32.1991C250.232 32.1986 250.232 32.198 250.232 32.1975C250.232 32.1969 250.232 32.1964 250.232 32.1958C250.232 32.1952 250.232 32.1947 250.232 32.1941C250.232 32.1936 250.232 32.193 250.232 32.1925C250.232 32.1919 250.232 32.1913 250.232 32.1908C250.232 32.1902 250.232 32.1897 250.232 32.1891C250.232 32.1885 250.232 32.188 250.232 32.1874C250.232 32.1869 250.232 32.1863 250.232 32.1857C250.232 32.1852 250.232 32.1846 250.232 32.1841C250.232 32.1835 250.232 32.1829 250.232 32.1824C250.232 32.1818 250.232 32.1813 250.232 32.1807C250.232 32.1801 250.232 32.1796 250.232 32.179C250.232 32.1785 250.232 32.1779 250.232 32.1773C250.232 32.1768 250.232 32.1762 250.232 32.1757C250.232 32.1751 250.232 32.1745 250.232 32.174C250.232 32.1734 250.232 32.1728 250.232 32.1723C250.232 32.1717 250.232 32.1712 250.232 32.1706C250.232 32.17 250.232 32.1695 250.232 32.1689C250.232 32.1683 250.232 32.1678 250.232 32.1672C250.232 32.1666 250.232 32.1661 250.232 32.1655C250.232 32.1649 250.232 32.1644 250.232 32.1638C250.232 32.1633 250.232 32.1627 250.232 32.1621C250.232 32.1616 250.232 32.161 250.232 32.1604C250.232 32.1599 250.232 32.1593 250.232 32.1587C250.232 32.1582 250.232 32.1576 250.232 32.157C250.232 32.1565 250.232 32.1559 250.232 32.1553C250.232 32.1548 250.232 32.1542 250.232 32.1536C250.232 32.1531 250.232 32.1525 250.232 32.1519C250.232 32.1514 250.232 32.1508 250.232 32.1502C250.232 32.1496 250.232 32.1491 250.232 32.1485C250.232 32.1479 250.232 32.1474 250.232 32.1468C250.232 32.1462 250.232 32.1457 250.232 32.1451C250.232 32.1445 250.232 32.144 250.232 32.1434C250.232 32.1428 250.232 32.1422 250.232 32.1417C250.232 32.1411 250.232 32.1405 250.232 32.14C250.232 32.1394 250.232 32.1388 250.232 32.1383C250.232 32.1377 250.232 32.1371 250.232 32.1365C250.232 32.136 250.232 32.1354 250.232 32.1348C250.232 32.1343 250.232 32.1337 250.232 32.1331C250.232 32.1325 250.232 32.132 250.232 32.1314C250.232 32.1308 250.232 32.1302 250.232 32.1297C250.232 32.1291 250.232 32.1285 250.232 32.128C250.232 32.1274 250.232 32.1268 250.232 32.1262C250.232 32.1257 250.232 32.1251 250.232 32.1245C250.232 32.1239 250.232 32.1234 250.232 32.1228C250.232 32.1222 250.232 32.1216 250.232 32.1211C250.232 32.1205 250.232 32.1199 250.232 32.1193C250.232 32.1188 250.232 32.1182 250.232 32.1176C250.232 32.117 250.232 32.1165 250.232 32.1159C250.232 32.1153 250.232 32.1147 250.232 32.1142C250.232 32.1136 250.232 32.113 250.232 32.1124C250.232 32.1118 250.232 32.1113 250.232 32.1107C250.232 32.1101 250.232 32.1095 250.232 32.109C250.232 32.1084 250.232 32.1078 250.232 32.1072C250.232 32.1066 250.232 32.1061 250.232 32.1055C250.232 32.1049 250.232 32.1043 250.232 32.1038C250.232 32.1032 250.232 32.1026 250.232 32.102C250.232 32.1014 250.232 32.1009 250.232 32.1003C250.232 32.0997 250.232 32.0991 250.232 32.0985C250.232 32.098 250.232 32.0974 250.232 32.0968C250.232 32.0962 250.232 32.0956 250.232 32.095C250.232 32.0945 250.232 32.0939 250.232 32.0933C250.232 32.0927 250.232 32.0921 250.232 32.0916C250.232 32.091 250.232 32.0904 250.232 32.0898C250.232 32.0892 250.232 32.0886 250.232 32.0881C250.232 32.0875 250.232 32.0869 250.232 32.0863C250.232 32.0857 250.232 32.0852 250.232 32.0846C250.232 32.084 250.232 32.0834 250.232 32.0828C250.232 32.0822 250.232 32.0816 250.232 32.0811C250.232 32.0805 250.232 32.0799 250.232 32.0793C250.232 32.0787 250.232 32.0781 250.232 32.0776C250.232 32.077 250.232 32.0764 250.232 32.0758C250.232 32.0752 250.232 32.0746 250.232 32.074C250.232 32.0735 250.232 32.0729 250.232 32.0723C250.232 32.0717 250.232 32.0711 250.232 32.0705C250.232 32.0699 250.232 32.0694 250.232 32.0688C250.232 32.0682 250.232 32.0676 250.232 32.067C250.232 32.0664 250.232 32.0658 250.232 32.0652C250.232 32.0647 250.232 32.0641 250.232 32.0635C250.232 32.0629 250.232 32.0623 250.232 32.0617C250.232 32.0611 250.232 32.0605 250.232 32.0599C250.232 32.0594 250.232 32.0588 250.232 32.0582C250.232 32.0576 250.232 32.057 250.232 32.0564C250.232 32.0558 250.232 32.0552 250.232 32.0546C250.232 32.054 250.232 32.0535 250.232 32.0529C250.232 32.0523 250.232 32.0517 250.232 32.0511C250.232 32.0505 250.232 32.0499 250.232 32.0493C250.232 32.0487 250.232 32.0481 250.232 32.0475C250.232 32.0469 250.232 32.0464 250.232 32.0458C250.232 32.0452 250.232 32.0446 250.232 32.044C250.232 32.0434 250.232 32.0428 250.232 32.0422C250.232 32.0416 250.232 32.041 250.232 32.0404C250.232 32.0398 250.232 32.0392 250.232 32.0386C250.232 32.0381 250.232 32.0375 250.232 32.0369C250.232 32.0363 250.232 32.0357 250.232 32.0351C250.232 32.0345 250.232 32.0339 250.232 32.0333C250.232 32.0327 250.232 32.0321 250.232 32.0315C250.232 32.0309 250.232 32.0303 250.232 32.0297C250.232 32.0291 250.232 32.0285 250.232 32.0279C250.232 32.0273 250.232 32.0267 250.232 32.0261C250.232 32.0255 250.232 32.0249 250.232 32.0244C250.232 32.0238 250.232 32.0232 250.232 32.0226C250.232 32.022 250.232 32.0214 250.232 32.0208C250.232 32.0202 250.232 32.0196 250.232 32.019C250.232 32.0184 250.232 32.0178 250.232 32.0172C250.232 32.0166 250.232 32.016 250.232 32.0154C250.232 32.0148 250.232 32.0142 250.232 32.0136C250.232 32.013 250.232 32.0124 250.232 32.0118C250.232 32.0112 250.232 32.0106 250.232 32.01C250.232 32.0094 250.232 32.0088 250.232 32.0082C250.232 32.0076 250.232 32.007 250.232 32.0064C250.232 32.0058 250.232 32.0052 250.232 32.0046C250.232 32.004 250.232 32.0034 250.232 32.0028C250.232 32.0022 250.232 32.0016 250.232 32.001C250.232 32.0004 250.232 31.9998 250.232 31.9992C250.232 31.9985 250.232 31.9979 250.232 31.9973C250.232 31.9967 250.232 31.9961 250.232 31.9955C250.232 31.9949 250.232 31.9943 250.232 31.9937C250.232 31.9931 250.232 31.9925 250.232 31.9919C250.232 31.9913 250.232 31.9907 250.232 31.9901C250.232 31.9895 250.232 31.9889 250.232 31.9883C250.232 31.9877 250.232 31.9871 250.232 31.9865C250.232 31.9859 250.232 31.9853 250.232 31.9846C250.232 31.984 250.232 31.9834 250.232 31.9828C250.232 31.9822 250.232 31.9816 250.232 31.981C250.232 31.9804 250.232 31.9798 250.232 31.9792C250.232 31.9786 250.232 31.978 250.232 31.9774C250.232 31.9768 250.232 31.9761 250.232 31.9755C250.232 31.9749 250.232 31.9743 250.232 31.9737C250.232 31.9731 250.232 31.9725 250.232 31.9719C250.232 31.9713 250.232 31.9707 250.232 31.9701C250.232 31.9695 250.232 31.9688 250.232 31.9682C250.232 31.9676 250.232 31.967 250.232 31.9664C250.232 31.9658 250.232 31.9652 250.232 31.9646C250.232 31.964 250.232 31.9634 250.232 31.9627C250.232 31.9621 250.232 31.9615 250.232 31.9609C250.232 31.9603 250.232 31.9597 250.232 31.9591C250.232 31.9585 250.232 31.9578 250.232 31.9572C250.232 31.9566 250.232 31.956 250.232 31.9554C250.232 31.9548 250.232 31.9542 250.232 31.9536C250.232 31.9529 250.232 31.9523 250.232 31.9517C250.232 31.9511 250.232 31.9505 250.232 31.9499C250.232 31.9493 250.232 31.9487 250.232 31.948C250.232 31.9474 250.232 31.9468 250.232 31.9462C250.232 31.9456 250.232 31.945 250.232 31.9444C250.232 31.9437 250.232 31.9431 250.232 31.9425C250.232 31.9419 250.232 31.9413 250.232 31.9407C250.232 31.94 250.232 31.9394 250.232 31.9388C250.232 31.9382 250.232 31.9376 250.232 31.937C250.232 31.9363 250.232 31.9357 250.232 31.9351C250.232 31.9345 250.232 31.9339 250.232 31.9333C250.232 31.9326 250.232 31.932 250.232 31.9314C250.232 31.9308 250.232 31.9302 250.232 31.9296C250.232 31.9289 250.232 31.9283 250.232 31.9277C250.232 31.9271 250.232 31.9265 250.232 31.9258C250.232 31.9252 250.232 31.9246 250.232 31.924C250.232 31.9234 250.232 31.9228 250.232 31.9221C250.232 31.9215 250.232 31.9209 250.232 31.9203C250.232 31.9197 250.232 31.919 250.232 31.9184C250.232 31.9178 250.232 31.9172 250.232 31.9165C250.232 31.9159 250.232 31.9153 250.232 31.9147C250.232 31.9141 250.232 31.9134 250.232 31.9128C250.232 31.9122 250.232 31.9116 250.232 31.911C250.232 31.9103 250.232 31.9097 250.232 31.9091C250.232 31.9085 250.232 31.9078 250.232 31.9072C250.232 31.9066 250.232 31.906 250.232 31.9053C250.232 31.9047 250.232 31.9041 250.232 31.9035C250.232 31.9029 250.232 31.9022 250.232 31.9016C250.232 31.901 250.232 31.9004 250.232 31.8997C250.232 31.8991 250.232 31.8985 250.232 31.8979C250.232 31.8972 250.232 31.8966 250.232 31.896C250.232 31.8954 250.232 31.8947 250.232 31.8941C250.232 31.8935 250.232 31.8929 250.232 31.8922C250.232 31.8916 250.232 31.891 250.232 31.8904C250.232 31.8897 250.232 31.8891 250.232 31.8885C250.232 31.8878 250.232 31.8872 250.232 31.8866C250.232 31.886 250.232 31.8853 250.232 31.8847C250.232 31.8841 250.232 31.8834 250.232 31.8828C250.232 31.8822 250.232 31.8816 250.232 31.8809C250.232 31.8803 250.232 31.8797 250.232 31.8791C250.232 31.8784 250.232 31.8778 250.232 31.8772C250.232 31.8765 250.232 31.8759 250.232 31.8753C250.232 31.8746 250.232 31.874 250.232 31.8734C250.232 31.8728 250.232 31.8721 250.232 31.8715C250.232 31.8709 250.232 31.8702 250.232 31.8696C250.232 31.869 250.232 31.8683 250.232 31.8677C250.232 31.8671 250.232 31.8664 250.232 31.8658C250.232 31.8652 250.232 31.8645 250.232 31.8639C250.232 31.8633 250.232 31.8627 250.232 31.862C250.232 31.8614 250.232 31.8608 250.232 31.8601C250.232 31.8595 250.232 31.8589 250.232 31.8582C250.232 31.8576 250.232 31.857 250.232 31.8563C250.232 31.8557 250.232 31.8551 250.232 31.8544C250.232 31.8538 250.232 31.8531 250.232 31.8525C250.232 31.8519 250.232 31.8512 250.232 31.8506C250.232 31.85 250.232 31.8493 250.232 31.8487C250.232 31.8481 250.232 31.8474 250.232 31.8468C250.232 31.8462 250.232 31.8455 250.232 31.8449C250.232 31.8443 250.232 31.8436 250.232 31.843C250.232 31.8423 250.232 31.8417 250.232 31.8411C250.232 31.8404 250.232 31.8398 250.232 31.8392C250.232 31.8385 250.232 31.8379 250.232 31.8372C250.232 31.8366 250.232 31.836 250.232 31.8353C250.232 31.8347 250.232 31.8341 250.232 31.8334C250.232 31.8328 250.232 31.8321 250.232 31.8315C250.232 31.8309 250.232 31.8302 250.232 31.8296C250.232 31.8289 250.232 31.8283 250.232 31.8277C250.232 31.827 250.232 31.8264 250.232 31.8257C250.232 31.8251 250.232 31.8245 250.232 31.8238C250.232 31.8232 250.232 31.8225 250.232 31.8219C250.232 31.8213 250.232 31.8206 250.232 31.82C250.232 31.8193 250.232 31.8187 250.232 31.8181C250.232 31.8174 250.232 31.8168 250.232 31.8161C250.232 31.8155 250.232 31.8148 250.232 31.8142C250.232 31.8136 250.232 31.8129 250.232 31.8123C250.232 31.8116 250.232 31.811 250.232 31.8103C250.232 31.8097 250.232 31.8091 250.232 31.8084C250.232 31.8078 250.232 31.8071 250.232 31.8065C250.232 31.8058 250.232 31.8052 250.232 31.8045C250.232 31.8039 250.232 31.8033 250.232 31.8026C250.232 31.802 250.232 31.8013 250.232 31.8007C250.232 31.8 250.232 31.7994 250.232 31.7987C250.232 31.7981 250.232 31.7974 250.232 31.7968C250.232 31.7962 250.232 31.7955 250.232 31.7949C250.232 31.7942 250.232 31.7936 250.232 31.7929C250.232 31.7923 250.232 31.7916 250.232 31.791C250.232 31.7903 250.232 31.7897 250.232 31.789C250.232 31.7884 250.232 31.7877 250.232 31.7871C250.232 31.7864 250.232 31.7858 250.232 31.7851C250.232 31.7845 250.232 31.7838 250.232 31.7832C250.232 31.7825 250.232 31.7819 250.232 31.7812C250.232 31.7806 250.232 31.7799 250.232 31.7793C250.232 31.7786 250.232 31.778 250.232 31.7773C250.232 31.7767 250.232 31.776 250.232 31.7754C250.232 31.7747 250.232 31.7741 250.232 31.7734C250.232 31.7728 250.232 31.7721 250.232 31.7715C250.232 31.7708 250.232 31.7702 250.232 31.7695C250.232 31.7689 250.232 31.7682 250.232 31.7676H248.232ZM248.232 32.6113V32.9805H250.232V32.6113H248.232ZM248.649 33.7936L262.018 43.3648L263.182 41.7387L249.814 32.1674L248.649 33.7936ZM261.6 42.5518V49.6973H263.6V42.5518H261.6ZM261.6 49.6973C261.6 51.1166 261.271 52.3863 260.623 53.5279L262.362 54.5151C263.191 53.0551 263.6 51.442 263.6 49.6973H261.6ZM260.623 53.5279C259.981 54.6592 259.054 55.5691 257.815 56.2592L258.789 58.0064C260.327 57.1497 261.528 55.9854 262.362 54.5151L260.623 53.5279ZM257.811 56.2618C256.621 56.9327 255.138 57.293 253.319 57.293V59.293C255.401 59.293 257.24 58.8798 258.793 58.0038L257.811 56.2618ZM253.319 57.293H242.086V59.293H253.319V57.293ZM243.086 58.293V44.8193H241.086V58.293H243.086ZM242.014 45.8167L248.184 46.2649L248.329 44.2702L242.159 43.822L242.014 45.8167ZM247.263 45.3819L248.027 52.0264L250.014 51.7978L249.249 45.1533L247.263 45.3819ZM249.021 52.9121C249.662 52.9121 250.24 52.9208 250.754 52.9379L250.821 50.939C250.28 50.921 249.68 50.9121 249.021 50.9121V52.9121ZM250.74 52.9373C251.122 52.9556 251.481 52.9648 251.816 52.9648V50.9648C251.517 50.9648 251.191 50.9566 250.835 50.9396L250.74 52.9373ZM251.816 52.9648C252.696 52.9648 253.472 52.9102 254.13 52.7905L253.772 50.8228C253.271 50.914 252.623 50.9648 251.816 50.9648V52.9648ZM254.159 52.7849C255.135 52.5778 255.78 51.9079 256.087 50.9891L254.189 50.3566C254.074 50.7034 253.928 50.7894 253.744 50.8284L254.159 52.7849ZM256.089 50.9814C256.352 50.1706 256.454 48.9712 256.454 47.4824H254.454C254.454 48.9468 254.346 49.8743 254.187 50.3643L256.089 50.9814ZM256.454 47.4824V47.0078H254.454V47.4824H256.454ZM256.044 46.2L242.676 36.4442L241.497 38.0597L254.865 47.8156L256.044 46.2ZM243.086 37.252V29.1309H241.086V37.252H243.086ZM243.086 29.1309C243.086 27.7072 243.409 26.4343 244.042 25.2913L242.292 24.322C241.484 25.7806 241.086 27.3905 241.086 29.1309H243.086ZM244.037 25.3002C244.679 24.169 245.605 23.259 246.844 22.5689L245.871 20.8217C244.333 21.6785 243.132 22.8428 242.298 24.313L244.037 25.3002ZM246.844 22.5689C248.054 21.8952 249.548 21.5352 251.367 21.5352V19.5352C249.284 19.5352 247.439 19.9485 245.871 20.8217L246.844 22.5689ZM251.367 21.5352H262.283V19.5352H251.367V21.5352ZM261.285 20.4726L260.363 35.1854L262.359 35.3106L263.281 20.5978L261.285 20.4726ZM291.256 26.2041L290.287 26.4531L290.29 26.466L290.294 26.4788L291.256 26.2041ZM291.44 27.2588L290.447 27.3734L290.449 27.3952L290.453 27.4168L291.44 27.2588ZM290.438 54.6807L291.305 55.1794L291.308 55.1743L290.438 54.6807ZM287.248 57.7656L286.761 56.892L286.757 56.8946L287.248 57.7656ZM271.428 54.6807L270.553 55.1653L270.557 55.1724L270.561 55.1794L271.428 54.6807ZM271.428 24.2002L270.558 23.7066L270.556 23.7105L271.428 24.2002ZM288.223 21.6953L287.618 22.491L287.623 22.4953L288.223 21.6953ZM282.924 26.916L282.233 27.6394L282.25 27.6554L282.267 27.6706L282.924 26.916ZM278.942 26.916L279.598 27.6706L279.608 27.6627L279.616 27.6545L278.942 26.916ZM278.916 51.9648L278.225 52.6882L278.242 52.7042L278.26 52.7194L278.916 51.9648ZM282.95 51.9648L283.623 52.7048L283.624 52.7033L282.95 51.9648ZM283.662 50.04L282.667 49.9443L282.666 49.9538L282.665 49.9633L283.662 50.04ZM290.294 26.4788C290.342 26.6468 290.396 26.9351 290.447 27.3734L292.434 27.1442C292.379 26.6684 292.31 26.2536 292.217 25.9294L290.294 26.4788ZM290.453 27.4168C290.519 27.8303 290.546 28.1328 290.546 28.3398H292.546C292.546 27.9844 292.502 27.5662 292.428 27.1008L290.453 27.4168ZM290.546 28.3398V50.3564H292.546V28.3398H290.546ZM290.546 50.3564C290.546 51.7758 290.216 53.0455 289.569 54.1871L291.308 55.1743C292.137 53.7142 292.546 52.1012 292.546 50.3564H290.546ZM289.572 54.182C288.93 55.2964 288.004 56.2 286.761 56.892L287.734 58.6393C289.269 57.7844 290.47 56.6313 291.305 55.1794L289.572 54.182ZM286.757 56.8946C285.569 57.5648 284.077 57.9258 282.238 57.9258V59.9258C284.336 59.9258 286.185 59.5133 287.739 58.6366L286.757 56.8946ZM282.238 57.9258H279.628V59.9258H282.238V57.9258ZM279.628 57.9258C277.808 57.9258 276.314 57.5657 275.105 56.892L274.131 58.6393C275.699 59.5124 277.545 59.9258 279.628 59.9258V57.9258ZM275.105 56.892C273.862 56.2 272.936 55.2964 272.294 54.182L270.561 55.1794C271.396 56.6313 272.596 57.7844 274.131 58.6393L275.105 56.892ZM272.302 54.196C271.669 53.053 271.346 51.7801 271.346 50.3564H269.346C269.346 52.0968 269.745 53.7067 270.553 55.1653L272.302 54.196ZM271.346 50.3564V28.498H269.346V50.3564H271.346ZM271.346 28.498C271.346 27.0743 271.669 25.8124 272.299 24.6899L270.556 23.7105C269.745 25.1544 269.346 26.7578 269.346 28.498H271.346ZM272.297 24.6938C272.939 23.5625 273.866 22.6526 275.105 21.9625L274.131 20.2152C272.593 21.072 271.392 22.2363 270.558 23.7066L272.297 24.6938ZM275.105 21.9625C276.314 21.2888 277.808 20.9287 279.628 20.9287V18.9287C277.545 18.9287 275.699 19.3421 274.131 20.2152L275.105 21.9625ZM279.628 20.9287H282.238V18.9287H279.628V20.9287ZM282.238 20.9287C284.52 20.9287 286.285 21.4766 287.618 22.491L288.829 20.8997C287.068 19.5585 284.843 18.9287 282.238 18.9287V20.9287ZM287.623 22.4953C288.991 23.5212 289.87 24.8311 290.287 26.4531L292.224 25.9551C291.692 23.8857 290.549 22.1897 288.823 20.8953L287.623 22.4953ZM284.794 32.6641C284.794 31.0007 284.75 29.6802 284.657 28.7187L282.667 28.9102C282.75 29.7768 282.794 31.0228 282.794 32.6641H284.794ZM284.657 28.7187C284.561 27.7184 284.276 26.7665 283.58 26.1614L282.267 27.6706C282.38 27.7687 282.587 28.0824 282.667 28.9102L284.657 28.7187ZM283.614 26.1927C282.944 25.5534 281.959 25.3623 280.946 25.3623V27.3623C281.796 27.3623 282.129 27.5403 282.233 27.6394L283.614 26.1927ZM280.946 25.3623C279.927 25.3623 278.949 25.556 278.268 26.1775L279.616 27.6545C279.744 27.5377 280.102 27.3623 280.946 27.3623V25.3623ZM278.286 26.1614C277.59 26.7665 277.305 27.7184 277.208 28.7187L279.199 28.9102C279.279 28.0824 279.486 27.7687 279.598 27.6706L278.286 26.1614ZM277.208 28.7187C277.116 29.6802 277.072 31.0007 277.072 32.6641H279.072C279.072 31.0228 279.116 29.7768 279.199 28.9102L277.208 28.7187ZM277.072 32.6641V46.1904H279.072V32.6641H277.072ZM277.072 46.1904C277.072 47.8538 277.116 49.1743 277.208 50.1357L279.199 49.9443C279.116 49.0777 279.072 47.8317 279.072 46.1904H277.072ZM277.208 50.1357C277.304 51.132 277.577 52.0698 278.225 52.6882L279.606 51.2415C279.481 51.1216 279.279 50.7762 279.199 49.9443L277.208 50.1357ZM278.26 52.7194C278.942 53.3126 279.924 53.4922 280.946 53.4922V51.4922C280.07 51.4922 279.699 51.3203 279.572 51.2102L278.26 52.7194ZM280.946 53.4922C281.962 53.4922 282.951 53.3153 283.623 52.7048L282.277 51.2249C282.175 51.3175 281.829 51.4922 280.946 51.4922V53.4922ZM283.624 52.7033C284.308 52.0787 284.581 51.1245 284.659 50.1167L282.665 49.9633C282.602 50.7837 282.4 51.1127 282.276 51.2264L283.624 52.7033ZM284.657 50.1357C284.75 49.1743 284.794 47.8538 284.794 46.1904H282.794C282.794 47.8317 282.75 49.0777 282.667 49.9443L284.657 50.1357ZM284.794 46.1904V32.6641H282.794V46.1904H284.794ZM321.072 26.2041L320.103 26.4531L320.107 26.466L320.11 26.4788L321.072 26.2041ZM321.256 27.2588L320.263 27.3734L320.265 27.3952L320.269 27.4168L321.256 27.2588ZM320.254 54.6807L321.121 55.1794L321.124 55.1743L320.254 54.6807ZM317.064 57.7656L316.577 56.892L316.573 56.8946L317.064 57.7656ZM301.244 54.6807L300.369 55.1653L300.373 55.1724L300.377 55.1794L301.244 54.6807ZM301.244 24.2002L300.374 23.7066L300.372 23.7105L301.244 24.2002ZM318.039 21.6953L317.434 22.491L317.439 22.4953L318.039 21.6953ZM312.74 26.916L312.049 27.6394L312.066 27.6554L312.083 27.6706L312.74 26.916ZM308.758 26.916L309.414 27.6706L309.424 27.6627L309.432 27.6545L308.758 26.916ZM308.732 51.9648L308.041 52.6882L308.058 52.7042L308.076 52.7194L308.732 51.9648ZM312.766 51.9648L313.439 52.7048L313.44 52.7033L312.766 51.9648ZM313.478 50.04L312.483 49.9443L312.482 49.9538L312.481 49.9633L313.478 50.04ZM320.11 26.4788C320.158 26.6468 320.212 26.9351 320.263 27.3734L322.25 27.1442C322.195 26.6684 322.126 26.2536 322.033 25.9294L320.11 26.4788ZM320.269 27.4168C320.335 27.8303 320.362 28.1328 320.362 28.3398H322.362C322.362 27.9844 322.318 27.5662 322.244 27.1008L320.269 27.4168ZM320.362 28.3398V50.3564H322.362V28.3398H320.362ZM320.362 50.3564C320.362 51.7758 320.033 53.0455 319.385 54.1871L321.124 55.1743C321.953 53.7142 322.362 52.1012 322.362 50.3564H320.362ZM319.388 54.182C318.746 55.2964 317.82 56.2 316.577 56.892L317.55 58.6393C319.085 57.7844 320.286 56.6313 321.121 55.1794L319.388 54.182ZM316.573 56.8946C315.385 57.5648 313.893 57.9258 312.054 57.9258V59.9258C314.152 59.9258 316.001 59.5133 317.555 58.6366L316.573 56.8946ZM312.054 57.9258H309.444V59.9258H312.054V57.9258ZM309.444 57.9258C307.625 57.9258 306.13 57.5657 304.921 56.892L303.947 58.6393C305.515 59.5124 307.361 59.9258 309.444 59.9258V57.9258ZM304.921 56.892C303.678 56.2 302.752 55.2964 302.11 54.182L300.377 55.1794C301.212 56.6313 302.412 57.7844 303.947 58.6393L304.921 56.892ZM302.118 54.196C301.485 53.053 301.163 51.7801 301.163 50.3564H299.163C299.163 52.0968 299.561 53.7067 300.369 55.1653L302.118 54.196ZM301.163 50.3564V28.498H299.163V50.3564H301.163ZM301.163 28.498C301.163 27.0743 301.485 25.8124 302.115 24.6899L300.372 23.7105C299.561 25.1544 299.163 26.7578 299.163 28.498H301.163ZM302.113 24.6938C302.755 23.5625 303.682 22.6526 304.921 21.9625L303.947 20.2152C302.409 21.072 301.208 22.2363 300.374 23.7066L302.113 24.6938ZM304.921 21.9625C306.13 21.2888 307.625 20.9287 309.444 20.9287V18.9287C307.361 18.9287 305.515 19.3421 303.947 20.2152L304.921 21.9625ZM309.444 20.9287H312.054V18.9287H309.444V20.9287ZM312.054 20.9287C314.336 20.9287 316.101 21.4766 317.434 22.491L318.645 20.8997C316.884 19.5585 314.659 18.9287 312.054 18.9287V20.9287ZM317.439 22.4953C318.807 23.5212 319.686 24.8311 320.103 26.4531L322.04 25.9551C321.508 23.8857 320.365 22.1897 318.639 20.8953L317.439 22.4953ZM314.61 32.6641C314.61 31.0007 314.566 29.6802 314.473 28.7187L312.483 28.9102C312.566 29.7768 312.61 31.0228 312.61 32.6641H314.61ZM314.473 28.7187C314.377 27.7184 314.092 26.7665 313.396 26.1614L312.083 27.6706C312.196 27.7687 312.403 28.0824 312.483 28.9102L314.473 28.7187ZM313.43 26.1927C312.76 25.5534 311.775 25.3623 310.762 25.3623V27.3623C311.612 27.3623 311.945 27.5403 312.049 27.6394L313.43 26.1927ZM310.762 25.3623C309.743 25.3623 308.765 25.556 308.084 26.1775L309.432 27.6545C309.56 27.5377 309.918 27.3623 310.762 27.3623V25.3623ZM308.102 26.1614C307.406 26.7665 307.121 27.7184 307.025 28.7187L309.015 28.9102C309.095 28.0824 309.302 27.7687 309.414 27.6706L308.102 26.1614ZM307.025 28.7187C306.932 29.6802 306.888 31.0007 306.888 32.6641H308.888C308.888 31.0228 308.932 29.7768 309.015 28.9102L307.025 28.7187ZM306.888 32.6641V46.1904H308.888V32.6641H306.888ZM306.888 46.1904C306.888 47.8538 306.932 49.1743 307.025 50.1357L309.015 49.9443C308.932 49.0777 308.888 47.8317 308.888 46.1904H306.888ZM307.025 50.1357C307.12 51.132 307.394 52.0698 308.041 52.6882L309.422 51.2415C309.297 51.1216 309.095 50.7762 309.015 49.9443L307.025 50.1357ZM308.076 52.7194C308.758 53.3126 309.74 53.4922 310.762 53.4922V51.4922C309.886 51.4922 309.515 51.3203 309.388 51.2102L308.076 52.7194ZM310.762 53.4922C311.778 53.4922 312.767 53.3153 313.439 52.7048L312.093 51.2249C311.991 51.3175 311.645 51.4922 310.762 51.4922V53.4922ZM313.44 52.7033C314.124 52.0787 314.397 51.1245 314.475 50.1167L312.481 49.9633C312.418 50.7837 312.216 51.1127 312.092 51.2264L313.44 52.7033ZM314.473 50.1357C314.566 49.1743 314.61 47.8538 314.61 46.1904H312.61C312.61 47.8317 312.566 49.0777 312.483 49.9443L314.473 50.1357ZM314.61 46.1904V32.6641H312.61V46.1904H314.61ZM343.637 20.5352V19.5352H342.637V20.5352H343.637ZM351.362 20.5352H352.362V19.5352H351.362V20.5352ZM351.362 58.3193V59.3193H352.362V58.3193H351.362ZM343.637 58.3193H342.637V59.3193H343.637V58.3193ZM343.637 39.2559H344.637V38.9209L344.435 38.6536L343.637 39.2559ZM338.047 31.8467L338.845 31.2444L337.047 28.8608V31.8467H338.047ZM338.047 58.3193V59.3193H339.047V58.3193H338.047ZM330.427 58.3193H329.427V59.3193H330.427V58.3193ZM330.427 20.4824L330.43 19.4824L329.427 19.4789V20.4824H330.427ZM337.889 20.5088L338.641 19.8503L338.344 19.5104L337.892 19.5088L337.889 20.5088ZM338.073 20.7197L338.871 20.1165L338.849 20.0881L338.826 20.0612L338.073 20.7197ZM343.637 28.0762L342.839 28.6794L344.637 31.0563V28.0762H343.637ZM343.637 21.5352H351.362V19.5352H343.637V21.5352ZM350.362 20.5352V58.3193H352.362V20.5352H350.362ZM351.362 57.3193H343.637V59.3193H351.362V57.3193ZM344.637 58.3193V39.2559H342.637V58.3193H344.637ZM344.435 38.6536L338.845 31.2444L337.249 32.4489L342.838 39.8581L344.435 38.6536ZM337.047 31.8467V58.3193H339.047V31.8467H337.047ZM338.047 57.3193H330.427V59.3193H338.047V57.3193ZM331.427 58.3193V20.4824H329.427V58.3193H331.427ZM330.423 21.4824L337.885 21.5088L337.892 19.5088L330.43 19.4824L330.423 21.4824ZM337.136 21.1673L337.321 21.3782L338.826 20.0612L338.641 19.8503L337.136 21.1673ZM337.276 21.3229L342.839 28.6794L344.434 27.473L338.871 20.1165L337.276 21.3229ZM344.637 28.0762V20.5352H342.637V28.0762H344.637Z" fill="black"/>
<defs>
<radialGradient id="paint0_radial_174_696" cx="0" cy="0" r="1" gradientUnits="userSpaceOnUse" gradientTransform="translate(199.998 124.027) rotate(90) scale(59.9035 85.2132)">
<stop offset="0.15" stop-color="white"/>
<stop offset="0.2824" stop-color="#C2C2C2"/>
<stop offset="0.4253" stop-color="#888888"/>
<stop offset="0.5636" stop-color="#575757"/>
<stop offset="0.6936" stop-color="#313131"/>
<stop offset="0.8134" stop-color="#161616"/>
<stop offset="0.9192" stop-color="#060606"/>
<stop offset="1"/>
</radialGradient>
<radialGradient id="paint1_radial_174_696" cx="0" cy="0" r="1" gradientUnits="userSpaceOnUse" gradientTransform="translate(199.998 118.346) rotate(89.9996) scale(65.5844 93.2943)">
<stop offset="0.15" stop-color="white"/>
<stop offset="0.2824" stop-color="#C2C2C2"/>
<stop offset="0.4253" stop-color="#888888"/>
<stop offset="0.5636" stop-color="#575757"/>
<stop offset="0.6936" stop-color="#313131"/>
<stop offset="0.8134" stop-color="#161616"/>
<stop offset="0.9192" stop-color="#060606"/>
<stop offset="1"/>
</radialGradient>
<radialGradient id="paint2_radial_174_696" cx="0" cy="0" r="1" gradientUnits="userSpaceOnUse" gradientTransform="translate(200 210.134) scale(131.24 130.963)">
<stop offset="0.1" stop-color="white"/>
<stop offset="0.4803" stop-color="#8E8E8E"/>
<stop offset="0.8404" stop-color="#282828"/>
<stop offset="1"/>
</radialGradient>
<radialGradient id="paint3_radial_174_696" cx="0" cy="0" r="1" gradientUnits="userSpaceOnUse" gradientTransform="translate(200 210.134) scale(123.254 122.994)">
<stop offset="0.1" stop-color="white"/>
<stop offset="0.1908" stop-color="#FAFAFA"/>
<stop offset="0.3021" stop-color="#EBEBEB"/>
<stop offset="0.4243" stop-color="#D2D2D2"/>
<stop offset="0.5542" stop-color="#AFAFAF"/>
<stop offset="0.6902" stop-color="#828282"/>
<stop offset="0.8314" stop-color="#4C4C4C"/>
<stop offset="0.9742" stop-color="#0C0C0C"/>
<stop offset="1"/>
</radialGradient>
<radialGradient id="paint4_radial_174_696" cx="0" cy="0" r="1" gradientUnits="userSpaceOnUse" gradientTransform="translate(200 210.134) scale(123.254 122.994)">
<stop offset="0.1" stop-color="white"/>
<stop offset="0.1908" stop-color="#FAFAFA"/>
<stop offset="0.3021" stop-color="#EBEBEB"/>
<stop offset="0.4243" stop-color="#D2D2D2"/>
<stop offset="0.5542" stop-color="#AFAFAF"/>
<stop offset="0.6902" stop-color="#828282"/>
<stop offset="0.8314" stop-color="#4C4C4C"/>
<stop offset="0.9742" stop-color="#0C0C0C"/>
<stop offset="1"/>
</radialGradient>
<radialGradient id="paint5_radial_174_696" cx="0" cy="0" r="1" gradientUnits="userSpaceOnUse" gradientTransform="translate(200 210.134) scale(123.254 122.994)">
<stop offset="0.1" stop-color="white"/>
<stop offset="0.1908" stop-color="#FAFAFA"/>
<stop offset="0.3021" stop-color="#EBEBEB"/>
<stop offset="0.4243" stop-color="#D2D2D2"/>
<stop offset="0.5542" stop-color="#AFAFAF"/>
<stop offset="0.6902" stop-color="#828282"/>
<stop offset="0.8314" stop-color="#4C4C4C"/>
<stop offset="0.9742" stop-color="#0C0C0C"/>
<stop offset="1"/>
</radialGradient>
<radialGradient id="paint6_radial_174_696" cx="0" cy="0" r="1" gradientUnits="userSpaceOnUse" gradientTransform="translate(200 210.134) rotate(0.267982) scale(130.101 129.827)">
<stop offset="0.1" stop-color="white"/>
<stop offset="0.1908" stop-color="#FAFAFA"/>
<stop offset="0.3021" stop-color="#EBEBEB"/>
<stop offset="0.4243" stop-color="#D2D2D2"/>
<stop offset="0.5542" stop-color="#AFAFAF"/>
<stop offset="0.6902" stop-color="#828282"/>
<stop offset="0.8314" stop-color="#4C4C4C"/>
<stop offset="0.9742" stop-color="#0C0C0C"/>
<stop offset="1"/>
</radialGradient>
<clipPath id="clip0_174_696">
<rect x="68" y="32.9106" width="264" height="190" fill="white"/>
</clipPath>
</defs>
</svg>
