<svg width="14" height="9" viewBox="0 0 14 9" fill="none" xmlns="http://www.w3.org/2000/svg">
<path fill-rule="evenodd" clip-rule="evenodd" d="M12.8881 8.83183C12.4286 9.13818 11.8077 9.01401 11.5013 8.55448L11.4259 8.44134C11.4003 8.40296 11.3777 8.36346 11.3581 8.32311C11.3284 8.28947 11.3006 8.25343 11.2751 8.21506L11.1242 7.98877C11.0986 7.9504 11.076 7.9109 11.0564 7.87055C11.0267 7.8369 10.9989 7.80087 10.9733 7.76249L10.8225 7.53621C10.7969 7.49783 10.7743 7.45833 10.7547 7.41798C10.725 7.38434 10.6972 7.3483 10.6716 7.30993L10.5208 7.08365C10.4952 7.04527 10.4726 7.00577 10.453 6.96542C10.4233 6.93178 10.3955 6.89574 10.3699 6.85736L10.2191 6.63108C10.1935 6.59271 10.1709 6.55321 10.1513 6.51286C10.1216 6.47921 10.0938 6.44318 10.0682 6.4048L9.91737 6.17852C9.89178 6.14014 9.8692 6.10064 9.84957 6.06029C9.81987 6.02665 9.79209 5.99061 9.76651 5.95224L9.61566 5.72595C9.59007 5.68758 9.56749 5.64808 9.54786 5.60773C9.51816 5.57408 9.49038 5.53805 9.4648 5.49967L9.31395 5.27339C9.28836 5.23501 9.26578 5.19551 9.24615 5.15516C9.21645 5.12152 9.18868 5.08548 9.16309 5.04711L9.01224 4.82082C8.98665 4.78245 8.96407 4.74295 8.94444 4.7026C8.91474 4.66895 8.88697 4.63292 8.86138 4.59454L8.71053 4.36826C8.68494 4.32988 8.66236 4.29038 8.64273 4.25003C8.61303 4.21639 8.58526 4.18035 8.55967 4.14198L8.40882 3.91569C8.38323 3.87732 8.36065 3.83782 8.34102 3.79747C8.31132 3.76383 8.28355 3.72779 8.25796 3.68941L8.10711 3.46313C8.08152 3.42475 8.05894 3.38525 8.03931 3.3449C8.00961 3.31126 7.98184 3.27522 7.95625 3.23685L7.8054 3.01057C7.77981 2.97219 7.75723 2.93269 7.7376 2.89234C7.7079 2.8587 7.68013 2.82266 7.65454 2.78428L7.50369 2.558C7.4781 2.51963 7.45552 2.48012 7.43589 2.43978C7.40619 2.40613 7.37842 2.3701 7.35283 2.33172L7.27741 2.21858C7.27035 2.20799 7.2632 2.19835 7.25604 2.18956C7.24902 2.18093 7.24216 2.17222 7.23548 2.16344C7.22704 2.15691 7.21867 2.15022 7.21039 2.14337C7.19421 2.13001 7.17705 2.11857 7.159 2.10894C7.1496 2.10393 7.14032 2.09878 7.13115 2.09351C7.12075 2.09075 7.11037 2.0878 7.09999 2.08469C7.07894 2.07836 7.0569 2.074 7.03426 2.0718C7.02279 2.07069 7.01139 2.06938 7.00006 2.0679C6.98872 2.06938 6.97732 2.07069 6.96586 2.0718C6.94321 2.074 6.92117 2.07836 6.90012 2.08469C6.88975 2.0878 6.87936 2.09075 6.86896 2.09351C6.85979 2.09878 6.85051 2.10393 6.84111 2.10894C6.82307 2.11857 6.8059 2.13001 6.78973 2.14337C6.78144 2.15022 6.77308 2.15691 6.76464 2.16344C6.75795 2.17223 6.7511 2.18093 6.74408 2.18956C6.73692 2.19835 6.72976 2.20799 6.72271 2.21858L6.64728 2.33172C6.6217 2.3701 6.59392 2.40613 6.56422 2.43978C6.54459 2.48013 6.52201 2.51963 6.49642 2.558L6.34557 2.78428C6.31999 2.82266 6.29221 2.8587 6.26252 2.89234C6.24288 2.93269 6.2203 2.97219 6.19472 3.01057L6.04386 3.23685C6.01828 3.27522 5.9905 3.31126 5.96081 3.3449C5.94117 3.38525 5.91859 3.42476 5.89301 3.46313L5.74215 3.68941C5.71657 3.72779 5.68879 3.76383 5.6591 3.79747C5.63946 3.83782 5.61688 3.87732 5.5913 3.9157L5.44044 4.14198C5.41486 4.18035 5.38708 4.21639 5.35739 4.25003C5.33775 4.29038 5.31517 4.32988 5.28959 4.36826L5.13873 4.59454C5.11315 4.63292 5.08537 4.66896 5.05568 4.7026C5.03604 4.74295 5.01346 4.78245 4.98788 4.82082L4.83702 5.04711C4.81144 5.08548 4.78366 5.12152 4.75397 5.15516C4.73433 5.19551 4.71175 5.23501 4.68617 5.27339L4.53531 5.49967C4.50973 5.53805 4.48195 5.57408 4.45226 5.60773C4.43262 5.64808 4.41004 5.68758 4.38446 5.72595L4.2336 5.95223C4.20802 5.99061 4.18024 6.02665 4.15055 6.06029C4.13091 6.10064 4.10833 6.14014 4.08275 6.17852L3.93189 6.4048C3.90631 6.44318 3.87853 6.47921 3.84884 6.51286C3.8292 6.5532 3.80662 6.59271 3.78104 6.63108L3.63018 6.85736C3.6046 6.89574 3.57682 6.93178 3.54713 6.96542C3.5275 7.00577 3.50491 7.04527 3.47933 7.08365L3.32848 7.30993C3.30289 7.3483 3.27511 7.38434 3.24542 7.41798C3.22579 7.45833 3.2032 7.49783 3.17762 7.53621L3.02677 7.76249C3.00118 7.80087 2.9734 7.83691 2.94371 7.87055C2.92408 7.9109 2.90149 7.9504 2.87591 7.98877L2.72506 8.21506C2.69947 8.25343 2.67169 8.28947 2.642 8.32311C2.62237 8.36346 2.59978 8.40296 2.5742 8.44134L2.49877 8.55448C2.19242 9.01401 1.57155 9.13818 1.11202 8.83183C0.652495 8.52548 0.52832 7.90461 0.834673 7.44508L0.9101 7.33194C0.935684 7.29356 0.963461 7.25753 0.993155 7.22388C1.01279 7.18353 1.03537 7.14403 1.06095 7.10566L1.21181 6.87937C1.23739 6.841 1.26517 6.80496 1.29487 6.77132C1.3145 6.73097 1.33708 6.69147 1.36266 6.65309L1.51352 6.42681C1.5391 6.38843 1.56688 6.3524 1.59657 6.31875C1.61621 6.2784 1.63879 6.2389 1.66437 6.20053L1.81523 5.97425C1.84081 5.93587 1.86859 5.89983 1.89828 5.86619C1.91792 5.82584 1.9405 5.78634 1.96608 5.74796L2.11694 5.52168C2.14252 5.4833 2.1703 5.44727 2.19999 5.41362C2.21963 5.37328 2.24221 5.33377 2.26779 5.2954L2.41865 5.06912C2.44423 5.03074 2.47201 4.9947 2.5017 4.96106C2.52134 4.92071 2.54392 4.88121 2.5695 4.84283L2.72036 4.61655C2.74594 4.57818 2.77372 4.54214 2.80341 4.5085C2.82305 4.46815 2.84563 4.42865 2.87121 4.39027L3.02207 4.16399C3.04765 4.12561 3.07543 4.08958 3.10512 4.05593C3.12476 4.01558 3.14734 3.97608 3.17292 3.93771L3.32378 3.71142C3.34936 3.67305 3.37714 3.63701 3.40683 3.60337C3.42647 3.56302 3.44905 3.52352 3.47463 3.48514L3.62549 3.25886C3.65107 3.22048 3.67885 3.18445 3.70854 3.1508C3.72818 3.11045 3.75076 3.07095 3.77634 3.03258L3.9272 2.80629C3.95278 2.76792 3.98056 2.73188 4.01025 2.69824C4.02989 2.65789 4.05247 2.61839 4.07805 2.58001L4.22891 2.35373C4.25449 2.31536 4.28227 2.27932 4.31196 2.24568C4.33159 2.20533 4.35418 2.16582 4.37976 2.12745L4.53061 1.90117C4.5562 1.86279 4.58398 1.82675 4.61367 1.79311C4.6333 1.75276 4.65589 1.71326 4.68147 1.67488L4.83232 1.4486C4.85791 1.41023 4.88569 1.37419 4.91538 1.34055C4.93501 1.3002 4.95759 1.2607 4.98318 1.22232L5.05861 1.10918C5.10079 1.0459 5.14566 0.985114 5.19302 0.926935C5.24237 0.866311 5.29735 0.812974 5.3566 0.767065C5.40223 0.70715 5.4554 0.651482 5.51596 0.60145C5.63652 0.501858 5.76515 0.416174 5.89942 0.344512C5.96882 0.307471 6.04063 0.279444 6.1135 0.260021C6.17874 0.222558 6.24928 0.191919 6.32443 0.16933C6.47139 0.12516 6.62153 0.0958373 6.77246 0.0811737C6.84988 0.0736524 6.9261 0.0751708 7.00006 0.0848674C7.07402 0.0751708 7.15023 0.0736525 7.22765 0.0811739C7.37859 0.0958375 7.52872 0.12516 7.67568 0.16933C7.75084 0.19192 7.82137 0.222559 7.88662 0.260021C7.95949 0.279444 8.0313 0.307472 8.1007 0.344512C8.23497 0.416175 8.3636 0.501858 8.48415 0.60145C8.54472 0.651482 8.59788 0.70715 8.64351 0.767064C8.70276 0.812974 8.75775 0.866311 8.8071 0.926935C8.85446 0.985114 8.89932 1.0459 8.94151 1.10918L9.01693 1.22232C9.04252 1.26069 9.0651 1.3002 9.08473 1.34054C9.11443 1.37419 9.1422 1.41023 9.16779 1.4486L9.31864 1.67488C9.34423 1.71326 9.36681 1.75276 9.38644 1.79311C9.41614 1.82675 9.44391 1.86279 9.4695 1.90117L9.62035 2.12745C9.64594 2.16582 9.66852 2.20532 9.68815 2.24567C9.71785 2.27932 9.74562 2.31535 9.77121 2.35373L9.92206 2.58001C9.94765 2.61839 9.97023 2.65789 9.98986 2.69824C10.0196 2.73188 10.0473 2.76792 10.0729 2.80629L10.2238 3.03258C10.2494 3.07095 10.2719 3.11045 10.2916 3.1508C10.3213 3.18445 10.349 3.22048 10.3746 3.25886L10.5255 3.48514C10.5511 3.52352 10.5736 3.56302 10.5933 3.60337C10.623 3.63701 10.6508 3.67305 10.6763 3.71142L10.8272 3.93771C10.8528 3.97608 10.8754 4.01558 10.895 4.05593C10.9247 4.08957 10.9525 4.12561 10.978 4.16399L11.1289 4.39027C11.1545 4.42865 11.1771 4.46815 11.1967 4.5085C11.2264 4.54214 11.2542 4.57818 11.2798 4.61655L11.4306 4.84283C11.4562 4.88121 11.4788 4.92071 11.4984 4.96106C11.5281 4.9947 11.5559 5.03074 11.5815 5.06912L11.7323 5.2954C11.7579 5.33377 11.7805 5.37328 11.8001 5.41363C11.8298 5.44727 11.8576 5.48331 11.8832 5.52168L12.034 5.74796C12.0596 5.78634 12.0822 5.82584 12.1018 5.86619C12.1315 5.89983 12.1593 5.93587 12.1849 5.97425L12.3357 6.20053C12.3613 6.2389 12.3839 6.2784 12.4035 6.31875C12.4332 6.3524 12.461 6.38843 12.4866 6.42681L12.6374 6.65309C12.663 6.69147 12.6856 6.73097 12.7052 6.77132C12.7349 6.80496 12.7627 6.841 12.7883 6.87937L12.9392 7.10566C12.9647 7.14403 12.9873 7.18353 13.007 7.22388C13.0367 7.25753 13.0644 7.29356 13.09 7.33194L13.1654 7.44508C13.4718 7.90461 13.3476 8.52548 12.8881 8.83183Z" fill="#6F7180"/>
</svg>
