<svg width="14" height="9" viewBox="0 0 14 9" fill="none" xmlns="http://www.w3.org/2000/svg">
<path fill-rule="evenodd" clip-rule="evenodd" d="M12.888 0.167927C12.4285 -0.138426 11.8076 -0.014252 11.5013 0.445277L11.4259 0.558418C11.4003 0.596794 11.3777 0.636294 11.3581 0.676644C11.3284 0.710287 11.3006 0.746324 11.275 0.7847L11.1241 1.01098C11.0986 1.04936 11.076 1.08886 11.0563 1.12921C11.0266 1.16285 10.9989 1.19889 10.9733 1.23726L10.8224 1.46355C10.7968 1.50192 10.7743 1.54142 10.7546 1.58177C10.7249 1.61542 10.6972 1.65145 10.6716 1.68983L10.5207 1.91611C10.4951 1.95449 10.4726 1.99399 10.4529 2.03434C10.4232 2.06798 10.3955 2.10402 10.3699 2.14239L10.219 2.36867C10.1934 2.40705 10.1708 2.44655 10.1512 2.4869C10.1215 2.52054 10.0937 2.55658 10.0682 2.59496L9.9173 2.82124C9.89172 2.85961 9.86914 2.89911 9.8495 2.93946C9.81981 2.97311 9.79203 3.00914 9.76645 3.04752L9.61559 3.2738C9.59001 3.31218 9.56743 3.35168 9.54779 3.39203C9.5181 3.42567 9.49032 3.46171 9.46474 3.50009L9.31388 3.72637C9.2883 3.76474 9.26572 3.80424 9.24608 3.84459C9.21639 3.87824 9.18861 3.91427 9.16303 3.95265L9.01218 4.17893C8.98659 4.21731 8.96401 4.25681 8.94438 4.29716C8.91468 4.3308 8.8869 4.36684 8.86132 4.40521L8.71047 4.6315C8.68488 4.66987 8.6623 4.70937 8.64267 4.74972C8.61297 4.78337 8.58519 4.8194 8.55961 4.85778L8.40876 5.08406C8.38317 5.12244 8.36059 5.16194 8.34096 5.20229C8.31126 5.23593 8.28349 5.27197 8.2579 5.31034L8.10705 5.53663C8.08146 5.575 8.05888 5.6145 8.03925 5.65485C8.00955 5.68849 7.98178 5.72453 7.95619 5.76291L7.80534 5.98919C7.77975 6.02757 7.75717 6.06707 7.73754 6.10742C7.70784 6.14106 7.68007 6.1771 7.65448 6.21547L7.50363 6.44175C7.47804 6.48013 7.45546 6.51963 7.43583 6.55998C7.40613 6.59362 7.37836 6.62966 7.35277 6.66804L7.27735 6.78118C7.27029 6.79176 7.26314 6.8014 7.25598 6.8102C7.24895 6.81882 7.2421 6.82753 7.23541 6.83632C7.22698 6.84285 7.21861 6.84954 7.21033 6.85639C7.19415 6.86974 7.17699 6.88118 7.15894 6.89082C7.14954 6.89583 7.14026 6.90097 7.13109 6.90624C7.12069 6.90901 7.11031 6.91195 7.09993 6.91507C7.07888 6.9214 7.05684 6.92575 7.0342 6.92795C7.02273 6.92907 7.01133 6.93037 7 6.93186C6.98866 6.93037 6.97726 6.92907 6.9658 6.92795C6.94315 6.92575 6.92111 6.9214 6.90006 6.91507C6.88968 6.91195 6.8793 6.90901 6.8689 6.90624C6.85973 6.90097 6.85045 6.89583 6.84105 6.89082C6.823 6.88118 6.80584 6.86974 6.78967 6.85639C6.78138 6.84954 6.77301 6.84285 6.76458 6.83632C6.75789 6.82753 6.75104 6.81882 6.74402 6.8102C6.73685 6.8014 6.7297 6.79176 6.72265 6.78118L6.64722 6.66804C6.62163 6.62966 6.59386 6.59362 6.56416 6.55998C6.54453 6.51963 6.52195 6.48013 6.49636 6.44175L6.34551 6.21547C6.31993 6.1771 6.29215 6.14106 6.26245 6.10742C6.24282 6.06707 6.22024 6.02756 6.19465 5.98919L6.0438 5.76291C6.01822 5.72453 5.99044 5.68849 5.96074 5.65485C5.94111 5.6145 5.91853 5.575 5.89294 5.53662L5.74209 5.31034C5.71651 5.27197 5.68873 5.23593 5.65904 5.20229C5.6394 5.16194 5.61682 5.12244 5.59124 5.08406L5.44038 4.85778C5.4148 4.8194 5.38702 4.78337 5.35733 4.74972C5.33769 4.70937 5.31511 4.66987 5.28953 4.6315L5.13867 4.40521C5.11309 4.36684 5.08531 4.3308 5.05562 4.29716C5.03598 4.25681 5.0134 4.21731 4.98782 4.17893L4.83696 3.95265C4.81138 3.91427 4.7836 3.87824 4.75391 3.84459C4.73427 3.80425 4.71169 3.76474 4.68611 3.72637L4.53525 3.50009C4.50967 3.46171 4.48189 3.42567 4.4522 3.39203C4.43256 3.35168 4.40998 3.31218 4.3844 3.2738L4.23354 3.04752C4.20796 3.00915 4.18018 2.97311 4.15049 2.93946C4.13085 2.89912 4.10827 2.85961 4.08269 2.82124L3.93183 2.59496C3.90625 2.55658 3.87847 2.52054 3.84878 2.4869C3.82914 2.44655 3.80656 2.40705 3.78098 2.36867L3.63012 2.14239C3.60454 2.10402 3.57676 2.06798 3.54707 2.03434C3.52743 1.99399 3.50485 1.95449 3.47927 1.91611L3.32841 1.68983C3.30283 1.65145 3.27505 1.61541 3.24536 1.58177C3.22572 1.54142 3.20314 1.50192 3.17756 1.46355L3.0267 1.23726C3.00112 1.19889 2.97334 1.16285 2.94365 1.12921C2.92401 1.08886 2.90143 1.04936 2.87585 1.01098L2.725 0.784698C2.69941 0.746322 2.67163 0.710284 2.64194 0.676641C2.6223 0.636293 2.59972 0.596792 2.57414 0.558416L2.49871 0.445276C2.19236 -0.0142525 1.57149 -0.138427 1.11196 0.167926C0.652434 0.474279 0.528259 1.09515 0.834612 1.55468L0.910039 1.66782C0.935623 1.70619 0.9634 1.74223 0.993094 1.77587C1.01273 1.81622 1.03531 1.85572 1.06089 1.8941L1.21175 2.12038C1.23733 2.15876 1.26511 2.1948 1.2948 2.22844C1.31444 2.26879 1.33702 2.30829 1.3626 2.34666L1.51346 2.57295C1.53904 2.61132 1.56682 2.64736 1.59651 2.681C1.61615 2.72135 1.63873 2.76085 1.66431 2.79923L1.81517 3.02551C1.84075 3.06389 1.86853 3.09992 1.89822 3.13357C1.91786 3.17392 1.94044 3.21342 1.96602 3.25179L2.11688 3.47807C2.14246 3.51645 2.17024 3.55249 2.19993 3.58613C2.21957 3.62648 2.24215 3.66598 2.26773 3.70436L2.41859 3.93064C2.44417 3.96902 2.47195 4.00505 2.50164 4.0387C2.52128 4.07904 2.54386 4.11855 2.56944 4.15692L2.7203 4.3832C2.74588 4.42158 2.77366 4.45762 2.80335 4.49126C2.82299 4.53161 2.84557 4.57111 2.87115 4.60949L3.02201 4.83577C3.04759 4.87414 3.07537 4.91018 3.10506 4.94382C3.1247 4.98417 3.14728 5.02367 3.17286 5.06205L3.32372 5.28833C3.3493 5.32671 3.37708 5.36275 3.40677 5.39639C3.42641 5.43674 3.44899 5.47624 3.47457 5.51461L3.62543 5.7409C3.65101 5.77927 3.67879 5.81531 3.70848 5.84895C3.72811 5.8893 3.7507 5.9288 3.77628 5.96718L3.92713 6.19346C3.95272 6.23184 3.9805 6.26787 4.01019 6.30152C4.02982 6.34187 4.05241 6.38137 4.07799 6.41974L4.22884 6.64602C4.25443 6.6844 4.28221 6.72044 4.3119 6.75408C4.33153 6.79443 4.35412 6.83393 4.3797 6.87231L4.53055 7.09859C4.55614 7.13696 4.58392 7.173 4.61361 7.20664C4.63324 7.24699 4.65582 7.2865 4.68141 7.32487L4.83226 7.55115C4.85785 7.58953 4.88562 7.62557 4.91532 7.65921C4.93495 7.69956 4.95753 7.73906 4.98312 7.77744L5.05855 7.89058C5.10073 7.95386 5.1456 8.01464 5.19296 8.07282C5.24231 8.13345 5.29729 8.18678 5.35654 8.23269C5.40217 8.29261 5.45534 8.34827 5.5159 8.39831C5.63646 8.4979 5.76508 8.58358 5.89936 8.65524C5.96876 8.69228 6.04056 8.72031 6.11343 8.73973C6.17868 8.7772 6.24922 8.80784 6.32437 8.83043C6.47133 8.8746 6.62147 8.90392 6.7724 8.91858C6.84982 8.9261 6.92603 8.92459 7 8.91489C7.07396 8.92459 7.15017 8.9261 7.22759 8.91858C7.37852 8.90392 7.52866 8.8746 7.67562 8.83043C7.75078 8.80784 7.82131 8.7772 7.88656 8.73973C7.95943 8.72031 8.03123 8.69228 8.10064 8.65524C8.23491 8.58358 8.36353 8.4979 8.48409 8.39831C8.54466 8.34827 8.59782 8.29261 8.64345 8.23269C8.7027 8.18678 8.75769 8.13345 8.80704 8.07282C8.8544 8.01464 8.89926 7.95386 8.94145 7.89058L9.01687 7.77744C9.04246 7.73906 9.06504 7.69956 9.08467 7.65921C9.11437 7.62557 9.14214 7.58953 9.16773 7.55115L9.31858 7.32487C9.34417 7.2865 9.36675 7.247 9.38638 7.20665C9.41608 7.173 9.44385 7.13697 9.46944 7.09859L9.62029 6.87231C9.64588 6.83393 9.66846 6.79443 9.68809 6.75408C9.71779 6.72044 9.74556 6.6844 9.77115 6.64603L9.922 6.41974C9.94759 6.38137 9.97017 6.34187 9.9898 6.30152C10.0195 6.26787 10.0473 6.23184 10.0729 6.19346L10.2237 5.96718C10.2493 5.9288 10.2719 5.8893 10.2915 5.84895C10.3212 5.81531 10.349 5.77927 10.3746 5.7409L10.5254 5.51462C10.551 5.47624 10.5736 5.43674 10.5932 5.39639C10.6229 5.36275 10.6507 5.32671 10.6763 5.28833L10.8271 5.06205C10.8527 5.02367 10.8753 4.98417 10.8949 4.94382C10.9246 4.91018 10.9524 4.87414 10.978 4.83577L11.1288 4.60949C11.1544 4.57111 11.177 4.53161 11.1966 4.49126C11.2263 4.45762 11.2541 4.42158 11.2797 4.3832L11.4305 4.15692C11.4561 4.11855 11.4787 4.07904 11.4983 4.0387C11.528 4.00505 11.5558 3.96902 11.5814 3.93064L11.7323 3.70436C11.7578 3.66598 11.7804 3.62648 11.8001 3.58613C11.8298 3.55249 11.8575 3.51645 11.8831 3.47807L12.034 3.25179C12.0596 3.21342 12.0821 3.17392 12.1018 3.13357C12.1315 3.09992 12.1592 3.06389 12.1848 3.02551L12.3357 2.79923C12.3613 2.76085 12.3838 2.72135 12.4035 2.681C12.4332 2.64736 12.4609 2.61132 12.4865 2.57295L12.6374 2.34666C12.663 2.30829 12.6856 2.26879 12.7052 2.22844C12.7349 2.1948 12.7627 2.15876 12.7882 2.12038L12.9391 1.8941C12.9647 1.85572 12.9873 1.81622 13.0069 1.77587C13.0366 1.74223 13.0644 1.70619 13.09 1.66782L13.1654 1.55468C13.4717 1.09515 13.3476 0.474279 12.888 0.167927Z" fill="#6F7180"/>
</svg>
