<svg width="12" height="14" viewBox="0 0 12 14" fill="none" xmlns="http://www.w3.org/2000/svg">
<path d="M6.66361 13.225L6.6645 13.2242L11.5395 8.32556C11.9047 7.95858 11.9033 7.365 11.5363 6.9997C11.1693 6.63445 10.5758 6.63586 10.2105 7.00284L6.9375 10.2918L6.9375 1.4375C6.9375 0.919719 6.51778 0.5 6 0.5C5.48222 0.5 5.0625 0.919718 5.0625 1.4375L5.0625 10.2917L1.7895 7.00289C1.42425 6.6359 0.830675 6.6345 0.46369 6.99975C0.0966126 7.36505 0.0953471 7.95867 0.460503 8.32561L5.3355 13.2242L5.33639 13.2251C5.70286 13.5923 6.29836 13.5911 6.66361 13.225Z" fill="#12131C"/>
</svg>
