<svg width="63" height="62" viewBox="0 0 63 62" fill="none" xmlns="http://www.w3.org/2000/svg">
<g clip-path="url(#clip0_850_65501)">
<mask id="mask0_850_65501" style="mask-type:luminance" maskUnits="userSpaceOnUse" x="0" y="0" width="63" height="62">
<path d="M0.5 0.000255585H62.5V62H0.5V0.000255585Z" fill="white"/>
</mask>
<g mask="url(#mask0_850_65501)">
<path d="M40.8572 14.4187C41.5002 14.2292 42.1749 14.5968 42.3644 15.2397C42.5541 15.8826 42.1864 16.5575 41.5434 16.747C40.9005 16.9366 40.2257 16.5689 40.0362 15.926C39.8467 15.283 40.2142 14.6082 40.8572 14.4187Z" fill="#9FA5AE"/>
<path d="M27.191 26.0254L13.9775 29.7773L10.9758 19.2066L24.1893 15.4546L27.191 26.0254Z" stroke="#9FA5AE" stroke-width="2.42187" stroke-miterlimit="10" stroke-linecap="round" stroke-linejoin="round"/>
<path d="M11.4407 21.6094L5.77905 23.217L7.44446 29.082L13.1061 27.4744" stroke="#9FA5AE" stroke-width="2.42187" stroke-miterlimit="10" stroke-linecap="round" stroke-linejoin="round"/>
<path d="M39.7568 10.3851L37.9056 3.86592L24.1895 15.4492" stroke="#9FA5AE" stroke-width="2.42187" stroke-miterlimit="10" stroke-linecap="round" stroke-linejoin="round"/>
<path d="M27.191 26.0215L44.9479 28.668L42.7127 20.7965" stroke="#9FA5AE" stroke-width="2.42187" stroke-miterlimit="10" stroke-linecap="round" stroke-linejoin="round"/>
<path d="M21.2878 27.6639L16.0192 29.1929L18.8577 34.0019C19.4746 35.0469 20.7212 35.5413 21.8866 35.203C23.553 34.7195 24.3164 32.7946 23.4345 31.3003L21.2878 27.6639Z" stroke="#9FA5AE" stroke-width="2.42187" stroke-miterlimit="10" stroke-linecap="round" stroke-linejoin="round"/>
<path d="M55.6104 12.2441L52.7386 13.0547" stroke="#9FA5AE" stroke-width="2.42187" stroke-miterlimit="10" stroke-linecap="round" stroke-linejoin="round"/>
<path d="M48.6581 1.27225L46.5764 3.41016" stroke="#9FA5AE" stroke-width="2.42187" stroke-miterlimit="10" stroke-linecap="round" stroke-linejoin="round"/>
<path d="M55.421 25.2344L52.5287 24.5004" stroke="#9FA5AE" stroke-width="2.42187" stroke-miterlimit="10" stroke-linecap="round" stroke-linejoin="round"/>
<path d="M42.7609 48.6094V40.9093L47.9668 48.448C48.0634 48.5873 48.1667 48.519 48.1667 48.3495L48.0947 40.8949" stroke="#9FA5AE" stroke-width="2.42187" stroke-miterlimit="10" stroke-linecap="round" stroke-linejoin="round"/>
<path d="M25.1199 48.5491L26.4758 41.0366C26.5097 40.8607 26.755 40.8443 26.8122 41.0141L29.0179 48.4906C29.0714 48.6499 29.297 48.6487 29.3488 48.4888L31.4794 41.0153C31.5347 40.8449 31.78 40.8588 31.8159 41.0343L33.252 48.5491" stroke="#9FA5AE" stroke-width="2.42187" stroke-miterlimit="10" stroke-linecap="round" stroke-linejoin="round"/>
<path d="M38.1459 40.8949V48.6094" stroke="#9FA5AE" stroke-width="2.42187" stroke-miterlimit="10" stroke-linecap="round" stroke-linejoin="round"/>
<path d="M57.666 41.5536C57.0505 41.1377 56.3083 40.8949 55.5093 40.8949C53.3791 40.8949 51.6521 42.6218 51.6521 44.7521C51.6521 46.8823 53.3791 48.6094 55.5093 48.6094C57.6397 48.6094 58.8391 46.8823 58.8391 44.7521H56.5313" stroke="#9FA5AE" stroke-width="2.42187" stroke-miterlimit="10" stroke-linecap="round" stroke-linejoin="round"/>
<path d="M10.1745 41.5536C9.55888 41.1377 8.81682 40.8949 8.01784 40.8949C5.88756 40.8949 4.16064 42.6218 4.16064 44.7521C4.16064 46.8823 5.88756 48.6094 8.01784 48.6094C8.88306 48.6094 9.59473 48.3246 10.1348 47.8435C10.2466 47.7439 10.3511 47.636 10.448 47.5204" stroke="#9FA5AE" stroke-width="2.42187" stroke-miterlimit="10" stroke-linecap="round" stroke-linejoin="round"/>
<path d="M21.6413 44.7521C21.6413 46.8823 19.9144 48.6094 17.784 48.6094C15.6537 48.6094 13.9268 46.8823 13.9268 44.7521C13.9268 42.6218 15.6537 40.8948 17.784 40.8948C19.9144 40.8948 21.6413 42.6218 21.6413 44.7521Z" stroke="#9FA5AE" stroke-width="2.42187" stroke-miterlimit="10" stroke-linecap="round" stroke-linejoin="round"/>
<path d="M44.8361 60.7344V53.0344L50.042 60.573C50.1386 60.7123 50.2419 60.644 50.2419 60.4744L50.1699 53.0199" stroke="#9FA5AE" stroke-width="2.42187" stroke-miterlimit="10" stroke-linecap="round" stroke-linejoin="round"/>
<path d="M17.7557 53.8775C17.7557 53.8775 16.1908 52.6493 14.5585 53.1411C13.0596 53.5927 12.8499 55.3209 13.9343 56.028C13.9343 56.028 14.9983 56.5027 16.1786 56.938C19.0196 57.9859 17.7958 60.7344 15.5087 60.7344C14.3634 60.7344 13.4022 60.2328 12.8204 59.5909" stroke="#9FA5AE" stroke-width="2.42187" stroke-miterlimit="10" stroke-linecap="round" stroke-linejoin="round"/>
<path d="M29.6152 56.8771C29.6152 59.0073 27.8882 60.7344 25.7578 60.7344C23.6277 60.7344 21.9006 59.0073 21.9006 56.8771C21.9006 54.7468 23.6277 53.0199 25.7578 53.0199C27.8882 53.0199 29.6152 54.7468 29.6152 56.8771Z" stroke="#9FA5AE" stroke-width="2.42187" stroke-miterlimit="10" stroke-linecap="round" stroke-linejoin="round"/>
<path d="M40.9041 56.8771C40.9041 59.0073 39.1772 60.7344 37.0468 60.7344C34.9165 60.7344 33.1896 59.0073 33.1896 56.8771C33.1896 54.7468 34.9165 53.0199 37.0468 53.0199C39.1772 53.0199 40.9041 54.7468 40.9041 56.8771Z" stroke="#9FA5AE" stroke-width="2.42187" stroke-miterlimit="10" stroke-linecap="round" stroke-linejoin="round"/>
</g>
</g>
<defs>
<clipPath id="clip0_850_65501">
<rect width="62" height="61.9998" fill="white" transform="translate(0.5)"/>
</clipPath>
</defs>
</svg>
