<svg width="9" height="14" viewBox="0 0 9 14" fill="none" xmlns="http://www.w3.org/2000/svg">
<path fill-rule="evenodd" clip-rule="evenodd" d="M6.51275 9.68337L6.07275 9.67004L8.17275 5.89004C8.53942 5.23671 8.43942 4.41671 7.92609 3.87004L4.73942 0.463374C4.57942 0.290041 4.31275 0.290041 4.15275 0.463374L0.966086 3.87671C0.452753 4.42337 0.352753 5.24337 0.719419 5.89671L2.81942 9.67671L2.37942 9.69004C1.45275 9.72337 0.712753 10.49 0.712753 11.4234C0.712753 12.3834 1.48609 13.1567 2.44609 13.1567H6.44609C7.40609 13.1567 8.17942 12.3834 8.17942 11.4234C8.17942 10.4834 7.43942 9.71671 6.51275 9.68337ZM1.41942 5.51004C1.21942 5.15671 1.27275 4.71671 1.55275 4.42337L4.04609 1.75004V4.42337L3.91275 4.49671C3.59275 4.68337 3.37942 5.03004 3.37942 5.42337C3.37942 6.01004 3.85942 6.49004 4.44609 6.49004C5.03275 6.49004 5.51275 6.01004 5.51275 5.42337C5.51275 5.03004 5.29942 4.68337 4.97942 4.49671L4.84609 4.42337V1.74337L7.33942 4.41671C7.61942 4.71004 7.67275 5.15004 7.47275 5.50337L5.15275 9.68337H3.73942L1.41942 5.51004ZM6.44609 12.35H2.44609C1.93275 12.35 1.51275 11.93 1.51275 11.4167C1.51275 10.9034 1.93275 10.4834 2.44609 10.4834H6.44609C6.95942 10.4834 7.37942 10.9034 7.37942 11.4167C7.37942 11.93 6.95942 12.35 6.44609 12.35Z" fill="white"/>
</svg>
