<svg width="18" height="20" viewBox="0 0 18 20" fill="none" xmlns="http://www.w3.org/2000/svg">
<path fill-rule="evenodd" clip-rule="evenodd" d="M9 5.25C9.41421 5.25 9.75 5.58579 9.75 6V10.1355L12.3143 11.319C12.6904 11.4926 12.8545 11.9382 12.681 12.3143C12.5074 12.6904 12.0618 12.8545 11.6857 12.681L8.68571 11.2964C8.42009 11.1738 8.25 10.9079 8.25 10.6154V6C8.25 5.58579 8.58579 5.25 9 5.25Z" fill="#12131C"/>
<path fill-rule="evenodd" clip-rule="evenodd" d="M6.181 1.72477C7.93138 0.740181 10.0686 0.740181 11.819 1.72477L14.819 3.41227C16.6295 4.4307 17.75 6.34651 17.75 8.42383V11.5754C17.75 13.6527 16.6295 15.5685 14.819 16.5869L11.819 18.2744C10.0686 19.259 7.93138 19.259 6.181 18.2744L3.181 16.5869C1.37046 15.5685 0.25 13.6527 0.25 11.5754V8.42383C0.25 6.34651 1.37046 4.4307 3.181 3.41227L6.181 1.72477ZM11.0836 3.03213C9.78985 2.30439 8.21015 2.30439 6.91639 3.03213L3.91639 4.71963C2.57816 5.47238 1.75 6.88842 1.75 8.42383V11.5754C1.75 13.1108 2.57816 14.5268 3.91639 15.2795L6.91639 16.967C8.21015 17.6948 9.78985 17.6948 11.0836 16.967L14.0836 15.2795C15.4218 14.5268 16.25 13.1108 16.25 11.5754V8.42383C16.25 6.88842 15.4218 5.47239 14.0836 4.71963L11.0836 3.03213Z" fill="#12131C"/>
</svg>
