<svg width="15" height="16" viewBox="0 0 15 16" fill="none" xmlns="http://www.w3.org/2000/svg">
<path fill-rule="evenodd" clip-rule="evenodd" d="M0.96967 1.46978C1.26256 1.17689 1.73744 1.17689 2.03033 1.46978L14.03 13.4694C14.3229 13.7623 14.3229 14.2372 14.03 14.5301C13.7371 14.823 13.2622 14.823 12.9693 14.5301L0.96967 2.53044C0.676777 2.23755 0.676777 1.76268 0.96967 1.46978Z" fill="#EDEDED"/>
<path fill-rule="evenodd" clip-rule="evenodd" d="M14.0303 1.46978C14.3232 1.76268 14.3232 2.23755 14.0303 2.53044L2.03068 14.5301C1.73779 14.823 1.26292 14.823 0.970023 14.5301C0.677129 14.2372 0.67713 13.7623 0.970023 13.4694L12.9697 1.46978C13.2626 1.17689 13.7374 1.17689 14.0303 1.46978Z" fill="#EDEDED"/>
</svg>
