<svg width="24" height="24" viewBox="0 0 24 24" fill="none" xmlns="http://www.w3.org/2000/svg">
<path d="M21.5303 5.4697L17.5303 1.4697C17.3897 1.3291 17.1992 1.25 17 1.25H9C7.4834 1.25 6.25 2.4834 6.25 4V5.25H5C3.4834 5.25 2.25 6.4834 2.25 8V20C2.25 21.5166 3.4834 22.75 5 22.75H15C16.5166 22.75 17.75 21.5166 17.75 20V18.75H19C20.5166 18.75 21.75 17.5166 21.75 16V6C21.75 5.8013 21.6709 5.6104 21.5303 5.4697ZM17.75 3.8105L19.1895 5.25H17.75V3.8105ZM16.25 20C16.25 20.6895 15.6895 21.25 15 21.25H5C4.3105 21.25 3.75 20.6895 3.75 20V8C3.75 7.3105 4.3105 6.75 5 6.75H6.25V16C6.25 17.5166 7.4834 18.75 9 18.75H16.25V20ZM19 17.25H9C8.3105 17.25 7.75 16.6895 7.75 16V4C7.75 3.3105 8.3105 2.75 9 2.75H16.25V6C16.25 6.4141 16.5859 6.75 17 6.75H20.25V16C20.25 16.6895 19.6895 17.25 19 17.25Z" fill="#F7F7F8"/>
<path d="M17 13.25H11C10.5859 13.25 10.25 13.5859 10.25 14C10.25 14.4141 10.5859 14.75 11 14.75H17C17.4141 14.75 17.75 14.4141 17.75 14C17.75 13.5859 17.4141 13.25 17 13.25Z" fill="#F7F7F8"/>
<path d="M17 9.25H11C10.5859 9.25 10.25 9.5859 10.25 10C10.25 10.4141 10.5859 10.75 11 10.75H17C17.4141 10.75 17.75 10.4141 17.75 10C17.75 9.5859 17.4141 9.25 17 9.25Z" fill="#F7F7F8"/>
</svg>
