<svg width="18" height="19" viewBox="0 0 18 19" fill="none" xmlns="http://www.w3.org/2000/svg">
<path fill-rule="evenodd" clip-rule="evenodd" d="M0.25 4.87129C0.25 2.91068 1.83939 1.32129 3.8 1.32129H14.2C16.1606 1.32129 17.75 2.91068 17.75 4.87129V15.2713C17.75 17.2319 16.1606 18.8213 14.2 18.8213H3.8C1.83939 18.8213 0.25 17.2319 0.25 15.2713V4.87129ZM3.8 2.82129C2.66782 2.82129 1.75 3.73911 1.75 4.87129V15.2713C1.75 16.4035 2.66782 17.3213 3.8 17.3213H14.2C15.3322 17.3213 16.25 16.4035 16.25 15.2713V4.87129C16.25 3.73911 15.3322 2.82129 14.2 2.82129H3.8Z" fill="#6F7180"/>
<path fill-rule="evenodd" clip-rule="evenodd" d="M5.57129 0.178711C5.9855 0.178711 6.32129 0.514497 6.32129 0.928711V3.21443C6.32129 3.62864 5.9855 3.96443 5.57129 3.96443C5.15708 3.96443 4.82129 3.62864 4.82129 3.21443V0.928711C4.82129 0.514497 5.15708 0.178711 5.57129 0.178711Z" fill="#6F7180"/>
<path fill-rule="evenodd" clip-rule="evenodd" d="M12.4287 0.178711C12.8429 0.178711 13.1787 0.514497 13.1787 0.928711V3.21443C13.1787 3.62864 12.8429 3.96443 12.4287 3.96443C12.0145 3.96443 11.6787 3.62864 11.6787 3.21443V0.928711C11.6787 0.514497 12.0145 0.178711 12.4287 0.178711Z" fill="#6F7180"/>
<path fill-rule="evenodd" clip-rule="evenodd" d="M1.75 8.92871C1.75 11.986 4.22843 14.4644 7.28572 14.4644H16.4286C16.8428 14.4644 17.1786 14.8002 17.1786 15.2144C17.1786 15.6286 16.8428 15.9644 16.4286 15.9644H7.28572C3.4 15.9644 0.25 12.8144 0.25 8.92871H1.75Z" fill="#6F7180"/>
<path fill-rule="evenodd" clip-rule="evenodd" d="M4.25 7C4.25 6.58579 4.58579 6.25 5 6.25H5.5C5.91421 6.25 6.25 6.58579 6.25 7C6.25 7.41421 5.91421 7.75 5.5 7.75H5C4.58579 7.75 4.25 7.41421 4.25 7Z" fill="#6F7180"/>
<path fill-rule="evenodd" clip-rule="evenodd" d="M8.25 7C8.25 6.58579 8.58579 6.25 9 6.25H9.5C9.91421 6.25 10.25 6.58579 10.25 7C10.25 7.41421 9.91421 7.75 9.5 7.75H9C8.58579 7.75 8.25 7.41421 8.25 7Z" fill="#6F7180"/>
<path fill-rule="evenodd" clip-rule="evenodd" d="M12.25 7C12.25 6.58579 12.5858 6.25 13 6.25H13.5C13.9142 6.25 14.25 6.58579 14.25 7C14.25 7.41421 13.9142 7.75 13.5 7.75H13C12.5858 7.75 12.25 7.41421 12.25 7Z" fill="#6F7180"/>
<path fill-rule="evenodd" clip-rule="evenodd" d="M4.25 11C4.25 10.5858 4.58579 10.25 5 10.25H5.5C5.91421 10.25 6.25 10.5858 6.25 11C6.25 11.4142 5.91421 11.75 5.5 11.75H5C4.58579 11.75 4.25 11.4142 4.25 11Z" fill="#6F7180"/>
<path fill-rule="evenodd" clip-rule="evenodd" d="M8.25 11C8.25 10.5858 8.58579 10.25 9 10.25H9.5C9.91421 10.25 10.25 10.5858 10.25 11C10.25 11.4142 9.91421 11.75 9.5 11.75H9C8.58579 11.75 8.25 11.4142 8.25 11Z" fill="#6F7180"/>
<path fill-rule="evenodd" clip-rule="evenodd" d="M12.25 11C12.25 10.5858 12.5858 10.25 13 10.25H13.5C13.9142 10.25 14.25 10.5858 14.25 11C14.25 11.4142 13.9142 11.75 13.5 11.75H13C12.5858 11.75 12.25 11.4142 12.25 11Z" fill="#6F7180"/>
</svg>
