<svg width="24" height="25" viewBox="0 0 24 25" fill="none" xmlns="http://www.w3.org/2000/svg">
<path d="M2.5 12.0098C2.5 6.75842 6.74913 2.50977 12 2.50977C17.2513 2.50977 21.5 6.75898 21.5 12.0098C21.5 17.2611 17.2509 21.5098 12 21.5098C6.74866 21.5098 2.5 17.2606 2.5 12.0098ZM2.89535 12.0098C2.89535 17.0306 6.97925 21.1144 12 21.1144C17.0208 21.1144 21.1046 17.0306 21.1046 12.0098C21.1046 6.98897 17.0208 2.90512 12 2.90512C6.97925 2.90512 2.89535 6.98897 2.89535 12.0098Z" fill="#12131C" stroke="#32373D"/>
<path d="M11.4811 10.9852C11.4807 10.9851 11.4814 10.9833 11.4843 10.9798C11.483 10.9835 11.4815 10.9852 11.4811 10.9852ZM11.4866 10.9772C11.4929 10.9704 11.5058 10.9593 11.5302 10.9445C11.6101 10.8961 11.7666 10.8457 12.0001 10.8457C12.217 10.8457 12.3815 10.8948 12.4735 10.9486C12.5025 10.9655 12.5185 10.9785 12.5268 10.9869V15.9371C12.516 15.949 12.495 15.968 12.457 15.9922C12.3568 16.0561 12.1946 16.1113 12.0001 16.1113C11.7893 16.1113 11.6345 16.0546 11.5468 15.9967C11.5132 15.9745 11.4954 15.9572 11.4866 15.9467V10.9772ZM11.4788 15.9355C11.479 15.9355 11.4796 15.9365 11.4805 15.9387C11.4792 15.9366 11.4787 15.9355 11.4788 15.9355ZM12.5372 15.9232C12.5373 15.9233 12.5368 15.9244 12.5353 15.9265C12.5364 15.9243 12.5371 15.9232 12.5372 15.9232ZM12.5348 10.9973C12.5345 10.9974 12.533 10.9956 12.5315 10.9919C12.5344 10.9954 12.5352 10.9973 12.5348 10.9973Z" fill="#12131C" stroke="#32373D"/>
<path d="M11.4209 8.18652C11.4209 8.01992 11.6097 7.75195 12.0002 7.75195C12.3734 7.75195 12.5665 8.01624 12.5665 8.18652C12.5665 8.3653 12.364 8.6343 12.0002 8.6343C11.6191 8.6343 11.4209 8.36155 11.4209 8.18652Z" fill="#12131C" stroke="#32373D"/>
</svg>
