<svg width="12" height="14" viewBox="0 0 12 14" fill="none" xmlns="http://www.w3.org/2000/svg">
<path d="M6.63382 13.3691L6.63335 13.3696C6.27724 13.7265 5.6966 13.7276 5.33931 13.3697L5.33884 13.3692L5.33844 13.3688L5.33795 13.3684L0.463444 8.47021C0.107416 8.11244 0.108652 7.53366 0.466551 7.1775C0.824362 6.82138 1.4031 6.82275 1.75922 7.18055L5.03222 10.4694L5.07227 10.5096L5.07227 10.4529L5.07227 1.59863C5.07227 1.0938 5.48149 0.68457 5.98633 0.68457C6.49117 0.68457 6.90039 1.0938 6.90039 1.59863L6.90039 10.4529L6.90039 10.5097L6.94044 10.4694L10.2134 7.18051C10.5696 6.8227 11.1483 6.82133 11.5061 7.17745C11.864 7.53361 11.8653 8.11235 11.5092 8.47016L6.63472 13.3683L6.63422 13.3688L6.63383 13.3691L6.63382 13.3691Z" fill="#32373D" stroke="#32373D" stroke-width="0.046875"/>
</svg>
