<svg width="24" height="24" viewBox="0 0 24 24" fill="none" xmlns="http://www.w3.org/2000/svg">
<path d="M12.6636 16.475L12.6645 16.4742L17.5395 11.5756C17.9047 11.2086 17.9033 10.615 17.5363 10.2497C17.1693 9.88445 16.5758 9.88586 16.2105 10.2528L12.9375 13.5418L12.9375 4.6875C12.9375 4.16972 12.5178 3.75 12 3.75C11.4822 3.75 11.0625 4.16972 11.0625 4.6875L11.0625 13.5417L7.7895 10.2529C7.42425 9.8859 6.83067 9.8845 6.46369 10.2497C6.09661 10.615 6.09535 11.2087 6.4605 11.5756L11.3355 16.4742L11.3364 16.4751C11.7029 16.8423 12.2984 16.8411 12.6636 16.475Z" fill="#F7F7F8"/>
<rect x="7" y="18.75" width="10" height="1.5" rx="0.75" fill="#F7F7F8"/>
</svg>
