<svg width="19" height="18" viewBox="0 0 19 18" fill="none" xmlns="http://www.w3.org/2000/svg">
<path d="M9.5 18C7.71997 18 5.97991 17.4722 4.49987 16.4832C3.01983 15.4943 1.86628 14.0887 1.18509 12.4442C0.5039 10.7996 0.32567 8.99002 0.672937 7.24419C1.0202 5.49836 1.87737 3.89472 3.13604 2.63604C4.39472 1.37737 5.99836 0.520204 7.74419 0.172937C9.49002 -0.17433 11.2996 0.00389957 12.9442 0.685088C14.5887 1.36628 15.9943 2.51983 16.9832 3.99987C17.9722 5.47991 18.5 7.21997 18.5 9C18.4972 11.3861 17.5481 13.6737 15.8609 15.3609C14.1737 17.0481 11.8861 17.9972 9.5 18ZM9.5 1.5C8.01664 1.5 6.5666 1.93987 5.33323 2.76398C4.09986 3.58809 3.13856 4.75943 2.57091 6.12988C2.00325 7.50032 1.85473 9.00832 2.14411 10.4632C2.4335 11.918 3.14781 13.2544 4.1967 14.3033C5.2456 15.3522 6.58197 16.0665 8.03683 16.3559C9.49168 16.6453 10.9997 16.4968 12.3701 15.9291C13.7406 15.3614 14.9119 14.4001 15.736 13.1668C16.5601 11.9334 17 10.4834 17 9C16.9977 7.01158 16.2068 5.10525 14.8008 3.69922C13.3948 2.2932 11.4884 1.50229 9.5 1.5Z" fill="#28B78D"/>
<path d="M8.9673 12.1123C9.10795 12.2529 9.29868 12.3319 9.49755 12.3319C9.69642 12.3319 9.88715 12.2529 10.0278 12.1123L12.9824 9.15772C13.119 9.01627 13.1946 8.82682 13.1929 8.63017C13.1912 8.43352 13.1123 8.24541 12.9733 8.10636C12.8342 7.9673 12.6461 7.88842 12.4495 7.88671C12.2528 7.88501 12.0634 7.9606 11.9219 8.09722L10.2498 9.76747V3.13672C10.2498 2.93781 10.1708 2.74704 10.0301 2.60639C9.88948 2.46574 9.69871 2.38672 9.4998 2.38672C9.30089 2.38672 9.11012 2.46574 8.96947 2.60639C8.82882 2.74704 8.7498 2.93781 8.7498 3.13672V9.77197L7.07767 8.09984C6.93622 7.96323 6.74677 7.88763 6.55012 7.88934C6.35348 7.89105 6.16537 7.96992 6.02631 8.10898C5.88725 8.24804 5.80838 8.43615 5.80667 8.63279C5.80496 8.82944 5.88056 9.01889 6.01717 9.16034L8.9673 12.1123Z" fill="#28B78D"/>
<path d="M12.4526 13.2979H6.54785C6.34894 13.2979 6.15817 13.3769 6.01752 13.5175C5.87687 13.6582 5.79785 13.8489 5.79785 14.0479C5.79785 14.2468 5.87687 14.4375 6.01752 14.5782C6.15817 14.7188 6.34894 14.7979 6.54785 14.7979H12.4526C12.6515 14.7979 12.8423 14.7188 12.9829 14.5782C13.1236 14.4375 13.2026 14.2468 13.2026 14.0479C13.2026 13.8489 13.1236 13.6582 12.9829 13.5175C12.8423 13.3769 12.6515 13.2979 12.4526 13.2979Z" fill="#28B78D"/>
</svg>
