<svg width="10" height="10" viewBox="0 0 10 10" fill="none" xmlns="http://www.w3.org/2000/svg">
<path d="M5.51051 9.78848L5.5112 9.78783L9.26119 6.01966C9.54212 5.73736 9.54107 5.28076 9.25874 4.99977C8.97645 4.7188 8.51985 4.71989 8.23889 5.00218L5.7212 7.53213L5.7212 0.721153C5.7212 0.32286 5.39834 -1.7803e-07 5.00004 -1.9544e-07C4.60175 -2.1285e-07 4.27889 0.32286 4.27889 0.721153L4.27889 7.5321L1.7612 5.00222C1.48024 4.71992 1.02364 4.71884 0.741346 4.9998C0.458978 5.2808 0.458005 5.73743 0.738894 6.01969L4.48889 9.78786L4.48958 9.78851C4.77147 10.071 5.22955 10.0701 5.51051 9.78848Z" fill="#6F7180"/>
</svg>
