<svg width="12" height="12" viewBox="0 0 12 12" fill="none" xmlns="http://www.w3.org/2000/svg">
<path d="M11.5291 3.93759C11.8314 3.63524 12.0002 3.23211 12.0002 2.80319C12.0002 2.37428 11.8338 1.97114 11.5291 1.66879L10.3337 0.473449C10.029 0.16641 9.6259 0 9.19698 0C8.76806 0 8.36493 0.16641 8.06258 0.471105L0.606931 7.92675C0.189734 8.34395 -0.0305842 8.91818 0.0022291 9.50648L-0.000114704 11.4143C-0.000114704 11.569 0.0608243 11.719 0.170983 11.8292C0.281142 11.9393 0.428802 12.0003 0.585837 12.0003L2.4937 11.9979C3.08199 12.0308 3.65622 11.8104 4.07342 11.3932C4.30311 11.1635 4.30311 10.7932 4.07342 10.5635C3.84373 10.3338 3.47341 10.3338 3.24371 10.5635C3.0609 10.7464 2.80542 10.8424 2.5476 10.826C2.53588 10.826 2.52182 10.8237 2.5101 10.8237L1.17179 10.8284L1.17413 9.49007C1.17413 9.47835 1.17413 9.46429 1.17179 9.45257C1.15538 9.19475 1.25148 8.93928 1.43429 8.75646L7.64772 2.54303L9.45714 4.35245L4.78828 9.02131C4.55859 9.251 4.55859 9.62132 4.78828 9.85102C5.01797 10.0807 5.3883 10.0807 5.61799 9.85102L11.5291 3.93759ZM8.47743 1.71332L8.89229 1.29847C8.97432 1.21644 9.08213 1.1719 9.19932 1.1719C9.31417 1.1719 9.42433 1.21644 9.50636 1.29847L10.7017 2.49381C10.8705 2.66256 10.8705 2.93913 10.7017 3.10789L10.2868 3.52274L8.47743 1.71332Z" fill="#6F7180"/>
<path d="M11.4142 10.8284H6.12892C5.80548 10.8284 5.54297 11.0909 5.54297 11.4143C5.54297 11.7378 5.80548 12.0003 6.12892 12.0003H11.4142C11.7376 12.0003 12.0002 11.7378 12.0002 11.4143C12.0002 11.0909 11.7376 10.8284 11.4142 10.8284Z" fill="#6F7180"/>
</svg>
