<svg width="25" height="24" viewBox="0 0 25 24" fill="none" xmlns="http://www.w3.org/2000/svg">
<rect width="24" height="24" rx="12" transform="matrix(1 0 0 -1 0.5 24)" fill="#F7F7F8"/>
<path d="M12.4999 13.6641C11.9075 13.6641 11.4863 13.4139 11.4863 13.0454V8.03027C11.4863 7.71434 11.9075 7.39848 12.4999 7.39848C13.0659 7.39848 13.5266 7.71434 13.5266 8.03027V13.0454C13.5266 13.4139 13.0659 13.6641 12.4999 13.6641Z" fill="#F94D4D"/>
<path d="M12.5007 16.7578C11.8952 16.7578 11.4214 16.3234 11.4214 15.8232C11.4214 15.323 11.8953 14.8755 12.5007 14.8755C13.0931 14.8755 13.567 15.323 13.567 15.8232C13.567 16.3234 13.093 16.7578 12.5007 16.7578Z" fill="#F94D4D"/>
</svg>
