<svg width="32" height="32" viewBox="0 0 32 32" fill="none" xmlns="http://www.w3.org/2000/svg">
<g clip-path="url(#clip0_23_1580)">
<path d="M32 26.9902C32 29.7571 29.7571 32 26.9902 32H5.00978C2.24294 32 0 29.7571 0 26.9902V6.51272L6.51272 0H26.9902C29.7571 0 32 2.24294 32 5.00978V26.9902Z" fill="#00C471"/>
<path opacity="0.2" d="M0 10.0029V6.51273H3.47347L0 10.0029Z" fill="#5D5D5D"/>
<path d="M0 6.51272H4.34186C5.53581 6.51272 6.51272 5.55247 6.51272 4.35851V0L0 6.51272Z" fill="#B2EED5"/>
<path d="M12.5887 21.5L15.4927 17.132L12.6727 12.86H14.6767L16.5127 15.74L18.3247 12.86H20.3407L17.5207 17.132L20.4127 21.5H18.4087L16.5127 18.524L14.6047 21.5H12.5887Z" fill="white"/>
</g>
<defs>
<clipPath id="clip0_23_1580">
<rect width="32" height="32" fill="white"/>
</clipPath>
</defs>
</svg>
