<svg width="19" height="18" viewBox="0 0 19 18" fill="none" xmlns="http://www.w3.org/2000/svg">
<path d="M15.9801 2.5195L16.0154 2.48415L15.9801 2.5195C16.433 2.97234 16.6964 3.58737 16.8355 4.62238L16.8851 4.61572L16.8355 4.62238C16.9772 5.6764 16.9786 7.06283 16.9786 9.00003C16.9786 10.9372 16.9772 12.3236 16.8355 13.3777L16.8851 13.3843L16.8355 13.3777C16.6964 14.4127 16.433 15.0277 15.9801 15.4806C15.5598 15.9008 15.0006 16.1573 14.0983 16.3034C13.1767 16.4526 11.9736 16.4756 10.3124 16.4786C9.94752 16.4793 9.65242 16.7756 9.65304 17.1403C9.65374 17.5051 9.94998 17.8003 10.3147 17.7996C11.9541 17.7966 13.2655 17.7763 14.3094 17.6073C15.3726 17.4352 16.2299 17.0989 16.9142 16.4146C17.6533 15.6755 17.9858 14.7351 18.1447 13.5537L18.0995 13.5476L18.1447 13.5537C18.2996 12.4015 18.2996 10.9263 18.2996 9.05049V9.04675V8.95331V8.94957C18.2996 7.07378 18.2996 5.59858 18.1447 4.44637L18.0952 4.45303L18.1447 4.44637C17.9858 3.26489 17.6533 2.32464 16.9142 1.58546C16.175 0.84628 15.2347 0.513741 14.0532 0.354894C12.901 0.199985 11.4259 0.199992 9.55011 0.2L9.54627 0.2H9.45283L9.44899 0.2C7.57326 0.199992 6.0981 0.199985 4.9459 0.354894C3.76441 0.513741 2.82417 0.84628 2.08499 1.58546C1.40069 2.26975 1.06437 3.12705 0.892273 4.19021C0.723313 5.23408 0.702954 6.54545 0.700001 8.18484C0.699349 8.54967 0.994512 8.84592 1.35928 8.84654C1.72404 8.84716 2.02027 8.55207 2.02094 8.1873C2.02392 6.52602 2.04707 5.3229 2.19624 4.40128C2.34229 3.49898 2.59874 2.93978 3.01903 2.5195C3.47188 2.06665 4.08691 1.8032 5.12191 1.66405C6.17593 1.52234 7.56236 1.52093 9.49955 1.52093C11.4367 1.52093 12.8232 1.52234 13.8772 1.66405C14.9122 1.8032 15.5273 2.06666 15.9801 2.5195Z" fill="#32373D" stroke="#32373D" stroke-width="0.1"/>
<path d="M10.5188 4.26964C10.1541 4.26964 9.85837 4.56535 9.85837 4.9301C9.85837 5.29486 10.1541 5.59057 10.5188 5.59057H11.9766L9.0344 8.53286C8.77646 8.79079 8.77646 9.20898 9.0344 9.46691C9.29233 9.72483 9.71045 9.72483 9.96839 9.46691L12.9107 6.52464V7.98244C12.9107 8.3472 13.2064 8.64291 13.5712 8.64291C13.9359 8.64291 14.2316 8.3472 14.2316 7.98244V4.9301C14.2316 4.56535 13.9359 4.26964 13.5712 4.26964H10.5188Z" fill="#32373D" stroke="#32373D" stroke-width="0.1"/>
<path d="M6.49057 10.0331C6.00372 9.96758 5.39208 9.96758 4.66469 9.96758H4.65862H4.57397H4.5679C3.84051 9.96758 3.22887 9.96758 2.74203 10.0331L6.49057 10.0331ZM6.49057 10.0331C7.00709 10.1025 7.48076 10.2563 7.86234 10.6379M6.49057 10.0331L7.86234 17.1299C8.24391 16.7483 8.39767 16.2747 8.46711 15.7582C8.53259 15.2713 8.53259 14.6597 8.53259 13.9323V13.9262V13.8415V13.8355C8.53259 13.1081 8.53259 12.4964 8.46711 12.0096C8.39767 11.4931 8.24391 11.0194 7.86234 10.6379M7.86234 10.6379L7.82698 10.6732L7.86234 10.6379C7.86234 10.6379 7.86234 10.6379 7.86234 10.6379ZM1.37026 10.6379C1.37026 10.6379 1.37025 10.6379 1.37025 10.6379C0.98867 11.0194 0.834938 11.4931 0.76549 12.0096C0.699956 12.4971 0.699976 13.1097 0.700001 13.8383L0.700001 13.8415V13.9262L0.700001 13.9294C0.699976 14.6581 0.699956 15.2707 0.76549 15.7582C0.834938 16.2747 0.98867 16.7483 1.37025 17.1299L1.40561 10.6732L1.37026 10.6379ZM1.37026 10.6379C1.75184 10.2563 2.22551 10.1025 2.74202 10.0331L1.37026 10.6379ZM2.30429 11.5719C2.39956 11.4766 2.54803 11.392 2.91804 11.3422L4.61629 16.5292C3.83163 16.5292 3.30455 16.5279 2.91138 16.4751L2.91805 16.4255C2.91805 16.4255 2.91804 16.4255 2.91804 16.4255C2.54803 16.3758 2.39956 16.2911 2.30429 16.1959C2.20903 16.1006 2.1244 15.9522 2.07465 15.5821C2.02235 15.1931 2.02094 14.67 2.02094 13.8839C2.02094 13.0978 2.02235 12.5746 2.07465 12.1856C2.1244 11.8156 2.20903 11.6671 2.30429 11.5719ZM6.9283 16.1959C6.83304 16.2911 6.68456 16.3758 6.31456 16.4255L6.31455 11.3422C6.31455 11.3422 6.31455 11.3422 6.31456 11.3422C6.68456 11.392 6.83304 11.4766 6.9283 11.5719C7.02356 11.6671 7.1082 11.8156 7.15794 12.1856C7.21025 12.5746 7.21165 13.0978 7.21165 13.8839C7.21165 14.67 7.21025 15.1931 7.15795 15.5821C7.1082 15.9522 7.02356 16.1006 6.9283 16.1959Z" fill="#32373D" stroke="#32373D" stroke-width="0.1"/>
</svg>
