<svg width="19" height="19" viewBox="0 0 19 19" fill="none" xmlns="http://www.w3.org/2000/svg">
<path fill-rule="evenodd" clip-rule="evenodd" d="M4.3 1.75C3.16782 1.75 2.25 2.66781 2.25 3.8V15.34C2.25 16.4722 3.16782 17.39 4.3 17.39H14.7C15.8322 17.39 16.75 16.4722 16.75 15.34V6C16.75 5.58579 17.0858 5.25 17.5 5.25C17.9142 5.25 18.25 5.58579 18.25 6V15.34C18.25 17.3006 16.6606 18.89 14.7 18.89H4.3C2.33939 18.89 0.75 17.3006 0.75 15.34V3.8C0.75 1.83939 2.33939 0.25 4.3 0.25H12.5C12.9142 0.25 13.25 0.585786 13.25 1C13.25 1.41421 12.9142 1.75 12.5 1.75H4.3Z" fill="#6F7180"/>
<path fill-rule="evenodd" clip-rule="evenodd" d="M11.75 1.32798C11.75 0.367793 12.9109 -0.113082 13.5899 0.56588L17.9337 4.90968C18.6126 5.58864 18.1318 6.74955 17.1716 6.74955H12.8278C12.2325 6.74955 11.75 6.26701 11.75 5.67178V1.32798ZM13.25 2.34733V5.24955H16.1522L13.25 2.34733Z" fill="#6F7180"/>
<path fill-rule="evenodd" clip-rule="evenodd" d="M6.5 13.25C6.5 12.8358 6.83579 12.5 7.25 12.5H11.75C12.1642 12.5 12.5 12.8358 12.5 13.25C12.5 13.6642 12.1642 14 11.75 14H7.25C6.83579 14 6.5 13.6642 6.5 13.25Z" fill="#6F7180"/>
<path fill-rule="evenodd" clip-rule="evenodd" d="M5.5 10.25C5.5 9.83579 5.83579 9.5 6.25 9.5H12.75C13.1642 9.5 13.5 9.83579 13.5 10.25C13.5 10.6642 13.1642 11 12.75 11H6.25C5.83579 11 5.5 10.6642 5.5 10.25Z" fill="#6F7180"/>
</svg>
