<svg width="24" height="24" viewBox="0 0 24 24" fill="none" xmlns="http://www.w3.org/2000/svg">
<path fill-rule="evenodd" clip-rule="evenodd" d="M3.25 6.8C3.25 4.83939 4.83939 3.25 6.8 3.25H8.07005C9.42984 3.25 10.6702 4.02673 11.2638 5.25008L11.3157 5.35697C11.3902 5.51041 11.4835 5.65395 11.5935 5.78427L11.7341 5.95089C12.1237 6.41233 12.6968 6.67857 13.3007 6.67857H17.2C19.1606 6.67857 20.75 8.26796 20.75 10.2286V17.2C20.75 19.1606 19.1606 20.75 17.2 20.75H6.8C4.83939 20.75 3.25 19.1606 3.25 17.2V6.8ZM6.8 4.75C5.66782 4.75 4.75 5.66782 4.75 6.8V17.2C4.75 18.3322 5.66782 19.25 6.8 19.25H17.2C18.3322 19.25 19.25 18.3322 19.25 17.2V10.2286C19.25 9.09639 18.3322 8.17857 17.2 8.17857H13.3007C12.2549 8.17857 11.2624 7.71753 10.5879 6.91845L10.4473 6.75182C10.2568 6.52614 10.0952 6.27757 9.96623 6.01187L9.91435 5.90497C9.57152 5.19854 8.85528 4.75 8.07005 4.75H6.8Z" fill="#12131C"/>
<path fill-rule="evenodd" clip-rule="evenodd" d="M3.58716 10.6542C3.58716 10.24 3.92294 9.90417 4.33716 9.90417H19.3372C19.7514 9.90417 20.0872 10.24 20.0872 10.6542C20.0872 11.0684 19.7514 11.4042 19.3372 11.4042H4.33716C3.92294 11.4042 3.58716 11.0684 3.58716 10.6542Z" fill="#12131C"/>
<path fill-rule="evenodd" clip-rule="evenodd" d="M13.25 14C13.25 13.5858 13.5858 13.25 14 13.25L17 13.25C17.4142 13.25 17.75 13.5858 17.75 14C17.75 14.4142 17.4142 14.75 17 14.75L14 14.75C13.5858 14.75 13.25 14.4142 13.25 14Z" fill="#12131C"/>
</svg>
