<svg width="4" height="14" viewBox="0 0 4 14" fill="none" xmlns="http://www.w3.org/2000/svg">
<path d="M3.34801 11.6471C3.76222 12.3646 3.51641 13.282 2.79897 13.6962C2.08153 14.1104 1.16415 13.8646 0.749933 13.1471C0.33572 12.4297 0.581532 11.5123 1.29897 11.0981C2.01641 10.6839 2.9338 10.9297 3.34801 11.6471Z" fill="#222628"/>
<path d="M3.34799 0.852912C3.76221 1.57035 3.5164 2.48774 2.79896 2.90195C2.08152 3.31616 1.16413 3.07035 0.749918 2.35291C0.335705 1.63547 0.581518 0.718087 1.29896 0.303873C2.0164 -0.11034 2.93378 0.135473 3.34799 0.852912Z" fill="#222628"/>
<path d="M3.34799 6.29905C3.76221 7.01649 3.5164 7.93387 2.79896 8.34809C2.08152 8.7623 1.16413 8.51649 0.749918 7.79905C0.335705 7.08161 0.581518 6.16422 1.29896 5.75001C2.0164 5.3358 2.93378 5.58161 3.34799 6.29905Z" fill="#222628"/>
</svg>
