<svg width="18" height="18" viewBox="0 0 18 18" fill="none" xmlns="http://www.w3.org/2000/svg">
<path fill-rule="evenodd" clip-rule="evenodd" d="M0.25 3.8C0.25 1.83939 1.83939 0.25 3.8 0.25H14.2C16.1606 0.25 17.75 1.83939 17.75 3.8V14.2C17.75 16.1606 16.1606 17.75 14.2 17.75H3.8C1.83939 17.75 0.25 16.1606 0.25 14.2V3.8ZM3.8 1.75C2.66782 1.75 1.75 2.66782 1.75 3.8V14.2C1.75 15.3322 2.66782 16.25 3.8 16.25H14.2C15.3322 16.25 16.25 15.3322 16.25 14.2V3.8C16.25 2.66782 15.3322 1.75 14.2 1.75H3.8Z" fill="#12131C"/>
</svg>
