<svg width="30" height="30" viewBox="0 0 30 30" fill="none" xmlns="http://www.w3.org/2000/svg">
<path d="M23.25 0.21875H6.75C3.14289 0.21875 0.21875 3.14289 0.21875 6.75V23.25C0.21875 26.8571 3.14289 29.7812 6.75 29.7812H23.25C26.8571 29.7812 29.7812 26.8571 29.7812 23.25V6.75C29.7812 3.14289 26.8571 0.21875 23.25 0.21875Z" fill="#C1C0C9"/>
<path d="M15 21.875C14.6353 21.875 14.2856 21.7301 14.0277 21.4723C13.7699 21.2144 13.625 20.8647 13.625 20.5V9.5C13.625 9.13533 13.7699 8.78559 14.0277 8.52773C14.2856 8.26987 14.6353 8.125 15 8.125C15.3647 8.125 15.7144 8.26987 15.9723 8.52773C16.2301 8.78559 16.375 9.13533 16.375 9.5V20.5C16.375 20.8647 16.2301 21.2144 15.9723 21.4723C15.7144 21.7301 15.3647 21.875 15 21.875Z" fill="white"/>
<path d="M9.5 16.375C9.13533 16.375 8.78559 16.2301 8.52773 15.9723C8.26987 15.7144 8.125 15.3647 8.125 15C8.125 14.6353 8.26987 14.2856 8.52773 14.0277C8.78559 13.7699 9.13533 13.625 9.5 13.625H20.5C20.8647 13.625 21.2144 13.7699 21.4723 14.0277C21.7301 14.2856 21.875 14.6353 21.875 15C21.875 15.3647 21.7301 15.7144 21.4723 15.9723C21.2144 16.2301 20.8647 16.375 20.5 16.375H9.5Z" fill="white"/>
</svg>
