<svg width="14" height="12" viewBox="0 0 14 12" fill="none" xmlns="http://www.w3.org/2000/svg">
<path fill-rule="evenodd" clip-rule="evenodd" d="M0.5 2.80002C0.5 1.41047 1.49897 0.166687 2.86667 0.166687L3.79144 0.166687C4.68139 0.166687 5.46273 0.717399 5.86129 1.53868C5.92201 1.6638 5.99593 1.77754 6.08033 1.87752L6.1649 1.97771C6.42994 2.2917 6.77916 2.4524 7.12625 2.4524L9.8 2.4524C11.0788 2.4524 12.0352 3.53971 12.1542 4.81685C12.5655 4.92018 12.9255 5.12998 13.1595 5.47399C13.5283 6.01593 13.4626 6.70508 13.109 7.37602L13.0995 7.39409L10.972 10.7373C10.5375 11.42 9.78447 11.8334 8.9753 11.8334L2.86667 11.8334C2.26747 11.8334 1.72801 11.5862 1.32038 11.1949C0.810464 10.7053 0.5 9.98633 0.5 9.20002L0.5 2.80002ZM11.1364 4.73812C10.9983 3.96273 10.4074 3.4524 9.8 3.4524L7.12625 3.4524C6.45994 3.4524 5.8393 3.14228 5.40074 2.62274L5.31617 2.52256C5.17641 2.35699 5.05751 2.17283 4.96164 1.97528C4.70713 1.45084 4.24798 1.16669 3.79144 1.16669H2.86667C2.1725 1.16669 1.5 1.83315 1.5 2.80002L1.5 9.20002C1.5 9.3347 1.51363 9.46473 1.53905 9.58857L3.08765 5.92223C3.26886 5.45259 3.63829 5.15516 4.01563 4.98098C4.39296 4.8068 4.81183 4.73812 5.17138 4.73812L11.1364 4.73812ZM2.19547 10.6218C2.39783 10.7592 2.62734 10.8334 2.86667 10.8334L8.9753 10.8334C9.44257 10.8334 9.87744 10.5946 10.1283 10.2004L12.2334 6.89246C12.4809 6.41384 12.4136 6.15539 12.3328 6.03653C12.2381 5.8974 11.9861 5.73812 11.4805 5.73812L5.17138 5.73812C4.92673 5.73812 4.65606 5.78675 4.43474 5.88891C4.216 5.98988 4.08011 6.12494 4.01923 6.28583L4.01587 6.29469L2.2295 10.524C2.21602 10.5559 2.20466 10.5886 2.19547 10.6218Z" fill="#32373D"/>
</svg>
