<svg width="19" height="17" viewBox="0 0 19 17" fill="none" xmlns="http://www.w3.org/2000/svg">
<path fill-rule="evenodd" clip-rule="evenodd" d="M12.9 16.2C12.66 16.2 12.435 16.11 12.27 15.93C12.09 15.765 12 15.54 12 15.3C12 15.06 12.09 14.835 12.27 14.67L15.015 11.925C15.105 11.835 15.12 11.715 15.075 11.595C15.03 11.475 14.925 11.4 14.805 11.4H8.1C5.94 11.4 3.9 10.56 2.37 9.03C0.87 7.515 0 5.43 0 3.3V0.9C0 0.66 0.09 0.435 0.27 0.27C0.435 0.09 0.66 0 0.9 0C1.14 0 1.365 0.09 1.53 0.27C1.71 0.435 1.8 0.66 1.8 0.9V3.3C1.8 4.98 2.46 6.57 3.645 7.755C4.83 8.94 6.42 9.6 8.1 9.6H14.805C14.925 9.6 15.03 9.525 15.075 9.42C15.12 9.315 15.09 9.18 15.015 9.09L12.27 6.33C12.18 6.24 12.12 6.15 12.06 6.03C12.015 5.925 11.985 5.82 11.985 5.7C11.985 5.58 12 5.46 12.06 5.34C12.105 5.235 12.165 5.13 12.255 5.04C12.345 4.95 12.435 4.89 12.555 4.845C12.66 4.8 12.78 4.785 12.9 4.785C13.035 4.785 13.14 4.815 13.26 4.86C13.365 4.905 13.47 4.98 13.56 5.07L18.36 9.87C18.51 10.035 18.6 10.26 18.6 10.5C18.6 10.74 18.51 10.965 18.33 11.13L13.53 15.93C13.365 16.11 13.14 16.2 12.9 16.2Z" fill="#32373D"/>
</svg>
