<svg width="22" height="20" viewBox="0 0 22 20" fill="none" xmlns="http://www.w3.org/2000/svg">
<path fill-rule="evenodd" clip-rule="evenodd" d="M9.46969 12.4696C9.76259 12.1767 10.2375 12.1767 10.5303 12.4696C10.6928 12.6321 10.8858 12.761 11.0981 12.8489C11.3104 12.9369 11.538 12.9822 11.7678 12.9822C11.9976 12.9822 12.2252 12.9369 12.4375 12.849C12.6498 12.761 12.8427 12.6321 13.0052 12.4696C13.1677 12.3071 13.2966 12.1142 13.3846 11.9019C13.4725 11.6896 13.5178 11.462 13.5178 11.2322C13.5178 11.0024 13.4726 10.7748 13.3846 10.5625C13.2967 10.3502 13.1678 10.1573 13.0053 9.99476C12.7124 9.70186 12.7124 9.22698 13.0053 8.9341C13.2982 8.64121 13.7731 8.64122 14.066 8.93412C14.3677 9.23591 14.6071 9.59419 14.7704 9.98851C14.9338 10.3828 15.0178 10.8054 15.0178 11.2322C15.0178 11.659 14.9337 12.0816 14.7704 12.4759C14.6071 12.8703 14.3677 13.2285 14.0659 13.5303C13.7641 13.8321 13.4058 14.0715 13.0115 14.2348C12.6172 14.3981 12.1945 14.4822 11.7677 14.4822C11.3409 14.4822 10.9183 14.3981 10.524 14.2348C10.1297 14.0714 9.77145 13.832 9.46967 13.5302C9.17678 13.2373 9.17679 12.7624 9.46969 12.4696Z" fill="#12131C"/>
<path fill-rule="evenodd" clip-rule="evenodd" d="M11 5.69993C7.34663 5.69993 4.49683 7.78678 2.01893 10.8385C1.94229 10.9329 1.94234 11.067 2.01888 11.1612C2.71221 12.0151 3.43699 12.796 4.20212 13.4771C4.49089 13.7341 4.51659 14.1766 4.25954 14.4654C4.00249 14.7541 3.56002 14.7798 3.27126 14.5228C2.43829 13.7813 1.66203 12.9428 0.932025 12.0437C0.437853 11.4351 0.438011 10.5646 0.932085 9.95607C3.52548 6.76206 6.73345 4.29993 11 4.29993C11.3866 4.29993 11.7 4.61333 11.7 4.99993C11.7 5.38653 11.3866 5.69993 11 5.69993ZM15.085 5.85948C15.2666 5.51821 15.6905 5.3888 16.0318 5.57044C17.9583 6.59584 19.6086 8.15873 21.0679 9.9561C21.5621 10.5647 21.562 11.4352 21.0679 12.0438C18.4745 15.2378 15.2666 17.6999 11 17.6999C9.3357 17.6999 7.82249 17.3237 6.44007 16.667C6.09087 16.5011 5.94227 16.0835 6.10816 15.7343C6.27404 15.3851 6.6916 15.2365 7.0408 15.4024C8.24646 15.9752 9.5553 16.2999 11 16.2999C14.6534 16.2999 17.5032 14.2131 19.9811 11.1613C20.0577 11.067 20.0577 10.9329 19.9811 10.8386C18.5896 9.12485 17.0773 7.71288 15.374 6.8063C15.0327 6.62466 14.9033 6.20075 15.085 5.85948Z" fill="currentColor"/>
<path fill-rule="evenodd" clip-rule="evenodd" d="M18.6406 0.573677C18.9398 0.860125 18.9501 1.33489 18.6637 1.63409L1.54181 19.5182C1.25537 19.8174 0.780605 19.8277 0.481405 19.5413C0.182205 19.2548 0.171867 18.7801 0.458315 18.4809L17.5802 0.596767C17.8666 0.297567 18.3414 0.28723 18.6406 0.573677Z" fill="#12131C"/>
</svg>
