<svg width="24" height="24" viewBox="0 0 24 24" fill="none" xmlns="http://www.w3.org/2000/svg">
<g clip-path="url(#clip0_321_9352)">
<path d="M20.5 2.5H3.50002C2.12264 2.49775 1.00421 3.61253 1.00196 4.98996C1.00177 5.10203 1.00913 5.21397 1.02403 5.32502C1.05947 5.59886 1.31021 5.79213 1.5841 5.75669C1.6508 5.74807 1.71507 5.72608 1.77305 5.692C1.99364 5.56366 2.24485 5.49733 2.50003 5.5H6.06005C6.70252 5.50178 7.27332 5.91039 7.48205 6.51799L7.56704 6.79197C7.9111 7.81043 8.86505 8.49705 9.94004 8.49996H21.5C21.7622 8.50019 22.0198 8.56914 22.247 8.69997C22.3238 8.74474 22.4111 8.76818 22.5 8.76799C22.7761 8.76799 23 8.54411 23 8.26797V4.99999C23 3.61928 21.8807 2.5 20.5 2.5Z" fill="#B2CDEE"/>
<path d="M22.753 7.83802C22.3726 7.61635 21.9402 7.49972 21.5 7.50001H9.93998C9.29751 7.49822 8.72672 7.08961 8.51798 6.48202L8.433 6.20804C8.08894 5.18958 7.13498 4.50296 6.06 4.50005H2.49998C2.07037 4.49588 1.64761 4.60744 1.27598 4.82307C0.487875 5.26411 -0.000234291 6.09685 8.43668e-08 7.00004V19C8.43668e-08 20.3807 1.11928 21.5 2.49998 21.5H21.5C22.8807 21.5 24 20.3807 24 19V10C24.003 9.10763 23.527 8.28226 22.753 7.83802Z" fill="#3C46F5"/>
</g>
<defs>
<clipPath id="clip0_321_9352">
<rect width="24" height="24" fill="white"/>
</clipPath>
</defs>
</svg>
