<svg width="20" height="20" viewBox="0 0 20 20" fill="none" xmlns="http://www.w3.org/2000/svg">
<path fill-rule="evenodd" clip-rule="evenodd" d="M10 16.666C13.6819 16.666 16.6667 13.6812 16.6667 9.99935C16.6667 6.31745 13.6819 3.33268 10 3.33268C6.31812 3.33268 3.33335 6.31745 3.33335 9.99935C3.33335 13.6812 6.31812 16.666 10 16.666ZM10 18.3327C14.6024 18.3327 18.3334 14.6017 18.3334 9.99935C18.3334 5.39698 14.6024 1.66602 10 1.66602C5.39765 1.66602 1.66669 5.39698 1.66669 9.99935C1.66669 14.6017 5.39765 18.3327 10 18.3327Z" fill="#6F7180"/>
<path fill-rule="evenodd" clip-rule="evenodd" d="M5.8464 10.9039C6.26814 10.7196 6.7594 10.9121 6.94367 11.3339C7.4588 12.5129 8.63442 13.3342 10 13.3342C11.3656 13.3342 12.5412 12.5129 13.0563 11.3339C13.2406 10.9121 13.7319 10.7196 14.1536 10.9039C14.5754 11.0882 14.7679 11.5794 14.5836 12.0012C13.8128 13.7653 12.0516 15.0009 10 15.0009C7.94839 15.0009 6.18721 13.7653 5.41641 12.0012C5.23215 11.5794 5.42466 11.0882 5.8464 10.9039Z" fill="#6F7180"/>
<path d="M7.49998 7.49935C7.49998 7.95959 7.12688 8.33268 6.66665 8.33268C6.20641 8.33268 5.83331 7.95959 5.83331 7.49935C5.83331 7.03911 6.20641 6.66602 6.66665 6.66602C7.12688 6.66602 7.49998 7.03911 7.49998 7.49935Z" fill="#6F7180"/>
<path d="M14.1667 7.49935C14.1667 7.95959 13.7936 8.33268 13.3333 8.33268C12.8731 8.33268 12.5 7.95959 12.5 7.49935C12.5 7.03911 12.8731 6.66602 13.3333 6.66602C13.7936 6.66602 14.1667 7.03911 14.1667 7.49935Z" fill="#6F7180"/>
</svg>
