<svg width="52" height="53" viewBox="0 0 52 53" fill="none" xmlns="http://www.w3.org/2000/svg">
<rect y="0.5" width="52" height="52" rx="26" fill="#F7F7F8"/>
<path d="M26.0006 22.8945C24.7172 22.8945 23.8046 23.4365 23.8046 24.2351V35.1011C23.8046 35.7856 24.7172 36.47 26.0006 36.47C27.227 36.47 28.2251 35.7856 28.2251 35.1011V24.2349C28.2251 23.4365 27.227 22.8945 26.0006 22.8945Z" fill="#3C46F5"/>
<path d="M26.0007 16.1914C24.6887 16.1914 23.6621 17.1326 23.6621 18.2163C23.6621 19.3002 24.6888 20.2698 26.0007 20.2698C27.2841 20.2698 28.3109 19.3002 28.3109 18.2163C28.3109 17.1326 27.284 16.1914 26.0007 16.1914Z" fill="#3C46F5"/>
</svg>
