<svg width="16" height="16" viewBox="0 0 16 16" fill="none" xmlns="http://www.w3.org/2000/svg">
<path d="M8.00016 1.33594C4.3155 1.33594 1.3335 4.3176 1.3335 8.0026C1.3335 11.6872 4.31516 14.6693 8.00016 14.6693C11.6848 14.6693 14.6668 11.6876 14.6668 8.0026C14.6668 4.318 11.6852 1.33594 8.00016 1.33594ZM8.00016 13.739C4.83709 13.739 2.26373 11.1657 2.26373 8.0026C2.26373 4.83951 4.83709 2.26617 8.00016 2.26617C11.1632 2.26617 13.7366 4.83951 13.7366 8.0026C13.7366 11.1657 11.1632 13.739 8.00016 13.739Z" fill="#32373D"/>
<path d="M8.00041 6.88672C7.60551 6.88672 7.32471 7.05349 7.32471 7.29919V10.6426C7.32471 10.8532 7.60551 11.0638 8.00041 11.0638C8.37775 11.0638 8.68486 10.8532 8.68486 10.6426V7.29914C8.68486 7.05346 8.37775 6.88672 8.00041 6.88672Z" fill="#32373D"/>
<path d="M8.00032 4.83203C7.59665 4.83203 7.28076 5.12161 7.28076 5.45508C7.28076 5.78857 7.59667 6.08693 8.00032 6.08693C8.39522 6.08693 8.71115 5.78857 8.71115 5.45508C8.71115 5.12161 8.39519 4.83203 8.00032 4.83203Z" fill="#32373D"/>
</svg>
