<svg width="20" height="10" viewBox="0 0 20 10" fill="none" xmlns="http://www.w3.org/2000/svg">
<path fill-rule="evenodd" clip-rule="evenodd" d="M0.25 3.8C0.25 1.83939 1.83939 0.25 3.8 0.25H5.2C7.16061 0.25 8.75 1.83939 8.75 3.8V6.2C8.75 8.16061 7.16061 9.75 5.2 9.75H3.8C1.83939 9.75 0.25 8.16061 0.25 6.2V3.8ZM3.8 1.75C2.66782 1.75 1.75 2.66782 1.75 3.8V6.2C1.75 7.33218 2.66782 8.25 3.8 8.25H5.2C6.33218 8.25 7.25 7.33218 7.25 6.2V3.8C7.25 2.66782 6.33218 1.75 5.2 1.75H3.8Z" fill="#32373D"/>
<path d="M3 5C3 4.44772 3.44772 4 4 4H5C5.55228 4 6 4.44772 6 5C6 5.55228 5.55228 6 5 6H4C3.44772 6 3 5.55228 3 5Z" fill="#32373D"/>
<path fill-rule="evenodd" clip-rule="evenodd" d="M7.25 3C7.25 2.58579 7.58579 2.25 8 2.25H19C19.4142 2.25 19.75 2.58579 19.75 3C19.75 3.41421 19.4142 3.75 19 3.75H17.75V6C17.75 6.41421 17.4142 6.75 17 6.75C16.5858 6.75 16.25 6.41421 16.25 6V3.75H14.75V5.05714C14.75 5.47136 14.4142 5.80714 14 5.80714C13.5858 5.80714 13.25 5.47136 13.25 5.05714V3.75H8C7.58579 3.75 7.25 3.41421 7.25 3Z" fill="#32373D"/>
</svg>
