<svg width="22" height="18" viewBox="0 0 22 18" fill="none" xmlns="http://www.w3.org/2000/svg">
<path d="M18.7143 0H13.5714C12.1535 0 11 1.15346 11 2.57143V5.14286C11 5.61622 11.3838 6.00001 11.8571 6.00001C12.3305 6.00001 12.7143 5.61622 12.7143 5.14286V2.57143C12.7143 2.09891 13.0985 1.71429 13.5714 1.71429H18.7143C19.1872 1.71429 19.5714 2.09891 19.5714 2.57143V12.8572C19.5714 13.3297 19.1872 13.7143 18.7143 13.7143C18.2409 13.7143 17.8571 14.0981 17.8571 14.5714C17.8571 15.0448 18.2409 15.4286 18.7143 15.4286C20.1323 15.4286 21.2857 14.2751 21.2857 12.8572V2.57143C21.2857 1.15346 20.1323 0 18.7143 0Z" fill="#32373D"/>
<path d="M17 18.0006C17.4733 18.0006 17.8571 17.6168 17.8571 17.1434C17.8571 16.6701 17.4733 16.2863 17 16.2863H16.1428V10.2863C16.1428 8.8683 14.9894 7.71484 13.5714 7.71484H4.99995C3.58198 7.71484 2.42852 8.8683 2.42852 10.2863V16.2863H1.57138C1.09802 16.2863 0.714233 16.6701 0.714233 17.1434C0.714233 17.6168 1.09802 18.0006 1.57138 18.0006H17ZM4.14281 10.2863C4.14281 9.81375 4.52702 9.42913 4.99995 9.42913H13.5714C14.0443 9.42913 14.4285 9.81375 14.4285 10.2863V16.2863H4.14281V10.2863Z" fill="#32373D"/>
</svg>
