<svg width="24" height="24" viewBox="0 0 24 24" fill="none" xmlns="http://www.w3.org/2000/svg">
<path fill-rule="evenodd" clip-rule="evenodd" d="M9.40004 9.55004C9.64857 9.21867 10.1187 9.15152 10.45 9.40004L13.85 11.95C13.9389 12.0167 14.0612 12.0167 14.15 11.95L17.55 9.40004C17.8814 9.15152 18.3515 9.21867 18.6 9.55004C18.8486 9.88142 18.7814 10.3515 18.45 10.6L15.05 13.15C14.4278 13.6167 13.5723 13.6167 12.95 13.15L9.55004 10.6C9.21867 10.3515 9.15152 9.88142 9.40004 9.55004Z" fill="#32373D"/>
<path fill-rule="evenodd" clip-rule="evenodd" d="M5.25 8.8C5.25 6.83939 6.83939 5.25 8.8 5.25H19.2C21.1606 5.25 22.75 6.83939 22.75 8.8V15.2C22.75 17.1606 21.1606 18.75 19.2 18.75H8.8C6.83939 18.75 5.25 17.1606 5.25 15.2V8.8ZM8.8 6.75C7.66782 6.75 6.75 7.66782 6.75 8.8V15.2C6.75 16.3322 7.66782 17.25 8.8 17.25H19.2C20.3322 17.25 21.25 16.3322 21.25 15.2V8.8C21.25 7.66782 20.3322 6.75 19.2 6.75H8.8Z" fill="#32373D"/>
<path fill-rule="evenodd" clip-rule="evenodd" d="M2.25 9C2.25 8.58579 2.58579 8.25 3 8.25L4 8.25C4.41421 8.25 4.75 8.58579 4.75 9C4.75 9.41421 4.41421 9.75 4 9.75L3 9.75C2.58579 9.75 2.25 9.41421 2.25 9Z" fill="#32373D"/>
<path fill-rule="evenodd" clip-rule="evenodd" d="M2.25 15C2.25 14.5858 2.58579 14.25 3 14.25L4 14.25C4.41421 14.25 4.75 14.5858 4.75 15C4.75 15.4142 4.41421 15.75 4 15.75L3 15.75C2.58579 15.75 2.25 15.4142 2.25 15Z" fill="#32373D"/>
<path fill-rule="evenodd" clip-rule="evenodd" d="M1.25 12C1.25 11.5858 1.58579 11.25 2 11.25L4 11.25C4.41421 11.25 4.75 11.5858 4.75 12C4.75 12.4142 4.41421 12.75 4 12.75L2 12.75C1.58579 12.75 1.25 12.4142 1.25 12Z" fill="#32373D"/>
</svg>
