<svg width="12" height="12" viewBox="0 0 12 12" fill="none" xmlns="http://www.w3.org/2000/svg">
<path fill-rule="evenodd" clip-rule="evenodd" d="M0.166992 2.94169C0.166992 1.44821 1.53333 0.328087 2.9978 0.620982L7.43172 1.50777C7.7025 1.56192 7.87811 1.82533 7.82395 2.09611C7.76979 2.36689 7.50638 2.5425 7.2356 2.48835L2.80168 1.60156C1.956 1.43243 1.16699 2.07926 1.16699 2.94169L1.16699 9.05442C1.16699 9.91685 1.956 10.5637 2.80169 10.3945L7.2356 9.50777C7.50638 9.45361 7.76979 9.62922 7.82395 9.9C7.87811 10.1708 7.7025 10.4342 7.43172 10.4883L2.9978 11.3751C1.53333 11.668 0.166992 10.5479 0.166992 9.05442L0.166992 2.94169Z" fill="#12131C"/>
<path fill-rule="evenodd" clip-rule="evenodd" d="M8.5 6C8.5 5.72386 8.27614 5.5 8 5.5H7.93333C7.91073 5.5 7.88848 5.5015 7.86667 5.50441C7.84486 5.5015 7.8226 5.5 7.8 5.5H7.66667C7.64406 5.5 7.62181 5.5015 7.6 5.50441C7.57819 5.5015 7.55594 5.5 7.53333 5.5H7.4C7.3774 5.5 7.35514 5.5015 7.33333 5.50441C7.31152 5.5015 7.28927 5.5 7.26667 5.5H7.13333C7.11073 5.5 7.08848 5.5015 7.06667 5.50441C7.04486 5.5015 7.0226 5.5 7 5.5H6.86667C6.84406 5.5 6.82181 5.5015 6.8 5.50441C6.77819 5.5015 6.75594 5.5 6.73333 5.5H6.6C6.5774 5.5 6.55514 5.5015 6.53333 5.50441C6.51152 5.5015 6.48927 5.5 6.46667 5.5H6.33333C6.31073 5.5 6.28848 5.5015 6.26667 5.50441C6.24486 5.5015 6.2226 5.5 6.2 5.5H6.06667C6.04406 5.5 6.02181 5.5015 6 5.50441C5.97819 5.5015 5.95594 5.5 5.93333 5.5H5.8C5.7774 5.5 5.75514 5.5015 5.73333 5.50441C5.71152 5.5015 5.68927 5.5 5.66667 5.5H5.53333C5.51073 5.5 5.48848 5.5015 5.46667 5.50441C5.44486 5.5015 5.4226 5.5 5.4 5.5H5.26667C5.24406 5.5 5.22181 5.5015 5.2 5.50441C5.17819 5.5015 5.15594 5.5 5.13333 5.5H5C4.9774 5.5 4.95514 5.5015 4.93333 5.50441C4.91152 5.5015 4.88927 5.5 4.86667 5.5H4.73333C4.71073 5.5 4.68848 5.5015 4.66667 5.50441C4.64486 5.5015 4.6226 5.5 4.6 5.5H4.46667C4.44406 5.5 4.42181 5.5015 4.4 5.50441C4.37819 5.5015 4.35594 5.5 4.33333 5.5H4.2C4.1774 5.5 4.15514 5.5015 4.13333 5.50441C4.11152 5.5015 4.08927 5.5 4.06667 5.5H4C3.72386 5.5 3.5 5.72386 3.5 6C3.5 6.27614 3.72386 6.5 4 6.5H4.06667C4.08927 6.5 4.11152 6.4985 4.13333 6.49559C4.15514 6.4985 4.1774 6.5 4.2 6.5H4.33333C4.35594 6.5 4.37819 6.4985 4.4 6.49559C4.42181 6.4985 4.44406 6.5 4.46667 6.5H4.6C4.6226 6.5 4.64486 6.4985 4.66667 6.49559C4.68848 6.4985 4.71073 6.5 4.73333 6.5H4.86667C4.88927 6.5 4.91152 6.4985 4.93333 6.49559C4.95514 6.4985 4.9774 6.5 5 6.5H5.13333C5.15594 6.5 5.17819 6.4985 5.2 6.49559C5.22181 6.4985 5.24406 6.5 5.26667 6.5L5.4 6.5C5.4226 6.5 5.44486 6.4985 5.46667 6.49559C5.48848 6.4985 5.51073 6.5 5.53333 6.5H5.66667C5.68927 6.5 5.71152 6.4985 5.73333 6.49559C5.75514 6.4985 5.7774 6.5 5.8 6.5H5.93333C5.95594 6.5 5.97819 6.4985 6 6.49559C6.02181 6.4985 6.04406 6.5 6.06667 6.5H6.2C6.2226 6.5 6.24486 6.4985 6.26667 6.49559C6.28848 6.4985 6.31073 6.5 6.33333 6.5H6.46667C6.48927 6.5 6.51152 6.4985 6.53333 6.49559C6.55514 6.4985 6.5774 6.5 6.6 6.5H6.73333C6.75594 6.5 6.77819 6.4985 6.8 6.49559C6.82181 6.4985 6.84406 6.5 6.86667 6.5H7C7.0226 6.5 7.04486 6.4985 7.06667 6.49559C7.08848 6.4985 7.11073 6.5 7.13333 6.5H7.26667C7.28927 6.5 7.31152 6.4985 7.33333 6.49559C7.35514 6.4985 7.3774 6.5 7.4 6.5H7.53333C7.55594 6.5 7.57819 6.4985 7.6 6.49559C7.62181 6.4985 7.64406 6.5 7.66667 6.5H7.8C7.8226 6.5 7.84486 6.4985 7.86667 6.49559C7.88848 6.4985 7.91073 6.5 7.93333 6.5H8C8.27614 6.5 8.5 6.27614 8.5 6Z" fill="#12131C"/>
<path fill-rule="evenodd" clip-rule="evenodd" d="M8.26702 3.69612C8.43271 3.47521 8.74611 3.43044 8.96702 3.59612L9.02134 3.63686C9.03977 3.65068 9.05697 3.66553 9.07292 3.68126C9.09249 3.69217 9.11156 3.70453 9.12998 3.71835L9.23863 3.79983C9.25705 3.81365 9.27425 3.82849 9.2902 3.84422C9.30978 3.85514 9.32884 3.86749 9.34727 3.88131L9.45591 3.96279C9.47433 3.97661 9.49153 3.99145 9.50749 4.00719C9.52706 4.0181 9.54613 4.03045 9.56455 4.04427L9.67319 4.12575C9.69162 4.13957 9.70882 4.15442 9.72477 4.17015C9.74434 4.18106 9.76341 4.19342 9.78184 4.20723L9.89048 4.28872C9.9089 4.30253 9.9261 4.31738 9.94206 4.33311C9.96163 4.34402 9.9807 4.35638 9.99912 4.3702L10.1078 4.45168C10.1262 4.4655 10.1434 4.48034 10.1593 4.49608C10.1789 4.50699 10.198 4.51934 10.2164 4.53316L10.325 4.61464C10.3435 4.62846 10.3607 4.64331 10.3766 4.65904C10.3962 4.66995 10.4153 4.6823 10.4337 4.69612L10.5423 4.7776C10.5608 4.79142 10.578 4.80627 10.5939 4.822C10.6135 4.83291 10.6325 4.84527 10.651 4.85909L10.7596 4.94057C10.778 4.95439 10.7952 4.96923 10.8112 4.98497C10.8308 4.99588 10.8498 5.00823 10.8683 5.02205L10.9226 5.06279C10.9513 5.08436 10.9789 5.10708 11.0053 5.13085C11.0326 5.15553 11.0566 5.18254 11.0772 5.21132C11.1043 5.2343 11.1294 5.26055 11.1518 5.28997C11.1963 5.34847 11.2347 5.41033 11.2667 5.47455C11.2832 5.50768 11.2957 5.54177 11.3044 5.57626C11.3212 5.60754 11.3349 5.6411 11.3449 5.67666C11.3646 5.74629 11.3778 5.81727 11.3843 5.8886C11.3877 5.92515 11.387 5.96113 11.3827 5.99612C11.387 6.03111 11.3877 6.0671 11.3843 6.10364C11.3778 6.17497 11.3646 6.24595 11.3449 6.31559C11.3349 6.35114 11.3212 6.3847 11.3044 6.41599C11.2957 6.45048 11.2832 6.48456 11.2667 6.51769C11.2347 6.58191 11.1963 6.64378 11.1518 6.70227C11.1294 6.7317 11.1043 6.75794 11.0772 6.78093C11.0566 6.8097 11.0326 6.83672 11.0053 6.8614C10.9789 6.88517 10.9513 6.90788 10.9226 6.92946L10.8683 6.9702C10.8498 6.98402 10.8308 6.99637 10.8112 7.00728C10.7952 7.02301 10.778 7.03786 10.7596 7.05168L10.651 7.13316C10.6325 7.14698 10.6135 7.15933 10.5939 7.17024C10.578 7.18598 10.5608 7.20082 10.5423 7.21464L10.4337 7.29612C10.4153 7.30994 10.3962 7.3223 10.3766 7.33321C10.3607 7.34894 10.3435 7.36379 10.325 7.3776L10.2164 7.45909C10.198 7.4729 10.1789 7.48526 10.1593 7.49617C10.1434 7.5119 10.1262 7.52675 10.1078 7.54057L9.99912 7.62205C9.9807 7.63587 9.96163 7.64822 9.94206 7.65913C9.9261 7.67487 9.9089 7.68971 9.89048 7.70353L9.78184 7.78501C9.76341 7.79883 9.74434 7.81118 9.72477 7.8221C9.70882 7.83783 9.69162 7.85267 9.67319 7.86649L9.56455 7.94797C9.54613 7.96179 9.52706 7.97415 9.50749 7.98506C9.49153 8.00079 9.47434 8.01564 9.45591 8.02946L9.34727 8.11094C9.32884 8.12476 9.30978 8.13711 9.2902 8.14802C9.27425 8.16375 9.25705 8.1786 9.23863 8.19242L9.12998 8.2739C9.11156 8.28772 9.09249 8.30007 9.07292 8.31098C9.05697 8.32672 9.03977 8.34156 9.02134 8.35538L8.96702 8.39612C8.74611 8.56181 8.43271 8.51704 8.26702 8.29612C8.10134 8.07521 8.14611 7.76181 8.36702 7.59612L8.42134 7.55538C8.43977 7.54156 8.45883 7.52921 8.47841 7.5183C8.49436 7.50256 8.51156 7.48772 8.52998 7.4739L8.63863 7.39242C8.65705 7.3786 8.67612 7.36625 8.69569 7.35534C8.71164 7.3396 8.72884 7.32476 8.74727 7.31094L8.85591 7.22946C8.87434 7.21564 8.8934 7.20328 8.91297 7.19237C8.92893 7.17664 8.94613 7.16179 8.96455 7.14797L9.07319 7.06649C9.09162 7.05267 9.11069 7.04032 9.13026 7.02941C9.14621 7.01368 9.16341 6.99883 9.18184 6.98501L9.29048 6.90353C9.3089 6.88971 9.32797 6.87736 9.34754 6.86645C9.3635 6.85071 9.3807 6.83587 9.39912 6.82205L9.50776 6.74057C9.52619 6.72675 9.54525 6.71439 9.56483 6.70348C9.58078 6.68775 9.59798 6.6729 9.6164 6.65909L9.72505 6.5776C9.74347 6.56379 9.76254 6.55143 9.78211 6.54052C9.79806 6.52479 9.81526 6.50994 9.83369 6.49612L9.94233 6.41464C9.96075 6.40082 9.97982 6.38847 9.99939 6.37756C10.0153 6.36182 10.0325 6.34698 10.051 6.33316L10.1596 6.25168C10.178 6.23786 10.1971 6.22551 10.2167 6.2146C10.2326 6.19886 10.2498 6.18402 10.2683 6.1702L10.3226 6.12946C10.3273 6.12595 10.3315 6.12241 10.3355 6.11886C10.3394 6.11536 10.3433 6.11193 10.3472 6.10857C10.3502 6.10446 10.3532 6.10038 10.3563 6.09633C10.3623 6.08838 10.3675 6.08001 10.3719 6.07126C10.3741 6.06674 10.3765 6.06226 10.3788 6.05783C10.3801 6.0529 10.3814 6.04796 10.3828 6.04303C10.3856 6.03306 10.3875 6.0227 10.3885 6.01211C10.389 6.00675 10.3896 6.00142 10.3902 5.99612C10.3896 5.99082 10.389 5.98549 10.3885 5.98014C10.3875 5.96955 10.3856 5.95918 10.3828 5.94921C10.3814 5.94428 10.3801 5.93935 10.3788 5.93441C10.3765 5.92998 10.3741 5.92551 10.3719 5.92098C10.3675 5.91224 10.3623 5.90386 10.3563 5.89592C10.3532 5.89187 10.3502 5.88779 10.3472 5.88368C10.3433 5.88032 10.3394 5.87689 10.3355 5.87339C10.3315 5.86984 10.3273 5.86629 10.3226 5.86279L10.2683 5.82205C10.2498 5.80823 10.2326 5.79338 10.2167 5.77765C10.1971 5.76674 10.178 5.75439 10.1596 5.74057L10.051 5.65909C10.0325 5.64527 10.0153 5.63042 9.99939 5.61469C9.97982 5.60378 9.96075 5.59142 9.94233 5.5776L9.83369 5.49612C9.81526 5.4823 9.79806 5.46746 9.78211 5.45172C9.76254 5.44081 9.74347 5.42846 9.72505 5.41464L9.6164 5.33316C9.59798 5.31934 9.58078 5.3045 9.56483 5.28876C9.54525 5.27785 9.52619 5.2655 9.50776 5.25168L9.39912 5.1702C9.3807 5.15638 9.3635 5.14153 9.34754 5.1258C9.32797 5.11489 9.3089 5.10253 9.29048 5.08872L9.18184 5.00723C9.16341 4.99342 9.14621 4.97857 9.13026 4.96284C9.11069 4.95193 9.09162 4.93957 9.07319 4.92575L8.96455 4.84427C8.94613 4.83045 8.92893 4.81561 8.91297 4.79987C8.8934 4.78896 8.87433 4.77661 8.85591 4.76279L8.74727 4.68131C8.72884 4.66749 8.71164 4.65264 8.69569 4.63691C8.67612 4.626 8.65705 4.61365 8.63863 4.59983L8.52998 4.51835C8.51156 4.50453 8.49436 4.48968 8.47841 4.47395C8.45883 4.46304 8.43977 4.45068 8.42134 4.43686L8.36702 4.39612C8.14611 4.23044 8.10134 3.91704 8.26702 3.69612Z" fill="#12131C"/>
</svg>
