<svg width="20" height="24" viewBox="0 0 20 24" fill="none" xmlns="http://www.w3.org/2000/svg">
<path d="M16.5504 12.7496C16.5191 9.70828 19.03 8.25284 19.1413 8.17981C17.7311 6.11924 15.5366 5.8358 14.7524 5.8045C12.8866 5.61322 11.1077 6.90347 10.1583 6.90347C9.21232 6.90347 7.74819 5.83058 6.19885 5.85841C4.16088 5.88971 2.28463 7.04432 1.23435 8.86667C-0.881868 12.5392 0.691817 17.9784 2.75413 20.9606C3.76268 22.4177 4.96598 24.054 6.54314 23.9966C8.06292 23.9358 8.63675 23.0124 10.4747 23.0124C12.3127 23.0124 12.8292 23.9966 14.4359 23.9671C16.0722 23.9358 17.1068 22.4803 18.1067 21.0197C19.2648 19.3278 19.7412 17.688 19.7708 17.6063C19.7325 17.5854 16.5834 16.3804 16.5504 12.7496Z" fill="#32373D"/>
<path d="M13.5285 3.83249C14.3649 2.81872 14.9318 1.40675 14.777 0C13.5685 0.0486886 12.1096 0.801623 11.2419 1.81713C10.4646 2.71613 9.78818 4.1507 9.96902 5.52963C11.3149 5.63571 12.6921 4.84452 13.5285 3.83249Z" fill="#32373D"/>
</svg>
