<svg width="18" height="17" viewBox="0 0 18 17" fill="none" xmlns="http://www.w3.org/2000/svg">
<path d="M6 7C6 7.55229 5.55228 8 5 8C4.44772 8 4 7.55229 4 7C4 6.44772 4.44772 6 5 6C5.55228 6 6 6.44772 6 7Z" fill="#32373D"/>
<path d="M10 7C10 7.55229 9.55229 8 9 8C8.44772 8 8 7.55229 8 7C8 6.44772 8.44772 6 9 6C9.55229 6 10 6.44772 10 7Z" fill="#32373D"/>
<path d="M14 7C14 7.55229 13.5523 8 13 8C12.4477 8 12 7.55229 12 7C12 6.44772 12.4477 6 13 6C13.5523 6 14 6.44772 14 7Z" fill="#32373D"/>
<path fill-rule="evenodd" clip-rule="evenodd" d="M3.79958 1.74988C2.66755 1.74988 1.75 2.66755 1.75 3.79988V10.9999C1.75 11.6902 2.30964 12.2499 3 12.2499H3.24257C4.0751 12.2499 4.75 12.9248 4.75 13.7573C4.75 14.1708 4.77068 14.5827 4.85675 14.8722C4.86709 14.907 4.87751 14.9368 4.88757 14.9621C4.89202 14.9558 4.89667 14.9492 4.90153 14.942C4.95529 14.8632 5.009 14.7665 5.08111 14.6327C5.08626 14.6231 5.09153 14.6133 5.09693 14.6033C5.1598 14.4864 5.23915 14.3389 5.32766 14.2022L5.54285 13.87C6.19718 12.8597 7.31883 12.2499 8.52245 12.2499H14.2C15.3323 12.2499 16.25 11.3322 16.25 10.2001V3.79965C16.25 2.6674 15.3325 1.74988 14.2004 1.74988H3.79958ZM4.81415 15.0472C4.81419 15.0468 4.81656 15.0448 4.82117 15.0421C4.81643 15.0463 4.81412 15.0476 4.81415 15.0472ZM0.25 3.79988C0.25 1.83941 1.83883 0.249878 3.79958 0.249878H14.2004C16.1611 0.249878 17.75 1.83911 17.75 3.79965V10.2001C17.75 12.1608 16.1605 13.7499 14.2 13.7499H8.52245C7.8274 13.7499 7.17969 14.1021 6.80184 14.6854L6.58665 15.0177C6.53255 15.1012 6.48053 15.1977 6.40904 15.3304L6.4016 15.3442C6.33321 15.4711 6.24498 15.6344 6.14084 15.7871C5.93552 16.0882 5.55731 16.5105 4.91489 16.5285C4.49742 16.5402 4.1387 16.3849 3.87279 16.1156C3.62977 15.8695 3.49718 15.5629 3.41892 15.2996C3.26412 14.7788 3.25 14.1685 3.25 13.7573C3.25 13.7558 3.24986 13.7551 3.24984 13.755L3.24972 13.7546C3.24958 13.7543 3.24904 13.7533 3.24782 13.7521C3.24661 13.7508 3.24558 13.7503 3.24523 13.7502L3.24486 13.75C3.24475 13.75 3.24407 13.7499 3.24257 13.7499H3C1.48122 13.7499 0.25 12.5187 0.25 10.9999V3.79988Z" fill="#32373D"/>
</svg>
