<svg width="24" height="25" viewBox="0 0 24 25" fill="none" xmlns="http://www.w3.org/2000/svg">
<path fill-rule="evenodd" clip-rule="evenodd" d="M3.25 6.80976C3.25 4.84915 4.83939 3.25977 6.8 3.25977H8.07005C9.42984 3.25977 10.6702 4.0365 11.2638 5.25984L11.3157 5.36674C11.3902 5.52017 11.4835 5.66371 11.5935 5.79404L11.7341 5.96066C12.1237 6.4221 12.6968 6.68834 13.3007 6.68834H17.2C19.1606 6.68834 20.75 8.27773 20.75 10.2383V17.2098C20.75 19.1704 19.1606 20.7598 17.2 20.7598H6.8C4.83939 20.7598 3.25 19.1704 3.25 17.2098V6.80976ZM6.8 4.75977C5.66782 4.75977 4.75 5.67758 4.75 6.80976V17.2098C4.75 18.342 5.66782 19.2598 6.8 19.2598H17.2C18.3322 19.2598 19.25 18.3419 19.25 17.2098V10.2383C19.25 9.10615 18.3322 8.18834 17.2 8.18834H13.3007C12.2549 8.18834 11.2624 7.72729 10.5879 6.92821L10.4473 6.76159C10.2568 6.53591 10.0952 6.28734 9.96623 6.02164L9.91435 5.91474C9.57152 5.2083 8.85528 4.75977 8.07005 4.75977H6.8Z" fill="#32373D"/>
<path fill-rule="evenodd" clip-rule="evenodd" d="M3.58716 10.6641C3.58716 10.2498 3.92294 9.91406 4.33716 9.91406H19.3372C19.7514 9.91406 20.0872 10.2498 20.0872 10.6641C20.0872 11.0783 19.7514 11.4141 19.3372 11.4141H4.33716C3.92294 11.4141 3.58716 11.0783 3.58716 10.6641Z" fill="#32373D"/>
<path d="M14.8519 15.3523L14.8515 15.3527L12.2138 17.8689C12.0162 18.0574 11.6965 18.0567 11.4998 17.8672C11.3032 17.6778 11.3039 17.3714 11.5015 17.1829L13.2725 15.4936H8.50481C8.226 15.4936 8 15.277 8 15.0098C8 14.7425 8.226 14.5259 8.50481 14.5259H13.2725L11.5016 12.8366C11.3039 12.6481 11.3032 12.3417 11.4999 12.1523C11.6966 11.9629 12.0162 11.9622 12.2138 12.1507L14.8515 14.6668L14.852 14.6673C15.0497 14.8564 15.049 15.1638 14.8519 15.3523Z" fill="#32373D"/>
</svg>
