<svg width="18" height="18" viewBox="0 0 18 18" fill="none" xmlns="http://www.w3.org/2000/svg">
<path fill-rule="evenodd" clip-rule="evenodd" d="M0.236328 3.96113C0.236328 2.00052 1.82572 0.411133 3.78633 0.411133H5.05638C6.41617 0.411133 7.65648 1.18787 8.25016 2.41121L8.30204 2.51811C8.3765 2.67154 8.46982 2.81508 8.57982 2.9454L8.72047 3.11203C9.10998 3.57347 9.68313 3.8397 10.287 3.8397H14.1863C16.1469 3.8397 17.7363 5.42909 17.7363 7.38971V14.3611C17.7363 16.3217 16.1469 17.9111 14.1863 17.9111H3.78633C1.82572 17.9111 0.236328 16.3217 0.236328 14.3611V3.96113ZM3.78633 1.91113C2.65414 1.91113 1.73633 2.82895 1.73633 3.96113V14.3611C1.73633 15.4933 2.65414 16.4111 3.78633 16.4111H14.1863C15.3185 16.4111 16.2363 15.4933 16.2363 14.3611V7.38971C16.2363 6.25752 15.3185 5.3397 14.1863 5.3397H10.287C9.24128 5.3397 8.24876 4.87866 7.57424 4.07958L7.43359 3.91296C7.24309 3.68727 7.0815 3.4387 6.95256 3.173L6.90068 3.06611C6.55785 2.35967 5.84161 1.91113 5.05638 1.91113H3.78633Z" fill="#32373D"/>
<path fill-rule="evenodd" clip-rule="evenodd" d="M0.574219 7.81543C0.574219 7.40122 0.910005 7.06543 1.32422 7.06543H16.3242C16.7384 7.06543 17.0742 7.40122 17.0742 7.81543C17.0742 8.22964 16.7384 8.56543 16.3242 8.56543H1.32422C0.910005 8.56543 0.574219 8.22964 0.574219 7.81543Z" fill="#32373D"/>
<path d="M11.8383 12.5036L11.8378 12.5041L9.20009 15.0202C9.00248 15.2087 8.68286 15.208 8.48616 15.0186C8.28949 14.8292 8.29025 14.5228 8.48786 14.3343L10.2588 12.645H5.49114C5.21233 12.645 4.98633 12.4284 4.98633 12.1611C4.98633 11.8939 5.21233 11.6773 5.49114 11.6773H10.2588L8.48788 9.98797C8.29027 9.79945 8.28952 9.49309 8.48619 9.30368C8.68289 9.11422 9.00253 9.11357 9.20011 9.30203L11.8378 11.8182L11.8383 11.8186C12.036 12.0078 12.0354 12.3151 11.8383 12.5036Z" fill="#32373D"/>
</svg>
