<svg width="20" height="20" viewBox="0 0 20 20" fill="none" xmlns="http://www.w3.org/2000/svg">
<path d="M19.9988 3.32927C19.9988 1.49355 18.5056 0 16.6699 0H3.33005C1.49434 0 0.00119019 1.49355 0.00119019 3.32927V16.6687C0.00119019 18.5044 1.49434 19.9976 3.33005 19.9976H16.6699C18.5056 19.9976 19.9988 18.5044 19.9988 16.6687C19.9988 12.6427 19.9988 7.38097 19.9988 3.32927ZM1.66766 3.32927C1.66766 2.41223 2.41301 1.66647 3.33005 1.66647H16.6699C17.587 1.66647 18.3323 2.41223 18.3323 3.32927V5.76347H1.66766V3.32927ZM18.3323 16.6687C18.3323 17.5854 17.587 18.3311 16.6699 18.3311H3.33005C2.41301 18.3311 1.66766 17.5854 1.66766 16.6687V7.42993H18.3323V16.6687Z" fill="#32373D"/>
<path d="M4.8403 15.8969H10C10.4606 15.8969 10.8332 15.5239 10.8332 15.0637C10.8332 14.6036 10.4606 14.2305 10 14.2305H4.8403C4.37974 14.2305 4.00706 14.6036 4.00706 15.0637C4.00706 15.5239 4.37974 15.8969 4.8403 15.8969Z" fill="#32373D"/>
<path d="M3.46596 3.12295C3.10353 3.52673 3.18477 4.02416 3.46596 4.30607C3.77471 4.5982 4.29408 4.65294 4.64095 4.30607C4.9729 3.97497 4.9735 3.45465 4.64095 3.12295C4.33175 2.80143 3.78307 2.80411 3.46596 3.12295Z" fill="#32373D"/>
<path d="M7.7737 3.12217C7.4256 2.77407 6.88773 2.83335 6.59952 3.12217C6.25565 3.46235 6.29586 4.00241 6.59952 4.3053C6.90075 4.60652 7.43594 4.64397 7.7737 4.3053C8.14979 3.93017 8.05639 3.37467 7.7737 3.12217Z" fill="#32373D"/>
<path d="M9.73227 3.12192C9.41037 3.44299 9.4102 3.9838 9.73227 4.30505C10.0245 4.59726 10.5614 4.64719 10.9073 4.30505C11.2388 3.97269 11.2401 3.45565 10.9073 3.12192C10.5989 2.81353 10.0407 2.81353 9.73227 3.12192Z" fill="#32373D"/>
</svg>
