<svg width="48" height="48" viewBox="0 0 48 48" fill="none" xmlns="http://www.w3.org/2000/svg">
<path fill-rule="evenodd" clip-rule="evenodd" d="M26.043 13.5C26.043 12.3724 25.1289 11.4583 24.0013 11.4583C22.8737 11.4583 21.9596 12.3724 21.9596 13.5V14.6H23.7096V13.5C23.7096 13.3389 23.8402 13.2083 24.0013 13.2083C24.1624 13.2083 24.293 13.3389 24.293 13.5V14.6666H26.043V13.5Z" fill="#12131C"/>
<path fill-rule="evenodd" clip-rule="evenodd" d="M17.6196 19.9993C16.8437 16.8846 19.0262 13.7916 22.3266 13.7916L25.3614 13.7916C28.7925 13.7916 30.9322 17.0897 30.3178 20.2531C29.7981 22.929 29.9299 25.283 31.4285 27.7202C31.6816 28.1318 31.5531 28.6707 31.1414 28.9239C30.7297 29.177 30.1908 29.0485 29.9377 28.6368C28.1435 25.7187 28.0242 22.8838 28.5999 19.9194C29.0452 17.6266 27.4884 15.5416 25.3614 15.5416L22.3266 15.5416C20.2537 15.5416 18.7948 17.4772 19.3177 19.5763C19.6516 20.9164 19.8247 22.1491 19.6643 23.5497C19.5052 24.939 19.0248 26.4339 18.1399 28.3188C17.9346 28.7562 17.4135 28.9443 16.976 28.739C16.5386 28.5336 16.3504 28.0125 16.5558 27.5751C17.3968 25.7837 17.7962 24.4809 17.9257 23.3506C18.0538 22.2316 17.9244 21.2229 17.6196 19.9993Z" fill="#12131C"/>
<path fill-rule="evenodd" clip-rule="evenodd" d="M17.0904 29.25C17.4061 29.3794 17.8465 29.5113 18.4093 29.6319C19.8108 29.9322 21.7881 30.125 24.0007 30.125C26.2132 30.125 28.1905 29.9322 29.592 29.6319C30.1548 29.5113 30.5952 29.3794 30.9109 29.25C30.5952 29.1206 30.1548 28.9887 29.592 28.8681C28.1905 28.5678 26.2132 28.375 24.0007 28.375C21.7881 28.375 19.8108 28.5678 18.4093 28.8681C17.8465 28.9887 17.4061 29.1206 17.0904 29.25ZM18.0426 27.157C19.5969 26.8239 21.7029 26.625 24.0007 26.625C26.2984 26.625 28.4044 26.8239 29.9587 27.157C30.7287 27.322 31.4104 27.5296 31.921 27.7883C32.1749 27.9169 32.4309 28.0801 32.6342 28.293C32.8411 28.5097 33.0423 28.8329 33.0423 29.25C33.0423 29.6671 32.8411 29.9903 32.6342 30.207C32.4309 30.4199 32.1749 30.5831 31.921 30.7117C31.4104 30.9704 30.7287 31.178 29.9587 31.343C28.4044 31.6761 26.2984 31.875 24.0007 31.875C21.7029 31.875 19.5969 31.6761 18.0426 31.343C17.2726 31.178 16.5909 30.9704 16.0803 30.7117C15.8264 30.5831 15.5704 30.4199 15.3671 30.207C15.1602 29.9903 14.959 29.6671 14.959 29.25C14.959 28.8329 15.1602 28.5097 15.3671 28.293C15.5704 28.0801 15.8264 27.9169 16.0803 27.7883C16.5909 27.5296 17.2726 27.322 18.0426 27.157Z" fill="#12131C"/>
<path fill-rule="evenodd" clip-rule="evenodd" d="M22.4321 34.2158C22.2798 33.8046 21.8274 33.5855 21.4082 33.7252C20.9804 33.8679 20.7491 34.3304 20.8917 34.7582L21.6665 34.5C20.8917 34.7582 20.8919 34.7588 20.8921 34.7594L20.8925 34.7606L20.8933 34.763L20.8951 34.7683L20.8993 34.7801C20.9024 34.7886 20.906 34.7983 20.9102 34.8091C20.9186 34.8307 20.9294 34.8568 20.9429 34.8867C20.97 34.9465 21.0083 35.0222 21.0608 35.1081C21.1659 35.2802 21.3288 35.4945 21.5725 35.7034C22.0738 36.133 22.8505 36.4833 23.9998 36.4833C25.1492 36.4833 25.9259 36.133 26.4271 35.7034C26.6708 35.4945 26.8337 35.2802 26.9389 35.1081C26.9914 35.0222 27.0297 34.9465 27.0567 34.8867C27.0703 34.8568 27.0811 34.8307 27.0895 34.8091C27.0937 34.7983 27.0973 34.7886 27.1003 34.7801L27.1045 34.7683L27.1063 34.763L27.1071 34.7606L27.1075 34.7594C27.1077 34.7588 27.1079 34.7582 26.3332 34.5L27.1079 34.7582C27.2506 34.3304 27.0193 33.8679 26.5914 33.7252C26.1723 33.5855 25.7199 33.8046 25.5675 34.2158C25.5647 34.2219 25.5575 34.2362 25.5452 34.2564C25.5166 34.3031 25.4608 34.3805 25.3642 34.4633C25.1849 34.6169 24.7949 34.85 23.9998 34.85C23.2048 34.85 22.8148 34.6169 22.6355 34.4633C22.5389 34.3805 22.483 34.3031 22.4545 34.2564C22.4421 34.2362 22.435 34.2219 22.4321 34.2158Z" fill="#12131C"/>
<circle cx="5" cy="5" r="4.5" transform="matrix(1 0 0 -1 25 19)" fill="#12131C" stroke="white"/>
<path d="M32.3838 12.4409C32.2291 12.2974 31.9779 12.2975 31.823 12.4409L29.2989 14.7795L28.1771 13.7402C28.0222 13.5966 27.7711 13.5966 27.6162 13.7402C27.4613 13.8837 27.4613 14.1163 27.6162 14.2598L29.0184 15.559C29.0958 15.6307 29.1973 15.6666 29.2988 15.6666C29.4003 15.6666 29.5019 15.6308 29.5793 15.559L32.3838 12.9606C32.5387 12.8172 32.5387 12.5844 32.3838 12.4409Z" fill="white"/>
</svg>
