<svg width="20" height="26" viewBox="0 0 20 26" fill="none" xmlns="http://www.w3.org/2000/svg">
<path fill-rule="evenodd" clip-rule="evenodd" d="M12.043 2.49998C12.043 1.3724 11.1289 0.458313 10.0013 0.458313C8.87372 0.458313 7.95964 1.3724 7.95964 2.49998V3.59998H9.70964V2.49998C9.70964 2.3389 9.84022 2.20831 10.0013 2.20831C10.1624 2.20831 10.293 2.3389 10.293 2.49998V3.66665H12.043V2.49998Z" fill="#12131C"/>
<path fill-rule="evenodd" clip-rule="evenodd" d="M3.61962 8.99934C2.84366 5.88456 5.02624 2.79163 8.32659 2.79163H11.3614C14.7925 2.79163 16.9322 6.08973 16.3178 9.25305C15.7981 11.929 15.9299 14.283 17.4285 16.7202C17.6816 17.1318 17.5531 17.6707 17.1414 17.9239C16.7297 18.177 16.1908 18.0485 15.9377 17.6368C14.1435 14.7187 14.0242 11.8838 14.5999 8.9194C15.0452 6.62657 13.4884 4.54163 11.3614 4.54163H8.32659C6.25368 4.54163 4.79478 6.47718 5.31772 8.57631C5.65155 9.91637 5.82471 11.1491 5.66429 12.5497C5.50517 13.939 5.02482 15.4339 4.13992 17.3188C3.93455 17.7562 3.41346 17.9443 2.97602 17.739C2.53857 17.5336 2.35044 17.0125 2.55581 16.5751C3.39681 14.7837 3.79619 13.4809 3.92566 12.3506C4.05383 11.2316 3.92444 10.2229 3.61962 8.99934Z" fill="#12131C"/>
<path fill-rule="evenodd" clip-rule="evenodd" d="M3.0904 18.25C3.40607 18.3794 3.84646 18.5113 4.40928 18.6319C5.81076 18.9322 7.78806 19.125 10.0007 19.125C12.2132 19.125 14.1905 18.9322 15.592 18.6319C16.1548 18.5113 16.5952 18.3794 16.9109 18.25C16.5952 18.1206 16.1548 17.9887 15.592 17.8681C14.1905 17.5678 12.2132 17.375 10.0007 17.375C7.78806 17.375 5.81076 17.5678 4.40928 17.8681C3.84646 17.9887 3.40607 18.1206 3.0904 18.25ZM4.04261 16.157C5.59689 15.8239 7.70292 15.625 10.0007 15.625C12.2984 15.625 14.4044 15.8239 15.9587 16.157C16.7287 16.322 17.4104 16.5296 17.921 16.7883C18.1749 16.9169 18.4309 17.0801 18.6342 17.293C18.8411 17.5097 19.0423 17.8329 19.0423 18.25C19.0423 18.6671 18.8411 18.9903 18.6342 19.207C18.4309 19.4199 18.1749 19.5831 17.921 19.7117C17.4104 19.9704 16.7287 20.178 15.9587 20.343C14.4044 20.6761 12.2984 20.875 10.0007 20.875C7.70292 20.875 5.59689 20.6761 4.04261 20.343C3.27263 20.178 2.59087 19.9704 2.08032 19.7117C1.8264 19.5831 1.57039 19.4199 1.36709 19.207C1.16019 18.9903 0.958984 18.6671 0.958984 18.25C0.958984 17.8329 1.16019 17.5097 1.36709 17.293C1.57039 17.0801 1.8264 16.9169 2.08032 16.7883C2.59087 16.5296 3.27263 16.322 4.04261 16.157Z" fill="#12131C"/>
<path fill-rule="evenodd" clip-rule="evenodd" d="M8.43212 23.2158C8.27975 22.8046 7.8274 22.5855 7.40824 22.7252C6.98036 22.8679 6.74911 23.3304 6.89174 23.7582L7.6665 23.5C6.89174 23.7582 6.89193 23.7588 6.89212 23.7594L6.89252 23.7606L6.89335 23.763L6.89515 23.7683L6.89933 23.7801C6.90239 23.7886 6.906 23.7983 6.9102 23.8091C6.9186 23.8307 6.92939 23.8568 6.94293 23.8867C6.96999 23.9465 7.00828 24.0222 7.0608 24.1081C7.16594 24.2802 7.32883 24.4945 7.57252 24.7034C8.07378 25.133 8.85045 25.4833 9.99983 25.4833C11.1492 25.4833 11.9259 25.133 12.4271 24.7034C12.6708 24.4945 12.8337 24.2802 12.9389 24.1081C12.9914 24.0222 13.0297 23.9465 13.0567 23.8867C13.0703 23.8568 13.0811 23.8307 13.0895 23.8091C13.0937 23.7983 13.0973 23.7886 13.1003 23.7801L13.1045 23.7683L13.1063 23.763L13.1071 23.7606L13.1075 23.7594C13.1077 23.7588 13.1079 23.7582 12.3332 23.5L13.1079 23.7582C13.2506 23.3304 13.0193 22.8679 12.5914 22.7252C12.1723 22.5855 11.7199 22.8046 11.5675 23.2158C11.5647 23.2219 11.5575 23.2362 11.5452 23.2564C11.5166 23.3031 11.4608 23.3805 11.3642 23.4633C11.1849 23.6169 10.7949 23.85 9.99983 23.85C9.20476 23.85 8.81477 23.6169 8.63548 23.4633C8.53888 23.3805 8.48303 23.3031 8.45449 23.2564C8.44211 23.2362 8.43499 23.2219 8.43212 23.2158Z" fill="#12131C"/>
</svg>
