<svg width="16" height="14" viewBox="0 0 16 14" fill="none" xmlns="http://www.w3.org/2000/svg">
<path fill-rule="evenodd" clip-rule="evenodd" d="M0.25 1C0.25 0.585786 0.585786 0.25 1 0.25H15C15.4142 0.25 15.75 0.585786 15.75 1C15.75 1.41421 15.4142 1.75 15 1.75H1C0.585786 1.75 0.25 1.41421 0.25 1Z" fill="#12131C"/>
<path fill-rule="evenodd" clip-rule="evenodd" d="M0.25 13C0.25 12.5858 0.585786 12.25 1 12.25H15C15.4142 12.25 15.75 12.5858 15.75 13C15.75 13.4142 15.4142 13.75 15 13.75H1C0.585786 13.75 0.25 13.4142 0.25 13Z" fill="#12131C"/>
<path fill-rule="evenodd" clip-rule="evenodd" d="M0.25 7C0.25 6.58579 0.585786 6.25 1 6.25H15C15.4142 6.25 15.75 6.58579 15.75 7C15.75 7.41421 15.4142 7.75 15 7.75H1C0.585786 7.75 0.25 7.41421 0.25 7Z" fill="#12131C"/>
</svg>
