<svg width="22" height="6" viewBox="0 0 22 6" fill="none" xmlns="http://www.w3.org/2000/svg">
<path d="M17.9708 0.976825C19.0469 0.355505 20.423 0.724224 21.0443 1.80038C21.6656 2.87654 21.2969 4.25262 20.2208 4.87394C19.1446 5.49526 17.7685 5.12654 17.1472 4.05038C16.5259 2.97422 16.8946 1.59815 17.9708 0.976825Z" fill="#222628"/>
<path d="M1.77943 0.976849C2.85559 0.355528 4.23166 0.724247 4.85299 1.80041C5.47431 2.87656 5.10559 4.25264 4.02943 4.87396C2.95327 5.49528 1.57719 5.12656 0.955871 4.05041C0.334551 2.97425 0.70327 1.59817 1.77943 0.976849Z" fill="#222628"/>
<path d="M9.94863 0.976848C11.0248 0.355528 12.4009 0.724247 13.0222 1.80041C13.6435 2.87656 13.2748 4.25264 12.1986 4.87396C11.1225 5.49528 9.7464 5.12656 9.12508 4.05041C8.50375 2.97425 8.87247 1.59817 9.94863 0.976848Z" fill="#222628"/>
</svg>
