<svg width="24" height="24" viewBox="0 0 24 24" fill="none" xmlns="http://www.w3.org/2000/svg">
<path fill-rule="evenodd" clip-rule="evenodd" d="M3.25 6.2C3.25 4.57076 4.57076 3.25 6.2 3.25H7.8C9.42924 3.25 10.75 4.57076 10.75 6.2V7.8C10.75 9.42924 9.42924 10.75 7.8 10.75H6.2C4.57076 10.75 3.25 9.42924 3.25 7.8V6.2ZM6.2 4.75C5.39919 4.75 4.75 5.39919 4.75 6.2V7.8C4.75 8.60081 5.39919 9.25 6.2 9.25H7.8C8.60081 9.25 9.25 8.60081 9.25 7.8V6.2C9.25 5.39919 8.60081 4.75 7.8 4.75H6.2Z" fill="#12131C"/>
<path fill-rule="evenodd" clip-rule="evenodd" d="M3.25 16.2C3.25 14.5708 4.57076 13.25 6.2 13.25H7.8C9.42924 13.25 10.75 14.5708 10.75 16.2V17.8C10.75 19.4292 9.42924 20.75 7.8 20.75H6.2C4.57076 20.75 3.25 19.4292 3.25 17.8V16.2ZM6.2 14.75C5.39919 14.75 4.75 15.3992 4.75 16.2V17.8C4.75 18.6008 5.39919 19.25 6.2 19.25H7.8C8.60081 19.25 9.25 18.6008 9.25 17.8V16.2C9.25 15.3992 8.60081 14.75 7.8 14.75H6.2Z" fill="#12131C"/>
<path fill-rule="evenodd" clip-rule="evenodd" d="M13.25 6.2C13.25 4.57076 14.5708 3.25 16.2 3.25H17.8C19.4292 3.25 20.75 4.57076 20.75 6.2V7.8C20.75 9.42924 19.4292 10.75 17.8 10.75H16.2C14.5708 10.75 13.25 9.42924 13.25 7.8V6.2ZM16.2 4.75C15.3992 4.75 14.75 5.39919 14.75 6.2V7.8C14.75 8.60081 15.3992 9.25 16.2 9.25H17.8C18.6008 9.25 19.25 8.60081 19.25 7.8V6.2C19.25 5.39919 18.6008 4.75 17.8 4.75H16.2Z" fill="#12131C"/>
<path fill-rule="evenodd" clip-rule="evenodd" d="M13.25 16.2C13.25 14.5708 14.5708 13.25 16.2 13.25H17.8C19.4292 13.25 20.75 14.5708 20.75 16.2V17.8C20.75 19.4292 19.4292 20.75 17.8 20.75H16.2C14.5708 20.75 13.25 19.4292 13.25 17.8V16.2ZM16.2 14.75C15.3992 14.75 14.75 15.3992 14.75 16.2V17.8C14.75 18.6008 15.3992 19.25 16.2 19.25H17.8C18.6008 19.25 19.25 18.6008 19.25 17.8V16.2C19.25 15.3992 18.6008 14.75 17.8 14.75H16.2Z" fill="#12131C"/>
</svg>
