<svg width="19" height="18" viewBox="0 0 19 18" fill="none" xmlns="http://www.w3.org/2000/svg">
<path fill-rule="evenodd" clip-rule="evenodd" d="M7.5 5.25C7.91421 5.25 8.25 5.58579 8.25 6V12C8.25 12.4142 7.91421 12.75 7.5 12.75C7.08579 12.75 6.75 12.4142 6.75 12V6C6.75 5.58579 7.08579 5.25 7.5 5.25Z" fill="#32373D"/>
<path fill-rule="evenodd" clip-rule="evenodd" d="M11.5 5.25C11.9142 5.25 12.25 5.58579 12.25 6V12C12.25 12.4142 11.9142 12.75 11.5 12.75C11.0858 12.75 10.75 12.4142 10.75 12V6C10.75 5.58579 11.0858 5.25 11.5 5.25Z" fill="#32373D"/>
<path fill-rule="evenodd" clip-rule="evenodd" d="M0.75 3.8C0.75 1.83939 2.33939 0.25 4.3 0.25H14.7C16.6606 0.25 18.25 1.83939 18.25 3.8V14.2C18.25 16.1606 16.6606 17.75 14.7 17.75H4.3C2.33939 17.75 0.75 16.1606 0.75 14.2V3.8ZM4.3 1.75C3.16782 1.75 2.25 2.66782 2.25 3.8V14.2C2.25 15.3322 3.16782 16.25 4.3 16.25H14.7C15.8322 16.25 16.75 15.3322 16.75 14.2V3.8C16.75 2.66782 15.8322 1.75 14.7 1.75H4.3Z" fill="#32373D"/>
</svg>
