<svg width="32" height="32" viewBox="0 0 32 32" fill="none" xmlns="http://www.w3.org/2000/svg">
<g clip-path="url(#clip0_23_1577)">
<path d="M32 26.9902C32 29.7571 29.7571 32 26.9902 32H5.00978C2.24294 32 0 29.7571 0 26.9902V6.51272L6.51272 0H26.9902C29.7571 0 32 2.24294 32 5.00978V26.9902Z" fill="#F04035"/>
<path opacity="0.2" d="M0 10.0029V6.51273H3.47347L0 10.0029Z" fill="#5D5D5D"/>
<path d="M0 6.51272H4.34186C5.53581 6.51272 6.51272 5.55247 6.51272 4.35851V0L0 6.51272Z" fill="#EEB2B2"/>
<path d="M6.83997 21.5V12.86H10.488C10.572 12.86 10.684 12.864 10.824 12.872C10.968 12.876 11.096 12.888 11.208 12.908C11.724 12.988 12.146 13.158 12.474 13.418C12.806 13.678 13.05 14.006 13.206 14.402C13.362 14.794 13.44 15.232 13.44 15.716C13.44 16.2 13.36 16.64 13.2 17.036C13.044 17.428 12.8 17.754 12.468 18.014C12.14 18.274 11.72 18.444 11.208 18.524C11.096 18.54 10.968 18.552 10.824 18.56C10.68 18.568 10.568 18.572 10.488 18.572H8.47197V21.5H6.83997ZM8.47197 17.048H10.416C10.5 17.048 10.592 17.044 10.692 17.036C10.792 17.028 10.884 17.012 10.968 16.988C11.188 16.928 11.358 16.828 11.478 16.688C11.598 16.544 11.68 16.386 11.724 16.214C11.772 16.038 11.796 15.872 11.796 15.716C11.796 15.56 11.772 15.396 11.724 15.224C11.68 15.048 11.598 14.89 11.478 14.75C11.358 14.606 11.188 14.504 10.968 14.444C10.884 14.42 10.792 14.404 10.692 14.396C10.592 14.388 10.5 14.384 10.416 14.384H8.47197V17.048Z" fill="white"/>
<path d="M17.3955 21.68C16.7995 21.68 16.2775 21.53 15.8295 21.23C15.3815 20.93 15.0315 20.522 14.7795 20.006C14.5315 19.49 14.4075 18.908 14.4075 18.26C14.4075 17.6 14.5335 17.014 14.7855 16.502C15.0415 15.986 15.3995 15.58 15.8595 15.284C16.3195 14.988 16.8595 14.84 17.4795 14.84C18.0955 14.84 18.6135 14.99 19.0335 15.29C19.4535 15.59 19.7715 15.998 19.9875 16.514C20.2035 17.03 20.3115 17.612 20.3115 18.26C20.3115 18.908 20.2015 19.49 19.9815 20.006C19.7655 20.522 19.4415 20.93 19.0095 21.23C18.5775 21.53 18.0395 21.68 17.3955 21.68ZM17.6595 20.228C18.0235 20.228 18.3135 20.146 18.5295 19.982C18.7495 19.818 18.9075 19.588 19.0035 19.292C19.0995 18.996 19.1475 18.652 19.1475 18.26C19.1475 17.868 19.0995 17.524 19.0035 17.228C18.9075 16.932 18.7535 16.702 18.5415 16.538C18.3335 16.374 18.0595 16.292 17.7195 16.292C17.3555 16.292 17.0555 16.382 16.8195 16.562C16.5875 16.738 16.4155 16.976 16.3035 17.276C16.1915 17.572 16.1355 17.9 16.1355 18.26C16.1355 18.624 16.1895 18.956 16.2975 19.256C16.4055 19.552 16.5715 19.788 16.7955 19.964C17.0195 20.14 17.3075 20.228 17.6595 20.228ZM19.1475 21.5V17.06H18.9435V12.86H20.5875V21.5H19.1475Z" fill="white"/>
<path d="M23.0475 21.5V15.044C23.0475 14.88 23.0515 14.694 23.0595 14.486C23.0675 14.278 23.0995 14.068 23.1555 13.856C23.2155 13.644 23.3235 13.452 23.4795 13.28C23.6795 13.056 23.8955 12.904 24.1275 12.824C24.3635 12.74 24.5915 12.696 24.8115 12.692C25.0315 12.684 25.2195 12.68 25.3755 12.68H26.1795V14H25.4355C25.1795 14 24.9895 14.066 24.8655 14.198C24.7415 14.326 24.6795 14.48 24.6795 14.66V21.5H23.0475ZM22.0275 16.28V15.02H26.1795V16.28H22.0275Z" fill="white"/>
</g>
<defs>
<clipPath id="clip0_23_1577">
<rect width="32" height="32" fill="white"/>
</clipPath>
</defs>
</svg>
