<svg width="16" height="18" viewBox="0 0 16 18" fill="none" xmlns="http://www.w3.org/2000/svg">
<path fill-rule="evenodd" clip-rule="evenodd" d="M8 1.75C6.75736 1.75 5.75 2.75736 5.75 4C5.75 5.24264 6.75736 6.25 8 6.25C9.24264 6.25 10.25 5.24264 10.25 4C10.25 2.75736 9.24264 1.75 8 1.75ZM4.25 4C4.25 1.92893 5.92893 0.25 8 0.25C10.0711 0.25 11.75 1.92893 11.75 4C11.75 6.07107 10.0711 7.75 8 7.75C5.92893 7.75 4.25 6.07107 4.25 4Z" fill="#6F7180"/>
<path fill-rule="evenodd" clip-rule="evenodd" d="M8 10.75C6.40815 10.75 4.21025 11.3273 2.88807 11.8221C2.20212 12.0789 1.75 12.7617 1.75 13.5589V17C1.75 17.4142 1.41421 17.75 1 17.75C0.585786 17.75 0.25 17.4142 0.25 17V13.5589C0.25 12.2021 1.03085 10.9156 2.36229 10.4173C3.76147 9.89364 6.15187 9.25 8 9.25C9.89945 9.25 11.9651 9.93263 13.48 10.4407C14.8837 10.9115 15.75 12.2392 15.75 13.6702V17C15.75 17.4142 15.4142 17.75 15 17.75C14.5858 17.75 14.25 17.4142 14.25 17V13.6702C14.25 12.8337 13.7493 12.1132 13.0031 11.8629C11.4451 11.3403 9.61307 10.75 8 10.75Z" fill="#6F7180"/>
</svg>
