<svg width="32" height="32" viewBox="0 0 32 32" fill="none" xmlns="http://www.w3.org/2000/svg">
<g clip-path="url(#clip0_23_1578)">
<path d="M32 26.9902C32 29.7571 29.7571 32 26.9902 32H5.00978C2.24294 32 0 29.7571 0 26.9902V6.51272L6.51272 0H26.9902C29.7571 0 32 2.24294 32 5.00978V26.9902Z" fill="#F86C07"/>
<path opacity="0.2" d="M0 10.0029V6.51273H3.47347L0 10.0029Z" fill="#5D5D5D"/>
<path d="M0 6.51272H4.34186C5.53581 6.51272 6.51272 5.55247 6.51272 4.35851V0L0 6.51272Z" fill="#EECFB2"/>
<path d="M12.9376 21.5V12.86H16.5856C16.6696 12.86 16.7816 12.864 16.9216 12.872C17.0656 12.876 17.1936 12.888 17.3056 12.908C17.8216 12.988 18.2436 13.158 18.5716 13.418C18.9036 13.678 19.1476 14.006 19.3036 14.402C19.4596 14.794 19.5376 15.232 19.5376 15.716C19.5376 16.2 19.4576 16.64 19.2976 17.036C19.1416 17.428 18.8976 17.754 18.5656 18.014C18.2376 18.274 17.8176 18.444 17.3056 18.524C17.1936 18.54 17.0656 18.552 16.9216 18.56C16.7776 18.568 16.6656 18.572 16.5856 18.572H14.5696V21.5H12.9376ZM14.5696 17.048H16.5136C16.5976 17.048 16.6896 17.044 16.7896 17.036C16.8896 17.028 16.9816 17.012 17.0656 16.988C17.2856 16.928 17.4556 16.828 17.5756 16.688C17.6956 16.544 17.7776 16.386 17.8216 16.214C17.8696 16.038 17.8936 15.872 17.8936 15.716C17.8936 15.56 17.8696 15.396 17.8216 15.224C17.7776 15.048 17.6956 14.89 17.5756 14.75C17.4556 14.606 17.2856 14.504 17.0656 14.444C16.9816 14.42 16.8896 14.404 16.7896 14.396C16.6896 14.388 16.5976 14.384 16.5136 14.384H14.5696V17.048Z" fill="white"/>
</g>
<defs>
<clipPath id="clip0_23_1578">
<rect width="32" height="32" fill="white"/>
</clipPath>
</defs>
</svg>
