<svg width="18" height="20" viewBox="0 0 18 20" fill="none" xmlns="http://www.w3.org/2000/svg">
<path fill-rule="evenodd" clip-rule="evenodd" d="M9 5.25C9.41421 5.25 9.75 5.58579 9.75 6V10.1355L12.3143 11.319C12.6904 11.4926 12.8545 11.9382 12.681 12.3143C12.5074 12.6904 12.0618 12.8545 11.6857 12.681L8.68571 11.2964C8.42009 11.1738 8.25 10.9079 8.25 10.6154V6C8.25 5.58579 8.58579 5.25 9 5.25Z" fill="#12131C"/>
<path fill-rule="evenodd" clip-rule="evenodd" d="M6.181 1.72514C7.93138 0.740547 10.0686 0.740547 11.819 1.72513L14.819 3.41264C16.6295 4.43107 17.75 6.34687 17.75 8.42419V11.5757C17.75 13.653 16.6295 15.5688 14.819 16.5873L11.819 18.2748C10.0686 19.2594 7.93138 19.2594 6.181 18.2748L3.181 16.5873C1.37046 15.5688 0.25 13.653 0.25 11.5757V8.42419C0.25 6.34687 1.37046 4.43107 3.181 3.41264L6.181 1.72514ZM11.0836 3.0325C9.78985 2.30476 8.21015 2.30476 6.91639 3.0325L3.91639 4.72C2.57816 5.47275 1.75 6.88878 1.75 8.42419V11.5757C1.75 13.1111 2.57816 14.5272 3.91639 15.2799L6.91639 16.9674C8.21015 17.6952 9.78985 17.6952 11.0836 16.9674L14.0836 15.2799C15.4218 14.5272 16.25 13.1111 16.25 11.5757V8.42419C16.25 6.88878 15.4218 5.47275 14.0836 4.72L11.0836 3.0325Z" fill="currentColor"/>
</svg>
