<svg width="17" height="16" viewBox="0 0 17 16" fill="none" xmlns="http://www.w3.org/2000/svg">
<path d="M15.8143 8C15.8143 12.0396 12.5396 15.3143 8.5 15.3143C4.46043 15.3143 1.18571 12.0396 1.18571 8C1.18571 3.96043 4.46043 0.685714 8.5 0.685714C12.5396 0.685714 15.8143 3.96043 15.8143 8Z" fill="#F94D4D"/>
<path fill-rule="evenodd" clip-rule="evenodd" d="M8.5 1.37143C4.83914 1.37143 1.87143 4.33914 1.87143 8C1.87143 11.6609 4.83914 14.6286 8.5 14.6286C12.1609 14.6286 15.1286 11.6609 15.1286 8C15.1286 4.33914 12.1609 1.37143 8.5 1.37143ZM0.5 8C0.5 3.58172 4.08172 0 8.5 0C12.9183 0 16.5 3.58172 16.5 8C16.5 12.4183 12.9183 16 8.5 16C4.08172 16 0.5 12.4183 0.5 8Z" fill="#F94D4D"/>
<path d="M5.83369 10.6672L11.1669 5.33398" stroke="white" stroke-width="1.5" stroke-miterlimit="10" stroke-linecap="round" stroke-linejoin="round"/>
<path d="M5.83337 5.33398L11.1666 10.6672" stroke="white" stroke-width="1.5" stroke-miterlimit="10" stroke-linecap="round" stroke-linejoin="round"/>
</svg>
