<svg width="32" height="32" viewBox="0 0 32 32" fill="none" xmlns="http://www.w3.org/2000/svg">
<rect width="32" height="32" rx="16" fill="#FF7063"/>
<path d="M16.1107 21.18C15.4907 21.18 14.9307 21.074 14.4307 20.862C13.9347 20.646 13.5247 20.34 13.2007 19.944C12.8807 19.544 12.6727 19.07 12.5767 18.522L13.8847 18.324C14.0167 18.852 14.2927 19.264 14.7127 19.56C15.1327 19.852 15.6227 19.998 16.1827 19.998C16.5307 19.998 16.8507 19.944 17.1427 19.836C17.4347 19.724 17.6687 19.566 17.8447 19.362C18.0247 19.154 18.1147 18.906 18.1147 18.618C18.1147 18.462 18.0867 18.324 18.0307 18.204C17.9787 18.084 17.9047 17.98 17.8087 17.892C17.7167 17.8 17.6027 17.722 17.4667 17.658C17.3347 17.59 17.1887 17.532 17.0287 17.484L14.8147 16.83C14.5987 16.766 14.3787 16.684 14.1547 16.584C13.9307 16.48 13.7247 16.346 13.5367 16.182C13.3527 16.014 13.2027 15.808 13.0867 15.564C12.9707 15.316 12.9127 15.016 12.9127 14.664C12.9127 14.132 13.0487 13.682 13.3207 13.314C13.5967 12.942 13.9687 12.662 14.4367 12.474C14.9047 12.282 15.4287 12.186 16.0087 12.186C16.5927 12.194 17.1147 12.298 17.5747 12.498C18.0387 12.698 18.4227 12.986 18.7267 13.362C19.0347 13.734 19.2467 14.186 19.3627 14.718L18.0187 14.946C17.9587 14.622 17.8307 14.344 17.6347 14.112C17.4387 13.876 17.1987 13.696 16.9147 13.572C16.6307 13.444 16.3227 13.378 15.9907 13.374C15.6707 13.366 15.3767 13.414 15.1087 13.518C14.8447 13.622 14.6327 13.768 14.4727 13.956C14.3167 14.144 14.2387 14.36 14.2387 14.604C14.2387 14.844 14.3087 15.038 14.4487 15.186C14.5887 15.334 14.7607 15.452 14.9647 15.54C15.1727 15.624 15.3787 15.694 15.5827 15.75L17.1787 16.2C17.3787 16.256 17.6047 16.332 17.8567 16.428C18.1127 16.52 18.3587 16.65 18.5947 16.818C18.8347 16.986 19.0327 17.21 19.1887 17.49C19.3447 17.766 19.4227 18.114 19.4227 18.534C19.4227 18.97 19.3347 19.354 19.1587 19.686C18.9827 20.014 18.7407 20.29 18.4327 20.514C18.1287 20.734 17.7767 20.9 17.3767 21.012C16.9767 21.124 16.5547 21.18 16.1107 21.18Z" fill="white"/>
</svg>
