<svg width="22" height="20" viewBox="0 0 22 20" fill="none" xmlns="http://www.w3.org/2000/svg">
<path fill-rule="evenodd" clip-rule="evenodd" d="M19.3822 6.42521C20.7301 8.38293 20.8438 11.2162 19.3626 13.6046C19.1443 13.9566 19.2527 14.419 19.6047 14.6373C19.9567 14.8556 20.4191 14.7472 20.6374 14.3952C22.4137 11.5308 22.3233 8.05177 20.6177 5.57458C20.3828 5.23341 19.9158 5.14726 19.5747 5.38215C19.2335 5.61705 19.1474 6.08405 19.3822 6.42521Z" fill="#32373D"/>
<path fill-rule="evenodd" clip-rule="evenodd" d="M13.25 2.32381C13.25 1.87817 12.6956 1.67308 12.4056 2.01143L9.40754 5.50911C8.73311 6.29595 7.74852 6.7488 6.71218 6.7488H3.5C2.5335 6.7488 1.75 7.5323 1.75 8.4988V11.4988C1.75 12.4653 2.5335 13.2488 3.5 13.2488H6.71218C7.74852 13.2488 8.7331 13.7016 9.40754 14.4885L12.4056 17.9862C12.6956 18.3245 13.25 18.1194 13.25 17.6738V2.32381ZM11.2667 1.03524C12.463 -0.360458 14.75 0.485564 14.75 2.32381V17.6738C14.75 19.512 12.463 20.3581 11.2667 18.9624L8.26866 15.4647C7.87919 15.0103 7.31063 14.7488 6.71218 14.7488H3.5C1.70507 14.7488 0.25 13.2937 0.25 11.4988V8.4988C0.25 6.70388 1.70507 5.2488 3.5 5.2488H6.71218C7.31063 5.2488 7.87919 4.9873 8.26866 4.53292L11.2667 1.03524Z" fill="#32373D"/>
<path fill-rule="evenodd" clip-rule="evenodd" d="M4 5.75C4.41421 5.75 4.75 6.08579 4.75 6.5V13.5C4.75 13.9142 4.41421 14.25 4 14.25C3.58579 14.25 3.25 13.9142 3.25 13.5V6.5C3.25 6.08579 3.58579 5.75 4 5.75Z" fill="#32373D"/>
<path fill-rule="evenodd" clip-rule="evenodd" d="M16.4273 7.48412C17.5342 8.79338 17.5329 10.7894 16.3697 12.5935C16.1452 12.9416 16.2455 13.4058 16.5936 13.6302C16.9417 13.8547 17.4059 13.7545 17.6303 13.4063C19.0448 11.2126 19.22 8.46411 17.5728 6.51569C17.3053 6.19938 16.8321 6.15974 16.5158 6.42716C16.1995 6.69459 16.1598 7.16781 16.4273 7.48412Z" fill="#32373D"/>
</svg>
