<svg width="24" height="24" viewBox="0 0 24 24" fill="none" xmlns="http://www.w3.org/2000/svg">
<path fill-rule="evenodd" clip-rule="evenodd" d="M13.0287 3.40693C12.6011 2.53102 11.3989 2.53102 10.9713 3.40693C10.4862 4.40079 9.44611 5.00008 8.34431 4.89385L7.42788 4.8055C6.01036 4.66883 4.75 5.81381 4.75 7.32251V14.5901C4.75 15.3434 5.07524 16.0532 5.6306 16.5313L10.4306 20.6632C11.3396 21.4456 12.6604 21.4456 13.5694 20.6632L18.3694 16.5313C18.9248 16.0532 19.25 15.3434 19.25 14.5901V7.32251C19.25 5.81381 17.9896 4.66883 16.5721 4.8055L15.6557 4.89385C14.5539 5.00008 13.5138 4.40079 13.0287 3.40693ZM9.62334 2.74897C10.5989 0.750345 13.4011 0.750345 14.3767 2.74897C14.5944 3.19511 15.0488 3.44541 15.5117 3.40078L16.4282 3.31242C18.7656 3.08707 20.75 4.96781 20.75 7.32251V14.5901C20.75 15.7731 20.2397 16.9005 19.348 17.6681L14.548 21.8C13.0765 23.0667 10.9235 23.0667 9.45201 21.8L4.65201 17.6681C3.7603 16.9005 3.25 15.7731 3.25 14.5901V7.32251C3.25 4.9678 5.23443 3.08707 7.57183 3.31242L8.48826 3.40078C8.95124 3.44541 9.40557 3.19511 9.62334 2.74897Z" fill="#12131C"/>
<path fill-rule="evenodd" clip-rule="evenodd" d="M15.5372 9.4766C15.8262 9.77327 15.8201 10.2481 15.5234 10.5372L11.4181 14.5372C11.2744 14.6773 11.0804 14.7539 10.8797 14.7499C10.679 14.7458 10.4883 14.6615 10.3503 14.5158L8.45554 12.5158C8.17066 12.2151 8.18349 11.7404 8.48419 11.4555C8.78489 11.1707 9.25959 11.1835 9.54447 11.4842L10.9161 12.932L14.4766 9.46283C14.7733 9.17376 15.2481 9.17993 15.5372 9.4766Z" fill="#12131C"/>
</svg>
