<svg width="22" height="22" viewBox="0 0 22 22" fill="none" xmlns="http://www.w3.org/2000/svg">
<path fill-rule="evenodd" clip-rule="evenodd" d="M11.0002 9.87891C10.3794 9.87891 9.87622 10.3821 9.87622 11.0028C9.87622 11.6236 10.3794 12.1268 11.0002 12.1268C11.6209 12.1268 12.1241 11.6236 12.1241 11.0028C12.1241 10.3821 11.6209 9.87891 11.0002 9.87891ZM8.12622 11.0028C8.12622 9.41561 9.41293 8.12891 11.0002 8.12891C12.5874 8.12891 13.8741 9.41561 13.8741 11.0028C13.8741 12.5901 12.5874 13.8768 11.0002 13.8768C9.41293 13.8768 8.12622 12.5901 8.12622 11.0028Z" fill="#12131C"/>
<path fill-rule="evenodd" clip-rule="evenodd" d="M8.58673 2.72198C9.16772 0.149959 12.8325 0.149969 13.4134 2.72198L13.546 3.30907C13.6563 3.79696 14.2161 4.02887 14.639 3.7618L15.148 3.44044C17.3775 2.03256 19.9688 4.62393 18.5609 6.85344L18.2396 7.36234C17.9725 7.78525 18.2044 8.34513 18.6923 8.45534L19.2794 8.58795C21.8514 9.16893 21.8514 12.8337 19.2794 13.4147L18.6923 13.5473C18.2044 13.6575 17.9725 14.2174 18.2396 14.6403L18.5609 15.1492C19.9688 17.3787 17.3775 19.97 15.1479 18.5622L14.639 18.2408C14.2161 17.9737 13.6563 18.2056 13.546 18.6935L13.4134 19.2806C12.8325 21.8526 9.16771 21.8526 8.58673 19.2806L8.45412 18.6935C8.34391 18.2056 7.78404 17.9737 7.36112 18.2408L6.85221 18.5622C4.62271 19.97 2.03135 17.3787 3.43922 15.1492L3.76058 14.6403C4.02765 14.2174 3.79574 13.6575 3.30785 13.5473L2.72076 13.4147C0.148739 12.8337 0.148748 9.16893 2.72076 8.58795L3.30785 8.45534C3.79574 8.34513 4.02765 7.78526 3.76058 7.36234L3.43922 6.85343C2.03134 4.62393 4.62271 2.03257 6.85222 3.44045L7.36112 3.76181C7.78403 4.02887 8.34391 3.79696 8.45412 3.30907L8.58673 2.72198ZM11.7064 3.10757C11.5364 2.35477 10.4638 2.35477 10.2937 3.10757L10.1611 3.69465C9.78458 5.36158 7.87169 6.15393 6.42674 5.24148L5.91784 4.92012C5.26529 4.50805 4.50683 5.26651 4.9189 5.91906L5.24026 6.42796C6.15271 7.87291 5.36036 9.7858 3.69343 10.1623L3.10635 10.2949C2.35355 10.465 2.35355 11.5376 3.10634 11.7077L3.69343 11.8403C5.36036 12.2168 6.15271 14.1297 5.24026 15.5746L4.9189 16.0835C4.50683 16.7361 5.26529 17.4946 5.91784 17.0825L6.42674 16.7611C7.87169 15.8487 9.78458 16.641 10.1611 18.308L10.2937 18.895C10.4638 19.6478 11.5364 19.6478 11.7064 18.895L11.8391 18.308C12.2156 16.641 14.1285 15.8487 15.5734 16.7611L16.0823 17.0825C16.7349 17.4946 17.4933 16.7361 17.0813 16.0835L16.7599 15.5746C15.8475 14.1297 16.6398 12.2168 18.3067 11.8403L18.8938 11.7077C19.6466 11.5376 19.6466 10.465 18.8938 10.2949L18.3067 10.1623C16.6398 9.7858 15.8475 7.87291 16.7599 6.42796L17.0813 5.91906C17.4933 5.26651 16.7349 4.50805 16.0823 4.92012L15.5734 5.24148C14.1285 6.15393 12.2156 5.36158 11.8391 3.69465L11.7064 3.10757Z" fill="#12131C"/>
</svg>
