<svg width="48" height="48" viewBox="0 0 48 48" fill="none" xmlns="http://www.w3.org/2000/svg">
<path fill-rule="evenodd" clip-rule="evenodd" d="M24 22.8762C23.3793 22.8762 22.8761 23.3794 22.8761 24.0001C22.8761 24.6208 23.3793 25.124 24 25.124C24.6208 25.124 25.124 24.6208 25.124 24.0001C25.124 23.3794 24.6208 22.8762 24 22.8762ZM21.1261 24.0001C21.1261 22.4129 22.4128 21.1262 24 21.1262C25.5873 21.1262 26.874 22.4129 26.874 24.0001C26.874 25.5873 25.5873 26.874 24 26.874C22.4128 26.874 21.1261 25.5873 21.1261 24.0001Z" fill="#12131C"/>
<path fill-rule="evenodd" clip-rule="evenodd" d="M21.5866 15.7207C22.1676 13.1487 25.8323 13.1487 26.4133 15.7207L26.5459 16.3078C26.6561 16.7957 27.216 17.0276 27.6389 16.7605L28.1478 16.4392C30.3773 15.0313 32.9687 17.6227 31.5608 19.8522L31.2395 20.3611C30.9724 20.784 31.2043 21.3439 31.6922 21.4541L32.2793 21.5867C34.8513 22.1677 34.8513 25.8324 32.2793 26.4134L31.6922 26.546C31.2043 26.6562 30.9724 27.2161 31.2395 27.639L31.5608 28.1479C32.9687 30.3774 30.3773 32.9688 28.1478 31.5609L27.6389 31.2395C27.216 30.9725 26.6561 31.2044 26.5459 31.6923L26.4133 32.2793C25.8323 34.8514 22.1676 34.8514 21.5866 32.2793L21.454 31.6923C21.3438 31.2044 20.7839 30.9725 20.361 31.2395L19.8521 31.5609C17.6226 32.9688 15.0312 30.3774 16.4391 28.1479L16.7605 27.639C17.0275 27.2161 16.7956 26.6562 16.3077 26.546L15.7206 26.4134C13.1486 25.8324 13.1486 22.1677 15.7206 21.5867L16.3077 21.4541C16.7956 21.3439 17.0275 20.784 16.7605 20.3611L16.4391 19.8522C15.0312 17.6226 17.6226 15.0313 19.8521 16.4392L20.361 16.7605C20.7839 17.0276 21.3438 16.7957 21.454 16.3078L21.5866 15.7207ZM24.7063 16.1063C24.5363 15.3535 23.4636 15.3535 23.2936 16.1063L23.161 16.6934C22.7845 18.3603 20.8716 19.1526 19.4266 18.2402L18.9177 17.9188C18.2652 17.5068 17.5067 18.2652 17.9188 18.9178L18.2401 19.4267C19.1526 20.8716 18.3602 22.7845 16.6933 23.1611L16.1062 23.2937C15.3534 23.4637 15.3534 24.5363 16.1062 24.7064L16.6933 24.839C18.3602 25.2155 19.1526 27.1284 18.2401 28.5734L17.9188 29.0823C17.5067 29.7348 18.2652 30.4933 18.9177 30.0812L19.4266 29.7598C20.8716 28.8474 22.7845 29.6397 23.161 31.3067L23.2936 31.8938C23.4637 32.6466 24.5363 32.6466 24.7063 31.8938L24.8389 31.3067C25.2155 29.6397 27.1284 28.8474 28.5733 29.7598L29.0822 30.0812C29.7348 30.4933 30.4932 29.7348 30.0811 29.0823L29.7598 28.5734C28.8473 27.1284 29.6397 25.2155 31.3066 24.839L31.8937 24.7064C32.6465 24.5363 32.6465 23.4637 31.8937 23.2937L31.3066 23.1611C29.6397 22.7845 28.8473 20.8716 29.7598 19.4267L30.0811 18.9178C30.4932 18.2652 29.7348 17.5068 29.0822 17.9188L28.5733 18.2402C27.1284 19.1526 25.2155 18.3603 24.8389 16.6934L24.7063 16.1063Z" fill="#12131C"/>
</svg>
