<svg width="21" height="22" viewBox="0 0 21 22" fill="none" xmlns="http://www.w3.org/2000/svg">
<path fill-rule="evenodd" clip-rule="evenodd" d="M3.25 9.17891C3.25 7.2183 4.83939 5.62891 6.8 5.62891H17.2C19.1606 5.62891 20.75 7.2183 20.75 9.17891V17.5789C20.75 19.5395 19.1606 21.1289 17.2 21.1289H6.8C4.83939 21.1289 3.25 19.5395 3.25 17.5789V9.17891ZM6.8 7.12891C5.66782 7.12891 4.75 8.04672 4.75 9.17891V17.5789C4.75 18.7111 5.66782 19.6289 6.8 19.6289H17.2C18.3322 19.6289 19.25 18.7111 19.25 17.5789V9.17891C19.25 8.04672 18.3322 7.12891 17.2 7.12891H6.8Z" fill="#32373D"/>
<path fill-rule="evenodd" clip-rule="evenodd" d="M8.95366 11.8786C8.83008 11.7257 8.5865 11.7687 8.52273 11.9546L7.16347 15.9192C7.10784 16.0814 7.22842 16.2502 7.39996 16.2502H16.068C16.2708 16.2502 16.3893 16.0215 16.2722 15.8559L14.4932 13.3402C14.402 13.2113 14.2156 13.1981 14.1072 13.3131L13.3312 14.1361C12.6039 14.9075 11.3632 14.8601 10.6969 14.0356L8.95366 11.8786ZM7.10381 11.4682C7.55016 10.1663 9.25525 9.86535 10.1203 10.9357L11.8635 13.0927C11.9587 13.2105 12.1359 13.2173 12.2398 13.1071L13.0158 12.2841C13.7744 11.4796 15.0796 11.5714 15.718 12.4742L17.4969 14.9898C18.3165 16.1489 17.4877 17.7502 16.068 17.7502H7.39996C6.19918 17.7502 5.35511 16.5685 5.74455 15.4327L7.10381 11.4682Z" fill="#32373D"/>
<path d="M17 10C17 10.5523 16.5523 11 16 11C15.4477 11 15 10.5523 15 10C15 9.44772 15.4477 9 16 9C16.5523 9 17 9.44772 17 10Z" fill="#32373D"/>
<path fill-rule="evenodd" clip-rule="evenodd" d="M4.52235 4.56672C3.41874 4.7959 2.70765 5.87314 2.93045 6.97869L4.32096 13.8787C4.40278 14.2847 4.13995 14.6802 3.7339 14.7621C3.32785 14.8439 2.93235 14.581 2.85052 14.175L1.46001 7.27502C1.07436 5.36136 2.3054 3.4951 4.21736 3.09805L8.69392 2.16841C10.157 1.86457 12.0471 1.50786 13.5275 1.23485C15.2752 0.912537 17.0128 1.94357 17.4918 3.68652C17.6654 4.31859 17.8383 4.99334 17.9594 5.57645C18.0436 5.98201 17.7831 6.37906 17.3776 6.46328C16.972 6.5475 16.575 6.28701 16.4907 5.88145C16.379 5.34349 16.2156 4.70353 16.0454 4.08396C15.7807 3.12086 14.8116 2.52333 13.7995 2.70997C12.321 2.98264 10.4446 3.33684 8.99891 3.63707L4.52235 4.56672Z" fill="#32373D"/>
</svg>
