<svg width="18" height="22" viewBox="0 0 18 22" fill="none" xmlns="http://www.w3.org/2000/svg">
<path d="M9 21.75C8.27082 21.7495 7.57165 21.4596 7.05604 20.944C6.54043 20.4283 6.25053 19.7292 6.25 19V16C6.25 15.8011 6.32902 15.6103 6.46967 15.4697C6.61032 15.329 6.80109 15.25 7 15.25H11C11.1989 15.25 11.3897 15.329 11.5303 15.4697C11.671 15.6103 11.75 15.8011 11.75 16V19C11.7495 19.7292 11.4596 20.4283 10.944 20.944C10.4283 21.4596 9.72918 21.7495 9 21.75ZM7.75 16.75V19C7.75 19.3315 7.8817 19.6495 8.11612 19.8839C8.35054 20.1183 8.66848 20.25 9 20.25C9.33152 20.25 9.64946 20.1183 9.88388 19.8839C10.1183 19.6495 10.25 19.3315 10.25 19V16.75H7.75Z" fill="#32373D"/>
<path d="M15 16.75H3C2.27065 16.75 1.57118 16.4603 1.05546 15.9445C0.539731 15.4288 0.25 14.7293 0.25 14C0.25 13.2707 0.539731 12.5712 1.05546 12.0555C1.57118 11.5397 2.27065 11.25 3 11.25H15C15.7293 11.25 16.4288 11.5397 16.9445 12.0555C17.4603 12.5712 17.75 13.2707 17.75 14C17.75 14.7293 17.4603 15.4288 16.9445 15.9445C16.4288 16.4603 15.7293 16.75 15 16.75ZM3 12.75C2.66848 12.75 2.35054 12.8817 2.11612 13.1161C1.8817 13.3505 1.75 13.6685 1.75 14C1.75 14.3315 1.8817 14.6495 2.11612 14.8839C2.35054 15.1183 2.66848 15.25 3 15.25H15C15.3315 15.25 15.6495 15.1183 15.8839 14.8839C16.1183 14.6495 16.25 14.3315 16.25 14C16.25 13.6685 16.1183 13.3505 15.8839 13.1161C15.6495 12.8817 15.3315 12.75 15 12.75H3Z" fill="#32373D"/>
<path d="M16 13.02C15.8011 13.02 15.6103 12.941 15.4697 12.8003C15.329 12.6597 15.25 12.4689 15.25 12.27V3.00001C15.2495 2.66865 15.1176 2.35102 14.8833 2.11671C14.649 1.88241 14.3314 1.75054 14 1.75001H9.24C9.0072 1.74986 8.779 1.81487 8.58124 1.9377C8.38348 2.06053 8.22405 2.23626 8.121 2.44501L7.669 3.33801C7.59972 3.45358 7.50168 3.54923 7.38444 3.61565C7.26719 3.68206 7.13475 3.71697 7 3.71697C6.86525 3.71697 6.73281 3.68206 6.61556 3.61565C6.49832 3.54923 6.40028 3.45358 6.331 3.33801L5.88 2.44801C5.77758 2.23818 5.61829 2.06131 5.42028 1.93756C5.22228 1.8138 4.9935 1.74813 4.76 1.74801H4C3.6683 1.74854 3.35036 1.88068 3.116 2.11542C2.88163 2.35016 2.75 2.66831 2.75 3.00001V12.27C2.75 12.4689 2.67098 12.6597 2.53033 12.8003C2.38968 12.941 2.19891 13.02 2 13.02C1.80109 13.02 1.61032 12.941 1.46967 12.8003C1.32902 12.6597 1.25 12.4689 1.25 12.27V3.00001C1.25079 2.27091 1.54078 1.5719 2.05633 1.05635C2.57189 0.540793 3.2709 0.250807 4 0.250013H4.76C5.19873 0.248833 5.6313 0.353254 6.02117 0.554457C6.41105 0.75566 6.74678 1.04774 7 1.40601C7.25311 1.04761 7.58881 0.755449 7.97871 0.554231C8.36861 0.353014 8.80124 0.248666 9.24 0.250013H14C14.7291 0.250807 15.4281 0.540793 15.9437 1.05635C16.4592 1.5719 16.7492 2.27091 16.75 3.00001V12.27C16.75 12.4689 16.671 12.6597 16.5303 12.8003C16.3897 12.941 16.1989 13.02 16 13.02Z" fill="#32373D"/>
<path d="M7 5.75C6.80109 5.75 6.61032 5.67098 6.46967 5.53033C6.32902 5.38968 6.25 5.19891 6.25 5V3C6.25 2.80109 6.32902 2.61032 6.46967 2.46967C6.61032 2.32902 6.80109 2.25 7 2.25C7.19891 2.25 7.38968 2.32902 7.53033 2.46967C7.67098 2.61032 7.75 2.80109 7.75 3V5C7.75 5.19891 7.67098 5.38968 7.53033 5.53033C7.38968 5.67098 7.19891 5.75 7 5.75Z" fill="#32373D"/>
</svg>
