<svg width="18" height="21" viewBox="0 0 18 21" fill="none" xmlns="http://www.w3.org/2000/svg">
<path fill-rule="evenodd" clip-rule="evenodd" d="M9 6.25C9.41421 6.25 9.75 6.58579 9.75 7V11.6154C9.75 12.0296 9.41421 12.3654 9 12.3654C8.58579 12.3654 8.25 12.0296 8.25 11.6154V7C8.25 6.58579 8.58579 6.25 9 6.25Z" fill="#32373D"/>
<path d="M10.5 12C10.5 12.8284 9.82843 13.5 9 13.5C8.17157 13.5 7.5 12.8284 7.5 12C7.5 11.1716 8.17157 10.5 9 10.5C9.82843 10.5 10.5 11.1716 10.5 12Z" fill="#32373D"/>
<path fill-rule="evenodd" clip-rule="evenodd" d="M6.181 2.72672C7.93138 1.74213 10.0686 1.74213 11.819 2.72672L14.819 4.41422C16.6295 5.43265 17.75 7.34846 17.75 9.42578V12.5773C17.75 14.6546 16.6295 16.5704 14.819 17.5889L11.819 19.2764C10.0686 20.261 7.93138 20.261 6.181 19.2764L3.181 17.5889C1.37046 16.5704 0.25 14.6546 0.25 12.5773V9.42578C0.25 7.34846 1.37046 5.43265 3.181 4.41422L6.181 2.72672ZM11.0836 4.03409C9.78985 3.30635 8.21015 3.30635 6.91639 4.03409L3.91639 5.72159C2.57816 6.47434 1.75 7.89037 1.75 9.42578V12.5773C1.75 14.1127 2.57816 15.5288 3.91639 16.2815L6.91639 17.969C8.21015 18.6967 9.78985 18.6967 11.0836 17.969L14.0836 16.2815C15.4218 15.5288 16.25 14.1127 16.25 12.5773V9.42578C16.25 7.89037 15.4218 6.47434 14.0836 5.72159L11.0836 4.03409Z" fill="#32373D"/>
<path fill-rule="evenodd" clip-rule="evenodd" d="M6.624 0.584055C6.85376 0.928701 6.76063 1.39435 6.41598 1.62412L3.41598 3.62412C3.07134 3.85388 2.60568 3.76075 2.37592 3.4161C2.14616 3.07146 2.23929 2.60581 2.58393 2.37604L5.58393 0.376042C5.92858 0.146278 6.39423 0.239408 6.624 0.584055Z" fill="#32373D"/>
<path fill-rule="evenodd" clip-rule="evenodd" d="M11.3759 0.584055C11.6057 0.239408 12.0713 0.146278 12.416 0.376042L15.416 2.37604C15.7606 2.60581 15.8538 3.07146 15.624 3.4161C15.3942 3.76075 14.9286 3.85388 14.5839 3.62412L11.5839 1.62412C11.2393 1.39435 11.1462 0.928701 11.3759 0.584055Z" fill="#32373D"/>
</svg>
