<svg width="24" height="24" viewBox="0 0 24 24" fill="none" xmlns="http://www.w3.org/2000/svg">
<path d="M12.4184 8.9023H11.5815C11.2125 8.9023 10.9123 8.60206 10.9123 8.233C10.9123 7.86398 11.2125 7.56375 11.5815 7.56375H13.2551C13.5787 7.56375 13.8411 7.3014 13.8411 6.97781C13.8411 6.65422 13.5787 6.39187 13.2551 6.39187H12.5858V5.72266C12.5858 5.39906 12.3235 5.13672 11.9999 5.13672C11.6763 5.13672 11.414 5.39906 11.414 5.72266V6.39988C10.4771 6.48484 9.74042 7.27437 9.74042 8.23304C9.74042 9.24827 10.5664 10.0742 11.5815 10.0742H12.4184C12.7874 10.0742 13.0877 10.3744 13.0877 10.7435C13.0877 11.1125 12.7875 11.4127 12.4184 11.4127H10.7447C10.4211 11.4127 10.1588 11.6751 10.1588 11.9987C10.1588 12.3223 10.4211 12.5846 10.7447 12.5846H11.414V13.2539C11.414 13.5774 11.6763 13.8398 11.9999 13.8398C12.3235 13.8398 12.5858 13.5774 12.5858 13.2539V12.5766C13.5228 12.4917 14.2595 11.7022 14.2595 10.7434C14.2595 9.72823 13.4337 8.9023 12.4184 8.9023Z" fill="#12131C"/>
<path d="M15.138 15.8086H8.86198C8.53838 15.8086 8.27604 16.0709 8.27604 16.3945C8.27604 16.7181 8.53838 16.9805 8.86198 16.9805H15.138C15.4616 16.9805 15.7239 16.7181 15.7239 16.3945C15.7239 16.0709 15.4616 15.8086 15.138 15.8086Z" fill="#12131C"/>
<path d="M18.9036 2H5.09636C4.77276 2 4.51042 2.26234 4.51042 2.58594V19.6881C4.51042 19.8435 4.57218 19.9925 4.68206 20.1024L6.408 21.8284C6.63678 22.0572 7.0078 22.0572 7.23663 21.8284L8.54823 20.5168L9.85979 21.8284C9.96967 21.9382 10.1187 22 10.2741 22C10.4295 22 10.5786 21.9383 10.6885 21.8284L12 20.5168L13.3116 21.8284C13.4215 21.9382 13.5705 22 13.7259 22C13.8813 22 14.0303 21.9382 14.1402 21.8284L15.4518 20.5168L16.7634 21.8284C16.8778 21.9428 17.0277 22 17.1777 22C17.3276 22 17.4776 21.9428 17.592 21.8284L19.3179 20.1024C19.4278 19.9925 19.4896 19.8435 19.4896 19.6881V2.58594C19.4895 2.26234 19.2272 2 18.9036 2ZM17.1777 20.5854L15.8661 19.2738C15.7562 19.1639 15.6071 19.1022 15.4517 19.1022C15.2963 19.1022 15.1473 19.1639 15.0374 19.2738L13.7258 20.5854L12.4142 19.2738C12.1854 19.045 11.8144 19.045 11.5856 19.2738L10.274 20.5854L8.96244 19.2738C8.85256 19.1639 8.70354 19.1022 8.54811 19.1022C8.39272 19.1022 8.2437 19.1639 8.13381 19.2738L6.82221 20.5854L5.68222 19.4454V3.17187H18.3176V19.4454H18.3177L17.1777 20.5854Z" fill="#12131C"/>
</svg>
