<svg width="18" height="18" viewBox="0 0 18 18" fill="none" xmlns="http://www.w3.org/2000/svg">
<path d="M16.1559 2.31211C13.9612 0.117318 10.3899 0.117318 8.19485 2.31211L1.3709 9.13602C-0.196719 10.7038 -0.196616 13.2548 1.37111 14.8224C2.15504 15.6064 3.18444 15.9983 4.21425 15.9982C5.24379 15.9981 6.27373 15.6063 7.05753 14.8224L13.3126 8.56719C13.7683 8.11154 14.0193 7.5057 14.0194 6.86131C14.0194 6.21687 13.7685 5.61107 13.3127 5.15528C12.372 4.21465 10.8413 4.21469 9.90081 5.15546L5.81021 9.24595C5.49617 9.55996 5.49617 10.0692 5.81014 10.3832C6.12416 10.6974 6.63335 10.6972 6.94744 10.3832L11.0381 6.29271C11.3516 5.97915 11.8618 5.97908 12.1754 6.29264C12.3272 6.44452 12.4109 6.64648 12.4109 6.86127C12.4109 7.07606 12.3273 7.27795 12.1754 7.4299L5.92024 13.6851C4.97954 14.6257 3.44903 14.6259 2.5084 13.6852C1.56777 12.7445 1.5677 11.2139 2.50823 10.2732L9.33214 3.4494C10.9 1.8816 13.4509 1.8816 15.0186 3.4494C15.7781 4.20881 16.1964 5.21857 16.1964 6.29257C16.1964 7.36658 15.778 8.37634 15.0186 9.13582L8.19475 15.9598C7.88074 16.2739 7.88074 16.783 8.19482 17.0971C8.35186 17.2542 8.55767 17.3327 8.76345 17.3327C8.96926 17.3327 9.17507 17.2541 9.33211 17.0971L16.1558 10.2731C17.2191 9.20994 17.8047 7.79629 17.8047 6.29261C17.8047 4.78896 17.2191 3.37531 16.1559 2.31211Z" fill="#6F7180"/>
</svg>
