<svg width="24" height="24" viewBox="0 0 24 24" fill="none" xmlns="http://www.w3.org/2000/svg">
<path d="M16.7455 9.16205V6.27273C16.7455 5.369 16.0128 4.63636 15.1091 4.63636H10.2L9.04293 3.47929C8.73603 3.17239 8.31982 3 7.88582 3H3.98182C3.0781 3 2.34546 3.73264 2.34546 4.63636V14.4545C2.34546 15.3583 3.0781 16.0909 3.98182 16.0909H8.56356" stroke="#12131C" stroke-width="1.5" stroke-miterlimit="10" stroke-linecap="round" stroke-linejoin="round"/>
<path d="M13.4727 17.7273C14.3765 17.7273 15.1091 16.9947 15.1091 16.091C15.1091 15.1872 14.3765 14.4546 13.4727 14.4546C12.569 14.4546 11.8364 15.1872 11.8364 16.091C11.8364 16.9947 12.569 17.7273 13.4727 17.7273Z" stroke="#12131C" stroke-width="1.5" stroke-miterlimit="10" stroke-linecap="round" stroke-linejoin="round"/>
<path d="M20.0182 14.4545C20.9219 14.4545 21.6545 13.7219 21.6545 12.8181C21.6545 11.9144 20.9219 11.1818 20.0182 11.1818C19.1144 11.1818 18.3818 11.9144 18.3818 12.8181C18.3818 13.7219 19.1144 14.4545 20.0182 14.4545Z" stroke="#12131C" stroke-width="1.5" stroke-miterlimit="10" stroke-linecap="round" stroke-linejoin="round"/>
<path d="M20.0182 21C20.9219 21 21.6545 20.2674 21.6545 19.3637C21.6545 18.4599 20.9219 17.7273 20.0182 17.7273C19.1144 17.7273 18.3818 18.4599 18.3818 19.3637C18.3818 20.2674 19.1144 21 20.0182 21Z" stroke="#12131C" stroke-width="1.5" stroke-miterlimit="10" stroke-linecap="round" stroke-linejoin="round"/>
<path d="M18.5543 13.5502L14.9367 15.359" stroke="#12131C" stroke-width="1.5" stroke-miterlimit="10" stroke-linecap="round" stroke-linejoin="round"/>
<path d="M14.9367 16.8229L18.5543 18.6317" stroke="#12131C" stroke-width="1.5" stroke-miterlimit="10" stroke-linecap="round" stroke-linejoin="round"/>
</svg>
