<svg width="24" height="24" viewBox="0 0 24 24" fill="none" xmlns="http://www.w3.org/2000/svg">
<path d="M6.16667 15.6666C7.91557 15.6666 9.33334 14.2489 9.33334 12.5C9.33334 10.7511 7.91557 9.33331 6.16667 9.33331C4.41777 9.33331 3 10.7511 3 12.5C3 14.2489 4.41777 15.6666 6.16667 15.6666Z" stroke="#F7F7F8" stroke-width="1.5" stroke-miterlimit="10" stroke-linecap="round" stroke-linejoin="round"/>
<path d="M18.8334 9.33334C20.5823 9.33334 22.0001 7.91557 22.0001 6.16667C22.0001 4.41777 20.5823 3 18.8334 3C17.0845 3 15.6667 4.41777 15.6667 6.16667C15.6667 7.91557 17.0845 9.33334 18.8334 9.33334Z" stroke="#F7F7F8" stroke-width="1.5" stroke-miterlimit="10" stroke-linecap="round" stroke-linejoin="round"/>
<path d="M18.8334 22C20.5823 22 22.0001 20.5822 22.0001 18.8333C22.0001 17.0844 20.5823 15.6666 18.8334 15.6666C17.0845 15.6666 15.6667 17.0844 15.6667 18.8333C15.6667 20.5822 17.0845 22 18.8334 22Z" stroke="#F7F7F8" stroke-width="1.5" stroke-miterlimit="10" stroke-linecap="round" stroke-linejoin="round"/>
<path d="M16.0005 7.58313L8.99976 11.0836" stroke="#F7F7F8" stroke-width="1.5" stroke-miterlimit="10" stroke-linecap="round" stroke-linejoin="round"/>
<path d="M8.99976 13.9165L16.0005 17.4169" stroke="#F7F7F8" stroke-width="1.5" stroke-miterlimit="10" stroke-linecap="round" stroke-linejoin="round"/>
</svg>
