<svg width="12" height="20" viewBox="0 0 12 20" fill="none" xmlns="http://www.w3.org/2000/svg">
<path fill-rule="evenodd" clip-rule="evenodd" d="M9.01913 14.025L8.35913 14.005L11.5091 8.335C12.0591 7.355 11.9091 6.125 11.1391 5.305L6.35913 0.195C6.11913 -0.065 5.71913 -0.065 5.47913 0.195L0.699129 5.315C-0.0708712 6.135 -0.220871 7.365 0.329129 8.345L3.47913 14.015L2.81913 14.035C1.42913 14.085 0.319129 15.235 0.319129 16.635C0.319129 18.075 1.47913 19.235 2.91913 19.235H8.91913C10.3591 19.235 11.5191 18.075 11.5191 16.635C11.5191 15.225 10.4091 14.075 9.01913 14.025ZM1.37913 7.765C1.07913 7.235 1.15913 6.575 1.57913 6.135L5.31913 2.125V6.135L5.11913 6.245C4.63913 6.525 4.31913 7.045 4.31913 7.635C4.31913 8.515 5.03913 9.235 5.91913 9.235C6.79913 9.235 7.51913 8.515 7.51913 7.635C7.51913 7.045 7.19913 6.525 6.71913 6.245L6.51913 6.135V2.115L10.2591 6.125C10.6791 6.565 10.7591 7.225 10.4591 7.755L6.97913 14.025H4.85913L1.37913 7.765ZM8.91913 18.025H2.91913C2.14913 18.025 1.51913 17.395 1.51913 16.625C1.51913 15.855 2.14913 15.225 2.91913 15.225H8.91913C9.68913 15.225 10.3191 15.855 10.3191 16.625C10.3191 17.395 9.68913 18.025 8.91913 18.025Z" fill="currentColor"/>
</svg>
