<svg width="12" height="13" viewBox="0 0 12 13" fill="none" xmlns="http://www.w3.org/2000/svg">
<path fill-rule="evenodd" clip-rule="evenodd" d="M7.5 1.21895C7.5 0.906811 7.68403 0.670649 7.92509 0.563072C7.74869 0.521502 7.56665 0.5 7.38231 0.5H2.53317C1.2261 0.5 0.166504 1.55959 0.166504 2.86666V10.56C0.166504 11.8671 1.2261 12.9267 2.53317 12.9267H9.4665C10.7736 12.9267 11.8332 11.8671 11.8332 10.56V5.07508C11.8332 4.86254 11.8046 4.65283 11.7494 4.45113C11.634 4.6708 11.4077 4.83333 11.1144 4.83333H8.21852C7.82169 4.83333 7.5 4.51164 7.5 4.11482V1.21895ZM8.5 1.89852V3.83333H10.4348L8.5 1.89852ZM7.70272 7.33698C7.88883 7.13298 7.87432 6.81673 7.67031 6.63062C7.46631 6.44451 7.15006 6.45901 6.96395 6.66302L5.52382 8.24163L5.04912 7.67793C4.87125 7.46671 4.55582 7.43967 4.3446 7.61754C4.13337 7.79542 4.10634 8.11084 4.28421 8.32207L5.12632 9.32207C5.21909 9.43223 5.35486 9.49705 5.49886 9.4999C5.64285 9.50276 5.78109 9.44338 5.87816 9.33698L7.70272 7.33698Z" fill="#27A752"/>
</svg>
