<svg width="19" height="19" viewBox="0 0 19 19" fill="none" xmlns="http://www.w3.org/2000/svg">
<path fill-rule="evenodd" clip-rule="evenodd" d="M14.6099 18.09C14.3799 18.09 14.1599 18.02 13.9699 17.87L9.44993 14.6L4.93993 17.88C4.73993 18.02 4.51993 18.1 4.28993 18.1C3.93993 18.1 3.58993 17.92 3.37993 17.63C3.16993 17.34 3.11993 17 3.22993 16.65L4.94993 11.35L0.45993 8.06C-0.02007 7.71 -0.06007 7.19 0.05993 6.82C0.17993 6.45 0.51993 6.06 1.10993 6.06H6.67993L8.39993 0.76C8.58993 0.2 9.06993 0 9.44993 0C9.82993 0 10.3199 0.2 10.4999 0.76L12.2199 6.06H17.7899C18.3799 6.06 18.7199 6.46 18.8399 6.82C18.9599 7.19 18.9199 7.71 18.4399 8.06L13.9299 11.34L15.6499 16.64C15.7599 16.99 15.7099 17.34 15.4999 17.62C15.3099 17.91 14.9599 18.09 14.6099 18.09ZM9.44993 13.23C9.67993 13.23 9.90993 13.3 10.0999 13.44L14.2099 16.42L12.6399 11.59C12.4899 11.13 12.6499 10.64 13.0399 10.35L17.1499 7.37H12.0699C11.5899 7.37 11.1699 7.06 11.0199 6.61L9.44993 1.79L7.88993 6.62C7.73993 7.07 7.31993 7.38 6.82993 7.38H1.75993L5.86993 10.36C6.25993 10.64 6.41993 11.14 6.26993 11.6L4.69993 16.43L8.80993 13.45C8.99993 13.31 9.21993 13.23 9.44993 13.23Z" fill="#F7F7F8"/>
</svg>
