<svg width="20" height="19" viewBox="0 0 20 19" fill="none" xmlns="http://www.w3.org/2000/svg">
<path d="M9.66713 1.02447C9.7719 0.702009 10.2281 0.702009 10.3329 1.02447L12.1666 6.66799C12.2134 6.81219 12.3478 6.90983 12.4994 6.90983H18.4334C18.7724 6.90983 18.9134 7.3437 18.6391 7.54299L13.8384 11.0309C13.7158 11.12 13.6644 11.278 13.7113 11.4222L15.545 17.0657C15.6498 17.3882 15.2807 17.6563 15.0064 17.457L10.2057 13.9691C10.0831 13.88 9.91695 13.88 9.79428 13.9691L4.99361 17.457C4.71931 17.6563 4.35024 17.3882 4.45502 17.0657L6.28871 11.4222C6.33556 11.278 6.28423 11.12 6.16156 11.0309L1.3609 7.54299C1.0866 7.3437 1.22757 6.90983 1.56662 6.90983H7.50057C7.6522 6.90983 7.78658 6.81219 7.83344 6.66799L9.66713 1.02447Z" fill="#3C46F5" stroke="#3C46F5" stroke-width="1.5"/>
</svg>
