<svg width="20" height="19" viewBox="0 0 20 19" fill="none" xmlns="http://www.w3.org/2000/svg">
<path fill-rule="evenodd" clip-rule="evenodd" d="M8.6631 0.971311C9.0839 -0.323781 10.9161 -0.323761 11.3369 0.971313L12.9916 6.06397H18.3463C19.7081 6.06397 20.2742 7.80649 19.1726 8.60689L14.8405 11.7543L16.4952 16.847C16.916 18.1421 15.4337 19.219 14.3321 18.4186L10 15.2712L5.66792 18.4186C4.56625 19.219 3.08399 18.1421 3.50478 16.847L5.15949 11.7543L0.827413 8.60689C-0.274256 7.80648 0.291939 6.06397 1.65366 6.06397H7.0084L8.6631 0.971311ZM10 3.05985L8.71667 7.00951C8.52849 7.58869 7.98876 7.98082 7.37978 7.98082H3.22686L6.58664 10.4219C7.07932 10.7798 7.28547 11.4143 7.09729 11.9935L5.81397 15.9431L9.17375 13.5021C9.66643 13.1441 10.3336 13.1441 10.8262 13.5021L14.186 15.9431L12.9027 11.9935C12.7145 11.4143 12.9207 10.7798 13.4134 10.4219L16.7731 7.98082H12.6202C12.0112 7.98082 11.4715 7.58869 11.2833 7.00951L10 3.05985Z" fill="currentColor"/>
</svg>
