<svg width="16" height="16" viewBox="0 0 16 16" fill="none" xmlns="http://www.w3.org/2000/svg">
<g clip-path="url(#clip0_159_8711)">
<path d="M9.61595 14.5732C9.48402 14.6061 9.34951 14.6353 9.21599 14.6598C8.86696 14.7247 8.63621 15.0604 8.70077 15.4098C8.73265 15.5816 8.83026 15.7248 8.96278 15.8182C9.09936 15.9144 9.27319 15.9578 9.45031 15.9248C9.60932 15.8953 9.76956 15.8606 9.92681 15.8214C10.2715 15.7356 10.4814 15.3864 10.3955 15.0419C10.3097 14.6971 9.96082 14.4873 9.61595 14.5732Z" fill="#DEBF1D"/>
<path d="M14.3727 5.95178C14.4178 6.08756 14.5038 6.19842 14.6124 6.27501C14.7735 6.38848 14.9843 6.42665 15.1855 6.36014C15.5228 6.24815 15.7055 5.88447 15.5939 5.54738C15.5431 5.3937 15.4867 5.23955 15.4266 5.08946C15.2947 4.75962 14.9205 4.59903 14.5905 4.73097C14.2609 4.86284 14.1002 5.23707 14.2322 5.56701C14.2827 5.69317 14.33 5.82266 14.3727 5.95178Z" fill="#DEBF1D"/>
<path d="M11.7061 13.6549C11.5926 13.7298 11.4755 13.8023 11.3576 13.8702C11.0498 14.0478 10.9443 14.4412 11.1218 14.7489C11.17 14.8325 11.2342 14.901 11.3081 14.9532C11.5065 15.0928 11.776 15.1137 12.0003 14.9845C12.1406 14.9036 12.2801 14.8175 12.4152 14.7282C12.7115 14.5325 12.793 14.1334 12.5972 13.837C12.4014 13.5405 12.0025 13.459 11.7061 13.6549Z" fill="#DEBF1D"/>
<path d="M15.9939 7.74822C15.9799 7.39321 15.6809 7.11689 15.3258 7.13075C14.9711 7.14475 14.6946 7.44387 14.7085 7.79874C14.7138 7.93443 14.7152 8.07214 14.7121 8.20769C14.7071 8.43032 14.816 8.62877 14.9852 8.74805C15.086 8.81904 15.2084 8.86199 15.341 8.86502C15.696 8.8729 15.9902 8.59132 15.9981 8.23613C16.0017 8.07417 16.0003 7.91008 15.9939 7.74822Z" fill="#DEBF1D"/>
<path d="M14.2677 11.9628C13.983 11.7492 13.5803 11.8072 13.3671 12.0913C13.2854 12.2001 13.1994 12.3076 13.1114 12.4111C12.8813 12.6814 12.9138 13.0875 13.1841 13.3178C13.1995 13.3308 13.2151 13.3428 13.2313 13.3541C13.5 13.5436 13.8735 13.5001 14.0908 13.2451C14.196 13.1216 14.2985 12.9932 14.396 12.8632C14.6093 12.5791 14.5516 12.176 14.2677 11.9628Z" fill="#DEBF1D"/>
<path d="M15.2132 9.63766C14.8743 9.53138 14.5133 9.72007 14.4071 10.059C14.3664 10.1885 14.3214 10.3186 14.2728 10.4461C14.166 10.7266 14.2683 11.0352 14.5028 11.2006C14.5459 11.2308 14.5933 11.2565 14.6448 11.2759C14.9766 11.4026 15.3482 11.2361 15.4747 10.9041C15.5325 10.7526 15.5861 10.5978 15.6345 10.4438C15.7406 10.1048 15.5521 9.74394 15.2132 9.63766Z" fill="#DEBF1D"/>
<path d="M6.80993 14.6657C6.23486 14.5624 5.68322 14.3866 5.16012 14.1414C5.15393 14.1381 5.1484 14.1344 5.1419 14.1315C5.01863 14.0735 4.89557 14.0113 4.77629 13.9464C4.77588 13.9459 4.77512 13.9456 4.77447 13.9453C4.55562 13.8248 4.34203 13.6914 4.13453 13.5454C1.10884 11.414 0.381345 7.21836 2.51287 4.1927C2.97636 3.53502 3.53725 2.98634 4.16257 2.55146C4.17027 2.5461 4.17797 2.54077 4.18561 2.53537C6.38912 1.01709 9.38114 0.914764 11.7209 2.47494L11.2184 3.20102C11.0787 3.40312 11.1646 3.5504 11.4092 3.52838L13.5921 3.33296C13.837 3.31095 13.9834 3.09911 13.9175 2.86262L13.3314 0.750637C13.2657 0.51387 13.0977 0.485529 12.9579 0.687593L12.4542 1.4154C10.7371 0.26276 8.67765 -0.176758 6.63352 0.177704C6.42764 0.213336 6.22465 0.256948 6.02444 0.307713C6.02289 0.307988 6.02165 0.30816 6.02042 0.308435C6.01268 0.310327 6.00484 0.312838 5.9973 0.314936C4.23462 0.767593 2.6967 1.79566 1.5993 3.26249C1.59005 3.27346 1.58052 3.28419 1.57178 3.29612C1.53529 3.34527 1.49908 3.39555 1.46362 3.44584C1.40563 3.52825 1.34846 3.61272 1.29378 3.69719C1.28693 3.70737 1.28171 3.71772 1.27572 3.72801C0.370133 5.13131 -0.0666682 6.75366 0.00824147 8.40532C0.00841344 8.41076 0.0081039 8.41623 0.00824147 8.4218C0.0154986 8.58314 0.0282931 8.74672 0.0456619 8.90775C0.0465906 8.91813 0.048895 8.92797 0.050649 8.93836C0.0686026 9.10028 0.0911305 9.26259 0.119368 9.42486C0.40635 11.0805 1.18736 12.5703 2.35768 13.7296C2.3604 13.7323 2.36322 13.7353 2.36597 13.7381C2.36693 13.7392 2.368 13.7397 2.36893 13.7407C2.68336 14.0508 3.02537 14.3377 3.39362 14.597C4.35734 15.2761 5.43046 15.725 6.58293 15.9318C6.93261 15.9946 7.26664 15.7618 7.32938 15.4123C7.39208 15.0626 7.1595 14.7283 6.80993 14.6657Z" fill="#DEBF1D"/>
<path fill-rule="evenodd" clip-rule="evenodd" d="M7.61411 3.48137L5.09224 5.86705C4.62379 6.31021 4.5323 6.96948 4.86573 7.49939L6.35889 9.87244C5.51157 9.89941 4.83403 10.5144 4.83403 11.2691C4.83403 12.041 5.54272 12.6667 6.41693 12.6667H9.58274C10.4569 12.6667 11.1656 12.041 11.1656 11.2691C11.1656 10.5144 10.4881 9.89941 9.64078 9.87244L11.1339 7.49939C11.4674 6.96948 11.3759 6.31021 10.9074 5.86705L8.38557 3.48137C8.17697 3.28404 7.8227 3.28404 7.61411 3.48137ZM5.8637 6.50279L7.4722 4.98115V6.26925C7.15678 6.43035 6.94457 6.73146 6.94457 7.07633C6.94457 7.59091 7.41703 8.00806 7.99983 8.00806C8.58264 8.00806 9.0551 7.59091 9.0551 7.07633C9.0551 6.73146 8.84289 6.43035 8.52747 6.26925V4.98114L10.136 6.50279C10.2921 6.65051 10.3226 6.87026 10.2115 7.0469L8.43418 9.87151H7.56549L5.7882 7.0469C5.67706 6.87026 5.70755 6.65051 5.8637 6.50279ZM5.8893 11.2691C5.8893 11.0118 6.12553 10.8032 6.41693 10.8032H9.58274C9.87414 10.8032 10.1104 11.0118 10.1104 11.2691C10.1104 11.5264 9.87414 11.735 9.58274 11.735H6.41693C6.12553 11.735 5.8893 11.5264 5.8893 11.2691Z" fill="#DEBF1D"/>
</g>
<defs>
<clipPath id="clip0_159_8711">
<rect width="16" height="16" fill="white"/>
</clipPath>
</defs>
</svg>
