<svg width="24" height="24" viewBox="0 0 24 24" fill="none" xmlns="http://www.w3.org/2000/svg">
<path fill-rule="evenodd" clip-rule="evenodd" d="M6.8 3.74988C5.66782 3.74988 4.75 4.66769 4.75 5.79988V17.3399C4.75 18.4721 5.66782 19.3899 6.8 19.3899H17.2C18.3322 19.3899 19.25 18.4721 19.25 17.3399V7.99988C19.25 7.58566 19.5858 7.24988 20 7.24988C20.4142 7.24988 20.75 7.58566 20.75 7.99988V17.3399C20.75 19.3005 19.1606 20.8899 17.2 20.8899H6.8C4.83939 20.8899 3.25 19.3005 3.25 17.3399V5.79988C3.25 3.83926 4.83939 2.24988 6.8 2.24988H15C15.4142 2.24988 15.75 2.58566 15.75 2.99988C15.75 3.41409 15.4142 3.74988 15 3.74988H6.8Z" fill="#3C46F5"/>
<path fill-rule="evenodd" clip-rule="evenodd" d="M14.25 3.32859C14.25 2.3684 15.4109 1.88753 16.0899 2.56649L20.4337 6.91029C21.1126 7.58925 20.6318 8.75016 19.6716 8.75016H15.3278C14.7325 8.75016 14.25 8.26762 14.25 7.67239V3.32859ZM15.75 4.34794V7.25016H18.6522L15.75 4.34794Z" fill="#3C46F5"/>
<path fill-rule="evenodd" clip-rule="evenodd" d="M13.4113 9.11968C12.535 8.62677 11.465 8.62677 10.5887 9.11968L9.21732 9.89111C8.31092 10.401 7.75 11.36 7.75 12.4V13.8407C7.75 14.8806 8.31092 15.8397 9.21732 16.3496L10.5887 17.121C11.465 17.6139 12.535 17.6139 13.4113 17.121L14.7827 16.3496C15.6891 15.8397 16.25 14.8806 16.25 13.8407V12.4C16.25 11.36 15.6891 10.401 14.7827 9.89111L13.4113 9.11968ZM11.1701 10.1531C11.6854 9.86325 12.3146 9.86325 12.8299 10.1531L14.2014 10.9245C14.7344 11.2244 15.0643 11.7884 15.0643 12.4V13.8407C15.0643 14.4523 14.7344 15.0163 14.2014 15.3161L12.8299 16.0876C12.3146 16.3775 11.6854 16.3775 11.1701 16.0876L9.79863 15.3161C9.26559 15.0163 8.93571 14.4523 8.93571 13.8407V12.4C8.93571 11.7884 9.26559 11.2244 9.79863 10.9245L11.1701 10.1531ZM12 10.6989C11.6726 10.6989 11.4071 10.9644 11.4071 11.2918V13.4017C11.4071 13.6329 11.5416 13.8431 11.7516 13.94L13.123 14.5729C13.4203 14.7102 13.7725 14.5804 13.9097 14.2831C14.0469 13.9858 13.9172 13.6336 13.6199 13.4964L12.5929 13.0224V11.2918C12.5929 10.9644 12.3274 10.6989 12 10.6989Z" fill="#3C46F5"/>
</svg>
