<svg width="16" height="16" viewBox="0 0 16 16" fill="none" xmlns="http://www.w3.org/2000/svg">
<path fill-rule="evenodd" clip-rule="evenodd" d="M4.82158 1.03087C3.75105 0.473658 2.5804 0.663738 1.77147 1.26537C0.958157 1.87026 0.468408 2.9325 0.856695 4.07958L1.53378 6.07984L5.9791 7.27426C6.72106 7.47362 6.71907 8.52706 5.97636 8.72361L1.52418 9.90185L0.84193 11.8926C0.44931 13.0382 0.935041 14.1023 1.74607 14.7102C2.55271 15.3149 3.72264 15.5094 4.79526 14.9562L13.8677 10.2774C15.7688 9.29704 15.7737 6.73152 13.8763 5.74392L4.82158 1.03087ZM1.91406 8.76425L4.81422 7.99674L1.91935 7.21891L2.049 7.60193C2.13439 7.85419 2.13388 8.12282 2.04754 8.37475L1.91406 8.76425Z" fill="#6F7180"/>
</svg>
