<svg width="14" height="14" viewBox="0 0 14 14" fill="none" xmlns="http://www.w3.org/2000/svg">
<path fill-rule="evenodd" clip-rule="evenodd" d="M10.25 4C10.25 3.58579 9.91421 3.25 9.5 3.25H9.4C9.36609 3.25 9.33271 3.25225 9.3 3.25661C9.26729 3.25225 9.23391 3.25 9.2 3.25H9C8.96609 3.25 8.93271 3.25225 8.9 3.25661C8.86729 3.25225 8.83391 3.25 8.8 3.25H8.6C8.56609 3.25 8.53271 3.25225 8.5 3.25661C8.46729 3.25225 8.43391 3.25 8.4 3.25H8.2C8.16609 3.25 8.13271 3.25225 8.1 3.25661C8.06729 3.25225 8.03391 3.25 8 3.25H7.8C7.76609 3.25 7.73271 3.25225 7.7 3.25661C7.66729 3.25225 7.63391 3.25 7.6 3.25H7.4C7.36609 3.25 7.33271 3.25225 7.3 3.25661C7.26729 3.25225 7.23391 3.25 7.2 3.25H7C6.96609 3.25 6.93271 3.25225 6.9 3.25661C6.86729 3.25225 6.83391 3.25 6.8 3.25H6.6C6.56609 3.25 6.53271 3.25225 6.5 3.25661C6.46729 3.25225 6.43391 3.25 6.4 3.25H6.2C6.16609 3.25 6.13271 3.25225 6.1 3.25661C6.06729 3.25225 6.03391 3.25 6 3.25H5.8C5.76609 3.25 5.73271 3.25225 5.7 3.25661C5.66729 3.25225 5.63391 3.25 5.6 3.25H5.4C5.36609 3.25 5.33271 3.25225 5.3 3.25661C5.26729 3.25225 5.23391 3.25 5.2 3.25H5C4.96609 3.25 4.93271 3.25225 4.9 3.25661C4.86729 3.25225 4.83391 3.25 4.8 3.25H4.6C4.56609 3.25 4.53271 3.25225 4.5 3.25661C4.46729 3.25225 4.43391 3.25 4.4 3.25H4.3C4.2577 3.25 4.21554 3.25074 4.17353 3.25222C4.13059 3.25373 4.08862 3.25882 4.04789 3.26719C4.00636 3.26462 3.96406 3.26548 3.9213 3.27002C3.83675 3.27901 3.75303 3.29098 3.67024 3.30582C3.6278 3.31343 3.58685 3.32447 3.5476 3.3386C3.50602 3.34197 3.46415 3.34887 3.42236 3.3595C3.33995 3.38048 3.25868 3.40433 3.17867 3.43095C3.13773 3.44457 3.09875 3.46138 3.06191 3.48101C3.02122 3.49031 2.98075 3.50315 2.9409 3.51967C2.86251 3.55218 2.78556 3.5874 2.71016 3.62522C2.67162 3.64454 2.63548 3.66674 2.60186 3.69142C2.56295 3.70643 2.52478 3.72489 2.48774 3.74692C2.41499 3.79018 2.34394 3.83595 2.2747 3.88411C2.23936 3.90869 2.20678 3.93577 2.17704 3.96494C2.14071 3.98531 2.10559 4.00899 2.07209 4.03602C2.00636 4.08905 1.94257 4.14438 1.88085 4.20187C1.84936 4.2312 1.82096 4.2626 1.79567 4.29567C1.7626 4.32096 1.7312 4.34936 1.70187 4.38085C1.64438 4.44257 1.58905 4.50636 1.53602 4.57209C1.50899 4.60559 1.48531 4.64071 1.46494 4.67704C1.43577 4.70678 1.40869 4.73936 1.38411 4.7747C1.33595 4.84394 1.29018 4.91499 1.24692 4.98774C1.22489 5.02478 1.20643 5.06296 1.19142 5.10186C1.16674 5.13548 1.14454 5.17163 1.12522 5.21016C1.0874 5.28556 1.05218 5.36251 1.01967 5.4409C1.00315 5.48076 0.99031 5.52122 0.981009 5.56191C0.961379 5.59875 0.94457 5.63773 0.930948 5.67867C0.904328 5.75868 0.880475 5.83995 0.859503 5.92236C0.848868 5.96415 0.841969 6.00602 0.838598 6.0476C0.824466 6.08685 0.813428 6.1278 0.80582 6.17024C0.790977 6.25303 0.779012 6.33675 0.770023 6.4213C0.765477 6.46406 0.76462 6.50636 0.767195 6.54789C0.75882 6.58862 0.753729 6.63059 0.752219 6.67353C0.750743 6.71554 0.75 6.7577 0.75 6.8V6.90625C0.75 6.94232 0.752546 6.97779 0.757468 7.0125C0.752546 7.04721 0.75 7.08268 0.75 7.11875V7.33125C0.75 7.36732 0.752546 7.40279 0.757468 7.4375C0.752546 7.47221 0.75 7.50768 0.75 7.54375V7.75625C0.75 7.79232 0.752546 7.82779 0.757468 7.8625C0.752546 7.89721 0.75 7.93268 0.75 7.96875V8.18125C0.75 8.21732 0.752546 8.25279 0.757468 8.2875C0.752546 8.32221 0.75 8.35768 0.75 8.39375V8.60625C0.75 8.64232 0.752546 8.67779 0.757468 8.7125C0.752546 8.74721 0.75 8.78268 0.75 8.81875V9.03125C0.75 9.06732 0.752546 9.10279 0.757468 9.1375C0.752546 9.17221 0.75 9.20768 0.75 9.24375V9.45625C0.75 9.49232 0.752546 9.52779 0.757468 9.5625C0.752546 9.59721 0.75 9.63268 0.75 9.66875V9.88125C0.75 9.91732 0.752546 9.95279 0.757468 9.9875C0.752546 10.0222 0.75 10.0577 0.75 10.0938V10.2C0.75 10.2423 0.750743 10.2845 0.752219 10.3265C0.753729 10.3694 0.75882 10.4114 0.767195 10.4521C0.76462 10.4936 0.765477 10.5359 0.770023 10.5787C0.779012 10.6632 0.790977 10.747 0.80582 10.8298C0.813428 10.8722 0.824466 10.9132 0.838598 10.9524C0.841969 10.994 0.848867 11.0358 0.859503 11.0776C0.880475 11.1601 0.904328 11.2413 0.930948 11.3213C0.94457 11.3623 0.961379 11.4013 0.981009 11.4381C0.99031 11.4788 1.00314 11.5192 1.01967 11.5591C1.05218 11.6375 1.0874 11.7144 1.12522 11.7898C1.14454 11.8284 1.16674 11.8645 1.19142 11.8981C1.20643 11.937 1.22489 11.9752 1.24692 12.0123C1.29018 12.085 1.33595 12.1561 1.38411 12.2253C1.40869 12.2606 1.43577 12.2932 1.46494 12.323C1.48531 12.3593 1.50899 12.3944 1.53602 12.4279C1.58905 12.4936 1.64438 12.5574 1.70187 12.6192C1.7312 12.6506 1.7626 12.679 1.79567 12.7043C1.82096 12.7374 1.84936 12.7688 1.88085 12.7981C1.94257 12.8556 2.00636 12.9109 2.07209 12.964C2.10559 12.991 2.14071 13.0147 2.17704 13.0351C2.20678 13.0642 2.23936 13.0913 2.2747 13.1159C2.34394 13.1641 2.41499 13.2098 2.48774 13.2531C2.52478 13.2751 2.56296 13.2936 2.60186 13.3086C2.63548 13.3333 2.67163 13.3555 2.71016 13.3748C2.78556 13.4126 2.86251 13.4478 2.9409 13.4803C2.98075 13.4969 3.02122 13.5097 3.0619 13.519C3.09875 13.5386 3.13773 13.5554 3.17867 13.5691C3.25868 13.5957 3.33995 13.6195 3.42236 13.6405C3.46415 13.6511 3.50602 13.658 3.5476 13.6614C3.58685 13.6755 3.6278 13.6866 3.67024 13.6942C3.75303 13.709 3.83675 13.721 3.9213 13.73C3.96406 13.7345 4.00636 13.7354 4.04789 13.7328C4.08862 13.7412 4.13059 13.7463 4.17353 13.7478C4.21554 13.7493 4.2577 13.75 4.3 13.75H4.4C4.43391 13.75 4.46729 13.7478 4.50001 13.7434C4.53272 13.7478 4.5661 13.75 4.6 13.75H4.8C4.83391 13.75 4.86729 13.7478 4.9 13.7434C4.93272 13.7478 4.9661 13.75 5 13.75H5.2C5.23391 13.75 5.26729 13.7478 5.3 13.7434C5.33272 13.7478 5.3661 13.75 5.4 13.75H5.6C5.63391 13.75 5.66729 13.7478 5.7 13.7434C5.73272 13.7478 5.76609 13.75 5.8 13.75H6C6.03391 13.75 6.06729 13.7478 6.1 13.7434C6.13272 13.7478 6.16609 13.75 6.2 13.75H6.4C6.43391 13.75 6.46729 13.7478 6.5 13.7434C6.53272 13.7478 6.56609 13.75 6.6 13.75H6.8C6.83391 13.75 6.86729 13.7478 6.9 13.7434C6.93272 13.7478 6.96609 13.75 7 13.75H7.2C7.23391 13.75 7.26729 13.7478 7.3 13.7434C7.33272 13.7478 7.36609 13.75 7.4 13.75H7.6C7.63391 13.75 7.66729 13.7478 7.7 13.7434C7.73272 13.7478 7.76609 13.75 7.8 13.75H8C8.03391 13.75 8.06729 13.7478 8.1 13.7434C8.13272 13.7478 8.16609 13.75 8.2 13.75H8.4C8.43391 13.75 8.46729 13.7478 8.5 13.7434C8.53272 13.7478 8.56609 13.75 8.6 13.75H8.8C8.83391 13.75 8.86729 13.7478 8.9 13.7434C8.93272 13.7478 8.96609 13.75 9 13.75H9.2C9.23391 13.75 9.26729 13.7478 9.3 13.7434C9.33272 13.7478 9.36609 13.75 9.4 13.75H9.6C9.63391 13.75 9.66729 13.7478 9.7 13.7434C9.73272 13.7478 9.76609 13.75 9.8 13.75H10C10.0339 13.75 10.0673 13.7478 10.1 13.7434C10.1327 13.7478 10.1661 13.75 10.2 13.75H10.4C10.4339 13.75 10.4673 13.7478 10.5 13.7434C10.5327 13.7478 10.5661 13.75 10.6 13.75H10.8C10.8339 13.75 10.8673 13.7478 10.9 13.7434C10.9327 13.7478 10.9661 13.75 11 13.75H11.2C11.2339 13.75 11.2673 13.7477 11.3 13.7434C11.3327 13.7477 11.3661 13.75 11.4 13.75H11.5C11.9142 13.75 12.25 13.4142 12.25 13C12.25 12.5858 11.9142 12.25 11.5 12.25H11.4C11.3661 12.25 11.3327 12.2523 11.3 12.2566C11.2673 12.2523 11.2339 12.25 11.2 12.25H11C10.9661 12.25 10.9327 12.2522 10.9 12.2566C10.8673 12.2522 10.8339 12.25 10.8 12.25H10.6C10.5661 12.25 10.5327 12.2522 10.5 12.2566C10.4673 12.2522 10.4339 12.25 10.4 12.25H10.2C10.1661 12.25 10.1327 12.2522 10.1 12.2566C10.0673 12.2522 10.0339 12.25 10 12.25H9.8C9.76609 12.25 9.73272 12.2522 9.7 12.2566C9.66729 12.2522 9.63391 12.25 9.6 12.25H9.4C9.36609 12.25 9.33272 12.2522 9.3 12.2566C9.26729 12.2522 9.23391 12.25 9.2 12.25H9C8.96609 12.25 8.93272 12.2522 8.9 12.2566C8.86729 12.2522 8.83391 12.25 8.8 12.25H8.6C8.56609 12.25 8.53272 12.2522 8.5 12.2566C8.46729 12.2522 8.43391 12.25 8.4 12.25H8.2C8.16609 12.25 8.13272 12.2522 8.1 12.2566C8.06729 12.2522 8.03391 12.25 8 12.25H7.8C7.76609 12.25 7.73272 12.2522 7.7 12.2566C7.66729 12.2522 7.63391 12.25 7.6 12.25H7.4C7.36609 12.25 7.33272 12.2522 7.3 12.2566C7.26729 12.2522 7.23391 12.25 7.2 12.25H7C6.96609 12.25 6.93272 12.2522 6.9 12.2566C6.86729 12.2522 6.83391 12.25 6.8 12.25H6.6C6.56609 12.25 6.53272 12.2522 6.5 12.2566C6.46729 12.2522 6.43391 12.25 6.4 12.25H6.2C6.16609 12.25 6.13272 12.2522 6.1 12.2566C6.06729 12.2522 6.03391 12.25 6 12.25H5.8C5.76609 12.25 5.73272 12.2522 5.7 12.2566C5.66729 12.2522 5.63391 12.25 5.6 12.25H5.4C5.3661 12.25 5.33272 12.2522 5.3 12.2566C5.26729 12.2522 5.23391 12.25 5.2 12.25H5C4.9661 12.25 4.93272 12.2522 4.9 12.2566C4.86729 12.2522 4.83391 12.25 4.8 12.25H4.6C4.5661 12.25 4.53272 12.2522 4.50001 12.2566C4.46729 12.2522 4.43391 12.25 4.4 12.25H4.3C4.27527 12.25 4.25067 12.2496 4.22622 12.2487C4.20141 12.2478 4.17683 12.2482 4.15256 12.2497C4.12877 12.2448 4.10452 12.241 4.07986 12.2384C4.03096 12.2332 3.98264 12.2263 3.93495 12.2177C3.91065 12.2134 3.88641 12.2102 3.86231 12.2083C3.83956 12.2001 3.81621 12.1929 3.7923 12.1868C3.74491 12.1748 3.69819 12.1611 3.65221 12.1458C3.62879 12.138 3.60527 12.1314 3.5817 12.126C3.56036 12.1146 3.53828 12.1042 3.51548 12.0947C3.47039 12.076 3.42608 12.0558 3.38263 12.034C3.36053 12.0229 3.33815 12.013 3.31555 12.0043C3.29602 11.9899 3.27561 11.9764 3.25435 11.9638C3.21235 11.9388 3.1713 11.9124 3.13126 11.8845C3.11092 11.8704 3.09012 11.8574 3.06894 11.8455C3.05161 11.8285 3.03329 11.8122 3.014 11.7966C2.97594 11.7659 2.93898 11.7338 2.90321 11.7005C2.88506 11.6836 2.86629 11.6678 2.84699 11.653C2.83223 11.6337 2.8164 11.6149 2.79949 11.5968C2.76617 11.561 2.73412 11.5241 2.70341 11.486C2.68784 11.4667 2.67152 11.4484 2.65452 11.4311C2.64265 11.4099 2.62964 11.3891 2.61549 11.3687C2.58764 11.3287 2.5612 11.2876 2.53622 11.2456C2.52358 11.2244 2.51006 11.204 2.49572 11.1844C2.487 11.1619 2.47711 11.1395 2.46603 11.1174C2.44424 11.0739 2.42396 11.0296 2.40526 10.9845C2.39581 10.9617 2.38536 10.9396 2.37399 10.9183C2.3686 10.8947 2.36203 10.8712 2.35424 10.8478C2.33894 10.8018 2.32523 10.7551 2.31317 10.7077C2.30709 10.6838 2.29991 10.6604 2.29172 10.6377C2.28977 10.6136 2.28663 10.5894 2.28228 10.5651C2.27373 10.5174 2.26682 10.469 2.26162 10.4201C2.259 10.3955 2.25521 10.3712 2.25032 10.3474C2.25182 10.3232 2.25217 10.2986 2.25129 10.2738C2.25043 10.2493 2.25 10.2247 2.25 10.2V10.0938C2.25 10.0577 2.24745 10.0222 2.24253 9.9875C2.24745 9.95279 2.25 9.91732 2.25 9.88125V9.66875C2.25 9.63268 2.24745 9.59721 2.24253 9.5625C2.24745 9.52779 2.25 9.49232 2.25 9.45625V9.24375C2.25 9.20768 2.24745 9.17221 2.24253 9.1375C2.24745 9.10279 2.25 9.06732 2.25 9.03125V8.81875C2.25 8.78268 2.24745 8.74721 2.24253 8.7125C2.24745 8.67779 2.25 8.64232 2.25 8.60625V8.39375C2.25 8.35768 2.24745 8.32221 2.24253 8.2875C2.24745 8.25279 2.25 8.21732 2.25 8.18125V7.96875C2.25 7.93268 2.24745 7.89721 2.24253 7.8625C2.24745 7.82779 2.25 7.79232 2.25 7.75625V7.54375C2.25 7.50768 2.24745 7.47221 2.24253 7.4375C2.24745 7.40279 2.25 7.36732 2.25 7.33125V7.11875C2.25 7.08268 2.24745 7.04721 2.24253 7.0125C2.24745 6.97779 2.25 6.94232 2.25 6.90625V6.8C2.25 6.77527 2.25043 6.75067 2.25129 6.72622C2.25217 6.70141 2.25182 6.67683 2.25032 6.65256C2.25521 6.62877 2.259 6.60452 2.26162 6.57986C2.26682 6.53096 2.27373 6.48264 2.28228 6.43495C2.28663 6.41065 2.28977 6.38641 2.29172 6.36231C2.29991 6.33956 2.30709 6.31621 2.31317 6.2923C2.32523 6.24491 2.33894 6.19819 2.35424 6.15221C2.36203 6.12879 2.3686 6.10527 2.37399 6.0817C2.38536 6.06036 2.39581 6.03828 2.40526 6.01548C2.42396 5.97039 2.44424 5.92608 2.46603 5.88263C2.47711 5.86053 2.487 5.83815 2.49572 5.81555C2.51006 5.79602 2.52358 5.77561 2.53622 5.75435C2.5612 5.71235 2.58764 5.6713 2.61549 5.63126C2.62964 5.61092 2.64265 5.59012 2.65452 5.56894C2.67152 5.55161 2.68784 5.53329 2.70341 5.514C2.73412 5.47594 2.76617 5.43898 2.79949 5.40321C2.8164 5.38506 2.83223 5.3663 2.84699 5.34699C2.86629 5.33223 2.88506 5.3164 2.90321 5.29949C2.93898 5.26617 2.97594 5.23412 3.014 5.20341C3.03329 5.18784 3.05161 5.17152 3.06894 5.15452C3.09012 5.14265 3.11092 5.12964 3.13126 5.11549C3.1713 5.08764 3.21235 5.0612 3.25435 5.03622C3.27561 5.02358 3.29601 5.01006 3.31555 4.99572C3.33815 4.987 3.36053 4.97711 3.38263 4.96603C3.42608 4.94424 3.47038 4.92396 3.51548 4.90526C3.53828 4.89581 3.56036 4.88536 3.5817 4.87399C3.60527 4.8686 3.62879 4.86203 3.65221 4.85424C3.69819 4.83894 3.74491 4.82523 3.7923 4.81317C3.81621 4.80708 3.83956 4.79991 3.86231 4.79172C3.88641 4.78977 3.91065 4.78663 3.93495 4.78228C3.98264 4.77373 4.03096 4.76682 4.07986 4.76162C4.10452 4.759 4.12877 4.75521 4.15256 4.75032C4.17683 4.75182 4.20141 4.75217 4.22622 4.75129C4.25067 4.75043 4.27527 4.75 4.3 4.75H4.4C4.43391 4.75 4.46729 4.74775 4.5 4.74339C4.53271 4.74775 4.56609 4.75 4.6 4.75H4.8C4.83391 4.75 4.86729 4.74775 4.9 4.74339C4.93271 4.74775 4.96609 4.75 5 4.75H5.2C5.23391 4.75 5.26729 4.74775 5.3 4.74339C5.33271 4.74775 5.36609 4.75 5.4 4.75H5.6C5.63391 4.75 5.66729 4.74775 5.7 4.74339C5.73271 4.74775 5.76609 4.75 5.8 4.75H6C6.03391 4.75 6.06729 4.74775 6.1 4.74339C6.13271 4.74775 6.16609 4.75 6.2 4.75H6.4C6.43391 4.75 6.46729 4.74775 6.5 4.74339C6.53271 4.74775 6.56609 4.75 6.6 4.75H6.8C6.83391 4.75 6.86729 4.74775 6.9 4.74339C6.93271 4.74775 6.96609 4.75 7 4.75H7.2C7.23391 4.75 7.26729 4.74775 7.3 4.74339C7.33271 4.74775 7.36609 4.75 7.4 4.75H7.6C7.63391 4.75 7.66729 4.74775 7.7 4.74339C7.73271 4.74775 7.76609 4.75 7.8 4.75H8C8.03391 4.75 8.06729 4.74775 8.1 4.74339C8.13271 4.74775 8.16609 4.75 8.2 4.75H8.4C8.43391 4.75 8.46729 4.74775 8.5 4.74339C8.53271 4.74775 8.56609 4.75 8.6 4.75H8.8C8.83391 4.75 8.86729 4.74775 8.9 4.74339C8.93271 4.74775 8.96609 4.75 9 4.75H9.2C9.23391 4.75 9.26729 4.74775 9.3 4.74339C9.33271 4.74775 9.36609 4.75 9.4 4.75H9.5C9.91421 4.75 10.25 4.41421 10.25 4Z" fill="#12131C"/>
<path fill-rule="evenodd" clip-rule="evenodd" d="M8.90004 0.550044C9.14857 0.218673 9.61867 0.151516 9.95004 0.400044L10.0315 0.461155C10.0592 0.481883 10.085 0.504152 10.1089 0.527752C10.1383 0.544118 10.1669 0.56265 10.1945 0.583377L10.3575 0.7056C10.3851 0.726327 10.4109 0.748596 10.4348 0.772197C10.4642 0.788563 10.4928 0.807094 10.5204 0.827822L10.6834 0.950044C10.711 0.970772 10.7368 0.99304 10.7607 1.01664C10.7901 1.03301 10.8187 1.05154 10.8463 1.07227L11.0093 1.19449C11.0369 1.21522 11.0627 1.23748 11.0867 1.26109C11.116 1.27745 11.1446 1.29598 11.1723 1.31671L11.3352 1.43893C11.3629 1.45966 11.3887 1.48193 11.4126 1.50553C11.442 1.5219 11.4706 1.54043 11.4982 1.56116L11.6612 1.68338C11.6888 1.7041 11.7146 1.72637 11.7385 1.74997C11.7679 1.76634 11.7965 1.78487 11.8241 1.8056L11.9871 1.92782C12.0147 1.94855 12.0405 1.97082 12.0644 1.99442C12.0938 2.01078 12.1224 2.02932 12.15 2.05004L12.313 2.17227C12.3406 2.19299 12.3664 2.21526 12.3904 2.23886C12.4197 2.25523 12.4483 2.27376 12.476 2.29449L12.6389 2.41671C12.6666 2.43744 12.6924 2.45971 12.7163 2.48331C12.7457 2.49967 12.7743 2.51821 12.8019 2.53893L12.8834 2.60004C12.9265 2.6324 12.9679 2.66647 13.0074 2.70213C13.0485 2.73915 13.0845 2.77967 13.1154 2.82283C13.156 2.85732 13.1936 2.89668 13.2272 2.94082C13.294 3.02857 13.3515 3.12136 13.3996 3.21769C13.4244 3.26738 13.4431 3.31851 13.4561 3.37025C13.4813 3.41717 13.5018 3.46752 13.5169 3.52085C13.5465 3.6253 13.5661 3.73177 13.576 3.83877C13.581 3.89358 13.58 3.94756 13.5735 4.00004C13.58 4.05253 13.581 4.10651 13.576 4.16132C13.5661 4.26832 13.5465 4.37479 13.5169 4.47924C13.5018 4.53257 13.4813 4.58292 13.4561 4.62984C13.4431 4.68157 13.4243 4.7327 13.3996 4.7824C13.3515 4.87873 13.294 4.97152 13.2272 5.05927C13.1936 5.10341 13.156 5.14277 13.1154 5.17725C13.0845 5.22042 13.0485 5.26094 13.0074 5.29795C12.9679 5.33362 12.9265 5.36769 12.8834 5.40004L12.8019 5.46116C12.7743 5.48188 12.7457 5.50041 12.7163 5.51678C12.6924 5.54038 12.6666 5.56265 12.6389 5.58338L12.476 5.7056C12.4483 5.72633 12.4197 5.74486 12.3904 5.76123C12.3664 5.78483 12.3406 5.80709 12.313 5.82782L12.15 5.95004C12.1224 5.97077 12.0938 5.9893 12.0644 6.00567C12.0405 6.02927 12.0147 6.05154 11.9871 6.07227L11.8241 6.19449C11.7965 6.21522 11.7679 6.23375 11.7385 6.25011C11.7146 6.27371 11.6888 6.29598 11.6612 6.31671L11.4982 6.43893C11.4706 6.45966 11.442 6.47819 11.4126 6.49456C11.3887 6.51816 11.3629 6.54043 11.3352 6.56116L11.1723 6.68338C11.1446 6.70411 11.116 6.72264 11.0867 6.739C11.0627 6.7626 11.0369 6.78487 11.0093 6.8056L10.8463 6.92782C10.8187 6.94855 10.7901 6.96708 10.7607 6.98345C10.7368 7.00705 10.711 7.02932 10.6834 7.05004L10.5204 7.17227C10.4928 7.19299 10.4642 7.21153 10.4348 7.22789C10.4109 7.25149 10.3851 7.27376 10.3575 7.29449L10.1945 7.41671C10.1669 7.43744 10.1383 7.45597 10.1089 7.47234C10.085 7.49594 10.0592 7.51821 10.0315 7.53893L9.95004 7.60004C9.61867 7.84857 9.14857 7.78141 8.90004 7.45004C8.65152 7.11867 8.71867 6.64857 9.05004 6.40004L9.13153 6.33893C9.15916 6.31821 9.18776 6.29967 9.21712 6.28331C9.24105 6.25971 9.26685 6.23744 9.29449 6.21671L9.45745 6.09449C9.48509 6.07376 9.51369 6.05523 9.54305 6.03886C9.56698 6.01526 9.59278 5.99299 9.62041 5.97227L9.78338 5.85004C9.81101 5.82932 9.83962 5.81078 9.86897 5.79442C9.8929 5.77082 9.9187 5.74855 9.94634 5.72782L10.1093 5.6056C10.1369 5.58487 10.1655 5.56634 10.1949 5.54997C10.2188 5.52637 10.2446 5.50411 10.2723 5.48338L10.4352 5.36116C10.4629 5.34043 10.4915 5.3219 10.5208 5.30553C10.5448 5.28193 10.5706 5.25966 10.5982 5.23893L10.7612 5.11671C10.7888 5.09598 10.8174 5.07745 10.8468 5.06109C10.8707 5.03749 10.8965 5.01522 10.9241 4.99449L11.0871 4.87227C11.1147 4.85154 11.1433 4.83301 11.1727 4.81664C11.1966 4.79304 11.2224 4.77077 11.25 4.75004L11.413 4.62782C11.4406 4.60709 11.4692 4.58856 11.4986 4.5722C11.5225 4.5486 11.5483 4.52633 11.576 4.5056L11.7389 4.38338C11.7666 4.36265 11.7952 4.34412 11.8245 4.32775C11.8485 4.30415 11.8743 4.28188 11.9019 4.26116L11.9834 4.20004C11.9904 4.19479 11.9968 4.18947 12.0027 4.18415C12.0085 4.17889 12.0144 4.17375 12.0204 4.16871C12.0248 4.16255 12.0293 4.15643 12.0339 4.15035C12.043 4.13843 12.0508 4.12587 12.0573 4.11275C12.0607 4.10597 12.0642 4.09925 12.0678 4.09261C12.0696 4.08521 12.0716 4.0778 12.0737 4.07041C12.0779 4.05545 12.0808 4.03991 12.0823 4.02402C12.083 4.01599 12.0839 4.00799 12.0849 4.00004C12.0839 3.99209 12.083 3.9841 12.0823 3.97606C12.0808 3.96018 12.0779 3.94463 12.0737 3.92968C12.0716 3.92228 12.0696 3.91488 12.0678 3.90748C12.0642 3.90084 12.0607 3.89412 12.0573 3.88733C12.0508 3.87422 12.043 3.86165 12.0339 3.84973C12.0293 3.84366 12.0248 3.83754 12.0204 3.83138C12.0144 3.82634 12.0085 3.8212 12.0027 3.81594C11.9968 3.81062 11.9904 3.8053 11.9834 3.80004L11.9019 3.73893C11.8743 3.71821 11.8485 3.69594 11.8245 3.67234C11.7952 3.65597 11.7666 3.63744 11.7389 3.61671L11.576 3.49449C11.5483 3.47376 11.5225 3.45149 11.4986 3.42789C11.4692 3.41153 11.4406 3.39299 11.413 3.37227L11.25 3.25004C11.2224 3.22932 11.1966 3.20705 11.1727 3.18345C11.1433 3.16708 11.1147 3.14855 11.0871 3.12782L10.9241 3.0056C10.8965 2.98487 10.8707 2.9626 10.8468 2.939C10.8174 2.92264 10.7888 2.9041 10.7612 2.88338L10.5982 2.76116C10.5706 2.74043 10.5448 2.71816 10.5208 2.69456C10.4915 2.67819 10.4629 2.65966 10.4352 2.63893L10.2723 2.51671C10.2446 2.49598 10.2188 2.47371 10.1949 2.45011C10.1655 2.43375 10.1369 2.41522 10.1093 2.39449L9.94634 2.27227C9.9187 2.25154 9.8929 2.22927 9.86897 2.20567C9.83962 2.1893 9.81101 2.17077 9.78338 2.15004L9.62041 2.02782C9.59278 2.00709 9.56698 1.98483 9.54305 1.96122C9.51369 1.94486 9.48509 1.92633 9.45745 1.9056L9.29449 1.78338C9.26685 1.76265 9.24105 1.74038 9.21712 1.71678C9.18776 1.70041 9.15916 1.68188 9.13153 1.66116L9.05004 1.60004C8.71867 1.35152 8.65152 0.881415 8.90004 0.550044Z" fill="#12131C"/>
</svg>
