<svg width="20" height="20" viewBox="0 0 20 20" fill="none" xmlns="http://www.w3.org/2000/svg">
<path fill-rule="evenodd" clip-rule="evenodd" d="M9.99999 16.6665C13.6819 16.6665 16.6667 13.6817 16.6667 9.99984C16.6667 6.31794 13.6819 3.33317 9.99999 3.33317C6.31809 3.33317 3.33332 6.31794 3.33332 9.99984C3.33332 13.6817 6.31809 16.6665 9.99999 16.6665ZM9.99999 18.3332C14.6024 18.3332 18.3333 14.6022 18.3333 9.99984C18.3333 5.39746 14.6024 1.6665 9.99999 1.6665C5.39762 1.6665 1.66666 5.39746 1.66666 9.99984C1.66666 14.6022 5.39762 18.3332 9.99999 18.3332Z" fill="#32373D"/>
<path fill-rule="evenodd" clip-rule="evenodd" d="M5.8464 10.9029C6.26814 10.7187 6.7594 10.9112 6.94367 11.3329C7.4588 12.5119 8.63442 13.3332 10 13.3332C11.3656 13.3332 12.5412 12.5119 13.0563 11.3329C13.2406 10.9112 13.7319 10.7187 14.1536 10.9029C14.5754 11.0872 14.7679 11.5785 14.5836 12.0002C13.8128 13.7644 12.0516 14.9999 10 14.9999C7.94839 14.9999 6.18721 13.7644 5.41641 12.0002C5.23215 11.5785 5.42466 11.0872 5.8464 10.9029Z" fill="#32373D"/>
<path d="M7.50001 7.49984C7.50001 7.96007 7.12691 8.33317 6.66668 8.33317C6.20644 8.33317 5.83334 7.96007 5.83334 7.49984C5.83334 7.0396 6.20644 6.6665 6.66668 6.6665C7.12691 6.6665 7.50001 7.0396 7.50001 7.49984Z" fill="#32373D"/>
<path d="M14.1667 7.49984C14.1667 7.96007 13.7936 8.33317 13.3333 8.33317C12.8731 8.33317 12.5 7.96007 12.5 7.49984C12.5 7.0396 12.8731 6.6665 13.3333 6.6665C13.7936 6.6665 14.1667 7.0396 14.1667 7.49984Z" fill="#32373D"/>
</svg>
