<svg width="20" height="20" viewBox="0 0 20 20" fill="none" xmlns="http://www.w3.org/2000/svg">
<path fill-rule="evenodd" clip-rule="evenodd" d="M4.16666 17.4998C4.16666 17.0396 4.53975 16.6665 4.99999 16.6665H15C15.4602 16.6665 15.8333 17.0396 15.8333 17.4998C15.8333 17.9601 15.4602 18.3332 15 18.3332H4.99999C4.53975 18.3332 4.16666 17.9601 4.16666 17.4998Z" fill="#32373D"/>
<path fill-rule="evenodd" clip-rule="evenodd" d="M4.99999 1.6665C5.46023 1.6665 5.83332 2.0396 5.83332 2.49984V9.1665C5.83332 11.4677 7.6988 13.3332 9.99999 13.3332C12.3012 13.3332 14.1667 11.4677 14.1667 9.1665V2.49984C14.1667 2.0396 14.5398 1.6665 15 1.6665C15.4602 1.6665 15.8333 2.0396 15.8333 2.49984V9.1665C15.8333 12.3882 13.2217 14.9998 9.99999 14.9998C6.77833 14.9998 4.16666 12.3882 4.16666 9.1665V2.49984C4.16666 2.0396 4.53975 1.6665 4.99999 1.6665Z" fill="#32373D"/>
</svg>
