<svg width="12" height="11" viewBox="0 0 12 11" fill="none" xmlns="http://www.w3.org/2000/svg">
<path fill-rule="evenodd" clip-rule="evenodd" d="M6 1.16602C5.72386 1.16602 5.5 1.38987 5.5 1.66602V1.73083C5.5 1.75279 5.50142 1.77443 5.50416 1.79565C5.50142 1.81686 5.5 1.8385 5.5 1.86046V1.99009C5.5 2.01205 5.50142 2.03369 5.50416 2.0549C5.50142 2.07612 5.5 2.09775 5.5 2.11972V2.24935C5.5 2.27131 5.50142 2.29295 5.50416 2.31416C5.50142 2.33538 5.5 2.35701 5.5 2.37898V2.50861C5.5 2.53057 5.50142 2.55221 5.50416 2.57342C5.50142 2.59464 5.5 2.61627 5.5 2.63824V2.76787C5.5 2.78983 5.50142 2.81147 5.50416 2.83268C5.50142 2.8539 5.5 2.87553 5.5 2.8975V3.02713C5.5 3.04909 5.50142 3.07072 5.50416 3.09194C5.50142 3.11316 5.5 3.13479 5.5 3.15676V3.28639C5.5 3.30835 5.50142 3.32998 5.50416 3.3512C5.50142 3.37242 5.5 3.39405 5.5 3.41602V3.54564C5.5 3.56761 5.50142 3.58924 5.50416 3.61046C5.50142 3.63168 5.5 3.65331 5.5 3.67527V3.8049C5.5 3.82687 5.50142 3.8485 5.50416 3.86972C5.50142 3.89094 5.5 3.91257 5.5 3.93453V4.06416C5.5 4.08613 5.50142 4.10776 5.50416 4.12898C5.50142 4.15019 5.5 4.17183 5.5 4.19379V4.32342C5.5 4.34539 5.50142 4.36702 5.50416 4.38824C5.50142 4.40945 5.5 4.43109 5.5 4.45305V4.58268C5.5 4.60465 5.50142 4.62628 5.50416 4.6475C5.50142 4.66871 5.5 4.69035 5.5 4.71231V4.84194C5.5 4.86391 5.50142 4.88554 5.50416 4.90676C5.50142 4.92797 5.5 4.94961 5.5 4.97157V5.1012C5.5 5.12317 5.50142 5.1448 5.50416 5.16602C5.50142 5.18723 5.5 5.20887 5.5 5.23083V5.36046C5.5 5.38243 5.50142 5.40406 5.50416 5.42528C5.50142 5.44649 5.5 5.46813 5.5 5.49009V5.61972C5.5 5.64168 5.50142 5.66332 5.50416 5.68454C5.50142 5.70575 5.5 5.72739 5.5 5.74935V5.87898C5.5 5.90094 5.50142 5.92258 5.50416 5.9438C5.50142 5.96501 5.5 5.98665 5.5 6.00861V6.13824C5.5 6.1602 5.50142 6.18184 5.50416 6.20305C5.50142 6.22427 5.5 6.2459 5.5 6.26787V6.33268C5.5 6.60882 5.72386 6.83268 6 6.83268C6.27614 6.83268 6.5 6.60882 6.5 6.33268V6.26787C6.5 6.2459 6.49858 6.22427 6.49584 6.20305C6.49858 6.18184 6.5 6.1602 6.5 6.13824V6.00861C6.5 5.98665 6.49858 5.96501 6.49584 5.9438C6.49858 5.92258 6.5 5.90094 6.5 5.87898V5.74935C6.5 5.72739 6.49858 5.70575 6.49584 5.68454C6.49858 5.66332 6.5 5.64168 6.5 5.61972V5.49009C6.5 5.46813 6.49858 5.44649 6.49584 5.42528C6.49858 5.40406 6.5 5.38243 6.5 5.36046V5.23083C6.5 5.20887 6.49858 5.18723 6.49584 5.16602C6.49858 5.1448 6.5 5.12317 6.5 5.1012V4.97157C6.5 4.94961 6.49858 4.92797 6.49584 4.90676C6.49858 4.88554 6.5 4.86391 6.5 4.84194V4.71231C6.5 4.69035 6.49858 4.66871 6.49584 4.6475C6.49858 4.62628 6.5 4.60465 6.5 4.58268V4.45305C6.5 4.43109 6.49858 4.40945 6.49584 4.38824C6.49858 4.36702 6.5 4.34539 6.5 4.32342V4.19379C6.5 4.17183 6.49858 4.15019 6.49584 4.12898C6.49858 4.10776 6.5 4.08613 6.5 4.06416V3.93453C6.5 3.91257 6.49858 3.89094 6.49584 3.86972C6.49858 3.8485 6.5 3.82687 6.5 3.8049V3.67527C6.5 3.65331 6.49858 3.63168 6.49584 3.61046C6.49858 3.58924 6.5 3.56761 6.5 3.54564V3.41602C6.5 3.39405 6.49858 3.37242 6.49584 3.3512C6.49858 3.32998 6.5 3.30835 6.5 3.28639V3.15676C6.5 3.13479 6.49858 3.11316 6.49584 3.09194C6.49858 3.07072 6.5 3.04909 6.5 3.02713L6.5 2.8975C6.5 2.87553 6.49858 2.8539 6.49584 2.83268C6.49858 2.81147 6.5 2.78983 6.5 2.76787V2.63824C6.5 2.61627 6.49858 2.59464 6.49584 2.57342C6.49858 2.55221 6.5 2.53057 6.5 2.50861V2.37898C6.5 2.35701 6.49858 2.33538 6.49584 2.31416C6.49858 2.29295 6.5 2.27131 6.5 2.24935V2.11972C6.5 2.09775 6.49858 2.07612 6.49584 2.0549C6.49858 2.03369 6.5 2.01205 6.5 1.99009V1.86046C6.5 1.8385 6.49858 1.81686 6.49584 1.79565C6.49858 1.77443 6.5 1.75279 6.5 1.73083V1.66602C6.5 1.38987 6.27614 1.16602 6 1.16602Z" fill="#12131C"/>
<path fill-rule="evenodd" clip-rule="evenodd" d="M4.38933 2.7488C4.61909 2.90198 4.92953 2.83989 5.0827 2.61013L5.12164 2.55173C5.13485 2.53191 5.14646 2.51149 5.1565 2.49062C5.1719 2.47333 5.18629 2.45475 5.1995 2.43493L5.27736 2.31814C5.29058 2.29832 5.30219 2.2779 5.31223 2.25703C5.32763 2.23974 5.34201 2.22116 5.35523 2.20134L5.43309 2.08455C5.4463 2.06473 5.45791 2.04431 5.46795 2.02344C5.48336 2.00615 5.49774 1.98757 5.51095 1.96775L5.58882 1.85096C5.60203 1.83114 5.61364 1.81072 5.62368 1.78985C5.63908 1.77256 5.65347 1.75398 5.66668 1.73416L5.74454 1.61737C5.75776 1.59755 5.76937 1.57713 5.77941 1.55626C5.79481 1.53897 5.80919 1.52039 5.82241 1.50057L5.86134 1.44218C5.86487 1.43688 5.86844 1.43206 5.87202 1.42766C5.87553 1.42335 5.87896 1.419 5.8823 1.41461C5.88652 1.41134 5.8907 1.40799 5.89485 1.40457C5.90293 1.39789 5.91152 1.39217 5.92054 1.38736C5.92524 1.38485 5.92988 1.38228 5.93447 1.37964C5.93966 1.37826 5.94486 1.37679 5.95004 1.37523C5.96057 1.37206 5.97159 1.36989 5.98291 1.36879C5.98864 1.36823 5.99435 1.36758 6.00001 1.36683C6.00568 1.36758 6.01138 1.36823 6.01711 1.36879C6.02843 1.36989 6.03946 1.37206 6.04998 1.37523C6.05517 1.37679 6.06036 1.37826 6.06556 1.37964C6.07014 1.38228 6.07479 1.38485 6.07948 1.38736C6.08851 1.39217 6.09709 1.39789 6.10518 1.40457C6.10932 1.40799 6.1135 1.41134 6.11772 1.41461C6.12107 1.419 6.12449 1.42335 6.128 1.42766C6.13158 1.43206 6.13516 1.43688 6.13869 1.44218L6.17762 1.50057C6.19083 1.52039 6.20522 1.53897 6.22062 1.55626C6.23066 1.57713 6.24227 1.59755 6.25548 1.61737L6.33335 1.73416C6.34656 1.75398 6.36094 1.77256 6.37634 1.78985C6.38638 1.81072 6.398 1.83114 6.41121 1.85096L6.48907 1.96775C6.50229 1.98757 6.51667 2.00615 6.53207 2.02344C6.54211 2.04431 6.55372 2.06473 6.56694 2.08455L6.6448 2.20134C6.65801 2.22116 6.6724 2.23974 6.6878 2.25703C6.69784 2.2779 6.70945 2.29832 6.72266 2.31814L6.80053 2.43493C6.81374 2.45475 6.82812 2.47333 6.84352 2.49062C6.85356 2.51149 6.86518 2.53191 6.87839 2.55173L6.91732 2.61013C7.0705 2.83989 7.38093 2.90198 7.6107 2.7488C7.84046 2.59562 7.90255 2.28519 7.74937 2.05543L7.71044 1.99703C7.69723 1.97721 7.68284 1.95864 7.66744 1.94134C7.6574 1.92047 7.64579 1.90005 7.63258 1.88023L7.55471 1.76344C7.5415 1.74362 7.52712 1.72504 7.51171 1.70775C7.50167 1.68688 7.49006 1.66646 7.47685 1.64664L7.39899 1.52985C7.38577 1.51003 7.37139 1.49146 7.35599 1.47416C7.34595 1.45329 7.33434 1.43287 7.32112 1.41305L7.24326 1.29626C7.23005 1.27644 7.21566 1.25787 7.20026 1.24057C7.19022 1.2197 7.17861 1.19928 7.1654 1.17946L7.08753 1.06267C7.07432 1.04285 7.05994 1.02428 7.04453 1.00698C7.03449 0.986113 7.02288 0.965693 7.00967 0.945873L6.97074 0.887475C6.94964 0.855834 6.92721 0.825443 6.90353 0.796353C6.87886 0.766041 6.85137 0.739372 6.82174 0.716418C6.79893 0.686461 6.77234 0.658626 6.74206 0.63361C6.68178 0.583815 6.61747 0.540973 6.55033 0.505142C6.51563 0.486621 6.47973 0.472608 6.44329 0.462896C6.41067 0.444165 6.3754 0.428845 6.33782 0.417551C6.26435 0.395466 6.18928 0.380804 6.11381 0.373472C6.0751 0.369712 6.03699 0.370471 6.00001 0.375319C5.96303 0.370471 5.92493 0.369712 5.88622 0.373472C5.81075 0.380804 5.73568 0.395466 5.6622 0.417551C5.62462 0.428845 5.58936 0.444165 5.55673 0.462896C5.5203 0.472608 5.48439 0.486621 5.44969 0.505142C5.38256 0.540973 5.31824 0.583815 5.25796 0.63361C5.22768 0.658627 5.2011 0.686461 5.17828 0.716418C5.14866 0.739373 5.12117 0.766041 5.09649 0.796353C5.07281 0.825443 5.05038 0.855834 5.02929 0.887475L4.99036 0.945873C4.97714 0.965693 4.96553 0.986113 4.95549 1.00698C4.94009 1.02428 4.92571 1.04285 4.91249 1.06267L4.83463 1.17946C4.82142 1.19928 4.8098 1.2197 4.79976 1.24057C4.78436 1.25787 4.76998 1.27644 4.75677 1.29626L4.6789 1.41305C4.66569 1.43287 4.65408 1.45329 4.64404 1.47416C4.62864 1.49146 4.61425 1.51003 4.60104 1.52985L4.52318 1.64664C4.50996 1.66646 4.49835 1.68688 4.48831 1.70775C4.47291 1.72505 4.45853 1.74362 4.44531 1.76344L4.36745 1.88023C4.35424 1.90005 4.34262 1.92047 4.33258 1.94134C4.31718 1.95864 4.3028 1.97721 4.28959 1.99703L4.25065 2.05543C4.09748 2.28519 4.15956 2.59562 4.38933 2.7488Z" fill="#12131C"/>
<path fill-rule="evenodd" clip-rule="evenodd" d="M9.47073 10.1659C10.7764 10.1654 11.8334 9.10594 11.8334 7.8011L11.8334 5.53268C11.8334 4.22561 10.7738 3.16601 9.46671 3.16601H9.00004C8.7239 3.16601 8.50004 3.38987 8.50004 3.66601C8.50004 3.94216 8.7239 4.16601 9.00004 4.16601H9.46671C10.2215 4.16601 10.8334 4.77789 10.8334 5.53268L10.8334 7.8011C10.8334 8.55463 10.223 9.16559 9.4703 9.16592C8.33118 9.16641 7.28587 9.16489 6.22005 9.16333C5.06515 9.16165 3.88616 9.15993 2.53766 9.1607C1.78068 9.16114 1.16671 8.54811 1.16671 7.79252L1.16671 5.53268C1.16671 4.77789 1.77859 4.16601 2.53337 4.16601H2.66671C2.94285 4.16601 3.16671 3.94216 3.16671 3.66601C3.16671 3.38987 2.94285 3.16601 2.66671 3.16601H2.53337C1.2263 3.16601 0.166708 4.22561 0.166708 5.53268L0.166708 7.79252C0.166708 9.10201 1.23013 10.1615 2.53823 10.1607C3.90301 10.1599 5.06978 10.1616 6.21423 10.1633C7.2725 10.1649 8.31169 10.1664 9.47073 10.1659Z" fill="#12131C"/>
</svg>
