<svg width="30" height="32" viewBox="0 0 30 32" fill="none" xmlns="http://www.w3.org/2000/svg">
<path fill-rule="evenodd" clip-rule="evenodd" d="M6.33332 3.25C4.44635 3.25 2.91666 4.77969 2.91666 6.66666V25.9C2.91666 27.787 4.44635 29.3167 6.33332 29.3167H23.6667C25.5536 29.3167 27.0833 27.787 27.0833 25.9V10.3333C27.0833 9.64298 27.643 9.08333 28.3333 9.08333C29.0237 9.08333 29.5833 9.64298 29.5833 10.3333V25.9C29.5833 29.1677 26.9343 31.8167 23.6667 31.8167H6.33332C3.06564 31.8167 0.416656 29.1677 0.416656 25.9V6.66666C0.416656 3.39898 3.06564 0.75 6.33332 0.75H20.5338C21.2242 0.75 21.7838 1.30964 21.7838 2C21.7838 2.69036 21.2242 3.25 20.5338 3.25H6.33332Z" fill="#12131C"/>
<path fill-rule="evenodd" clip-rule="evenodd" d="M18.75 2.54745C18.75 0.947136 20.6849 0.145676 21.8165 1.27728L29.0561 8.51694C30.1877 9.64854 29.3863 11.5834 27.7859 11.5834H20.5463C19.5542 11.5834 18.75 10.7792 18.75 9.78711V2.54745ZM21.25 4.24636V9.0834H26.087L21.25 4.24636Z" fill="#12131C"/>
<path fill-rule="evenodd" clip-rule="evenodd" d="M19.0267 18.0402C18.4523 18.4232 17.6762 18.2679 17.2933 17.6935L17.1959 17.5475C17.1629 17.498 17.1339 17.4469 17.1088 17.3948C17.0703 17.3515 17.0343 17.3051 17.0013 17.2555L16.8066 16.9636C16.7736 16.914 16.7446 16.863 16.7195 16.8108C16.681 16.7676 16.645 16.7211 16.612 16.6716L16.4173 16.3796C16.3843 16.33 16.3552 16.279 16.3301 16.2268C16.2916 16.1836 16.2557 16.1371 16.2226 16.0876L16.028 15.7956C15.995 15.7461 15.9659 15.695 15.9408 15.6428C15.9023 15.5996 15.8664 15.5532 15.8333 15.5036L15.6387 15.2116C15.6056 15.1621 15.5766 15.111 15.5515 15.0589C15.513 15.0156 15.477 14.9692 15.444 14.9196L15.3467 14.7737C15.3379 14.7604 15.3289 14.7484 15.32 14.7374C15.3112 14.7266 15.3026 14.7157 15.2943 14.7047C15.2837 14.6966 15.2733 14.6882 15.2629 14.6796C15.2427 14.6629 15.2212 14.6486 15.1987 14.6366C15.1869 14.6303 15.1753 14.6239 15.1639 14.6173C15.1509 14.6139 15.1379 14.6102 15.1249 14.6063C15.0986 14.5984 15.0711 14.5929 15.0427 14.5902C15.0284 14.5888 15.0142 14.5872 15 14.5853C14.9858 14.5872 14.9716 14.5888 14.9572 14.5902C14.9289 14.5929 14.9014 14.5984 14.8751 14.6063C14.8621 14.6102 14.8491 14.6139 14.8361 14.6173C14.8247 14.6239 14.8131 14.6303 14.8013 14.6366C14.7788 14.6486 14.7573 14.6629 14.7371 14.6796C14.7267 14.6882 14.7163 14.6966 14.7057 14.7047C14.6974 14.7157 14.6888 14.7266 14.68 14.7374C14.6711 14.7484 14.6621 14.7604 14.6533 14.7737L14.556 14.9196C14.5229 14.9692 14.487 15.0156 14.4485 15.0589C14.4234 15.111 14.3944 15.1621 14.3613 15.2116L14.1667 15.5036C14.1336 15.5532 14.0977 15.5996 14.0592 15.6428C14.0341 15.695 14.005 15.7461 13.972 15.7956L13.7773 16.0876C13.7443 16.1371 13.7084 16.1836 13.6699 16.2268C13.6448 16.279 13.6157 16.33 13.5827 16.3796L13.388 16.6716C13.355 16.7211 13.319 16.7676 13.2805 16.8108C13.2554 16.863 13.2264 16.914 13.1934 16.9636L12.9987 17.2555C12.9657 17.3051 12.9297 17.3515 12.8912 17.3948C12.8661 17.4469 12.8371 17.498 12.8041 17.5475L12.7067 17.6935C12.3238 18.2679 11.5477 18.4232 10.9733 18.0402C10.3989 17.6573 10.2437 16.8812 10.6266 16.3068L10.7239 16.1608C10.757 16.1112 10.7929 16.0648 10.8314 16.0216C10.8565 15.9694 10.8856 15.9183 10.9186 15.8688L11.1132 15.5768C11.1463 15.5273 11.1822 15.4808 11.2207 15.4376C11.2458 15.3854 11.2749 15.3344 11.3079 15.2848L11.5026 14.9928C11.5356 14.9433 11.5716 14.8969 11.6101 14.8536C11.6352 14.8014 11.6642 14.7504 11.6972 14.7008L11.8919 14.4089C11.9249 14.3593 11.9609 14.3129 11.9994 14.2696C12.0245 14.2175 12.0535 14.1664 12.0865 14.1169L12.2812 13.8249C12.3142 13.7753 12.3502 13.7289 12.3887 13.6857C12.4138 13.6335 12.4428 13.5824 12.4759 13.5329L12.5732 13.3869C12.6259 13.3078 12.682 13.2318 12.7412 13.1591C12.8029 13.0833 12.8716 13.0166 12.9457 12.9593C13.0027 12.8844 13.0692 12.8148 13.1449 12.7522C13.2956 12.6277 13.4564 12.5206 13.6242 12.4311C13.711 12.3848 13.8007 12.3497 13.8918 12.3255C13.9734 12.2786 14.0615 12.2403 14.1555 12.2121C14.3392 12.1569 14.5268 12.1202 14.7155 12.1019C14.8123 12.0925 14.9075 12.0944 15 12.1065C15.0924 12.0944 15.1877 12.0925 15.2845 12.1019C15.4732 12.1202 15.6608 12.1569 15.8445 12.2121C15.9385 12.2403 16.0266 12.2786 16.1082 12.3255C16.1993 12.3497 16.289 12.3848 16.3758 12.4311C16.5436 12.5206 16.7044 12.6277 16.8551 12.7522C16.9308 12.8148 16.9973 12.8844 17.0543 12.9593C17.1284 13.0166 17.1971 13.0833 17.2588 13.1591C17.318 13.2318 17.3741 13.3078 17.4268 13.3869L17.5241 13.5329C17.5572 13.5824 17.5862 13.6335 17.6113 13.6857C17.6498 13.7289 17.6858 13.7753 17.7188 13.8249L17.9135 14.1169C17.9465 14.1664 17.9755 14.2175 18.0006 14.2696C18.0391 14.3129 18.0751 14.3593 18.1081 14.4089L18.3028 14.7008C18.3358 14.7504 18.3648 14.8014 18.3899 14.8536C18.4284 14.8969 18.4644 14.9433 18.4974 14.9928L18.6921 15.2848C18.7251 15.3344 18.7542 15.3854 18.7793 15.4376C18.8178 15.4808 18.8537 15.5273 18.8867 15.5768L19.0814 15.8688C19.1144 15.9183 19.1435 15.9694 19.1686 16.0216C19.2071 16.0648 19.243 16.1112 19.2761 16.1608L19.3734 16.3068C19.7563 16.8812 19.6011 17.6573 19.0267 18.0402Z" fill="#12131C"/>
<path fill-rule="evenodd" clip-rule="evenodd" d="M15.072 12.8513C15.7624 12.8513 16.322 13.411 16.322 14.1013V25.768C16.322 26.4583 15.7624 27.018 15.072 27.018C14.3817 27.018 13.822 26.4583 13.822 25.768V14.1013C13.822 13.411 14.3817 12.8513 15.072 12.8513Z" fill="#12131C"/>
</svg>
