<svg width="20" height="20" viewBox="0 0 20 20" fill="none" xmlns="http://www.w3.org/2000/svg">
<path d="M11.6844 2.5002H13.75C14.2102 2.5002 14.5833 2.8733 14.5833 3.33354C14.5833 3.79377 14.2102 4.16687 13.75 4.16687H12.3173L9.40064 15.8335H10.8333C11.2936 15.8335 11.6667 16.2066 11.6667 16.6669C11.6667 17.1271 11.2936 17.5002 10.8333 17.5002H8.35173C8.33992 17.5005 8.32807 17.5005 8.31619 17.5002H6.25001C5.78977 17.5002 5.41667 17.1271 5.41667 16.6669C5.41667 16.2066 5.78977 15.8335 6.25001 15.8335H7.68268L10.5993 4.16687H9.16667C8.70643 4.16687 8.33334 3.79377 8.33334 3.33354C8.33334 2.8733 8.70643 2.5002 9.16667 2.5002H11.6477C11.6599 2.49993 11.6721 2.49993 11.6844 2.5002Z" fill="#32373D"/>
</svg>
