<svg width="24" height="24" viewBox="0 0 24 24" fill="none" xmlns="http://www.w3.org/2000/svg">
<g clip-path="url(#clip0_850_78208)">
<path d="M9.43605 2.33174L0.436048 3.50076C0.185126 3.53315 -0.00204562 3.74779 1.688e-05 4.00077V11.0008C1.688e-05 11.2769 0.223892 11.5008 0.500033 11.5008H9.50003C9.77617 11.5008 10 11.2769 10 11.0008V2.82674C9.99986 2.68312 9.93794 2.54652 9.83003 2.45174C9.72133 2.35827 9.57841 2.31472 9.43605 2.33174Z" fill="#F44336"/>
<path d="M23.83 0.624643C23.7228 0.52808 23.5792 0.482518 23.436 0.499627L11.436 2.06464C11.1851 2.09703 10.9979 2.31167 11 2.56466V10.9997C11 11.2758 11.2239 11.4997 11.5 11.4997H23.5C23.7762 11.4997 24 11.2758 24 10.9997V0.999643C23.9998 0.856018 23.9378 0.719424 23.83 0.624643Z" fill="#4CAF50"/>
<path d="M9.50003 12.5H0.500033C0.223892 12.5 1.688e-05 12.7239 1.688e-05 13V20C-0.00204562 20.253 0.185126 20.4676 0.436001 20.5L9.436 21.674C9.45733 21.6755 9.4787 21.6755 9.49999 21.674C9.77613 21.674 10 21.4501 10 21.174V13C10 12.7239 9.77617 12.5 9.50003 12.5Z" fill="#2196F3"/>
<path d="M23.5 12.5H11.5C11.2239 12.5 11 12.7239 11 13V21.435C10.998 21.688 11.1851 21.9027 11.436 21.935L23.436 23.5001C23.4573 23.5015 23.4787 23.5015 23.5 23.5001C23.7761 23.5001 24 23.2762 24 23V13C24 12.7239 23.7762 12.5 23.5 12.5Z" fill="#FFC107"/>
</g>
<defs>
<clipPath id="clip0_850_78208">
<rect width="24" height="24" fill="white"/>
</clipPath>
</defs>
</svg>
