<svg width="32" height="32" viewBox="0 0 32 32" fill="none" xmlns="http://www.w3.org/2000/svg">
<g clip-path="url(#clip0_23_1579)">
<path d="M32 26.9902C32 29.7571 29.7571 32 26.9902 32H5.00978C2.24294 32 0 29.7571 0 26.9902V6.51272L6.51272 0H26.9902C29.7571 0 32 2.24294 32 5.00978V26.9902Z" fill="#0767F8"/>
<path opacity="0.2" d="M0 10.0029V6.51273H3.47347L0 10.0029Z" fill="#5D5D5D"/>
<path d="M0 6.51272H4.34186C5.53581 6.51272 6.51272 5.55247 6.51272 4.35851V0L0 6.51272Z" fill="#B2D5EE"/>
<path d="M12.7164 21.5L10.1844 12.86H11.9004L13.5204 18.8L15.1404 12.872L16.8564 12.86L18.4764 18.8L20.0964 12.86H21.8124L19.2804 21.5H17.6724L15.9984 15.668L14.3244 21.5H12.7164Z" fill="white"/>
</g>
<defs>
<clipPath id="clip0_23_1579">
<rect width="32" height="32" fill="white"/>
</clipPath>
</defs>
</svg>
