<svg width="102" height="109" viewBox="0 0 102 109" fill="none" xmlns="http://www.w3.org/2000/svg">
<path d="M32.1002 17.9207C32.1002 17.9207 30.0368 7.85464 14.4883 3.15332" stroke="#301000" stroke-width="0.6095" stroke-miterlimit="10" stroke-linecap="round" stroke-linejoin="round"/>
<path d="M8.0354 2.40419C7.94821 3.44251 10.4767 4.85579 12.2495 4.71158C13.2085 4.62505 14.4001 4.04821 14.5164 3.00988C14.6036 1.97155 13.7898 1.30817 12.947 0.933221C11.2904 0.21216 8.15165 1.33702 8.0354 2.40419Z" fill="#FF2906" stroke="#301000" stroke-width="0.4063" stroke-miterlimit="10" stroke-linecap="round" stroke-linejoin="round"/>
<path d="M50.148 68.0185C50.148 68.0185 54.4202 69.8067 55.0596 72.4025C55.699 74.9695 50.4677 76.0078 50.0027 73.8158C49.654 72.1141 48.8112 70.0951 47.9102 69.4317C47.0674 68.7395 48.4624 67.4705 50.148 68.0185Z" fill="#B78979" stroke="#301000" stroke-width="0.4063" stroke-miterlimit="10"/>
<path d="M51.0779 69.6329C51.5595 69.6329 51.9498 69.2455 51.9498 68.7676C51.9498 68.2897 51.5595 67.9023 51.0779 67.9023C50.5964 67.9023 50.2061 68.2897 50.2061 68.7676C50.2061 69.2455 50.5964 69.6329 51.0779 69.6329Z" fill="#C7B299" stroke="#301000" stroke-width="0.2032" stroke-miterlimit="10" stroke-linecap="round" stroke-linejoin="round"/>
<path d="M15.5052 68.8557C15.5052 68.8557 11.9305 71.7976 12.0467 74.4512C12.192 77.1047 17.4814 76.6143 17.278 74.3646C17.1327 72.6341 17.3361 70.4709 18.0046 69.5768C18.7021 68.6538 16.9874 67.8174 15.5052 68.8557Z" fill="#B78979" stroke="#301000" stroke-width="0.4063" stroke-miterlimit="10"/>
<path d="M13.2088 72.547C13.6903 72.547 14.0807 72.1596 14.0807 71.6817C14.0807 71.2038 13.6903 70.8164 13.2088 70.8164C12.7273 70.8164 12.3369 71.2038 12.3369 71.6817C12.3369 72.1596 12.7273 72.547 13.2088 72.547Z" fill="#C7B299" stroke="#301000" stroke-width="0.2032" stroke-miterlimit="10" stroke-linecap="round" stroke-linejoin="round"/>
<path d="M18.8457 67.2984C18.8457 67.2984 16.3754 67.2119 15.6198 67.6734C14.8641 68.1349 15.6488 72.6631 17.4798 74.6533C18.032 75.2589 20.5604 73.3265 20.5604 73.3265L18.8457 67.2984Z" fill="#332725" stroke="#301000" stroke-width="0.4063" stroke-miterlimit="10"/>
<path d="M46.1658 67.8752C46.1658 67.8752 48.3745 66.8369 49.1302 67.2695C49.8567 67.6733 49.3336 71.9997 47.677 73.9898C47.183 74.5955 44.6836 72.865 44.6836 72.865L46.1658 67.8752Z" fill="#332725" stroke="#301000" stroke-width="0.4063" stroke-miterlimit="10"/>
<path d="M38.5504 81.9506C38.5504 81.9506 38.4633 83.9118 37.8529 84.2291C35.0048 85.7289 28.2332 85.3828 27.5066 84.6041C27.0707 84.1137 26.286 81.691 26.6348 81.4602C26.9835 81.2007 37.7367 81.4891 38.5504 81.9506Z" fill="#7C2E15" stroke="#301000" stroke-width="0.3048" stroke-miterlimit="10"/>
<path d="M44.9446 65.1641C44.9446 65.1641 37.3011 69.2885 20.8517 65.2506C20.8517 65.2506 18.2942 66.7216 18.0617 68.7694C17.8292 70.8172 19.8636 76.0665 25.3855 82.0369C26.9839 83.7674 37.9986 83.5367 39.6552 81.9504C41.3408 80.364 45.7293 75.8935 47.0662 69.8365C47.6474 67.558 44.9446 65.1641 44.9446 65.1641Z" fill="#F15A24" stroke="#301000" stroke-miterlimit="10"/>
<path d="M46.3395 71.2503C46.3395 71.2503 43.6658 77.4803 41.9801 78.807C40.2073 80.1915 27.0129 80.9125 23.8741 79.73C20.4447 75.2882 19.2822 71.9425 19.2822 71.9425C19.2822 71.9425 23.6707 73.0962 25.8213 74.9133C27.7104 76.5285 40.6433 75.144 40.992 74.5672C41.3117 74.0192 44.7701 70.4139 46.3395 71.2503Z" fill="#D68922"/>
<path d="M23.6982 79.8747C31.022 81.2303 38.5492 80.192 42.5889 78.8652C42.5889 78.8652 40.1186 81.7206 39.5374 82.0956C37.9971 83.0762 29.598 84.0569 25.8198 82.3552C24.9479 81.9802 23.6982 79.8747 23.6982 79.8747Z" fill="#D14A20" stroke="#301000" stroke-width="0.2032" stroke-miterlimit="10"/>
<path d="M37.0385 80.2783C36.1376 80.5091 31.9816 80.7975 30.79 80.711L37.0385 80.2783Z" fill="#D14A20"/>
<path d="M37.0385 80.2783C36.1376 80.5091 31.9816 80.7975 30.79 80.711" stroke="#301000" stroke-width="0.2032" stroke-miterlimit="10" stroke-linecap="round" stroke-linejoin="round"/>
<path d="M34.025 80.9403C34.1853 80.9332 34.3124 80.8629 34.3088 80.7834C34.3053 80.7038 34.1724 80.6451 34.012 80.6522C33.8517 80.6593 33.7246 80.7295 33.7282 80.8091C33.7317 80.8887 33.8646 80.9474 34.025 80.9403Z" fill="#D14A20" stroke="#301000" stroke-width="0.2032" stroke-miterlimit="10" stroke-linecap="round" stroke-linejoin="round"/>
<path d="M18.498 71.6532C18.498 71.6532 24.5431 73.1242 25.5312 74.5951C26.9843 76.7295 40.76 75.4027 41.196 73.9606C41.6319 72.5185 46.5435 70.9033 46.5435 70.9033" stroke="#301000" stroke-width="0.2032" stroke-miterlimit="10"/>
<path d="M41.3412 74.5371C41.582 74.5371 41.7772 74.3435 41.7772 74.1045C41.7772 73.8656 41.582 73.6719 41.3412 73.6719C41.1005 73.6719 40.9053 73.8656 40.9053 74.1045C40.9053 74.3435 41.1005 74.5371 41.3412 74.5371Z" fill="black" stroke="#301000" stroke-width="0.2032" stroke-miterlimit="10" stroke-linecap="round" stroke-linejoin="round"/>
<path d="M25.8207 75.4307C26.0615 75.4307 26.2566 75.237 26.2566 74.9981C26.2566 74.7591 26.0615 74.5654 25.8207 74.5654C25.5799 74.5654 25.3848 74.7591 25.3848 74.9981C25.3848 75.237 25.5799 75.4307 25.8207 75.4307Z" fill="black" stroke="#301000" stroke-width="0.2032" stroke-miterlimit="10" stroke-linecap="round" stroke-linejoin="round"/>
<path d="M31.4315 75.6633L37.1859 75.3461C37.3894 75.3461 37.5347 75.173 37.5347 74.9711C37.5347 74.7692 37.3603 74.625 37.1569 74.625L31.4025 74.9423C31.199 74.9423 31.0537 75.1153 31.0537 75.3172C31.0537 75.5191 31.2281 75.6922 31.4315 75.6633Z" fill="#F15A24" stroke="#301000" stroke-width="0.1016" stroke-miterlimit="10" stroke-linecap="round" stroke-linejoin="round"/>
<path d="M31.3729 76.384L37.1273 76.0668C37.3308 76.0668 37.4761 75.8937 37.4761 75.6918C37.4761 75.4899 37.3017 75.3457 37.0983 75.3457L31.3439 75.663C31.1404 75.663 30.9951 75.836 30.9951 76.0379C30.9951 76.2398 31.1695 76.4129 31.3729 76.384Z" fill="#F15A24" stroke="#301000" stroke-width="0.1016" stroke-miterlimit="10" stroke-linecap="round" stroke-linejoin="round"/>
<path d="M32.7087 17.9789C17.3927 17.7193 1.61167 24.4684 1.03042 42.9276C0.449168 61.3867 18.3227 69.8664 32.2727 70.0106C46.2228 70.1548 64.7066 62.4539 63.1663 42.0335C61.3644 18.4692 32.7087 17.9789 32.7087 17.9789Z" fill="#F15A24" stroke="#301000" stroke-miterlimit="10"/>
<path d="M13.9629 21.9016C13.9629 21.9016 19.6592 22.9688 25.7042 30.3813C27.1573 32.1695 43.8974 32.2849 44.0136 30.2082C44.2171 26.776 46.3677 20.9786 46.8037 21.0075C46.8037 21.0075 31.8073 14.0853 13.9629 21.9016Z" fill="#7C2E15" stroke="#301000" stroke-miterlimit="10"/>
<path d="M13.3236 22.7959C13.3236 22.7959 -5.39273 47.8023 20.5893 67.6459C20.6474 67.7036 1.05917 63.6945 1.40792 42.005C1.61136 27.2953 13.3236 22.7959 13.3236 22.7959Z" fill="#B2522A"/>
<path d="M34.9639 48.1922C35.5229 42.3725 30.3026 37.1179 23.304 36.4558C16.3053 35.7937 10.1786 39.9748 9.61962 45.7945C9.0606 51.6142 14.2809 56.8688 21.2796 57.5309C28.2782 58.193 34.4049 54.012 34.9639 48.1922Z" fill="#7C2E15" stroke="#7C2E15" stroke-width="0.9143" stroke-miterlimit="10" stroke-linecap="round" stroke-linejoin="round"/>
<path d="M60.8198 48.0372C61.3224 42.8042 56.6264 38.0792 50.3308 37.4836C44.0352 36.8879 38.5241 40.6473 38.0215 45.8803C37.5188 51.1133 42.2149 55.8383 48.5105 56.4339C54.806 57.0295 60.3171 53.2702 60.8198 48.0372Z" fill="#7C2E15" stroke="#7C2E15" stroke-width="0.9143" stroke-miterlimit="10" stroke-linecap="round" stroke-linejoin="round"/>
<path d="M12.7719 46.0996C12.3069 50.8586 16.5791 55.1561 22.3045 55.7041C28.0298 56.2521 33.0576 52.8199 33.4936 48.0609C33.9586 43.3019 29.6864 39.0043 23.961 38.4563C18.2357 37.9083 13.2369 41.3117 12.7719 46.0996Z" fill="url(#paint0_radial_1823_3622)" stroke="#E0541E" stroke-width="1.0159" stroke-miterlimit="10" stroke-linecap="round" stroke-linejoin="round"/>
<path d="M59.6214 47.9163C59.2146 52.2138 54.7099 55.2711 49.5367 54.7808C44.3926 54.2904 40.5273 50.4256 40.9632 46.128C41.3992 41.8305 45.8748 38.7732 51.048 39.2635C56.2211 39.7538 60.0283 43.6476 59.6214 47.9163Z" fill="url(#paint1_radial_1823_3622)" stroke="#E0541E" stroke-width="1.0159" stroke-miterlimit="10" stroke-linecap="round" stroke-linejoin="round"/>
<path d="M28.6964 46.5133C28.7375 46.0851 28.1621 45.6805 27.4111 45.6094C26.6601 45.5384 26.0179 45.8279 25.9768 46.256C25.9357 46.6842 26.5111 47.0888 27.2621 47.1599C28.0131 47.2309 28.6553 46.9415 28.6964 46.5133Z" fill="#FFF9B3"/>
<path d="M56.1499 46.8027C56.1879 46.4063 55.6618 46.0322 54.9747 45.9672C54.2877 45.9022 53.6998 46.1709 53.6617 46.5673C53.6236 46.9638 54.1498 47.3379 54.8368 47.4029C55.5239 47.4679 56.1118 47.1992 56.1499 46.8027Z" fill="#FFF9B3"/>
<path d="M32.9122 47.9171C33.3234 43.6356 29.473 39.7689 24.3119 39.2806C19.1508 38.7924 14.6335 41.8674 14.2222 46.1489C13.8109 50.4305 17.6614 54.2972 22.8225 54.7855C27.9836 55.2737 32.5009 52.1987 32.9122 47.9171Z" fill="#FFFF00"/>
<path d="M59.0259 48.0342C59.396 44.1808 55.9396 40.7016 51.3058 40.2633C46.672 39.8249 42.6155 42.5933 42.2454 46.4467C41.8753 50.3 45.3316 53.7792 49.9654 54.2176C54.5992 54.656 58.6557 51.8876 59.0259 48.0342Z" fill="#FFFF00"/>
<path d="M32.7087 17.9789C17.3927 17.7193 1.61167 24.4684 1.03042 42.9276C0.449168 61.3867 18.3227 69.8664 32.2727 70.0106C46.2228 70.1548 64.7066 62.4539 63.1663 42.0335C61.3644 18.4692 32.7087 17.9789 32.7087 17.9789Z" stroke="#301000" stroke-width="0.4063" stroke-miterlimit="10"/>
<path d="M58.3127 77.5955C58.3127 77.5955 57.7024 72.9808 57.063 72.2309C55.4936 70.4138 50.6692 70.1254 49.7392 70.5292C47.9954 71.2791 46.1645 76.0092 46.397 76.3553C46.5714 76.6726 56.7433 79.0665 58.3127 77.5955Z" fill="#D14A20" stroke="#301000" stroke-width="0.4063" stroke-miterlimit="10"/>
<path d="M58.9222 87.9507C54.4466 89.912 43.8678 87.7488 41.9787 86.1913C40.0896 84.6338 39.5956 81.6054 39.9734 80.3363C40.3512 79.0672 44.5362 73.4429 45.7859 72.9815C47.0356 72.52 58.1957 71.6259 62.7004 78.5481C64.0372 80.567 61.8285 86.6528 58.9222 87.9507Z" fill="#F15A24" stroke="#301000" stroke-miterlimit="10"/>
<path d="M44.7865 75.8335C44.9857 75.6258 45.0624 75.3773 44.9577 75.2785C44.8531 75.1796 44.6068 75.2679 44.4076 75.4755C44.2084 75.6832 44.1317 75.9317 44.2363 76.0305C44.341 76.1294 44.5873 76.0412 44.7865 75.8335Z" fill="#7C2E15" stroke="#301000" stroke-width="0.1016" stroke-miterlimit="10"/>
<path d="M45.8769 76.5813C46.1646 76.2813 46.2754 75.9224 46.1243 75.7796C45.9731 75.6369 45.6173 75.7643 45.3296 76.0643C45.0419 76.3642 44.9311 76.7232 45.0822 76.8659C45.2334 77.0087 45.5892 76.8813 45.8769 76.5813Z" fill="#7C2E15" stroke="#301000" stroke-width="0.1016" stroke-miterlimit="10"/>
<path d="M10.5342 80.6239C10.5342 80.6239 10.5342 75.9803 11.1154 75.1439C12.4232 73.1537 17.1895 72.2596 18.1776 72.548C20.0086 73.096 22.4208 77.5378 22.2464 77.9127C22.072 78.2877 12.2489 81.893 10.5342 80.6239Z" fill="#D14A20" stroke="#301000" stroke-width="0.4063" stroke-miterlimit="10"/>
<path d="M15.0385 91.0647C19.8629 91.9012 29.5989 87.2864 31.052 85.2962C32.5051 83.3061 32.2436 80.2776 31.5751 79.1528C30.9067 78.0279 25.472 73.5574 24.1351 73.4131C22.8273 73.2689 11.7544 75.0572 9.08067 82.8735C8.29598 85.152 11.8997 90.5167 15.0385 91.0647Z" fill="#F15A24" stroke="#301000" stroke-miterlimit="10"/>
<path d="M26.407 76C26.4845 75.879 26.3497 75.6563 26.1059 75.5025C25.862 75.3487 25.6016 75.3221 25.5241 75.443C25.4466 75.564 25.5814 75.7868 25.8253 75.9406C26.0691 76.0944 26.3295 76.121 26.407 76Z" fill="#7C2E15" stroke="#301000" stroke-width="0.1016" stroke-miterlimit="10"/>
<path d="M25.7798 77.0135C25.8917 76.8387 25.6969 76.517 25.3448 76.2948C24.9926 76.0726 24.6163 76.0342 24.5044 76.209C24.3925 76.3837 24.5873 76.7055 24.9394 76.9276C25.2916 77.1498 25.6678 77.1882 25.7798 77.0135Z" fill="#7C2E15" stroke="#301000" stroke-width="0.1016" stroke-miterlimit="10"/>
<path d="M39.5107 106.093C39.5107 106.093 78.1338 117.622 78.1338 73.3418" stroke="#332725" stroke-width="0.5079" stroke-miterlimit="10" stroke-linecap="round" stroke-linejoin="round"/>
<path d="M38.5226 98.9396C37.0695 98.9396 35.8779 97.7571 35.8779 96.3149V88.1237C35.8779 86.6816 37.0695 85.499 38.5226 85.499C39.9758 85.499 41.1673 86.6816 41.1673 88.1237V96.3149C41.1673 97.7859 39.9758 98.9396 38.5226 98.9396Z" fill="#938582" stroke="#301000" stroke-width="0.3048" stroke-miterlimit="10"/>
<path d="M54.5061 84.98L18.1488 87.8642C16.6666 87.9796 15.3588 86.8836 15.2135 85.3838C15.0972 83.9128 16.2016 82.6149 17.7129 82.4707L54.0702 79.5865C55.5524 79.4711 56.8602 80.5671 57.0055 82.0669C57.1218 83.5667 55.9883 84.8646 54.5061 84.98Z" fill="#938582" stroke="#301000" stroke-width="0.3048" stroke-miterlimit="10"/>
<path d="M38.5218 108.343C35.9934 108.343 33.959 106.324 33.959 103.815V94.7294C33.959 92.2201 35.9934 90.2012 38.5218 90.2012C41.0503 90.2012 43.0846 92.2201 43.0846 94.7294V103.815C43.0846 106.295 41.0503 108.343 38.5218 108.343Z" fill="#2C4967" stroke="#301000" stroke-width="0.3048" stroke-miterlimit="10"/>
<path d="M10.7363 85.9595C10.7363 86.1037 11.0851 86.1614 11.1723 86.2767C11.7826 86.9401 14.9213 89.7667 15.8223 89.4206C16.8685 89.0168 17.2754 88.7283 17.2464 87.9496C17.2173 87.3151 14.6598 83.479 13.8751 83.479C13.0904 83.4502 10.7654 84.6616 10.7363 85.9595Z" fill="#332725" stroke="#301000" stroke-width="0.3048" stroke-miterlimit="10"/>
<path d="M14.8642 82.8452C14.777 83.0759 14.8351 83.3355 14.9805 83.5374C15.7651 84.5181 18.5552 88.0368 19.0202 88.2676C19.5724 88.5272 21.5195 87.3446 21.6358 86.9697C21.752 86.5947 20.1536 80.6243 19.6886 80.1917C19.2527 79.7879 15.4745 81.3454 14.8642 82.8452Z" fill="#332725" stroke="#301000" stroke-width="0.3048" stroke-miterlimit="10"/>
<path d="M20.1816 79.6438C19.9201 79.7592 19.8329 80.0765 19.9782 80.3072C20.6757 81.3744 23.3204 86.3641 23.9017 86.5949C24.5992 86.8833 26.2267 86.3353 26.401 85.7873C26.5754 85.2393 25.8489 79.5862 25.471 79.24C25.2095 78.9516 21.5185 79.0381 20.1816 79.6438Z" fill="#332725" stroke="#301000" stroke-width="0.3048" stroke-miterlimit="10"/>
<path d="M29.8014 79.2404C30.1211 79.3847 31.0511 79.7308 30.993 80.1346C30.7023 81.4613 30.3245 83.9129 29.8305 84.1725C29.1911 84.5186 28.232 84.8359 27.767 84.2013C27.302 83.5668 25.8198 79.0385 25.907 78.5482C26.0233 78.1156 28.1158 78.5194 29.8014 79.2404Z" fill="#332725" stroke="#301000" stroke-width="0.3048" stroke-miterlimit="10"/>
<path d="M31.4579 80.1626C31.4579 80.1626 18.1763 80.3645 10.5038 87.402C10.0097 87.8347 9.31222 82.2681 20.0944 79.1531C29.4526 76.4419 32.2136 79.6146 31.4579 80.1626Z" fill="#DA6500" stroke="#301000" stroke-miterlimit="10"/>
<path d="M62.0043 81.2879C62.0334 81.4321 61.7137 81.5763 61.6556 81.6917C61.2197 82.4704 58.8656 85.9892 57.9065 85.8738C56.8021 85.7585 56.3371 85.5566 56.1628 84.7778C56.0174 84.1433 57.5868 79.8169 58.3715 79.615C59.0981 79.442 61.6556 80.0765 62.0043 81.2879Z" fill="#332725" stroke="#301000" stroke-width="0.3048" stroke-miterlimit="10"/>
<path d="M57.2381 79.2691C57.3835 79.471 57.4125 79.7306 57.2963 79.9614C56.7731 81.1151 54.9422 85.1818 54.5353 85.528C54.0703 85.9029 51.8906 85.2395 51.6872 84.8934C51.4837 84.5762 51.5709 78.375 51.9197 77.8559C52.2394 77.3655 56.2791 77.9712 57.2381 79.2691Z" fill="#332725" stroke="#301000" stroke-width="0.3048" stroke-miterlimit="10"/>
<path d="M51.2817 77.4506C51.5723 77.5083 51.7176 77.7968 51.6304 78.0563C51.1945 79.2389 49.8576 84.7478 49.3635 85.0939C48.7532 85.5265 47.0385 85.3823 46.7188 84.9208C46.3992 84.4594 45.7598 78.7774 46.0213 78.3448C46.2538 77.9698 49.8576 77.1622 51.2817 77.4506Z" fill="#332725" stroke="#301000" stroke-width="0.3048" stroke-miterlimit="10"/>
<path d="M41.8644 79.3558C41.5738 79.5577 40.76 80.1346 40.9344 80.4807C41.5447 81.6921 42.5038 83.9995 43.056 84.1148C43.7535 84.2879 44.7707 84.3744 45.0613 83.6245C45.381 82.9034 45.7007 78.1444 45.4682 77.683C45.2647 77.3657 43.3466 78.2598 41.8644 79.3558Z" fill="#332725" stroke="#301000" stroke-width="0.3048" stroke-miterlimit="10"/>
<path d="M40.4696 80.6241C40.4696 80.6241 53.4025 77.6533 62.5572 82.6142C63.1385 82.9315 62.47 77.336 51.2518 76.9034C41.5159 76.5573 39.5977 80.3068 40.4696 80.6241Z" fill="#DA6500" stroke="#301000" stroke-miterlimit="10"/>
<path d="M100.651 72.3145L52.3447 72.3145L52.3447 54.8122L100.651 54.8122L100.651 72.3145Z" fill="#DC4935" stroke="#902C2C" stroke-width="2" stroke-miterlimit="10"/>
<defs>
<radialGradient id="paint0_radial_1823_3622" cx="0" cy="0" r="1" gradientUnits="userSpaceOnUse" gradientTransform="translate(23.1834 47.1757) rotate(-174.596) scale(9.6067 9.53522)">
<stop offset="1.06556e-08" stop-color="#FFEE50"/>
<stop offset="0.2531" stop-color="#FFEB4E"/>
<stop offset="0.4513" stop-color="#FDE148"/>
<stop offset="0.6307" stop-color="#FBD03D"/>
<stop offset="0.7992" stop-color="#F8B92D"/>
<stop offset="0.9585" stop-color="#F39B1A"/>
<stop offset="1" stop-color="#F29214"/>
</radialGradient>
<radialGradient id="paint1_radial_1823_3622" cx="0" cy="0" r="1" gradientUnits="userSpaceOnUse" gradientTransform="translate(50.3174 47.1527) rotate(-174.596) scale(8.64595 8.58161)">
<stop offset="1.06556e-08" stop-color="#FFEE50"/>
<stop offset="0.2531" stop-color="#FFEB4E"/>
<stop offset="0.4513" stop-color="#FDE148"/>
<stop offset="0.6307" stop-color="#FBD03D"/>
<stop offset="0.7992" stop-color="#F8B92D"/>
<stop offset="0.9585" stop-color="#F39B1A"/>
<stop offset="1" stop-color="#F29214"/>
</radialGradient>
</defs>
</svg>
