<svg width="104" height="95" viewBox="0 0 104 95" fill="none" xmlns="http://www.w3.org/2000/svg">
<path fill-rule="evenodd" clip-rule="evenodd" d="M70.5403 36.8481V52.2489H88.0425V36.8481H103.444V19.3459L88.0425 19.3459V3.94238H70.5403V19.3459L55.1377 19.3459L55.1377 36.8481H70.5403Z" fill="#A0E469"/>
<path fill-rule="evenodd" clip-rule="evenodd" d="M70.5403 36.8481V52.2489H88.0425V36.8481H103.444V19.3459L88.0425 19.3459V3.94238H70.5403V19.3459L55.1377 19.3459L55.1377 36.8481H70.5403Z" fill="#A0E469"/>
<path d="M70.5403 52.2489H70.2448V52.5445H70.5403V52.2489ZM70.5403 36.8481H70.8359V36.5525H70.5403V36.8481ZM88.0425 52.2489V52.5445H88.3381V52.2489H88.0425ZM88.0425 36.8481V36.5525H87.747V36.8481H88.0425ZM103.444 36.8481V37.1436H103.74V36.8481H103.444ZM103.444 19.3459H103.74V19.0503H103.444V19.3459ZM88.0425 19.3459H87.747V19.6414L88.0425 19.6414V19.3459ZM88.0425 3.94238H88.3381V3.64683H88.0425V3.94238ZM70.5403 3.94238V3.64683H70.2448V3.94238H70.5403ZM70.5403 19.3459V19.6414H70.8359V19.3459H70.5403ZM55.1377 19.3459L55.1377 19.0503H54.8421V19.3459H55.1377ZM55.1377 36.8481H54.8421V37.1436H55.1377V36.8481ZM70.8359 52.2489V36.8481H70.2448V52.2489H70.8359ZM88.0425 51.9534H70.5403V52.5445H88.0425V51.9534ZM87.747 36.8481V52.2489H88.3381V36.8481H87.747ZM103.444 36.5525H88.0425V37.1436H103.444V36.5525ZM103.149 19.3459V36.8481H103.74V19.3459H103.149ZM88.0425 19.6414L103.444 19.6414V19.0503L88.0425 19.0503V19.6414ZM87.747 3.94238V19.3459H88.3381V3.94238H87.747ZM70.5403 4.23793H88.0425V3.64683H70.5403V4.23793ZM70.8359 19.3459V3.94238H70.2448V19.3459H70.8359ZM55.1377 19.6414L70.5403 19.6414V19.0503L55.1377 19.0503L55.1377 19.6414ZM55.4332 36.8481L55.4332 19.3459H54.8421L54.8421 36.8481H55.4332ZM70.5403 36.5525H55.1377V37.1436H70.5403V36.5525Z" fill="#59902C"/>
<g clip-path="url(#clip0_1823_3567)">
<path d="M20.9678 90.94C20.9678 91.9496 21.1019 93.363 21.7388 93.7332C22.3757 94.1034 60.3901 94.238 61.2952 93.7332C62.2003 93.2284 62.2003 90.8054 62.2003 90.8054L41.0812 84.5459L20.9678 90.94Z" fill="#D8B8B3" stroke="#551615" stroke-miterlimit="10"/>
<path d="M39.3382 91.7811C40.3194 91.7811 41.1149 90.9825 41.1149 89.9975C41.1149 89.0124 40.3194 88.2139 39.3382 88.2139C38.357 88.2139 37.5615 89.0124 37.5615 89.9975C37.5615 90.9825 38.357 91.7811 39.3382 91.7811Z" fill="#F7AA12" stroke="#551615" stroke-width="0.3801" stroke-miterlimit="10"/>
<path d="M12.0511 64.9266C11.6824 65.1958 10.4756 66.1044 10.4756 66.7775C10.4756 66.8111 10.5091 66.8784 10.5426 66.9121C11.3136 68.6284 12.9898 70.8159 13.4256 77.5465C13.4256 77.5801 13.4256 77.5801 13.4256 77.6138C13.6267 78.4215 15.3363 78.2532 15.9733 78.1522C16.1073 78.1186 16.2079 78.0513 16.2079 77.9503C16.275 76.4023 16.6772 65.4314 12.2523 64.9266C12.2188 64.8592 12.1182 64.8929 12.0511 64.9266Z" fill="#4A4040" stroke="#551615" stroke-width="0.3801" stroke-miterlimit="10"/>
<path d="M14.2638 60.451C13.6604 60.9221 11.6491 62.5711 11.582 63.8499C11.582 63.9509 11.6156 64.0518 11.6491 64.1191C13.2917 66.6095 16.2416 71.7584 14.7331 85.8254C14.7331 85.8591 14.7331 85.8927 14.7331 85.9264C14.9343 87.5417 17.6496 87.5081 18.6217 87.4408C18.8229 87.4408 18.9905 87.2725 19.024 87.0369C19.3592 83.9745 21.4711 62.2009 14.6326 60.3837C14.4985 60.3163 14.3644 60.35 14.2638 60.451Z" fill="#4A4040" stroke="#551615" stroke-width="0.3801" stroke-miterlimit="10"/>
<path d="M16.0065 55.9413C15.269 56.5134 12.7549 58.5662 12.6543 60.1815C12.6543 60.2825 12.6878 60.4171 12.7549 60.5181C14.7997 63.6478 18.4872 70.0756 16.6099 87.6425C16.6099 87.6761 16.6099 87.7435 16.6099 87.7771C16.8781 89.7963 20.2639 89.7626 21.5042 89.6617C21.7724 89.628 21.9735 89.4261 22.007 89.1569C22.4093 85.3204 25.0576 58.1287 16.5094 55.8403C16.3418 55.773 16.1406 55.8066 16.0065 55.9413Z" fill="#4A4040" stroke="#551615" stroke-width="0.3801" stroke-miterlimit="10"/>
<path d="M72.0231 64.9266C72.3919 65.1958 73.5987 66.1044 73.5987 66.7775C73.5987 66.8111 73.5652 66.8784 73.5316 66.9121C72.7606 68.6284 71.0845 70.8159 70.6487 77.5465C70.6487 77.5801 70.6487 77.5801 70.6487 77.6138C70.4476 78.4215 68.7379 78.2532 68.101 78.1522C67.9669 78.1186 67.8663 78.0513 67.8663 77.9503C67.7993 76.4023 67.397 65.4314 71.822 64.9266C71.8555 64.8592 71.9561 64.8929 72.0231 64.9266Z" fill="#4A4040" stroke="#551615" stroke-width="0.3801" stroke-miterlimit="10"/>
<path d="M69.8106 60.451C70.414 60.9221 72.4254 62.5711 72.4924 63.8499C72.4924 63.9509 72.4589 64.0518 72.4254 64.1191C70.7828 66.6095 67.8328 71.7584 69.3413 85.8254C69.3413 85.8591 69.3413 85.8927 69.3413 85.9264C69.1402 87.5417 66.4249 87.5081 65.4527 87.4408C65.2516 87.4408 65.084 87.2725 65.0505 87.0369C64.7152 83.9745 62.6033 62.2009 69.4419 60.3837C69.5425 60.3163 69.7101 60.35 69.8106 60.451Z" fill="#4A4040" stroke="#551615" stroke-width="0.3801" stroke-miterlimit="10"/>
<path d="M67.6986 55.9413C68.4361 56.5134 70.9503 58.5662 71.0509 60.1815C71.0509 60.2825 71.0173 60.4171 70.9503 60.5181C68.9054 63.6478 65.218 70.0756 67.0952 87.6425C67.0952 87.6761 67.0952 87.7435 67.0952 87.7771C66.827 89.7963 63.4413 89.7626 62.2009 89.6617C61.9328 89.628 61.7316 89.4261 61.6981 89.1569C61.2958 85.3204 58.6476 58.1287 67.1958 55.8403C67.3969 55.773 67.5645 55.8066 67.6986 55.9413Z" fill="#4A4040" stroke="#551615" stroke-width="0.3801" stroke-miterlimit="10"/>
<path d="M69.2734 54.6282C68.7705 54.1234 41.6844 44.9697 41.6844 44.9697C41.6844 44.9697 14.2296 54.359 13.8273 54.7628C13.4586 55.133 13.4586 57.0512 13.8273 57.1858C14.1961 57.3204 20.1966 62.8059 18.9227 90.1322C18.9227 90.1322 23.5488 92.8581 31.5272 91.0745C31.9965 90.7043 32.5664 90.4687 33.0692 90.1995C33.3038 90.0986 33.505 89.964 33.7061 89.8293C33.7732 88.8871 34.7453 88.3823 35.4493 87.9111C35.9186 87.6082 36.3544 87.2717 36.7902 86.9352C37.293 86.565 37.7958 86.0938 38.4328 85.9592C38.6339 85.9256 38.8015 86.0265 38.8686 86.1948C38.8686 86.1948 38.9021 86.1948 38.9021 86.1612C39.1367 86.0265 39.4384 85.9256 39.7066 86.0265C39.7401 86.0602 39.8072 86.0602 39.8407 86.0938C40.3436 85.8919 40.9134 85.7573 41.6509 85.7573C45.3384 85.7573 45.7071 88.8197 48.2548 90.0649C50.8025 91.3437 59.4513 92.2187 64.5467 90.0649C64.5467 90.0649 62.5689 66.0702 69.2398 57.1185C69.6756 56.6474 69.7762 55.133 69.2734 54.6282Z" fill="#98302E"/>
<path d="M62.5357 89.8973C62.5692 89.83 62.6028 89.7964 62.6363 89.7291C62.4352 85.4215 62.4687 79.0947 62.4687 79.0947L19.4259 76.4697C19.4259 77.5466 19.3589 78.6235 19.2918 79.7004C19.0237 83.0657 18.7555 86.4311 18.4873 89.7964C18.7555 90.0319 19.0572 90.2002 19.3589 90.3685C19.4595 90.3012 19.56 90.2675 19.7276 90.3012C20.8674 90.7386 22.0072 91.1425 23.214 91.479C23.281 91.5127 23.3481 91.5127 23.4151 91.5463C23.4486 91.5463 23.4486 91.5463 23.4821 91.5463C23.9515 91.5463 24.4543 91.6473 24.9236 91.7482C24.9571 91.7482 24.9906 91.7482 25.0242 91.7482C25.3259 91.7819 25.6276 91.7819 25.9293 91.7819C27.2702 91.4454 28.6111 91.1088 30.019 90.9742C30.5218 90.7723 31.0247 90.5704 31.5275 90.5031C32.332 90.2002 33.1366 89.931 33.9076 89.5271C33.9411 89.5271 33.9411 89.4935 33.9746 89.4935C34.0752 89.4262 34.1423 89.3252 34.2428 89.2243C34.2428 89.157 34.2763 89.056 34.3434 88.9887C34.7457 88.5512 35.215 88.1137 35.6508 87.7099C35.9189 87.3733 36.2206 87.1041 36.5894 86.8685C36.757 86.7339 36.8911 86.5657 37.0587 86.4311C37.3269 85.5561 40.2433 85.8253 40.6791 85.8589C42.2547 86.0609 43.6626 86.9358 44.9365 87.9118C44.9365 87.9118 44.9365 87.9118 44.97 87.9118C45.3052 87.7099 45.6069 88.0464 45.5399 88.3829L45.5734 88.4166C45.8751 88.282 46.1097 88.5512 46.0762 88.8204C46.3109 88.9887 46.512 89.1906 46.7467 89.3589C46.8472 89.3925 46.9813 89.3925 47.0819 89.4598C47.3501 89.5608 47.5177 89.7627 47.7188 89.9646C47.8194 89.9983 47.8864 90.0656 47.987 90.0992C48.0205 90.0992 48.054 90.1329 48.0876 90.1329C48.1546 90.1665 48.1881 90.1665 48.2552 90.2002C48.7915 90.4021 49.3614 90.4358 49.9313 90.604C50.4006 90.7387 50.8699 90.8733 51.3728 90.9742C52.479 91.2098 53.5852 91.2434 54.6915 91.3444C55.0937 91.3781 55.5295 91.4117 55.9318 91.4117C56.1329 91.3108 56.3006 91.2434 56.5352 91.2098C56.7028 91.1761 56.8369 91.3108 56.904 91.4454C57.1051 91.4454 57.3397 91.479 57.5409 91.479C57.6079 91.4454 57.7085 91.4454 57.7755 91.479C57.9096 91.479 58.0437 91.479 58.1443 91.479C58.6806 91.479 59.217 91.4454 59.7534 91.3444C59.988 91.2098 60.2227 91.0415 60.4573 90.9406C60.6249 90.8733 60.8261 90.9742 60.8931 91.1425C61.0272 91.1088 61.1613 91.1088 61.3289 91.0752C61.5971 91.0415 61.8318 91.0079 62.0999 90.9406C62.1335 90.5704 62.234 90.1665 62.5357 89.8973Z" fill="#E5522A" stroke="#551615" stroke-miterlimit="10"/>
<path d="M11.481 58.5324C10.9446 57.7584 20.8337 57.7584 22.0405 58.5661C23.2809 59.4074 25.9291 62.0997 34.5109 63.6814C35.5165 64.2535 35.6171 78.8253 34.9467 79.9358C33.7734 80.5079 30.0859 82.4935 28.0411 85.3203C28.0075 86.2289 13.8611 86.0943 12.6208 85.2867C13.5259 80.2387 13.8611 61.965 11.481 58.5324Z" fill="#B43330" stroke="#551615" stroke-miterlimit="10"/>
<path d="M67.832 61.8301C68.4689 61.1234 58.0435 60.0465 56.6691 60.7196C55.2946 61.4263 52.1771 63.8156 42.9249 64.4551C41.8186 64.8925 40.109 79.397 40.7124 80.5749C41.8857 81.2816 45.5732 83.6373 47.4169 86.6661C47.3834 87.5748 62.3008 88.9882 63.7088 88.2815C63.34 83.1998 64.9491 64.9935 67.832 61.8301Z" fill="#B43330" stroke="#551615" stroke-miterlimit="10"/>
<path d="M14.498 66.7773L32.5666 67.7533L34.578 71.1859L39.0364 71.4215" stroke="#551615" stroke-miterlimit="10" stroke-linecap="round" stroke-linejoin="round"/>
<path d="M24.823 70.8832C26.6188 70.8832 28.0746 69.4217 28.0746 67.6188C28.0746 65.816 26.6188 64.3545 24.823 64.3545C23.0271 64.3545 21.5713 65.816 21.5713 67.6188C21.5713 69.4217 23.0271 70.8832 24.823 70.8832Z" fill="#F7AA12" stroke="#551615" stroke-width="0.3079" stroke-miterlimit="10"/>
<path d="M64.8818 69.4354L46.7797 68.4932L44.4332 71.6902L36.9912 71.32" stroke="#551615" stroke-miterlimit="10" stroke-linecap="round" stroke-linejoin="round"/>
<path d="M51.6409 72.6665C53.6404 72.6665 55.2613 71.0393 55.2613 69.032C55.2613 67.0247 53.6404 65.3975 51.6409 65.3975C49.6414 65.3975 48.0205 67.0247 48.0205 69.032C48.0205 71.0393 49.6414 72.6665 51.6409 72.6665Z" fill="#F7AA12" stroke="#551615" stroke-width="0.3421" stroke-miterlimit="10"/>
<path d="M41.785 45.0038C41.718 44.9701 41.6509 44.9701 41.5839 45.0038C39.8072 45.6095 14.1961 54.393 13.8273 54.7632C13.4586 55.1333 13.4586 57.0516 13.8273 57.1862C14.1961 57.3208 20.1631 62.7726 18.9227 89.9307C18.9227 90.0653 18.9898 90.1663 19.0904 90.2336C20.1296 90.772 23.5153 93.2623 32.4993 90.1326C35.818 88.9884 35.6839 85.825 39.3714 85.825C43.0589 85.825 45.7407 88.8874 48.2884 90.1326C50.8025 91.3778 59.2502 92.2864 64.3456 90.2336C64.4797 90.1999 64.5467 90.0653 64.5467 89.9307C64.3791 87.5077 62.9712 65.6668 69.2734 57.2198C69.6421 56.715 69.7762 55.167 69.2734 54.6622C68.8041 54.1238 43.5617 45.6095 41.785 45.0038Z" stroke="#551615" stroke-width="0.3801" stroke-miterlimit="10"/>
<path d="M62.7036 45.071C64.0445 34.8068 59.2508 25.6868 45.4395 23.8695L41.7856 23.3983C31.5613 22.0522 23.3148 29.4559 21.9739 39.7201L20.4318 51.5997V51.6333C20.4318 51.667 20.3983 51.7006 20.3983 51.7343C20.1637 53.6525 28.6448 59.5081 39.9083 60.9889C51.1719 62.4696 60.8934 59.0033 61.128 57.0851C61.128 57.0515 61.128 57.0515 61.128 57.0178C61.128 56.9842 61.128 56.9842 61.128 56.9505L62.7036 45.071Z" fill="#A0E469" stroke="#551615" stroke-miterlimit="10"/>
<path d="M26.7344 42.042L28.2429 42.7487V42.7151L26.7344 42.042Z" fill="#551615" stroke="#551615" stroke-width="0.3421" stroke-miterlimit="10" stroke-linecap="round" stroke-linejoin="round"/>
<path d="M38.7355 48.2343L28.0083 42.6143L27.2373 48.6718L37.998 53.989L53.4853 52.1044L54.2564 46.0469L38.7355 48.2343Z" fill="#551615" stroke="#551615" stroke-width="0.3421" stroke-miterlimit="10" stroke-linecap="round" stroke-linejoin="round"/>
<path d="M54.3568 46.0471L54.3232 46.0807L55.9994 45.8115L54.3568 46.0471Z" fill="#551615" stroke="#551615" stroke-width="0.3421" stroke-miterlimit="10" stroke-linecap="round" stroke-linejoin="round"/>
<path d="M62.7036 45.071C64.0445 34.8068 59.2508 25.6868 45.4395 23.8695L41.7856 23.3983C31.5613 22.0522 23.3148 29.4559 21.9739 39.7201L20.4318 51.5997V51.6333C20.4318 51.667 20.3983 51.7006 20.3983 51.7343C20.1637 53.6525 28.6448 59.5081 39.9083 60.9889C51.1719 62.4696 60.8934 59.0033 61.128 57.0851C61.128 57.0515 61.128 57.0515 61.128 57.0178C61.128 56.9842 61.128 56.9842 61.128 56.9505L62.7036 45.071Z" stroke="#551615" stroke-width="0.3801" stroke-miterlimit="10"/>
<path d="M76.0452 93.2619C74.5367 94.8099 71.9219 94.2715 71.1509 92.2523C69.039 86.8005 63.5078 72.4979 63.5078 70.647C63.5078 69.3009 65.8544 68.7624 67.7652 68.5605C69.1731 68.4259 70.514 69.3009 70.9163 70.647C72.6259 76.3344 77.0509 91.0071 76.9838 91.5792C77.0173 91.9158 76.6821 92.6225 76.0452 93.2619Z" fill="#D8B8B3" stroke="#551615" stroke-width="0.3801" stroke-miterlimit="10"/>
<path d="M64.6476 92.6566C65.3851 93.0268 80.5708 87.6087 80.906 86.6327C82.2804 82.729 71.922 49.8162 71.0839 48.7729C70.2459 47.7297 47.6853 56.7824 47.3166 58.1285C46.9813 59.4746 60.759 90.6711 64.6476 92.6566Z" fill="#A0E469" stroke="#551615" stroke-miterlimit="10"/>
<path d="M60.4678 56.6485C67.0451 54.1413 71.8762 50.7846 71.2584 49.1513C70.6406 47.5179 64.8078 48.2264 58.2305 50.7336C51.6532 53.2409 46.8221 56.5975 47.4399 58.2309C48.0577 59.8643 53.8905 59.1558 60.4678 56.6485Z" fill="#59902C"/>
<path d="M60.4678 56.6485C67.0451 54.1413 71.8762 50.7846 71.2584 49.1513C70.6406 47.5179 64.8078 48.2264 58.2305 50.7336C51.6532 53.2409 46.8221 56.5975 47.4399 58.2309C48.0577 59.8643 53.8905 59.1558 60.4678 56.6485Z" stroke="#551615" stroke-miterlimit="10"/>
<path d="M5.01176 88.8868C6.35266 90.3003 8.69923 89.7955 9.4032 87.9782C11.314 83.0648 16.2753 70.2093 16.2753 68.5267C16.2753 67.3152 14.1634 66.844 12.4202 66.6758C11.1464 66.5411 9.93955 67.3488 9.57081 68.5603C8.02878 73.6756 4.07313 86.9013 4.10666 87.3724C4.14018 87.6417 4.44188 88.2811 5.01176 88.8868Z" fill="#D8B8B3" stroke="#551615" stroke-width="0.3801" stroke-miterlimit="10"/>
<path d="M15.0346 88.8532C14.3642 89.156 0.98875 83.4687 0.720571 82.5937C-0.318623 79.0265 10.6767 49.9838 11.5148 49.1088C12.3193 48.2338 32.1311 57.5221 32.3992 58.7336C32.6674 59.9451 18.6551 87.2378 15.0346 88.8532Z" fill="#A0E469" stroke="#551615" stroke-miterlimit="10"/>
<path d="M32.2676 58.905C32.9106 57.4631 28.7471 54.1887 22.9681 51.5915C17.1891 48.9943 11.9831 48.0577 11.34 49.4996C10.697 50.9415 14.8606 54.2158 20.6396 56.8131C26.4186 59.4103 31.6246 60.3469 32.2676 58.905Z" fill="#59902C" stroke="#551615" stroke-miterlimit="10"/>
</g>
<defs>
<clipPath id="clip0_1823_3567">
<rect width="98.5893" height="94.5653" fill="white" transform="translate(0.0166016 0.245117)"/>
</clipPath>
</defs>
</svg>
