<svg xmlns="http://www.w3.org/2000/svg">
<defs>
<font id="EvilEmpire" horiz-adv-x="983" >
  <font-face 
    font-family="Evil Empire"
    font-weight="400"
    font-stretch="normal"
    units-per-em="2048"
    panose-1="2 0 5 0 0 0 0 0 0 0"
    ascent="1638"
    descent="-410"
    x-height="1433"
    cap-height="1433"
    bbox="-455 -418 1740 1793"
    underline-thickness="150"
    underline-position="-292"
    unicode-range="U+001D-F002"
  />
<missing-glyph horiz-adv-x="842" 
d="M262 237l-6 -7q6 -4 7 -6q3 -2 9 -2q4 0 7 4q0 1 2 1q0 1 1 1q1 3 1 5v4q-1 4 -6 7q-2 3 -6 5l-8 -11zM652 276v3q0 3 -3 5q-4 3 -7 3q-4 -1 -10 -6l-2 -5l14 -12l2 2q5 6 6 10zM577 188q2 3 2 5v4q0 4 -2 10l-2 2q-4 7 -8 10q-2 1 -7 1h-2q-3 0 -8 -2q-2 -1 -5 -2
l20 -38q3 2 4 3q6 3 8 7zM439 168h12l-7 18zM184 965h-32v176h560v-176h-31v145h-497v-145zM705 323q6 -4 6 -9q0 -6 -3 -10q-1 -2 -2 -3q-4 -5 -9 -7h-1l-6 3l3 3q4 2 8 5l2 2q1 3 1 5q0 4 -3 6h-1l-3 1l-3 -1q-3 0 -9 -3q-3 -1 -5.5 -2t-3 -1.5t-1.5 -0.5h-3q-3 0 -7 1
q-1 0 -2 1q-4 4 -5 10q0 4 2 9l2 3q3 3 7 6h1l7 -5l-4 -1q-3 -1 -6 -4l-2 -3q-1 -2 -1 -4q0 -3 3 -6q2 0 2 -1h3q2 1 9 4q10 4 13 5h3q3 0 6 -1zM656 269l27 2h3l-5 -7h-1l-29 -2q0 -1 -1 -2l16 -13l-4 -6l-41 34v2q4 6 7 9q7 8 14 8h1q5 0 10 -4q6 -6 7 -11q0 -5 -4 -10z
M619 212l18 14l3 -6l-22 -18l-35 42l24 19l4 -5l-18 -15l9 -11l18 15l4 -6l-17 -14zM582 211q0 -1 1 -2q4 -9 4 -16q-1 -4 -4 -8q-3 -6 -12 -10q-3 -3 -9 -5l-1 -1l-1 2l-24 47l7 3q3 2 4 2q8 5 14 5q6 -1 9 -4q7 -3 11 -12q0 -1 1 -1zM512 209l6 2l13 -53l-5 -1h-1l-33 32
l10 -39l-7 -1l-13 52l5 1l35 -32zM441 198h5l21 -53l-6 -1l-8 17h-17l-5 -18h-8zM384 163l19 35l8 -1l-27 -50l-6 1v2l-2 39l-20 -35l-6 1l-3 56l6 -2l4 -41l19 37l6 -2zM281 250q6 -5 8 -11q1 -5 1 -7q-1 -3 -3 -8v-1l-1 -1q-1 0 -1 -1q-6 -5 -13 -5q-8 0 -14 4q-2 1 -5 4
l-11 -14l-6 4l32 44l3 -2zM248 277l5 -5l-27 -23q-6 -7 -13 -7t-13 7q-5 6 -5 12q0 8 8 14l27 23l4 -5l-26 -22q-5 -5 -6 -8v-2q0 -3 3 -7q4 -4 8 -4h1q4 0 8 4zM213 310l-7 12l-40 -25l-4 7l41 23l-6 11l6 4l17 -29zM393 549v295h32v-327h-62v32h30zM257 549v-32h-48v32h48

<glyph glyph-name=".notdef" horiz-adv-x="842" 
d="M262 237l-6 -7q6 -4 7 -6q3 -2 9 -2q4 0 7 4q0 1 2 1q0 1 1 1q1 3 1 5v4q-1 4 -6 7q-2 3 -6 5l-8 -11zM652 276v3q0 3 -3 5q-4 3 -7 3q-4 -1 -10 -6l-2 -5l14 -12l2 2q5 6 6 10zM577 188q2 3 2 5v4q0 4 -2 10l-2 2q-4 7 -8 10q-2 1 -7 1h-2q-3 0 -8 -2q-2 -1 -5 -2
l20 -38q3 2 4 3q6 3 8 7zM439 168h12l-7 18zM184 965h-32v176h560v-176h-31v145h-497v-145zM705 323q6 -4 6 -9q0 -6 -3 -10q-1 -2 -2 -3q-4 -5 -9 -7h-1l-6 3l3 3q4 2 8 5l2 2q1 3 1 5q0 4 -3 6h-1l-3 1l-3 -1q-3 0 -9 -3q-3 -1 -5.5 -2t-3 -1.5t-1.5 -0.5h-3q-3 0 -7 1
q-1 0 -2 1q-4 4 -5 10q0 4 2 9l2 3q3 3 7 6h1l7 -5l-4 -1q-3 -1 -6 -4l-2 -3q-1 -2 -1 -4q0 -3 3 -6q2 0 2 -1h3q2 1 9 4q10 4 13 5h3q3 0 6 -1zM656 269l27 2h3l-5 -7h-1l-29 -2q0 -1 -1 -2l16 -13l-4 -6l-41 34v2q4 6 7 9q7 8 14 8h1q5 0 10 -4q6 -6 7 -11q0 -5 -4 -10z
M619 212l18 14l3 -6l-22 -18l-35 42l24 19l4 -5l-18 -15l9 -11l18 15l4 -6l-17 -14zM582 211q0 -1 1 -2q4 -9 4 -16q-1 -4 -4 -8q-3 -6 -12 -10q-3 -3 -9 -5l-1 -1l-1 2l-24 47l7 3q3 2 4 2q8 5 14 5q6 -1 9 -4q7 -3 11 -12q0 -1 1 -1zM512 209l6 2l13 -53l-5 -1h-1l-33 32
l10 -39l-7 -1l-13 52l5 1l35 -32zM441 198h5l21 -53l-6 -1l-8 17h-17l-5 -18h-8zM384 163l19 35l8 -1l-27 -50l-6 1v2l-2 39l-20 -35l-6 1l-3 56l6 -2l4 -41l19 37l6 -2zM281 250q6 -5 8 -11q1 -5 1 -7q-1 -3 -3 -8v-1l-1 -1q-1 0 -1 -1q-6 -5 -13 -5q-8 0 -14 4q-2 1 -5 4
l-11 -14l-6 4l32 44l3 -2zM248 277l5 -5l-27 -23q-6 -7 -13 -7t-13 7q-5 6 -5 12q0 8 8 14l27 23l4 -5l-26 -22q-5 -5 -6 -8v-2q0 -3 3 -7q4 -4 8 -4h1q4 0 8 4zM213 310l-7 12l-40 -25l-4 7l41 23l-6 11l6 4l17 -29zM393 549v295h32v-327h-62v32h30zM257 549v-32h-48v32h48
zM604 472v31h54v-31h-54zM209 472v31h48v-31h-48zM498 472h-135v31h135v-31zM658 549v-32h-54v32h54zM440 844h31v-295h27v-32h-58v327zM545 332q-49 -47 -113 -47q-65 0 -111.5 46.5t-46.5 111.5v218h31v-218q0 -53 37.5 -90t89.5 -37q51 0 91 38q36 38 36 89v218h32v-218
q0 -63 -46 -111zM559 1049h32v-281h-32v281zM432 331q-46 0 -79 33t-33 79v218h31v-218q0 -33 24 -56.5t57 -23.5q34 0 58 23.5t24 56.5v218h31v-218q0 -46 -33.5 -79t-79.5 -33zM514 1049h31v-281h-31v281zM351 768h-31v281h31v-281zM305 1049v-281h-31v281h31zM742 807
q0 -35 -25 -59.5t-59 -24.5h-173v32h173q22 0 36.5 15t14.5 37q0 21 -14.5 36.5t-36.5 15.5h-54v31h54q34 0 59 -24.5t25 -58.5zM260 859h-72v-104h191v-32h-222v167h103v-31zM666 965h-32v99h-163v-114h-31v146h226v-131zM393 950v114h-163v-99h-31v131h226v-146h-32z
M498 890v-31h-132v31h132zM658 935q54 0 91.5 -37.5t37.5 -90.5q0 -54 -37.5 -91.5t-91.5 -37.5h-173v31h173q40 0 69 28.5t29 69.5q0 40 -29 68.5t-69 28.5h-54v31h54zM379 678h-191v-26h57v-31h-88v88h222v-31zM366 935h132v-31h-132v31zM260 935v-31h-214v31h214z
M591 1155h-32v69h89v-31h-57v-38zM514 1155v38h-58v31h89v-69h-31zM274 1155v38h-56v31h87v-69h-31zM110 652v207h-64v31h96v-269h-89v31h57zM245 606v-31h-192v31h192zM409 1269v-31h-191v31h191zM648 1269v-31h-192v31h192zM351 1155h-31v69h89v-31h-58v-38z" />
    <glyph glyph-name=".null" horiz-adv-x="0" 
 />
    <glyph glyph-name=".null" horiz-adv-x="0" 
 />
    <glyph glyph-name="nonmarkingreturn" horiz-adv-x="508" 
 />
    <glyph glyph-name="space" unicode=" " horiz-adv-x="459" 
 />
    <glyph glyph-name="space" unicode="&#xa0;" horiz-adv-x="459" 
 />
    <glyph glyph-name="exclam" unicode="!" horiz-adv-x="498" 
d="M319 437h-259l-17 996h294zM190 343l184 -184l-184 -185l-185 185z" />
    <glyph glyph-name="quotedbl" unicode="&#x22;" horiz-adv-x="855" 
d="M618 987q0 67 -28.5 122.5t-64.5 95.5t-64 61l-28 22l185 185l184 -185l-28 -22q-28 -21 -64 -61t-64 -95.5t-28 -122.5zM217 987q0 67 -28.5 122.5t-64.5 95.5t-64 61l-28 22l185 185l184 -185l-28 -22q-28 -21 -64 -61t-64 -95.5t-28 -122.5z" />
    <glyph glyph-name="numbersign" unicode="#" horiz-adv-x="1120" 
d="M657 845l385 37v-146l-408 34l-15 -50l-6 -64l370 36v-147l-378 33l-34 -342l-72 15l-72 14l92 320l-19 1l-79 -6l-36 -365l-144 28l94 330l-319 -28v147l344 -33l15 50l6 52l-306 -25v146l316 -30l37 340l72 -15l72 -14l-96 -319l82 -8l15 1l42 376l144 -28zM561 731
l5 45l-8 1l-104 -9l-21 -70l-5 -46l72 -7l38 4z" />
    <glyph glyph-name="dollar" unicode="$" horiz-adv-x="934" 
d="M434 848l350 -250v-271q0 -128 -83.5 -219.5t-236.5 -105.5l4 -73h-147l4 72h-320v511l235 -17l29 -252q36 0 66 -1h5l17 299l-352 258v308q0 128 83.5 219.5t236.5 104.5l-4 68h147l-4 -66h308l-35 -558l-235 17v299h-50zM279 1078q-1 -13 -1.5 -32t-0.5 -38.5v-33.5
l-1 -13l80 -57l-16 279q-32 -9 -44.5 -33t-16.5 -72zM512 429l-73 53l12 -235q38 7 50 43q11 34 11 108v31z" />
    <glyph glyph-name="ampersand" unicode="&#x26;" horiz-adv-x="1535" 
d="M1430 861v-270l-228 28v-619h-273v635l-461 -20q-99 -80 -169 -135v-73q0 -99 16.5 -142t90.5 -47q71 4 90 46q16 39 16 137v108h295v-210q0 -90 -41.5 -164t-120.5 -118t-190 -44h-97q-111 0 -190 44t-121 118t-42 164l-3 292l55 44q55 43 137 109q-90 76 -192 163v37
q0 36 0.5 83t1 84t0.5 42q6 85 49.5 152.5t120 107.5t182.5 40h97q111 0 190 -44t120.5 -118t41.5 -164v-146h-295v43q0 99 -17.5 139.5t-89.5 44.5q-69 -4 -88 -44q-18 -36 -18 -129v-19q60 -47 117 -94q38 -31 74 -61h441v269h273v-269h228z" />
    <glyph glyph-name="quotesingle" unicode="'" horiz-adv-x="457" 
d="M217 987q0 67 -28.5 122.5t-64.5 95.5t-64 61l-28 22l185 185l184 -185l-28 -22q-28 -21 -64 -61t-64 -95.5t-28 -122.5z" />
    <glyph glyph-name="parenleft" unicode="(" horiz-adv-x="592" 
d="M18 1347q0 90 42 164t120.5 118t190.5 44l104 -1v-241l-54 -2q-66 -4 -87.5 -39.5t-21.5 -123.5v-1102q0 -88 20.5 -122t88.5 -38l54 -2v-241l-104 -1q-112 0 -190.5 44t-120.5 118t-42 164v1261z" />
    <glyph glyph-name="parenright" unicode=")" horiz-adv-x="630" 
d="M475 86q0 -90 -41.5 -164t-120.5 -118t-190 -44l-105 1v241l55 2q67 4 88 39t21 129h-1v1094q0 88 -21.5 123.5t-86.5 39.5l-55 2v241l105 1q111 0 190 -44t120.5 -118t41.5 -164v-1261z" />
    <glyph glyph-name="asterisk" unicode="*" horiz-adv-x="597" 
d="M387 1297l136 15v-108l-157 20l129 -89l-38 -38l-39 -38l-99 138l31 -167h-108l28 169l-96 -140l-39 38l-38 38l139 100l-167 -31v108l143 -24l-115 92l38 39l39 38l83 -108l-15 136h108l-17 -135l85 107l39 -38l38 -39z" />
    <glyph glyph-name="plus" unicode="+" horiz-adv-x="753" 
d="M434 730l249 47v-147l-249 41l-29 -4l-3 -22l47 -250h-147l41 250l-2 15l-273 -30v147l264 -34l-30 268h147l-36 -279z" />
    <glyph glyph-name="comma" unicode="," horiz-adv-x="436" 
d="M102 -117l37 149l-129 127l184 184l92 -92l6 -8q6 -8 14 -21.5t14 -30t6 -32.5q0 -17 -6 -33.5t-14 -29.5t-14 -21l-6 -8z" />
    <glyph glyph-name="hyphen" unicode="-" horiz-adv-x="743" 
d="M5 426v257l366 -22l250 22v-257l-280 52z" />
    <glyph glyph-name="hyphen" unicode="&#xad;" horiz-adv-x="743" 
d="M5 426v257l366 -22l250 22v-257l-280 52z" />
    <glyph glyph-name="period" unicode="." horiz-adv-x="495" 
d="M189 343l184 -184l-184 -185l-185 185z" />
    <glyph glyph-name="slash" unicode="/" horiz-adv-x="776" 
d="M140 -50l-138 49l528 1479l138 -49z" />
    <glyph glyph-name="zero" unicode="0" horiz-adv-x="1014" 
d="M797 1218q4 -14 7.5 -39.5t3.5 -41.5v-835q0 -90 -42 -163.5t-120.5 -117.5t-190.5 -44h-99q-111 0 -190 44t-120.5 117.5t-41.5 163.5v829q0 90 41.5 163.5t120.5 117.5t190 44h99q139 0 227 -66.5t115 -171.5zM297 973v-181q90 64 217 171v10q0 94 -5 146t-27.5 72.5
t-75.5 20.5t-76 -20.5t-28 -72.5t-5 -146zM514 615q-125 -90 -217 -149v-6q0 -94 5 -146t27.5 -72.5t76.5 -20.5t76.5 20.5t27 72.5t4.5 146v155z" />
    <glyph glyph-name="one" unicode="1" horiz-adv-x="505" 
d="M42 1433h294l23 -1433h-293l23 1237l-155 -52l108 247v1z" />
    <glyph glyph-name="two" unicode="2" horiz-adv-x="926" 
d="M432 1457q111 0 190 -44t121 -118t42 -164v-221q-112 -105 -245 -215.5t-233 -189.5v-284h1l210 15l-3 304l234 18l35 -558h-771v619l89 70q88 70 203.5 164t207.5 172v9q0 9 -0.5 22.5t-0.5 28.5q-4 84 -29.5 106.5t-90.5 23.5h-7q-40 -1 -64 -11t-34.5 -49.5
t-10.5 -132.5h-294v109q0 90 41.5 163.5t120.5 117.5t190 44z" />
    <glyph glyph-name="three" unicode="3" horiz-adv-x="944" 
d="M37 1433h771v-523q-59 -56 -126 -114q61 -45 92.5 -111.5t31.5 -144.5v-258h-1q-5 -86 -47.5 -155t-119.5 -109.5t-184 -40.5h-96q-111 0 -190 44t-120.5 117t-41.5 164v102h299v-63l1 -39q7 -42 29.5 -59.5t70.5 -21.5q71 4 89 46q17 38 17 133v36q0 76 -9 117.5
t-43 55.5q-91 -74 -150 -120l-60 -47l-158 221l75 60q75 59 177 142t193 160v190l-234 -18l4 -246l-234 -18z" />
    <glyph glyph-name="four" unicode="4" horiz-adv-x="860" 
d="M419 792h294v-792h-294l20 284h-434v520l34 37q35 37 89 106.5t117 169.5q61 99 90 169t37 106l8 37h324l-23 -64q-24 -63 -62.5 -150.5t-87.5 -165.5q-49 -77 -102.5 -135.5t-91.5 -92.5l-39 -34v-282h2l154 11z" />
    <glyph glyph-name="five" unicode="5" horiz-adv-x="944" 
d="M810 540v-258q-5 -86 -48 -155t-120 -109.5t-184 -40.5h-96q-111 0 -190 44t-120.5 117t-41.5 164v102h299l1 -102q7 -42 29.5 -59.5t70.5 -21.5q71 4 90 46q16 38 16 132v50q0 92 -19 131t-96 41l-1 1h-59l-299 -12v823h741l-35 -500l-234 18l3 247l-176 13v-346h117
q111 0 190 -44t120.5 -117.5t41.5 -163.5z" />
    <glyph glyph-name="six" unicode="6" horiz-adv-x="942" 
d="M361 -23q-112 0 -190.5 44t-120.5 117.5t-42 163.5v829q0 90 42 163.5t120.5 117.5t190.5 44h99q111 0 190 -44t120.5 -117t41.5 -164v-102h-299l-1 102q-7 42 -30 59.5t-72 21.5q-76 -4 -94 -52q-14 -41 -14 -144v-38q28 4 59 4h99q111 0 190 -44t120.5 -117.5
t41.5 -163.5v-355q0 -90 -41.5 -163.5t-120.5 -117.5t-190 -44h-99zM302 460q0 -94 4.5 -144t28 -70.5t75.5 -24.5q53 4 76 24.5t27.5 70.5t4.5 144v39q0 94 -4.5 144t-27.5 70.5t-76 24.5q-52 -4 -75.5 -24.5t-28 -70.5t-4.5 -144v-39z" />
    <glyph glyph-name="seven" unicode="7" horiz-adv-x="885" 
d="M711 543l-174 18q-22 -122 -29 -250q-4 -97 -4 -172q0 -25 1 -82l1 -57h-312l3 94q3 93 11.5 221t24.5 241l-224 -13v248h283q41 122 88 239t75 182l-446 -27v248h743v-270l-24 -53q-24 -54 -58 -138.5t-68 -180.5h217z" />
    <glyph glyph-name="eight" unicode="8" horiz-adv-x="944" 
d="M809 934q0 -115 -68 -203q68 -88 68 -203l-1 -258q-8 -83 -51.5 -149t-119.5 -105t-180 -39h-99q-112 0 -190.5 44t-120.5 117.5t-42 163.5v240h1q4 109 68 189q-69 88 -69 203v197q0 90 42 163.5t120.5 117.5t190.5 44h99q111 0 190 -44t120.5 -117t41.5 -164v-197z
M407 1212q-69 -4 -89 -42q-19 -35 -19 -129v-18q0 -92 19 -128.5t85 -41.5h9q70 4 86 43q13 34 13 123v36l-2 76q-7 42 -30 59.5t-72 21.5zM407 221q71 4 91 44q18 39 18 139v22q0 99 -18 138.5t-87 44.5h-8q-68 -5 -87 -45q-17 -37 -17 -129v-39q0 -94 18.5 -132.5
t89.5 -42.5z" />
    <glyph glyph-name="nine" unicode="9" horiz-adv-x="942" 
d="M458 1456q112 0 190.5 -44t120.5 -117.5t42 -163.5v-829q0 -90 -42 -163.5t-120.5 -117.5t-190.5 -44h-99q-111 0 -190 44t-120.5 117t-41.5 164v102h299l1 -102q7 -42 30 -60t72 -21q76 4 94 52q14 41 14 143v38q-28 -3 -59 -3h-99q-111 0 -190 44t-120.5 117.5
t-41.5 163.5v355q0 90 41.5 163.5t120.5 117.5t190 44h99zM517 973q0 94 -4.5 144t-28 70.5t-75.5 24.5q-53 -4 -76 -24.5t-28 -70.5t-5 -144v-39q0 -94 5 -144t28 -70.5t76 -24.5q52 4 75.5 24.5t28 70.5t4.5 144v39z" />
    <glyph glyph-name="colon" unicode=":" horiz-adv-x="475" 
d="M192 741l-184 184l184 185l184 -185zM192 -22l-184 184l184 185l184 -185z" />
    <glyph glyph-name="semicolon" unicode=";" horiz-adv-x="475" 
d="M192 741l-184 184l184 185l184 -185zM100 -117l37 149l-129 127l184 184l92 -92l6 -8q6 -8 14 -21.5t14 -30t6 -32.5q0 -17 -6 -33.5t-14 -29.5t-14 -21l-6 -8z" />
    <glyph glyph-name="semicolon" unicode="&#x37e;" horiz-adv-x="475" 
d="M192 741l-184 184l184 185l184 -185zM100 -117l37 149l-129 127l184 184l92 -92l6 -8q6 -8 14 -21.5t14 -30t6 -32.5q0 -17 -6 -33.5t-14 -29.5t-14 -21l-6 -8z" />
    <glyph glyph-name="equal" unicode="=" horiz-adv-x="737" 
d="M9 747v147l366 -47l249 47v-147l-249 41zM9 513v146l366 -46l249 46v-146l-249 41z" />
    <glyph glyph-name="question" unicode="?" horiz-adv-x="911" 
d="M446 1457q111 0 190 -44t120.5 -118t41.5 -164v-221q-128 -120 -260 -229l-12 -244h-259l-17 365l72 56q72 55 205 167v9q0 9 -0.5 22.5t-1.5 28.5q-2 58 -11.5 86t-34 36t-74.5 8h-1q-43 0 -68 -8.5t-36 -48.5t-11 -136h-294v109q0 90 41.5 163.5t120.5 117.5t190 44z
M212 159l184 184l185 -184l-185 -185z" />
    <glyph glyph-name="at" unicode="@" horiz-adv-x="1592" 
d="M738 1481q210 0 382.5 -103t275 -275.5t102.5 -381.5q0 -118 -26.5 -207t-65.5 -152t-80 -103q-75 -77 -169.5 -118.5t-194.5 -41.5q-152 0 -261 97q-113 106 -114 283v144l-137 9h-1v-153h-162v138l-61 137h61v79q0 74 51 127t144 53h689v-138l-130 14v-410h-163v412
l-128 -14v-396q0 -80 31.5 -130.5t80.5 -74.5t100 -24q67 0 131 34t116 87q29 29 57.5 76t48 114t19.5 158q0 164 -80.5 302t-216 221.5t-299.5 83.5t-299 -83.5t-215.5 -221.5t-80.5 -302q0 -165 80.5 -303t215.5 -221.5t299 -83.5v-152q-209 0 -381.5 102.5t-275.5 275
t-103 382.5q0 209 103 381.5t275.5 275.5t381.5 103zM449 754h138v125h-1q-23 1 -42 1q-52 0 -71 -10q-24 -13 -24 -76v-40z" />
    <glyph glyph-name="A" unicode="A" 
d="M357 1433h483v-1433h-294v437l-247 16h-1v-453h-294v426l-108 248h108v433q0 90 42 164t120.5 118t190.5 44zM298 674h248v517h-1q-42 2 -76 2q-94 0 -128 -18q-43 -23 -43 -132v-369z" />
    <glyph glyph-name="B" unicode="B" horiz-adv-x="986" 
d="M486 1433q111 0 190 -44t121 -118t42 -164v-221q-54 -51 -121 -105q67 -55 121 -106v-349q0 -90 -42 -164t-121 -118t-190 -44h-483v1433h483zM296 1191v-396q123 83 271 206v13l-1 47q-2 94 -48 114q-38 17 -140 17q-20 0 -43 -1h-39zM567 561q-32 27 -65 53
q-118 -85 -206 -145v-227h72q63 0 105.5 4t64 25.5t25.5 71.5t4 140v78z" />
    <glyph glyph-name="C" unicode="C" horiz-adv-x="766" 
d="M288 1212h-1v-814q0 -111 41 -136q35 -21 139 -21q24 0 52 1h147v-242h-320q-111 0 -190 44t-120.5 118t-41.5 164v1107h672v-248z" />
    <glyph glyph-name="D" unicode="D" horiz-adv-x="946" 
d="M822 1107v-781q0 -90 -42 -164t-121 -118t-190 -44h-466v1433h466q111 0 190 -44t121 -118t42 -164zM297 242q28 -1 51 -1q104 0 139 21q41 24 41 131v647q0 107 -41 131q-35 21 -139 21q-23 0 -51 -1v-949z" />
    <glyph glyph-name="E" unicode="E" horiz-adv-x="872" 
d="M746 1185l-449 27v-538h449v-248l-449 27v-231l449 27v-248h-449l-293 -1v426l-109 248h109v759h742v-248z" />
    <glyph glyph-name="F" unicode="F" horiz-adv-x="766" 
d="M685 1185l-390 27v-538h390v-248l-390 27v-453h-294v426l-108 248h108v759h684v-248z" />
    <glyph glyph-name="G" unicode="G" horiz-adv-x="921" 
d="M414 471l-87 198l448 1v-670h-438q-111 0 -189.5 44t-120.5 118t-42 164v781q0 90 42 164t120.5 118t189.5 44h438l-35 -558l-234 17v293h-20q-70 0 -114 -6t-64.5 -23.5t-24.5 -50.5t-4 -87v-569q1 -129 46 -169q44 -38 151 -38h6v232z" />
    <glyph glyph-name="H" unicode="H" horiz-adv-x="986" 
d="M545 1433h293v-1433h-293v437l-248 16h-1v-453h-294v426l-108 248h108v759h294v-759h249v759z" />
    <glyph glyph-name="I" unicode="I" horiz-adv-x="666" 
d="M545 1233l-148 6v-1030l148 -3v-206h-547l-87 186l192 14v1039l-105 -5l-87 198l634 1v-200z" />
    <glyph glyph-name="J" unicode="J" horiz-adv-x="730" 
d="M584 1433v-1107q0 -90 -42 -164t-121 -118t-190 -44l-280 1v505h235l-18 -263q76 2 100 37q22 33 22 124v837l-216 -7l-87 198h303v1h294z" />
    <glyph glyph-name="K" unicode="K" horiz-adv-x="944" 
d="M570 0l-147 381q-70 -48 -125 -85v-296h-293v1433h293v-810q90 65 212 168v642h289v-757q-56 -53 -124 -108l210 -568h-315z" />
    <glyph glyph-name="L" unicode="L" horiz-adv-x="743" 
d="M657 558l35 -558h-688v1433h293v-1212h2l127 9l-3 310z" />
    <glyph glyph-name="M" unicode="M" horiz-adv-x="1414" 
d="M907 1433h358v-1433h-294v1132l-190 -209v-923h-294v923l-190 209v-1132h-293v1433h357l273 -269z" />
    <glyph glyph-name="N" unicode="N" horiz-adv-x="939" 
d="M502 1433h293v-1433h-293v723l-212 281v-1004h-289v1435l283 -1l7 -8l211 -279v286z" />
    <glyph glyph-name="O" unicode="O" horiz-adv-x="926" 
d="M777 1218q4 -14 7.5 -39.5t3.5 -41.5v-835q0 -90 -42 -163.5t-120.5 -117.5t-190.5 -44h-99q-111 0 -190 44t-120.5 117.5t-41.5 163.5v829q0 90 41.5 163.5t120.5 117.5t190 44h99q139 0 227 -66.5t115 -171.5zM494 973q0 94 -5 146t-27.5 72.5t-75.5 20.5t-76 -20.5
t-28 -72.5t-5 -146v-513q0 -94 5 -146t27.5 -72.5t76.5 -20.5t76.5 20.5t27 72.5t4.5 146v513z" />
    <glyph glyph-name="P" unicode="P" horiz-adv-x="902" 
d="M429 1433q112 0 190.5 -44t120.5 -118t42 -164v-425q-103 -96 -237 -197.5t-248 -180.5v-304h-294v1433h426zM511 796v154q0 88 -4 137t-23.5 71.5t-63.5 28.5q-37 4 -98 4h-25v-565q108 67 214 170z" />
    <glyph glyph-name="Q" unicode="Q" horiz-adv-x="952" 
d="M456 1456q111 0 190 -44t121 -117.5t42 -163.5v-806q-42 -39 -91 -80l91 -245l-272 -109l-65 167q-26 -18 -50 -36q-35 -23 -66 -44q-166 4 -258.5 97t-92.5 227v829q0 90 41.5 163.5t120.5 117.5t190 44h99zM515 436v554q1 21 1 40q0 96 -14 139t-95 43
q-54 0 -76.5 -20.5t-27.5 -72.5t-5 -146v-513q0 -70 2 -114.5t12 -70.5q86 63 203 161z" />
    <glyph glyph-name="R" unicode="R" horiz-adv-x="920" 
d="M495 -3l-99 377q-52 -38 -99 -70v-304h-294v1433h426q112 0 190.5 -44t120.5 -118t42 -164v-425q-59 -56 -133 -116l150 -569h-304zM297 1191v-565q108 67 213 170v154q0 88 -3.5 137t-23 71.5t-63.5 28.5q-37 4 -98 4h-25z" />
    <glyph glyph-name="S" unicode="S" horiz-adv-x="868" 
d="M716 875l-234 17v299h-6q-24 1 -44 1q-94 0 -132 -16t-41 -98q-1 -13 -1.5 -32t-1 -38.5t-0.5 -32.5v-14l507 -363v-271q0 -90 -42 -164t-120.5 -118t-189.5 -44h-426v511l234 -17l29 -252q37 0 67 -1q21 -1 39 -1q48 0 81 6.5t45 43t12 120.5v18l-507 370v308
q0 90 41.5 164t120.5 118t190 44h414z" />
    <glyph glyph-name="T" unicode="T" horiz-adv-x="776" 
d="M699 1433v-248l-234 24v-1209h-294v1214l-249 -29v248h777z" />
    <glyph glyph-name="U" unicode="U" horiz-adv-x="978" 
d="M544 1433h293v-1433h-483q-111 0 -190 44t-120.5 118t-41.5 164v1107h293v-1035q0 -111 42 -136q38 -22 148 -22q21 0 45 1h14v1192z" />
    <glyph glyph-name="V" unicode="V" horiz-adv-x="981" 
d="M546 1433h294v-1184l-418 -305l-418 305v936l-108 248h402v-1038l124 -88l124 88v1038z" />
    <glyph glyph-name="W" unicode="W" horiz-adv-x="1407" 
d="M968 1433h294v-1152l-301 -305l-183 180v-124l-294 -58v182l-183 -180l-301 305v1152h294v-1100l190 209v687l-89 204h383v-891l190 -209v1100z" />
    <glyph glyph-name="X" unicode="X" horiz-adv-x="986" 
d="M545 1433h294v-783l-167 -121l-1 -1l1 -1l167 -122v-405h-294v259l-124 89l-124 -89v-259h-294v405l167 122l1 1l-1 1l-167 121v783h294v-636l124 -89l124 89v636z" />
    <glyph glyph-name="Y" unicode="Y" horiz-adv-x="937" 
d="M816 1433v-783l-271 -197v-453h-294v453l-271 197v783h294v-636l124 -89l124 89v636h294z" />
    <glyph glyph-name="Z" unicode="Z" horiz-adv-x="894" 
d="M500 623l-186 -404l433 26v-248h-742l-2 248l168 366l-166 -10v248h275l166 362l-441 -26v248h742v-270l-144 -314h211l-108 -248z" />
    <glyph glyph-name="bracketleft" unicode="[" horiz-adv-x="699" 
d="M600 1631l-86 -198l-216 7v-1443l216 7l86 -199h-596v1827z" />
    <glyph glyph-name="backslash" unicode="\" horiz-adv-x="776" 
d="M530 -50l-528 1479l138 49l528 -1479z" />
    <glyph glyph-name="bracketright" unicode="]" horiz-adv-x="699" 
d="M4 1631l596 1v-1827h-596l87 199l216 -7v1443l-216 -7z" />
    <glyph glyph-name="underscore" unicode="_" horiz-adv-x="962" 
d="M2 -99v147l484 -47l483 47v-147l-483 41z" />
    <glyph glyph-name="grave" unicode="`" horiz-adv-x="937" 
d="M815 1451q-145 31 -226 36t-126 5q-39 0 -69 -3q-67 -7 -98 -16l-32 -10l-153 142l208 76l24 -24q23 -24 78.5 -59.5t152 -75t241.5 -71.5z" />
    <glyph glyph-name="a" unicode="a" 
d="M357 1433h483v-1433h-294v437l-247 16h-1v-453h-294v426l-108 248h108v433q0 90 42 164t120.5 118t190.5 44zM298 674h248v517h-1q-42 2 -76 2q-94 0 -128 -18q-43 -23 -43 -132v-369z" />
    <glyph glyph-name="b" unicode="b" horiz-adv-x="986" 
d="M486 1433q111 0 190 -44t121 -118t42 -164v-221q-54 -51 -121 -105q67 -55 121 -106v-349q0 -90 -42 -164t-121 -118t-190 -44h-483v1433h483zM296 1191v-396q123 83 271 206v13l-1 47q-2 94 -48 114q-38 17 -140 17q-20 0 -43 -1h-39zM567 561q-32 27 -65 53
q-118 -85 -206 -145v-227h72q63 0 105.5 4t64 25.5t25.5 71.5t4 140v78z" />
    <glyph glyph-name="c" unicode="c" horiz-adv-x="766" 
d="M288 1212h-1v-814q0 -111 41 -136q35 -21 139 -21q24 0 52 1h147v-242h-320q-111 0 -190 44t-120.5 118t-41.5 164v1107h672v-248z" />
    <glyph glyph-name="d" unicode="d" horiz-adv-x="946" 
d="M822 1107v-781q0 -90 -42 -164t-121 -118t-190 -44h-466v1433h466q111 0 190 -44t121 -118t42 -164zM297 242q28 -1 51 -1q104 0 139 21q41 24 41 131v647q0 107 -41 131q-35 21 -139 21q-23 0 -51 -1v-949z" />
    <glyph glyph-name="e" unicode="e" horiz-adv-x="872" 
d="M746 1185l-449 27v-538h449v-248l-449 27v-231l449 27v-248h-449l-293 -1v426l-109 248h109v759h742v-248z" />
    <glyph glyph-name="f" unicode="f" horiz-adv-x="766" 
d="M685 1185l-390 27v-538h390v-248l-390 27v-453h-294v426l-108 248h108v759h684v-248z" />
    <glyph glyph-name="g" unicode="g" horiz-adv-x="921" 
d="M414 471l-87 198l448 1v-670h-438q-111 0 -189.5 44t-120.5 118t-42 164v781q0 90 42 164t120.5 118t189.5 44h438l-35 -558l-234 17v293h-20q-70 0 -114 -6t-64.5 -23.5t-24.5 -50.5t-4 -87v-569q1 -129 46 -169q44 -38 151 -38h6v232z" />
    <glyph glyph-name="h" unicode="h" horiz-adv-x="986" 
d="M545 1433h293v-1433h-293v437l-248 16h-1v-453h-294v426l-108 248h108v759h294v-759h249v759z" />
    <glyph glyph-name="i" unicode="i" horiz-adv-x="666" 
d="M545 1233l-148 6v-1030l148 -3v-206h-547l-87 186l192 14v1039l-105 -5l-87 198l634 1v-200z" />
    <glyph glyph-name="j" unicode="j" horiz-adv-x="730" 
d="M584 1433v-1107q0 -90 -42 -164t-121 -118t-190 -44l-280 1v505h235l-18 -263q76 2 100 37q22 33 22 124v837l-216 -7l-87 198h303v1h294z" />
    <glyph glyph-name="k" unicode="k" horiz-adv-x="944" 
d="M570 0l-147 381q-70 -48 -125 -85v-296h-293v1433h293v-810q90 65 212 168v642h289v-757q-56 -53 -124 -108l210 -568h-315z" />
    <glyph glyph-name="l" unicode="l" horiz-adv-x="743" 
d="M657 558l35 -558h-688v1433h293v-1212h2l127 9l-3 310z" />
    <glyph glyph-name="m" unicode="m" horiz-adv-x="1414" 
d="M907 1433h358v-1433h-294v1132l-190 -209v-923h-294v923l-190 209v-1132h-293v1433h357l273 -269z" />
    <glyph glyph-name="n" unicode="n" horiz-adv-x="939" 
d="M502 1433h293v-1433h-293v723l-212 281v-1004h-289v1435l283 -1l7 -8l211 -279v286z" />
    <glyph glyph-name="o" unicode="o" horiz-adv-x="926" 
d="M777 1218q4 -14 7.5 -39.5t3.5 -41.5v-835q0 -90 -42 -163.5t-120.5 -117.5t-190.5 -44h-99q-111 0 -190 44t-120.5 117.5t-41.5 163.5v829q0 90 41.5 163.5t120.5 117.5t190 44h99q139 0 227 -66.5t115 -171.5zM494 973q0 94 -5 146t-27.5 72.5t-75.5 20.5t-76 -20.5
t-28 -72.5t-5 -146v-513q0 -94 5 -146t27.5 -72.5t76.5 -20.5t76.5 20.5t27 72.5t4.5 146v513z" />
    <glyph glyph-name="p" unicode="p" horiz-adv-x="902" 
d="M429 1433q112 0 190.5 -44t120.5 -118t42 -164v-425q-103 -96 -237 -197.5t-248 -180.5v-304h-294v1433h426zM511 796v154q0 88 -4 137t-23.5 71.5t-63.5 28.5q-37 4 -98 4h-25v-565q108 67 214 170z" />
    <glyph glyph-name="q" unicode="q" horiz-adv-x="952" 
d="M456 1456q111 0 190 -44t121 -117.5t42 -163.5v-806q-42 -39 -91 -80l91 -245l-272 -109l-65 167q-26 -18 -50 -36q-35 -23 -66 -44q-166 4 -258.5 97t-92.5 227v829q0 90 41.5 163.5t120.5 117.5t190 44h99zM515 436v554q1 21 1 40q0 96 -14 139t-95 43
q-54 0 -76.5 -20.5t-27.5 -72.5t-5 -146v-513q0 -70 2 -114.5t12 -70.5q86 63 203 161z" />
    <glyph glyph-name="r" unicode="r" horiz-adv-x="920" 
d="M495 -3l-99 377q-52 -38 -99 -70v-304h-294v1433h426q112 0 190.5 -44t120.5 -118t42 -164v-425q-59 -56 -133 -116l150 -569h-304zM297 1191v-565q108 67 213 170v154q0 88 -3.5 137t-23 71.5t-63.5 28.5q-37 4 -98 4h-25z" />
    <glyph glyph-name="s" unicode="s" horiz-adv-x="868" 
d="M716 875l-234 17v299h-6q-24 1 -44 1q-94 0 -132 -16t-41 -98q-1 -13 -1.5 -32t-1 -38.5t-0.5 -32.5v-14l507 -363v-271q0 -90 -42 -164t-120.5 -118t-189.5 -44h-426v511l234 -17l29 -252q37 0 67 -1q21 -1 39 -1q48 0 81 6.5t45 43t12 120.5v18l-507 370v308
q0 90 41.5 164t120.5 118t190 44h414z" />
    <glyph glyph-name="t" unicode="t" horiz-adv-x="776" 
d="M699 1433v-248l-234 24v-1209h-294v1214l-249 -29v248h777z" />
    <glyph glyph-name="u" unicode="u" horiz-adv-x="978" 
d="M544 1433h293v-1433h-483q-111 0 -190 44t-120.5 118t-41.5 164v1107h293v-1035q0 -111 42 -136q38 -22 148 -22q21 0 45 1h14v1192z" />
    <glyph glyph-name="v" unicode="v" horiz-adv-x="981" 
d="M546 1433h294v-1184l-418 -305l-418 305v936l-108 248h402v-1038l124 -88l124 88v1038z" />
    <glyph glyph-name="w" unicode="w" horiz-adv-x="1407" 
d="M968 1433h294v-1152l-301 -305l-183 180v-124l-294 -58v182l-183 -180l-301 305v1152h294v-1100l190 209v687l-89 204h383v-891l190 -209v1100z" />
    <glyph glyph-name="x" unicode="x" horiz-adv-x="986" 
d="M545 1433h294v-783l-167 -121l-1 -1l1 -1l167 -122v-405h-294v259l-124 89l-124 -89v-259h-294v405l167 122l1 1l-1 1l-167 121v783h294v-636l124 -89l124 89v636z" />
    <glyph glyph-name="y" unicode="y" 
d="M836 1433v-783l-271 -197v-453h-294v453l-271 197v783h294v-636l124 -89l124 89v636h294z" />
    <glyph glyph-name="z" unicode="z" horiz-adv-x="894" 
d="M500 623l-186 -404l433 26v-248h-742l-2 248l168 366l-166 -10v248h275l166 362l-441 -26v248h742v-270l-144 -314h211l-108 -248z" />
    <glyph glyph-name="braceleft" unicode="{" horiz-adv-x="671" 
d="M148 1347q0 90 42 164t121 118t190 44l104 -1v-241l-54 -2q-66 -3 -87.5 -46t-21.5 -170v-326l-117 -160l117 -164v-399q0 -88 20.5 -122t88.5 -38l54 -2v-241l-104 -1q-111 0 -190 44t-121 118t-42 164v461l-175 180l175 164v456z" />
    <glyph glyph-name="bar" unicode="|" horiz-adv-x="350" 
d="M233 -71h-147v1570h147v-1570z" />
    <glyph glyph-name="braceright" unicode="}" horiz-adv-x="684" 
d="M460 1347v-456l175 -164l-175 -180v-461q0 -90 -42 -164t-120.5 -118t-189.5 -44l-105 1v241l54 2q68 4 89 39q20 33 20 121v399l117 164l-117 160v326q0 127 -21.5 170t-87.5 46l-54 2v241l105 1q111 0 189.5 -44t120.5 -118t42 -164z" />
    <glyph glyph-name="asciitilde" unicode="~" horiz-adv-x="959" 
d="M724 1718l117 -248l-214 144l-27 -18q-27 -19 -66.5 -45t-80.5 -48.5t-70 -32.5q-31 -10 -63 -10v-60h-20v59q-16 1 -30 2v-61h-25v64l-30 6l-108 248l163 -105l37 14q36 14 87.5 33t100.5 35.5t78 22.5q38 6 71 6q34 0 57 -3zM666 1641q9 0 15.5 6.5t6.5 15.5t-6.5 15.5
t-15.5 6.5t-15.5 -6.5t-6.5 -15.5t6.5 -15.5t15.5 -6.5zM712 1651q5 0 9 3.5t4 8.5t-4 8.5t-9 3.5t-8.5 -3.5t-3.5 -8.5t3.5 -8.5t8.5 -3.5z" />
    <glyph glyph-name="exclamdown" unicode="&#xa1;" horiz-adv-x="498" 
d="M319 996l18 -996h-294l17 996h259zM190 1090l-185 184l185 185l184 -185z" />
    <glyph glyph-name="sterling" unicode="&#xa3;" horiz-adv-x="1087" 
d="M952 0h-818v562l-193 -17v147l193 -18v78l-193 -16v146l193 -18v267q0 90 42 163.5t121 117.5t190 44h99q111 0 190 -44t121 -117.5t42 -163.5v-159h-288l-6 1q0 94 -5 144t-28 70.5t-75 24.5q-53 -4 -76 -24.5t-28 -70.5t-5 -144v-137l479 46v-146l-479 40v-130l479 46
v-147l-479 41v-365l258 16l-4 198l235 18z" />
    <glyph glyph-name="yen" unicode="&#xa5;" horiz-adv-x="998" 
d="M568 659l347 33v-147l-347 30v-118l347 33v-147l-347 30v-374h-294v372l-326 -28v147l326 -31v114l-326 -28v147l326 -31v25l-271 198v549h293v-403l125 -89l124 89v403h294v-549l-271 -198v-27z" />
    <glyph glyph-name="dieresis" unicode="&#xa8;" horiz-adv-x="827" 
d="M235 1462l-150 151l150 150l150 -150zM554 1462l-150 151l150 150l150 -150z" />
    <glyph glyph-name="copyright" unicode="&#xa9;" horiz-adv-x="1366" 
d="M413 617q29 0 41 28l42 -21q-14 -24 -37 -38t-51 -14q-45 0 -72 27t-27 76q0 47 27 76q28 28 71 28q61 0 87 -49l-44 -23q-7 15 -17 21q-11 6 -20 6q-44 0 -44 -59q0 -27 11 -43q11 -15 33 -15zM1038 798q-47 0 -47 47t47 47q46 0 46 -47t-46 -47zM1107 781q7 0 15 -6
q6 -7 6 -16v-136h-38v-162h-103v162h-38v136q0 9 5 16q6 6 16 6h137zM221 617q29 0 41 28l41 -21q-13 -24 -36 -38q-24 -14 -52 -14q-44 0 -71 27q-28 27 -28 76q0 47 28 76q27 28 70 28q62 0 88 -49l-44 -23q-8 15 -18 21t-19 6q-45 0 -45 -59q0 -27 12 -43q11 -15 33 -15z
M501 485q78 76 78 190q0 55 -21 105q-19 49 -58 88q-81 80 -194 80t-192 -79q-39 -41 -60 -90t-21 -104q0 -54 21 -103t60 -89q40 -39 89 -59q50 -21 103 -21q54 0 105 22q49 20 90 60zM1232 485q79 76 79 192q0 113 -80 192q-79 80 -192 80q-114 0 -192 -80
q-82 -83 -82 -192q0 -111 81 -192q80 -81 193 -81q111 0 193 81zM543 910q47 -46 71 -107q25 -60 25 -128t-24 -128t-71 -106q-49 -48 -110 -73q-63 -26 -128 -26q-67 0 -127 26q-61 25 -108 72q-48 49 -73 109t-25 126t25 127q26 61 74 109q94 97 234 97q139 0 237 -98z
M1274 913q97 -97 97 -236q0 -141 -95 -234q-101 -100 -239 -100q-134 0 -234 98q-98 99 -98 236q0 136 98 236q97 96 234 96q141 0 237 -96z" />
    <glyph glyph-name="guillemotleft" unicode="&#xab;" horiz-adv-x="666" 
d="M495 694l6 -36q5 -37 17 -88.5t30.5 -100.5t45.5 -77q-38 38 -73 72.5t-59 57.5l-24 22l-150 150l75 76l75 75l24 23q24 24 59 59.5t73 73.5q-28 -29 -46.5 -79t-30.5 -102t-17 -89zM227 694l6 -36q5 -37 17 -88.5t30.5 -100.5t45.5 -77q-38 38 -73 72.5t-59 57.5l-24 22
l-150 150l75 76l75 75l24 23q24 24 59 59.5t73 73.5q-28 -29 -46.5 -79t-30.5 -102t-17 -89z" />
    <glyph glyph-name="registered" unicode="&#xae;" horiz-adv-x="1366" 
d="M413 617q29 0 41 28l42 -21q-14 -24 -37 -38t-51 -14q-45 0 -72 27t-27 76q0 47 27 76q28 28 71 28q61 0 87 -49l-44 -23q-7 15 -17 21q-11 6 -20 6q-44 0 -44 -59q0 -27 11 -43q11 -15 33 -15zM1038 798q-47 0 -47 47t47 47q46 0 46 -47t-46 -47zM1107 781q7 0 15 -6
q6 -7 6 -16v-136h-38v-162h-103v162h-38v136q0 9 5 16q6 6 16 6h137zM221 617q29 0 41 28l41 -21q-13 -24 -36 -38q-24 -14 -52 -14q-44 0 -71 27q-28 27 -28 76q0 47 28 76q27 28 70 28q62 0 88 -49l-44 -23q-8 15 -18 21t-19 6q-45 0 -45 -59q0 -27 12 -43q11 -15 33 -15z
M501 485q78 76 78 190q0 55 -21 105q-19 49 -58 88q-81 80 -194 80t-192 -79q-39 -41 -60 -90t-21 -104q0 -54 21 -103t60 -89q40 -39 89 -59q50 -21 103 -21q54 0 105 22q49 20 90 60zM1232 485q79 76 79 192q0 113 -80 192q-79 80 -192 80q-114 0 -192 -80
q-82 -83 -82 -192q0 -111 81 -192q80 -81 193 -81q111 0 193 81zM543 910q47 -46 71 -107q25 -60 25 -128t-24 -128t-71 -106q-49 -48 -110 -73q-63 -26 -128 -26q-67 0 -127 26q-61 25 -108 72q-48 49 -73 109t-25 126t25 127q26 61 74 109q94 97 234 97q139 0 237 -98z
M1274 913q97 -97 97 -236q0 -141 -95 -234q-101 -100 -239 -100q-134 0 -234 98q-98 99 -98 236q0 136 98 236q97 96 234 96q141 0 237 -96z" />
    <glyph glyph-name="plusminus" unicode="&#xb1;" horiz-adv-x="753" 
d="M703 179l-366 41l-249 -41v147l249 -47l366 47v-147zM454 730l249 47v-147l-249 41l-29 -4l-3 -22l47 -250h-147l41 250l-2 15l-273 -30v147l264 -34l-30 268h147l-36 -279z" />
    <glyph glyph-name="uni00B2" unicode="&#xb2;" horiz-adv-x="589" 
d="M251 1717q62 0 106.5 -25t68 -66.5t23.5 -91.5v-124q-63 -59 -138 -121t-131 -106v-160h1l118 8l-2 171l132 10l19 -313h-433v347l50 40q50 39 115 91.5t116 96.5v5v12.5t-1 16.5q-2 47 -16.5 60t-50.5 13h-4q-22 -1 -35.5 -6.5t-19.5 -27.5t-6 -74h-165v61
q0 50 23.5 91.5t67.5 66t106 24.5z" />
    <glyph glyph-name="uni00B3" unicode="&#xb3;" horiz-adv-x="589" 
d="M21 1711h433v-293q-33 -32 -71 -64q34 -26 52 -63t18 -81v-145h-1q-2 -48 -26 -86.5t-67.5 -61.5t-103.5 -23h-54q-62 0 -106.5 24.5t-67.5 65.5t-24 92v57h169v-57q4 -23 16.5 -33t39.5 -12q40 2 50 26q10 21 10 76v10q0 49 -5 73.5t-24 32.5q-51 -42 -84 -68l-34 -26
l-89 124l42 34q42 33 99.5 79.5t108.5 89.5l-1 107l-130 -10l2 -138l-132 -10z" />
    <glyph glyph-name="acute" unicode="&#xb4;" horiz-adv-x="1024" 
d="M121 1451q145 32 241.5 71.5t152 75t79.5 59.5l23 24l208 -76l-153 -142l-31 10q-32 9 -80.5 14t-87.5 5q-45 0 -102 -4q-104 -6 -250 -37z" />
    <glyph glyph-name="cedilla" unicode="&#xb8;" horiz-adv-x="766" 
d="M376 5v-52h57l106 -182l-106 -183h-211l-77 133l87 50l48 -83h95l48 83l-48 82h-95v152h96z" />
    <glyph glyph-name="uni00B9" unicode="&#xb9;" horiz-adv-x="388" 
d="M65 1713h165l13 -804h-165l13 694l-87 -29z" />
    <glyph glyph-name="guillemotright" unicode="&#xbb;" horiz-adv-x="666" 
d="M119 694l-5 37q-5 37 -17 89t-30.5 102t-46.5 79q38 -38 73 -73.5t59 -59.5l24 -23l75 -75l75 -76l-150 -150l-24 -22q-24 -23 -59.5 -57.5t-72.5 -72.5q27 28 45.5 77t30.5 100.5t17 88.5zM387 694l-5 37q-5 37 -17 89t-30.5 102t-46.5 79q38 -38 73 -73.5t59 -59.5
l24 -23l75 -75l75 -76l-150 -150l-24 -22q-24 -23 -59.5 -57.5t-72.5 -72.5q27 28 45.5 77t30.5 100.5t17 88.5z" />
    <glyph glyph-name="onequarter" unicode="&#xbc;" horiz-adv-x="1337" 
d="M74 107l-104 104l1111 1110l104 -104zM105 1430h165l13 -804h-165l13 694l-87 -29zM908 443h165v-444h-165l11 159h-243v292l19 21q19 21 49.5 60t66.5 95q34 56 50 95t21 59l4 21h182l-13 -36q-13 -35 -35 -84t-49 -94q-27 -42 -57 -75t-52 -52l-21 -20v-158l87 7z" />
    <glyph glyph-name="onehalf" unicode="&#xbd;" horiz-adv-x="1393" 
d="M80 107l-104 104l1111 1110l104 -104zM142 1430h165l13 -804h-165l13 694l-87 -29zM1037 817q62 0 106.5 -25t68 -66.5t23.5 -91.5v-124q-63 -59 -138 -121t-131 -106v-160h1l118 8l-2 171l132 10l19 -313h-433v347l50 40q50 39 115 91.5t116 96.5v5v12.5t-1 16.5
q-2 47 -16.5 60t-50.5 13h-4q-22 -1 -35.5 -6.5t-19.5 -27.5t-6 -74h-165v61q0 50 23.5 91.5t67.5 66t106 24.5z" />
    <glyph glyph-name="threequarters" unicode="&#xbe;" horiz-adv-x="350" 
d="M-343 107l-104 104l1111 1110l104 -104zM-437 1430h433v-293q-33 -32 -71 -64q34 -26 52 -63t18 -81v-145h-1q-2 -48 -26 -86.5t-67.5 -61.5t-103.5 -23h-54q-62 0 -106.5 24.5t-67.5 65.5t-24 92v57h169v-57q4 -23 16.5 -33t39.5 -12q40 2 50 26q10 21 10 76v10
q0 49 -5 73.5t-24 32.5q-51 -42 -84 -68l-34 -26l-89 124l42 34q42 33 99.5 79.5t108.5 89.5l-1 107l-130 -10l2 -138l-132 -10zM488 445h165v-444h-165l11 159h-243v292l19 21q19 21 49.5 60t66.5 95q34 56 50 95t21 59l4 21h182l-13 -36q-13 -35 -35 -84t-49 -94
q-27 -42 -57 -75t-52 -52l-21 -20v-158l87 7z" />
    <glyph glyph-name="questiondown" unicode="&#xbf;" horiz-adv-x="911" 
d="M357 -26q-111 0 -190 44t-120.5 118t-41.5 164v221q128 119 260 229l12 244h259l17 -366l-72 -55q-72 -55 -205 -167v-9q0 -9 0.5 -22.5t1.5 -28.5q2 -58 11.5 -86t34 -36t74.5 -8h1q43 0 68 8.5t36 48.5t11 136h294v-109q0 -90 -41.5 -163.5t-120.5 -117.5t-190 -44z
M591 1272l-185 -184l-184 184l184 185z" />
    <glyph glyph-name="Agrave" unicode="&#xc0;" 
d="M357 1433h483v-1433h-294v437l-247 16h-1v-453h-294v426l-108 248h108v433q0 90 42 164t120.5 118t190.5 44zM298 674h248v517h-1q-42 2 -76 2q-94 0 -128 -18q-43 -23 -43 -132v-369zM755 1451q-145 31 -226 36t-126 5q-39 0 -69 -3q-67 -7 -98 -16l-32 -10l-153 142
l208 76l24 -24q23 -24 78.5 -59.5t152 -75t241.5 -71.5z" />
    <glyph glyph-name="Aacute" unicode="&#xc1;" 
d="M357 1433h483v-1433h-294v437l-247 16h-1v-453h-294v426l-108 248h108v433q0 90 42 164t120.5 118t190.5 44zM298 674h248v517h-1q-42 2 -76 2q-94 0 -128 -18q-43 -23 -43 -132v-369zM121 1451q145 32 241.5 71.5t152 75t79.5 59.5l23 24l208 -76l-153 -142l-31 10
q-32 9 -80.5 14t-87.5 5q-45 0 -102 -4q-104 -6 -250 -37z" />
    <glyph glyph-name="Acircumflex" unicode="&#xc2;" 
d="M357 1433h483v-1433h-294v437l-247 16h-1v-453h-294v426l-108 248h108v433q0 90 42 164t120.5 118t190.5 44zM298 674h248v517h-1q-42 2 -76 2q-94 0 -128 -18q-43 -23 -43 -132v-369zM458 1548l-37 -5q-37 -5 -89 -16.5t-102 -30.5t-79 -47q38 38 73.5 73t59.5 59l23 24
l76 75l75 75l150 -150l22 -24q23 -24 58 -59l73 -73q-28 27 -77.5 45.5t-101 30.5t-88.5 18z" />
    <glyph glyph-name="Atilde" unicode="&#xc3;" 
d="M298 674h248v517h-1q-42 2 -76 2q-94 0 -128 -18q-43 -23 -43 -132v-369zM636 1641q9 0 15.5 6.5t6.5 15.5t-6.5 15.5t-15.5 6.5t-15.5 -6.5t-6.5 -15.5t6.5 -15.5t15.5 -6.5zM682 1651q5 0 9 3.5t4 8.5t-4 8.5t-9 3.5t-8.5 -3.5t-3.5 -8.5t3.5 -8.5t8.5 -3.5zM290 1429
q32 4 67 4h483v-1433h-294v437l-247 16h-1v-453h-294v426l-108 248h108v433q0 90 42 164t121 118q22 13 48 22v53l-30 6l-108 248l163 -105h1l1 1q5 2 35 13q36 14 87.5 33t100.5 35.5t78 22.5q38 6 72 6q33 0 56 -3q16 -2 21 -3h2l117 -248l-214 144q-1 0 -1 -1
q-5 -3 -26 -17q-27 -19 -66.5 -45t-80.5 -48.5t-70 -32.5q-31 -10 -63 -10v-31zM240 1419q15 4 30 6v34q-16 1 -30 2v-42z" />
    <glyph glyph-name="Adieresis" unicode="&#xc4;" 
d="M357 1433h483v-1433h-294v437l-247 16h-1v-453h-294v426l-108 248h108v433q0 90 42 164t120.5 118t190.5 44zM298 674h248v517h-1q-42 2 -76 2q-94 0 -128 -18q-43 -23 -43 -132v-369zM290 1462l-150 151l150 150l150 -150zM609 1462l-150 151l150 150l150 -150z" />
    <glyph glyph-name="Aring" unicode="&#xc5;" 
d="M357 1433h483v-1433h-294v437l-247 16h-1v-453h-294v426l-108 248h108v433q0 90 42 164t120.5 118t190.5 44zM298 674h248v517h-1q-42 2 -76 2q-94 0 -128 -18q-43 -23 -43 -132v-369zM538 1793l93 -162l-93 -161h-187l-93 161l93 162h187zM499 1537l55 94l-55 95h-109
l-54 -95l54 -94h109z" />
    <glyph glyph-name="AE" unicode="&#xc6;" horiz-adv-x="1426" 
d="M841 1212h-1v-538h448v-248l-447 27h-1v-231h1l447 27v-248l-742 -1v426l-5 11l-242 16h-1v-453h-294v426l-108 248h108v433q0 90 42 164t120.5 118t189.5 44h932v-248zM298 674h248v517h-1q-42 2 -76 2q-94 0 -128 -18q-43 -23 -43 -132v-369z" />
    <glyph glyph-name="Ccedilla" unicode="&#xc7;" horiz-adv-x="766" 
d="M285 1212h-1v-814q0 -111 41 -136q35 -21 139 -21q24 0 52 1h147v-242h-288v-47h57l106 -182l-106 -183h-211l-77 133l87 50l48 -83h95l48 83l-48 82h-95v152q-138 21 -213 110t-75 211v1107h672v-248z" />
    <glyph glyph-name="Egrave" unicode="&#xc8;" horiz-adv-x="872" 
d="M746 1185l-449 27v-538h449v-248l-449 27v-231l449 27v-248h-449l-293 -1v426l-109 248h109v759h742v-248zM725 1451q-145 31 -226 36t-126 5q-39 0 -69 -3q-67 -7 -98 -16l-32 -10l-153 142l208 76l24 -24q23 -24 78.5 -59.5t152 -75t241.5 -71.5z" />
    <glyph glyph-name="Eacute" unicode="&#xc9;" horiz-adv-x="872" 
d="M746 1185l-449 27v-538h449v-248l-449 27v-231l449 27v-248h-449l-293 -1v426l-109 248h109v759h742v-248zM31 1451q145 32 241.5 71.5t152 75t79.5 59.5l23 24l208 -76l-153 -142l-31 10q-32 9 -80.5 14t-87.5 5q-45 0 -102 -4q-104 -6 -250 -37z" />
    <glyph glyph-name="Ecircumflex" unicode="&#xca;" horiz-adv-x="872" 
d="M746 1185l-449 27v-538h449v-248l-449 27v-231l449 27v-248h-449l-293 -1v426l-109 248h109v759h742v-248zM368 1548l-37 -5q-37 -5 -89 -16.5t-102 -30.5t-79 -47q38 38 73.5 73t59.5 59l23 24l76 75l75 75l150 -150l22 -24q23 -24 58 -59l73 -73q-28 27 -77.5 45.5
t-101 30.5t-88.5 18z" />
    <glyph glyph-name="Edieresis" unicode="&#xcb;" horiz-adv-x="872" 
d="M746 1185l-449 27v-538h449v-248l-449 27v-231l449 27v-248h-449l-293 -1v426l-109 248h109v759h742v-248zM220 1462l-150 151l150 150l150 -150zM539 1462l-150 151l150 150l150 -150z" />
    <glyph glyph-name="Igrave" unicode="&#xcc;" horiz-adv-x="666" 
d="M545 1233l-148 6v-1030l148 -3v-206h-547l-87 186l192 14v1039l-105 -5l-87 198l634 1v-200zM605 1451q-145 31 -226 36t-126 5q-39 0 -69 -3q-67 -7 -98 -16l-32 -10l-153 142l208 76l24 -24q23 -24 78.5 -59.5t152 -75t241.5 -71.5z" />
    <glyph glyph-name="Iacute" unicode="&#xcd;" horiz-adv-x="666" 
d="M545 1233l-148 6v-1030l148 -3v-206h-547l-87 186l192 14v1039l-105 -5l-87 198l634 1v-200zM-79 1451q145 32 241.5 71.5t152 75t79.5 59.5l23 24l208 -76l-153 -142l-31 10q-32 9 -80.5 14t-87.5 5q-45 0 -102 -4q-104 -6 -250 -37z" />
    <glyph glyph-name="Icircumflex" unicode="&#xce;" horiz-adv-x="666" 
d="M545 1233l-148 6v-1030l148 -3v-206h-547l-87 186l192 14v1039l-105 -5l-87 198l634 1v-200zM238 1548l-37 -5q-37 -5 -89 -16.5t-102 -30.5t-79 -47q38 38 73.5 73t59.5 59l23 24l76 75l75 75l150 -150l22 -24q23 -24 58 -59l73 -73q-28 27 -77.5 45.5t-101 30.5
t-88.5 18z" />
    <glyph glyph-name="Idieresis" unicode="&#xcf;" horiz-adv-x="666" 
d="M545 1233l-148 6v-1030l148 -3v-206h-547l-87 186l192 14v1039l-105 -5l-87 198l634 1v-200zM90 1462l-150 151l150 150l150 -150zM409 1462l-150 151l150 150l150 -150z" />
    <glyph glyph-name="Ntilde" unicode="&#xd1;" horiz-adv-x="939" 
d="M586 1641q9 0 15.5 6.5t6.5 15.5t-6.5 15.5t-15.5 6.5t-15.5 -6.5t-6.5 -15.5t6.5 -15.5t15.5 -6.5zM632 1651q5 0 9 3.5t4 8.5t-4 8.5t-9 3.5t-8.5 -3.5t-3.5 -8.5t3.5 -8.5t8.5 -3.5zM240 1434h44l7 -8l211 -279v286h293v-1433h-293v723l-212 281v-1004h-289v1435
l164 -1v30l-30 6l-108 248l163 -105h1l1 1q5 2 35 13q36 14 87.5 33t100.5 35.5t78 22.5q38 6 72 6q33 0 56 -3q16 -2 21 -3h2l117 -248l-214 144q-1 0 -1 -1q-5 -3 -26 -17q-27 -19 -66.5 -45t-80.5 -48.5t-70 -32.5q-31 -10 -63 -10v-26zM190 1434h30v25q-16 1 -30 2v-27z
" />
    <glyph glyph-name="Ograve" unicode="&#xd2;" horiz-adv-x="926" 
d="M777 1218q4 -14 7.5 -39.5t3.5 -41.5v-835q0 -90 -42 -163.5t-120.5 -117.5t-190.5 -44h-99q-111 0 -190 44t-120.5 117.5t-41.5 163.5v829q0 90 41.5 163.5t120.5 117.5t190 44h99q139 0 227 -66.5t115 -171.5zM494 973q0 94 -5 146t-27.5 72.5t-75.5 20.5t-76 -20.5
t-28 -72.5t-5 -146v-513q0 -94 5 -146t27.5 -72.5t76.5 -20.5t76.5 20.5t27 72.5t4.5 146v513zM705 1451q-145 31 -226 36t-126 5q-39 0 -69 -3q-67 -7 -98 -16l-32 -10l-153 142l208 76l24 -24q23 -24 78.5 -59.5t152 -75t241.5 -71.5z" />
    <glyph glyph-name="Oacute" unicode="&#xd3;" horiz-adv-x="926" 
d="M777 1218q4 -14 7.5 -39.5t3.5 -41.5v-835q0 -90 -42 -163.5t-120.5 -117.5t-190.5 -44h-99q-111 0 -190 44t-120.5 117.5t-41.5 163.5v829q0 90 41.5 163.5t120.5 117.5t190 44h99q139 0 227 -66.5t115 -171.5zM494 973q0 94 -5 146t-27.5 72.5t-75.5 20.5t-76 -20.5
t-28 -72.5t-5 -146v-513q0 -94 5 -146t27.5 -72.5t76.5 -20.5t76.5 20.5t27 72.5t4.5 146v513zM71 1451q145 32 241.5 71.5t152 75t79.5 59.5l23 24l208 -76l-153 -142l-31 10q-32 9 -80.5 14t-87.5 5q-45 0 -102 -4q-104 -6 -250 -37z" />
    <glyph glyph-name="Ocircumflex" unicode="&#xd4;" horiz-adv-x="926" 
d="M777 1218q4 -14 7.5 -39.5t3.5 -41.5v-835q0 -90 -42 -163.5t-120.5 -117.5t-190.5 -44h-99q-111 0 -190 44t-120.5 117.5t-41.5 163.5v829q0 90 41.5 163.5t120.5 117.5t190 44h99q139 0 227 -66.5t115 -171.5zM494 973q0 94 -5 146t-27.5 72.5t-75.5 20.5t-76 -20.5
t-28 -72.5t-5 -146v-513q0 -94 5 -146t27.5 -72.5t76.5 -20.5t76.5 20.5t27 72.5t4.5 146v513zM378 1548l-37 -5q-37 -5 -89 -16.5t-102 -30.5t-79 -47q38 38 73.5 73t59.5 59l23 24l76 75l75 75l150 -150l22 -24q23 -24 58 -59l73 -73q-28 27 -77.5 45.5t-101 30.5
t-88.5 18z" />
    <glyph glyph-name="Otilde" unicode="&#xd5;" horiz-adv-x="926" 
d="M494 973q0 94 -5 146t-27.5 72.5t-75.5 20.5t-76 -20.5t-28 -72.5t-5 -146v-513q0 -94 5 -146t27.5 -72.5t76.5 -20.5t76.5 20.5t27 72.5t4.5 146v513zM566 1641q9 0 15.5 6.5t6.5 15.5t-6.5 15.5t-15.5 6.5t-15.5 -6.5t-6.5 -15.5t6.5 -15.5t15.5 -6.5zM612 1651
q5 0 9 3.5t4 8.5t-4 8.5t-9 3.5t-8.5 -3.5t-3.5 -8.5t3.5 -8.5t8.5 -3.5zM220 1442q53 14 116 14h99q139 0 227 -66.5t115 -171.5q4 -14 7.5 -39.5t3.5 -41.5v-835q0 -90 -42 -163.5t-120.5 -117.5t-190.5 -44h-99q-111 0 -190 44t-120.5 117.5t-41.5 163.5v829q0 90 42 164
q41 73 119 116v53l-30 6l-108 248l163 -105h1l1 1q5 2 35 13q36 14 87.5 33t100.5 35.5t78 22.5q38 6 72 6q33 0 56 -3q16 -2 21 -3h2l117 -248l-214 144q-1 0 -1 -1q-5 -3 -26 -17q-27 -19 -66.5 -45t-80.5 -48.5t-70 -32.5q-31 -10 -63 -10v-18zM170 1424q15 7 30 12v23
q-16 1 -30 2v-37z" />
    <glyph glyph-name="Odieresis" unicode="&#xd6;" horiz-adv-x="926" 
d="M777 1218q4 -14 7.5 -39.5t3.5 -41.5v-835q0 -90 -42 -163.5t-120.5 -117.5t-190.5 -44h-99q-111 0 -190 44t-120.5 117.5t-41.5 163.5v829q0 90 41.5 163.5t120.5 117.5t190 44h99q139 0 227 -66.5t115 -171.5zM494 973q0 94 -5 146t-27.5 72.5t-75.5 20.5t-76 -20.5
t-28 -72.5t-5 -146v-513q0 -94 5 -146t27.5 -72.5t76.5 -20.5t76.5 20.5t27 72.5t4.5 146v513zM235 1462l-150 151l150 150l150 -150zM554 1462l-150 151l150 150l150 -150z" />
    <glyph glyph-name="multiply" unicode="&#xd7;" horiz-adv-x="753" 
d="M436 681l209 -144l-52 -52l-52 -51l-147 205l-23 18l-18 -14l-143 -209l-52 51l-52 52l205 148l10 12l-215 172l104 104l163 -211l168 211l104 -104l-222 -172z" />
    <glyph glyph-name="Oslash" unicode="&#xd8;" horiz-adv-x="926" 
d="M778 1218q4 -14 7.5 -39.5t3.5 -41.5v-835q0 -90 -42 -163.5t-120.5 -117.5t-190.5 -44h-99q-56 0 -104 12l-19 -53l-138 49l24 68q-115 99 -115 249v829q0 90 41.5 163.5t120.5 117.5t190 44h99q87 0 155 -28l13 37l138 -50l-27 -75q45 -53 63 -122zM278 553l210 586
q-8 40 -30.5 56.5t-70.5 16.5q-53 0 -76 -20.5t-28 -72.5t-5 -146v-420zM495 460v264l-174 -490q22 -13 66 -13q54 0 76.5 20.5t27 72.5t4.5 146z" />
    <glyph glyph-name="Ugrave" unicode="&#xd9;" horiz-adv-x="978" 
d="M544 1433h293v-1433h-483q-111 0 -190 44t-120.5 118t-41.5 164v1107h293v-1035q0 -111 42 -136q38 -22 148 -22q21 0 45 1h14v1192zM735 1451q-145 31 -226 36t-126 5q-39 0 -69 -3q-67 -7 -98 -16l-32 -10l-153 142l208 76l24 -24q23 -24 78.5 -59.5t152 -75
t241.5 -71.5z" />
    <glyph glyph-name="Uacute" unicode="&#xda;" horiz-adv-x="978" 
d="M544 1433h293v-1433h-483q-111 0 -190 44t-120.5 118t-41.5 164v1107h293v-1035q0 -111 42 -136q38 -22 148 -22q21 0 45 1h14v1192zM91 1451q145 32 241.5 71.5t152 75t79.5 59.5l23 24l208 -76l-153 -142l-31 10q-32 9 -80.5 14t-87.5 5q-45 0 -102 -4
q-104 -6 -250 -37z" />
    <glyph glyph-name="Ucircumflex" unicode="&#xdb;" horiz-adv-x="978" 
d="M544 1433h293v-1433h-483q-111 0 -190 44t-120.5 118t-41.5 164v1107h293v-1035q0 -111 42 -136q38 -22 148 -22q21 0 45 1h14v1192zM428 1548l-37 -5q-37 -5 -89 -16.5t-102 -30.5t-79 -47q38 38 73.5 73t59.5 59l23 24l76 75l75 75l150 -150l22 -24q23 -24 58 -59
l73 -73q-28 27 -77.5 45.5t-101 30.5t-88.5 18z" />
    <glyph glyph-name="Udieresis" unicode="&#xdc;" horiz-adv-x="978" 
d="M544 1433h293v-1433h-483q-111 0 -190 44t-120.5 118t-41.5 164v1107h293v-1035q0 -111 42 -136q38 -22 148 -22q21 0 45 1h14v1192zM260 1462l-150 151l150 150l150 -150zM579 1462l-150 151l150 150l150 -150z" />
    <glyph glyph-name="Yacute" unicode="&#xdd;" 
d="M836 1433v-783l-271 -197v-453h-294v453l-271 197v783h294v-636l124 -89l124 89v636h294zM90 1451q145 32 241.5 71.5t152 75t79.5 59.5l23 24l208 -76l-153 -142l-31 10q-32 9 -80.5 14t-87.5 5q-45 0 -102 -4q-104 -6 -250 -37z" />
    <glyph glyph-name="germandbls" unicode="&#xdf;" horiz-adv-x="990" 
d="M836 1107v-221q-54 -51 -121 -105q67 -55 121 -106v-759q0 -90 -41.5 -164t-120.5 -117.5t-190 -43.5h-303v241h179q66 0 110 4t65 26t25.5 71.5t4.5 140.5v487q-12 10 -69.5 56t-118 95t-83.5 67v-779h-294v1109h2q0 90 42 163t120.5 117t189.5 44h130q111 0 190 -44
t120.5 -118t41.5 -164zM294 788q25 19 104.5 80.5t166.5 132.5v9q0 9 -0.5 22.5t-1.5 28.5q-2 80 -33 105t-117 25h-1q-81 -3 -101 -49q-17 -40 -17 -144v-210z" />
    <glyph glyph-name="agrave" unicode="&#xe0;" 
d="M357 1433h483v-1433h-294v437l-247 16h-1v-453h-294v426l-108 248h108v433q0 90 42 164t120.5 118t190.5 44zM298 674h248v517h-1q-42 2 -76 2q-94 0 -128 -18q-43 -23 -43 -132v-369zM755 1451q-145 31 -226 36t-126 5q-39 0 -69 -3q-67 -7 -98 -16l-32 -10l-153 142
l208 76l24 -24q23 -24 78.5 -59.5t152 -75t241.5 -71.5z" />
    <glyph glyph-name="aacute" unicode="&#xe1;" 
d="M357 1433h483v-1433h-294v437l-247 16h-1v-453h-294v426l-108 248h108v433q0 90 42 164t120.5 118t190.5 44zM298 674h248v517h-1q-42 2 -76 2q-94 0 -128 -18q-43 -23 -43 -132v-369zM121 1451q145 32 241.5 71.5t152 75t79.5 59.5l23 24l208 -76l-153 -142l-31 10
q-32 9 -80.5 14t-87.5 5q-45 0 -102 -4q-104 -6 -250 -37z" />
    <glyph glyph-name="acircumflex" unicode="&#xe2;" 
d="M357 1433h483v-1433h-294v437l-247 16h-1v-453h-294v426l-108 248h108v433q0 90 42 164t120.5 118t190.5 44zM298 674h248v517h-1q-42 2 -76 2q-94 0 -128 -18q-43 -23 -43 -132v-369zM458 1548l-37 -5q-37 -5 -89 -16.5t-102 -30.5t-79 -47q38 38 73.5 73t59.5 59l23 24
l76 75l75 75l150 -150l22 -24q23 -24 58 -59l73 -73q-28 27 -77.5 45.5t-101 30.5t-88.5 18z" />
    <glyph glyph-name="atilde" unicode="&#xe3;" 
d="M298 674h248v517h-1q-42 2 -76 2q-94 0 -128 -18q-43 -23 -43 -132v-369zM636 1641q9 0 15.5 6.5t6.5 15.5t-6.5 15.5t-15.5 6.5t-15.5 -6.5t-6.5 -15.5t6.5 -15.5t15.5 -6.5zM682 1651q5 0 9 3.5t4 8.5t-4 8.5t-9 3.5t-8.5 -3.5t-3.5 -8.5t3.5 -8.5t8.5 -3.5zM290 1429
q32 4 67 4h483v-1433h-294v437l-247 16h-1v-453h-294v426l-108 248h108v433q0 90 42 164t121 118q22 13 48 22v53l-30 6l-108 248l163 -105h1l1 1q5 2 35 13q36 14 87.5 33t100.5 35.5t78 22.5q38 6 72 6q33 0 56 -3q16 -2 21 -3h2l117 -248l-214 144q-1 0 -1 -1
q-5 -3 -26 -17q-27 -19 -66.5 -45t-80.5 -48.5t-70 -32.5q-31 -10 -63 -10v-31zM240 1419q15 4 30 6v34q-16 1 -30 2v-42z" />
    <glyph glyph-name="adieresis" unicode="&#xe4;" 
d="M357 1433h483v-1433h-294v437l-247 16h-1v-453h-294v426l-108 248h108v433q0 90 42 164t120.5 118t190.5 44zM298 674h248v517h-1q-42 2 -76 2q-94 0 -128 -18q-43 -23 -43 -132v-369zM290 1462l-150 151l150 150l150 -150zM609 1462l-150 151l150 150l150 -150z" />
    <glyph glyph-name="aring" unicode="&#xe5;" 
d="M357 1433h483v-1433h-294v437l-247 16h-1v-453h-294v426l-108 248h108v433q0 90 42 164t120.5 118t190.5 44zM298 674h248v517h-1q-42 2 -76 2q-94 0 -128 -18q-43 -23 -43 -132v-369zM538 1793l93 -162l-93 -161h-187l-93 161l93 162h187zM499 1537l55 94l-55 95h-109
l-54 -95l54 -94h109z" />
    <glyph glyph-name="ae" unicode="&#xe6;" horiz-adv-x="1426" 
d="M841 1212h-1v-538h448v-248l-447 27h-1v-231h1l447 27v-248l-742 -1v426l-5 11l-242 16h-1v-453h-294v426l-108 248h108v433q0 90 42 164t120.5 118t189.5 44h932v-248zM298 674h248v517h-1q-42 2 -76 2q-94 0 -128 -18q-43 -23 -43 -132v-369z" />
    <glyph glyph-name="ccedilla" unicode="&#xe7;" horiz-adv-x="766" 
d="M285 1212h-1v-814q0 -111 41 -136q35 -21 139 -21q24 0 52 1h147v-242h-288v-47h57l106 -182l-106 -183h-211l-77 133l87 50l48 -83h95l48 83l-48 82h-95v152q-138 21 -213 110t-75 211v1107h672v-248z" />
    <glyph glyph-name="egrave" unicode="&#xe8;" horiz-adv-x="872" 
d="M746 1185l-449 27v-538h449v-248l-449 27v-231l449 27v-248h-449l-293 -1v426l-109 248h109v759h742v-248zM725 1451q-145 31 -226 36t-126 5q-39 0 -69 -3q-67 -7 -98 -16l-32 -10l-153 142l208 76l24 -24q23 -24 78.5 -59.5t152 -75t241.5 -71.5z" />
    <glyph glyph-name="eacute" unicode="&#xe9;" horiz-adv-x="872" 
d="M746 1185l-449 27v-538h449v-248l-449 27v-231l449 27v-248h-449l-293 -1v426l-109 248h109v759h742v-248zM31 1451q145 32 241.5 71.5t152 75t79.5 59.5l23 24l208 -76l-153 -142l-31 10q-32 9 -80.5 14t-87.5 5q-45 0 -102 -4q-104 -6 -250 -37z" />
    <glyph glyph-name="ecircumflex" unicode="&#xea;" horiz-adv-x="872" 
d="M746 1185l-449 27v-538h449v-248l-449 27v-231l449 27v-248h-449l-293 -1v426l-109 248h109v759h742v-248zM368 1548l-37 -5q-37 -5 -89 -16.5t-102 -30.5t-79 -47q38 38 73.5 73t59.5 59l23 24l76 75l75 75l150 -150l22 -24q23 -24 58 -59l73 -73q-28 27 -77.5 45.5
t-101 30.5t-88.5 18z" />
    <glyph glyph-name="edieresis" unicode="&#xeb;" horiz-adv-x="872" 
d="M746 1185l-449 27v-538h449v-248l-449 27v-231l449 27v-248h-449l-293 -1v426l-109 248h109v759h742v-248zM220 1462l-150 151l150 150l150 -150zM539 1462l-150 151l150 150l150 -150z" />
    <glyph glyph-name="igrave" unicode="&#xec;" horiz-adv-x="666" 
d="M545 1233l-148 6v-1030l148 -3v-206h-547l-87 186l192 14v1039l-105 -5l-87 198l634 1v-200zM605 1451q-145 31 -226 36t-126 5q-39 0 -69 -3q-67 -7 -98 -16l-32 -10l-153 142l208 76l24 -24q23 -24 78.5 -59.5t152 -75t241.5 -71.5z" />
    <glyph glyph-name="iacute" unicode="&#xed;" horiz-adv-x="666" 
d="M545 1233l-148 6v-1030l148 -3v-206h-547l-87 186l192 14v1039l-105 -5l-87 198l634 1v-200zM-79 1451q145 32 241.5 71.5t152 75t79.5 59.5l23 24l208 -76l-153 -142l-31 10q-32 9 -80.5 14t-87.5 5q-45 0 -102 -4q-104 -6 -250 -37z" />
    <glyph glyph-name="icircumflex" unicode="&#xee;" horiz-adv-x="666" 
d="M545 1233l-148 6v-1030l148 -3v-206h-547l-87 186l192 14v1039l-105 -5l-87 198l634 1v-200zM238 1548l-37 -5q-37 -5 -89 -16.5t-102 -30.5t-79 -47q38 38 73.5 73t59.5 59l23 24l76 75l75 75l150 -150l22 -24q23 -24 58 -59l73 -73q-28 27 -77.5 45.5t-101 30.5
t-88.5 18z" />
    <glyph glyph-name="idieresis" unicode="&#xef;" horiz-adv-x="666" 
d="M545 1233l-148 6v-1030l148 -3v-206h-547l-87 186l192 14v1039l-105 -5l-87 198l634 1v-200zM90 1462l-150 151l150 150l150 -150zM409 1462l-150 151l150 150l150 -150z" />
    <glyph glyph-name="ntilde" unicode="&#xf1;" horiz-adv-x="939" 
d="M586 1641q9 0 15.5 6.5t6.5 15.5t-6.5 15.5t-15.5 6.5t-15.5 -6.5t-6.5 -15.5t6.5 -15.5t15.5 -6.5zM632 1651q5 0 9 3.5t4 8.5t-4 8.5t-9 3.5t-8.5 -3.5t-3.5 -8.5t3.5 -8.5t8.5 -3.5zM240 1434h44l7 -8l211 -279v286h293v-1433h-293v723l-212 281v-1004h-289v1435
l164 -1v30l-30 6l-108 248l163 -105h1l1 1q5 2 35 13q36 14 87.5 33t100.5 35.5t78 22.5q38 6 72 6q33 0 56 -3q16 -2 21 -3h2l117 -248l-214 144q-1 0 -1 -1q-5 -3 -26 -17q-27 -19 -66.5 -45t-80.5 -48.5t-70 -32.5q-31 -10 -63 -10v-26zM190 1434h30v25q-16 1 -30 2v-27z
" />
    <glyph glyph-name="ograve" unicode="&#xf2;" horiz-adv-x="926" 
d="M777 1218q4 -14 7.5 -39.5t3.5 -41.5v-835q0 -90 -42 -163.5t-120.5 -117.5t-190.5 -44h-99q-111 0 -190 44t-120.5 117.5t-41.5 163.5v829q0 90 41.5 163.5t120.5 117.5t190 44h99q139 0 227 -66.5t115 -171.5zM494 973q0 94 -5 146t-27.5 72.5t-75.5 20.5t-76 -20.5
t-28 -72.5t-5 -146v-513q0 -94 5 -146t27.5 -72.5t76.5 -20.5t76.5 20.5t27 72.5t4.5 146v513zM705 1451q-145 31 -226 36t-126 5q-39 0 -69 -3q-67 -7 -98 -16l-32 -10l-153 142l208 76l24 -24q23 -24 78.5 -59.5t152 -75t241.5 -71.5z" />
    <glyph glyph-name="oacute" unicode="&#xf3;" horiz-adv-x="926" 
d="M777 1218q4 -14 7.5 -39.5t3.5 -41.5v-835q0 -90 -42 -163.5t-120.5 -117.5t-190.5 -44h-99q-111 0 -190 44t-120.5 117.5t-41.5 163.5v829q0 90 41.5 163.5t120.5 117.5t190 44h99q139 0 227 -66.5t115 -171.5zM494 973q0 94 -5 146t-27.5 72.5t-75.5 20.5t-76 -20.5
t-28 -72.5t-5 -146v-513q0 -94 5 -146t27.5 -72.5t76.5 -20.5t76.5 20.5t27 72.5t4.5 146v513zM71 1451q145 32 241.5 71.5t152 75t79.5 59.5l23 24l208 -76l-153 -142l-31 10q-32 9 -80.5 14t-87.5 5q-45 0 -102 -4q-104 -6 -250 -37z" />
    <glyph glyph-name="ocircumflex" unicode="&#xf4;" horiz-adv-x="926" 
d="M777 1218q4 -14 7.5 -39.5t3.5 -41.5v-835q0 -90 -42 -163.5t-120.5 -117.5t-190.5 -44h-99q-111 0 -190 44t-120.5 117.5t-41.5 163.5v829q0 90 41.5 163.5t120.5 117.5t190 44h99q139 0 227 -66.5t115 -171.5zM494 973q0 94 -5 146t-27.5 72.5t-75.5 20.5t-76 -20.5
t-28 -72.5t-5 -146v-513q0 -94 5 -146t27.5 -72.5t76.5 -20.5t76.5 20.5t27 72.5t4.5 146v513zM378 1548l-37 -5q-37 -5 -89 -16.5t-102 -30.5t-79 -47q38 38 73.5 73t59.5 59l23 24l76 75l75 75l150 -150l22 -24q23 -24 58 -59l73 -73q-28 27 -77.5 45.5t-101 30.5
t-88.5 18z" />
    <glyph glyph-name="otilde" unicode="&#xf5;" horiz-adv-x="926" 
d="M494 973q0 94 -5 146t-27.5 72.5t-75.5 20.5t-76 -20.5t-28 -72.5t-5 -146v-513q0 -94 5 -146t27.5 -72.5t76.5 -20.5t76.5 20.5t27 72.5t4.5 146v513zM566 1641q9 0 15.5 6.5t6.5 15.5t-6.5 15.5t-15.5 6.5t-15.5 -6.5t-6.5 -15.5t6.5 -15.5t15.5 -6.5zM612 1651
q5 0 9 3.5t4 8.5t-4 8.5t-9 3.5t-8.5 -3.5t-3.5 -8.5t3.5 -8.5t8.5 -3.5zM220 1442q53 14 116 14h99q139 0 227 -66.5t115 -171.5q4 -14 7.5 -39.5t3.5 -41.5v-835q0 -90 -42 -163.5t-120.5 -117.5t-190.5 -44h-99q-111 0 -190 44t-120.5 117.5t-41.5 163.5v829q0 90 42 164
q41 73 119 116v53l-30 6l-108 248l163 -105h1l1 1q5 2 35 13q36 14 87.5 33t100.5 35.5t78 22.5q38 6 72 6q33 0 56 -3q16 -2 21 -3h2l117 -248l-214 144q-1 0 -1 -1q-5 -3 -26 -17q-27 -19 -66.5 -45t-80.5 -48.5t-70 -32.5q-31 -10 -63 -10v-18zM170 1424q15 7 30 12v23
q-16 1 -30 2v-37z" />
    <glyph glyph-name="odieresis" unicode="&#xf6;" horiz-adv-x="926" 
d="M777 1218q4 -14 7.5 -39.5t3.5 -41.5v-835q0 -90 -42 -163.5t-120.5 -117.5t-190.5 -44h-99q-111 0 -190 44t-120.5 117.5t-41.5 163.5v829q0 90 41.5 163.5t120.5 117.5t190 44h99q139 0 227 -66.5t115 -171.5zM494 973q0 94 -5 146t-27.5 72.5t-75.5 20.5t-76 -20.5
t-28 -72.5t-5 -146v-513q0 -94 5 -146t27.5 -72.5t76.5 -20.5t76.5 20.5t27 72.5t4.5 146v513zM235 1462l-150 151l150 150l150 -150zM554 1462l-150 151l150 150l150 -150z" />
    <glyph glyph-name="divide" unicode="&#xf7;" horiz-adv-x="842" 
d="M5 630v147l426 -47l291 47v-147l-291 41zM369 1195l184 -184l-184 -185l-185 185zM369 567l184 -184l-184 -185l-185 185z" />
    <glyph glyph-name="oslash" unicode="&#xf8;" horiz-adv-x="926" 
d="M778 1218q4 -14 7.5 -39.5t3.5 -41.5v-835q0 -90 -42 -163.5t-120.5 -117.5t-190.5 -44h-99q-56 0 -104 12l-19 -53l-138 49l24 68q-115 99 -115 249v829q0 90 41.5 163.5t120.5 117.5t190 44h99q87 0 155 -28l13 37l138 -50l-27 -75q45 -53 63 -122zM278 553l210 586
q-8 40 -30.5 56.5t-70.5 16.5q-53 0 -76 -20.5t-28 -72.5t-5 -146v-420zM495 460v264l-174 -490q22 -13 66 -13q54 0 76.5 20.5t27 72.5t4.5 146z" />
    <glyph glyph-name="ugrave" unicode="&#xf9;" horiz-adv-x="978" 
d="M544 1433h293v-1433h-483q-111 0 -190 44t-120.5 118t-41.5 164v1107h293v-1035q0 -111 42 -136q38 -22 148 -22q21 0 45 1h14v1192zM735 1451q-145 31 -226 36t-126 5q-39 0 -69 -3q-67 -7 -98 -16l-32 -10l-153 142l208 76l24 -24q23 -24 78.5 -59.5t152 -75
t241.5 -71.5z" />
    <glyph glyph-name="uacute" unicode="&#xfa;" horiz-adv-x="978" 
d="M544 1433h293v-1433h-483q-111 0 -190 44t-120.5 118t-41.5 164v1107h293v-1035q0 -111 42 -136q38 -22 148 -22q21 0 45 1h14v1192zM91 1451q145 32 241.5 71.5t152 75t79.5 59.5l23 24l208 -76l-153 -142l-31 10q-32 9 -80.5 14t-87.5 5q-45 0 -102 -4
q-104 -6 -250 -37z" />
    <glyph glyph-name="ucircumflex" unicode="&#xfb;" horiz-adv-x="978" 
d="M544 1433h293v-1433h-483q-111 0 -190 44t-120.5 118t-41.5 164v1107h293v-1035q0 -111 42 -136q38 -22 148 -22q21 0 45 1h14v1192zM428 1548l-37 -5q-37 -5 -89 -16.5t-102 -30.5t-79 -47q38 38 73.5 73t59.5 59l23 24l76 75l75 75l150 -150l22 -24q23 -24 58 -59
l73 -73q-28 27 -77.5 45.5t-101 30.5t-88.5 18z" />
    <glyph glyph-name="udieresis" unicode="&#xfc;" horiz-adv-x="978" 
d="M544 1433h293v-1433h-483q-111 0 -190 44t-120.5 118t-41.5 164v1107h293v-1035q0 -111 42 -136q38 -22 148 -22q21 0 45 1h14v1192zM260 1462l-150 151l150 150l150 -150zM579 1462l-150 151l150 150l150 -150z" />
    <glyph glyph-name="yacute" unicode="&#xfd;" 
d="M836 1433v-783l-271 -197v-453h-294v453l-271 197v783h294v-636l124 -89l124 89v636h294zM90 1451q145 32 241.5 71.5t152 75t79.5 59.5l23 24l208 -76l-153 -142l-31 10q-32 9 -80.5 14t-87.5 5q-45 0 -102 -4q-104 -6 -250 -37z" />
    <glyph glyph-name="ydieresis" unicode="&#xff;" 
d="M836 1433v-783l-271 -197v-453h-294v453l-271 197v783h294v-636l124 -89l124 89v636h294zM260 1462l-150 151l150 150l150 -150zM579 1462l-150 151l150 150l150 -150z" />
    <glyph glyph-name="circumflex" unicode="&#x2c6;" horiz-adv-x="942" 
d="M458 1548l-37 -5q-37 -5 -89 -16.5t-102 -30.5t-79 -47q38 38 73.5 73t59.5 59l23 24l76 75l75 75l150 -150l22 -24q23 -24 58 -59l73 -73q-28 27 -77.5 45.5t-101 30.5t-88.5 18z" />
    <glyph glyph-name="caron" unicode="&#x2c7;" horiz-adv-x="942" 
d="M458 1656l36 6q37 5 88.5 17t101 31t77.5 45q-38 -37 -73 -72.5t-58 -59.5l-22 -23l-75 -76l-75 -75l-174 174q-24 24 -59.5 59t-73.5 73q29 -27 79 -46t102 -30.5t89 -17.5z" />
    <glyph glyph-name="uni02C9" unicode="&#x2c9;" horiz-adv-x="1024" 
d="M254 1495v125h516v-125h-516z" />
    <glyph glyph-name="breve" unicode="&#x2d8;" horiz-adv-x="1024" 
d="M219 1729h51q17 -73 75 -107t167 -34t166 33.5t74 107.5h51q-20 -133 -94 -201.5t-197 -68.5q-122 0 -197 69t-96 201z" />
    <glyph glyph-name="dotaccent" unicode="&#x2d9;" horiz-adv-x="898" 
d="M499 1537h-109l-54 94l54 95h109l55 -95z" />
    <glyph glyph-name="ring" unicode="&#x2da;" horiz-adv-x="898" 
d="M538 1793l93 -162l-93 -161h-187l-93 161l93 162h187zM499 1537l55 94l-55 95h-109l-54 -95l54 -94h109z" />
    <glyph glyph-name="ogonek" unicode="&#x2db;" horiz-adv-x="1024" 
d="M640 0q-71 -62 -110.5 -119.5t-39.5 -112.5q0 -47 27 -75t73 -28q40 0 69.5 15.5t49.5 48.5l28 -16q-36 -63 -90.5 -97t-119.5 -34q-70 0 -114 35.5t-44 90.5q0 76 60.5 156.5t161.5 135.5h49z" />
    <glyph glyph-name="tilde" unicode="&#x2dc;" horiz-adv-x="786" 
d="M644 1718l117 -248l-214 144l-27 -18q-27 -19 -66.5 -45t-80.5 -48.5t-70 -32.5q-31 -10 -63 -10v-60h-20v59q-16 1 -30 2v-61h-25v64l-30 6l-108 248l163 -105l37 14q36 14 87.5 33t100.5 35.5t78 22.5q38 6 71 6q34 0 57 -3zM586 1641q9 0 15.5 6.5t6.5 15.5t-6.5 15.5
t-15.5 6.5t-15.5 -6.5t-6.5 -15.5t6.5 -15.5t15.5 -6.5zM632 1651q5 0 9 3.5t4 8.5t-4 8.5t-9 3.5t-8.5 -3.5t-3.5 -8.5t3.5 -8.5t8.5 -3.5z" />
    <glyph glyph-name="hungarumlaut" unicode="&#x2dd;" horiz-adv-x="1024" 
d="M59 1445q22 8 95 57q86 57 133.5 103.5t65.5 74.5l18 27l219 -33l-121 -169l-21 2q-22 2 -35 2q-30 0 -77 -5q-66 -7 -165 -34q-86 -23 -111 -27zM424 1445q22 8 96 57q86 57 133.5 103.5t65.5 74.5l18 27l219 -33l-121 -169l-21 2q-22 2 -35 2q-30 0 -77 -5
q-66 -7 -165 -34q-87 -24 -112 -27z" />
    <glyph glyph-name="quoteleft" unicode="&#x2018;" horiz-adv-x="475" 
d="M303 1565l-38 -149l130 -126l-185 -185l-92 92l-6 8q-6 9 -13.5 22t-13.5 29.5t-6 33.5q0 16 6 32.5t13.5 30t13.5 21.5l6 8z" />
    <glyph glyph-name="quoteright" unicode="&#x2019;" horiz-adv-x="475" 
d="M125 1016l37 149l-129 127l184 184l92 -92l6 -8q6 -8 14 -21.5t14 -30t6 -32.5q0 -17 -6 -33.5t-14 -29.5t-14 -21l-6 -8z" />
    <glyph glyph-name="quotesinglbase" unicode="&#x201a;" horiz-adv-x="436" 
d="M102 -117l37 149l-129 127l184 184l92 -92l6 -8q6 -8 14 -21.5t14 -30t6 -32.5q0 -17 -6 -33.5t-14 -29.5t-14 -21l-6 -8z" />
    <glyph glyph-name="quotedblleft" unicode="&#x201c;" horiz-adv-x="832" 
d="M303 1565l-38 -149l130 -126l-185 -185l-92 92l-6 8q-6 9 -13.5 22t-13.5 29.5t-6 33.5q0 16 6 32.5t13.5 30t13.5 21.5l6 8zM650 1565l-38 -149l130 -126l-185 -185l-92 92l-6 8q-6 9 -13.5 22t-13.5 29.5t-6 33.5q0 16 6 32.5t13.5 30t13.5 21.5l6 8z" />
    <glyph glyph-name="quotedblright" unicode="&#x201d;" horiz-adv-x="776" 
d="M125 1016l37 149l-129 127l184 184l92 -92l6 -8q6 -8 14 -21.5t14 -30t6 -32.5q0 -17 -6 -33.5t-14 -29.5t-14 -21l-6 -8zM485 1016l37 149l-129 127l184 184l92 -92l6 -8q6 -8 14 -21.5t14 -30t6 -32.5q0 -17 -6 -33.5t-14 -29.5t-14 -21l-6 -8z" />
    <glyph glyph-name="quotedblbase" unicode="&#x201e;" horiz-adv-x="786" 
d="M102 -117l37 149l-129 127l184 184l92 -92l6 -8q6 -8 14 -21.5t14 -30t6 -32.5q0 -17 -6 -33.5t-14 -29.5t-14 -21l-6 -8zM459 -117l37 149l-129 127l184 184l92 -92l6 -8q6 -8 14 -21.5t14 -30t6 -32.5q0 -17 -6 -33.5t-14 -29.5t-14 -21l-6 -8z" />
    <glyph glyph-name="bullet" unicode="&#x2022;" horiz-adv-x="870" 
d="M229 677v-17q-12 -11 -23 -18v61h6q11 0 14 -3.5t3 -22.5zM336 703v-56h-27v38q0 13 5 16q4 2 14 2h8zM118 1020h572v-571h-572v571zM171 967v-31h463v31h-463zM526 691q0 9 4.5 10.5t18.5 1.5h1v-32l25 -2l4 60h-45q-18 0 -28 -10t-10 -25v-34l55 -40v-2q0 -13 -3 -16
q-3 -2 -10 -2h-14l-3 27l-25 2v-55h46q18 0 28 10t10 25v30l-55 39v2v3v4t1 4zM541 878v22h-48v-1h-21l10 -21l11 1v-113l-21 -2l10 -20h59v22l-16 1v112zM386 609q0 -15 10 -25t29 -10h52v155h-32v-129h-9q-10 0 -14 2.5t-4 15.5v111h-32v-120zM385 771v-27h81v27l-47 -3
l20 44l22 -3l12 27h-23l16 34v30h-81v-27l48 3l-18 -40h-30v-27l18 1zM310 623l26 -2v-47h32v155h-52q-18 0 -28.5 -10t-10.5 -25v-47h-11l11 -27v-46h32v49h1zM338 744h32v156h-53q-18 0 -28 -10.5t-10 -25.5v-47h-12l12 -27v-46h32v49l27 -2v-47zM205 899h-31v-155h31v109
l23 -31v-78h32v156h-32v-31zM174 729v-155h32v33q5 3 10 7l11 -41h33l-16 62q8 7 14 13v46q0 15 -10 25t-28 10h-46zM634 504v30h-463v-30h463zM614 569l20 20l-20 21l-20 -21zM598 728l2 -108h28l2 108h-32zM634 779v30l-55 39v2v3v4.5t1 3.5q0 9 4 11q3 1 11 1h9v-32
l25 -2l4 61h-45q-18 0 -28 -10.5t-10 -25.5v-33l55 -41v-1q0 -14 -3 -17q-3 -2 -10 -2h-14l-3 28l-25 2v-56h46q18 0 28 10.5t10 24.5zM311 860q0 10 4 12q3 1 12 1h11v-56h-27v43z" />
    <glyph glyph-name="ellipsis" unicode="&#x2026;" horiz-adv-x="1319" 
d="M189 343l184 -184l-184 -185l-185 185zM589 343l184 -184l-184 -185l-185 185zM989 343l184 -184l-184 -185l-185 185z" />
    <glyph glyph-name="guilsinglleft" unicode="&#x2039;" horiz-adv-x="429" 
d="M240 694l6 -36q5 -37 17 -88.5t30.5 -100.5t45.5 -77q-38 38 -73 72.5t-59 57.5l-24 22l-150 150l75 76l75 75l24 23q24 24 59 59.5t73 73.5q-28 -29 -46.5 -79t-30.5 -102t-17 -89z" />
    <glyph glyph-name="guilsinglright" unicode="&#x203a;" horiz-adv-x="470" 
d="M162 694l-5 37q-5 37 -17 89t-30.5 102t-46.5 79q38 -38 73 -73.5t59 -59.5l24 -23l75 -75l75 -76l-150 -150l-24 -22q-24 -23 -59.5 -57.5t-72.5 -72.5q27 28 45.5 77t30.5 100.5t17 88.5z" />
    <glyph glyph-name="fraction" unicode="&#x2044;" horiz-adv-x="776" 
d="M140 -50l-138 49l528 1479l138 -49z" />
    <glyph glyph-name="fraction" unicode="&#x2215;" horiz-adv-x="776" 
d="M140 -50l-138 49l528 1479l138 -49z" />
    <glyph glyph-name="Euro" unicode="&#x20ac;" horiz-adv-x="1039" 
d="M874 299q0 -90 -41.5 -164t-120.5 -118t-190 -44h-97q-112 0 -190.5 44t-120.5 118t-42 164l-3 260l-164 -14v147l299 -29q27 22 57 46q-30 25 -61 52l-295 -25v146l164 -15v261q0 13 2 25q6 85 49 152.5t120 107.5t182 40h98q111 0 189.5 -44t120.5 -118t42 -164v-155
h-295v52q0 99 -17.5 139.5t-89.5 44.5q-62 -6 -83 -52t-22 -127q-1 -22 -1 -48q16 -13 42.5 -34.5t54 -43.5l47.5 -38l19 -16l345 33v-146l-234 19q26 -22 52 -45q-23 -20 -47 -40l229 22v-147l-344 30l-19 -15q-20 -16 -47 -38t-53.5 -43.5t-42.5 -33.5v-30t0.5 -43.5
t1.5 -36.5q3 -64 25 -89t80 -28q71 4 90 46q16 39 16 137v61l295 -2v-161z" />
    <glyph glyph-name="uni2116" unicode="&#x2116;" horiz-adv-x="1873" 
d="M1281 312l-295 -27l-108 248h850v-248zM1632 240l108 -247h-850v247l447 -27zM1276 609q-111 0 -190 44t-120.5 117.5t-41.5 163.5v197q0 90 41.5 163.5t120.5 117.5t190 44h99q112 0 190.5 -44t120 -117t42.5 -164v-197q0 -90 -42 -163.5t-120.5 -117.5t-190.5 -44h-99z
M1326 1212q-71 0 -90 -39q-18 -37 -18 -131v-29q0 -86 17.5 -123t90.5 -37q76 0 91 40q13 34 13 124q0 18 -1 38l-1 76q-7 42 -30 61.5t-72 19.5zM504 1149v280h293v-1432h-293v723l-213 281v-1004h-289v1436h289v-2l1 2z" />
    <glyph glyph-name="trademark" unicode="&#x2122;" horiz-adv-x="1002" 
d="M272 1236q17 0 25 17l25 -13q-9 -14 -23 -23q-13 -8 -30 -8q-27 0 -43 17q-17 16 -17 45t17 46q16 17 42 17q37 0 53 -29l-27 -14q-4 9 -10 12q-6 4 -12 4q-27 0 -27 -36q0 -16 7 -25q6 -10 20 -10zM649 1346q-28 0 -28 28t28 28q29 0 29 -28t-29 -28zM691 1335q5 0 9 -4
q4 -3 4 -9v-82h-23v-98h-63v98h-23v82q0 6 4 9q4 4 9 4h83zM156 1236q17 0 25 17l24 -13q-8 -14 -21 -23q-15 -8 -32 -8q-26 0 -43 17q-17 16 -17 45t17 46t43 17q37 0 53 -29l-27 -14q-5 9 -11 12q-6 4 -11 4q-27 0 -27 -36q0 -16 7 -25q6 -10 20 -10zM325 1156
q47 46 47 115q0 34 -12 64q-12 29 -36 53q-48 48 -117 48q-68 0 -116 -48q-23 -24 -36 -54t-13 -63q0 -32 13 -62t36 -54q24 -23 54 -35q30 -13 62 -13q33 0 63 13q30 12 55 36zM767 1157q48 46 48 115t-49 117q-48 48 -116 48q-69 0 -116 -48q-49 -50 -49 -117t48 -116
q49 -48 117 -48q67 0 117 49zM351 1414q28 -29 43 -65q14 -37 14 -78t-14 -77q-15 -36 -43 -64q-30 -29 -67 -44q-37 -16 -77 -16t-76 16q-37 15 -66 44t-44 65t-15 76t15 77t45 66q57 59 141 59t144 -59zM792 1415q59 -58 59 -143t-58 -141q-61 -60 -144 -60q-81 0 -141 59
q-60 60 -60 142q0 83 60 143q58 58 141 58q85 0 143 -58z" />
    <glyph glyph-name="minus" unicode="&#x2212;" horiz-adv-x="745" 
d="M5 630v147l366 -47l250 47v-147l-250 41z" />
    <glyph glyph-name="uniF001" unicode="&#xf001;" horiz-adv-x="1073" 
 />
    <glyph glyph-name="uniF001" unicode="&#xfb01;" horiz-adv-x="1073" 
 />
    <glyph glyph-name="uniF002" unicode="&#xf002;" horiz-adv-x="1081" 
 />
    <glyph glyph-name="uniF002" unicode="&#xfb02;" horiz-adv-x="1081" 
 />
  </font>
</defs>
</svg>
