<svg width="171" height="176" viewBox="0 0 171 176" fill="none" xmlns="http://www.w3.org/2000/svg">
<g clip-path="url(#clip0_158_635)">
<path d="M166.637 71.5822C162.559 69.1659 158.463 66.7785 154.348 64.4199C150.55 62.2361 146.52 62.9565 143.871 66.2435C141.118 69.672 141.132 74.0396 143.975 77.3084C144.46 77.8646 144.605 78.2202 144.206 78.895C140.853 84.6698 137.532 90.4781 134.245 96.3197C133.792 97.1221 133.43 97.1768 132.688 96.7073C131.017 95.6541 129.296 94.6785 127.58 93.7028C124.411 91.902 122.147 92.5084 120.336 95.6176C119.335 97.3319 118.344 99.0506 117.379 100.788C115.686 103.829 116.343 106.181 119.353 107.959C120.712 108.766 122.043 109.637 123.465 110.316C124.751 110.932 124.479 111.424 123.632 112.194C122.183 113.512 120.603 114.638 118.706 115.058C116.809 115.477 115.577 116.617 114.631 118.299C111.213 124.376 107.69 130.399 104.276 136.476C103.76 137.388 103.257 137.607 102.284 137.388C100.423 136.925 98.5268 136.62 96.6152 136.476C94.9762 136.421 94.7634 135.756 94.7634 134.324C94.8056 109.204 94.8192 84.0847 94.8041 58.9673C94.8041 57.5631 94.1793 55.7258 95.0803 54.8641C95.9813 54.0024 97.7698 54.6225 99.1553 54.6225C113.324 54.6042 127.494 54.6042 141.666 54.6225C143.98 54.6225 145.886 53.9249 147.072 51.8095C148.259 49.6941 147.828 47.2003 145.845 45.1305C140.634 39.6596 135.431 34.2206 130.152 28.8318C129.247 27.8835 129.219 27.3775 130.152 26.4337C135.427 21.0403 140.616 15.5649 145.863 10.1442C147.611 8.32053 148.177 6.32822 147.303 3.92103C146.692 2.22961 145.225 1.50928 143.849 0.67041H81.1621C79.9169 1.65973 79.6407 2.94995 79.6407 4.52739C79.677 28.7877 79.686 53.0466 79.6679 77.3039C79.6497 77.93 79.6814 78.5566 79.763 79.1776C79.8669 79.708 80.1391 80.19 80.5387 80.551C80.9383 80.9121 81.4435 81.1326 81.9784 81.1794C82.5132 81.2262 83.0487 81.0968 83.5041 80.8105C83.9596 80.5243 84.3103 80.0969 84.5035 79.5925C84.6965 78.9379 84.7762 78.2547 84.739 77.5728C84.739 70.9652 84.739 64.3591 84.739 57.7546C84.739 54.6088 84.739 54.7137 87.9084 54.5632C89.4659 54.4903 89.7195 55.0191 89.7195 56.4415C89.6742 81.7809 89.6636 107.122 89.6878 132.464C89.6878 135.833 89.6878 135.76 86.464 135.929C85.0287 136.006 84.7118 135.541 84.7163 134.155C84.7661 120.091 84.748 106.021 84.739 91.9567C84.7661 91.275 84.713 90.5925 84.5805 89.9234C84.2636 88.6514 83.358 88.045 82.0721 88.0997C81.4989 88.0819 80.9403 88.2837 80.5092 88.6645C80.078 89.0453 79.8065 89.5767 79.7494 90.1513C79.6723 90.7727 79.645 91.3993 79.6679 92.0251C79.6679 106.204 79.6679 120.384 79.6679 134.566C79.6679 135.779 79.5185 136.43 78.0787 136.44C76.6693 136.497 75.2699 136.705 73.9041 137.06C72.5141 137.374 72.093 137.288 72.5458 135.61C75.1701 125.241 74.9652 114.35 71.9527 104.088C70.7936 100.04 67.8777 97.6738 63.8254 97.6647C46.2125 97.6282 28.6026 97.6282 10.9958 97.6647C7.12911 97.6647 4.17703 99.9442 3.05868 103.651C0.314876 112.61 -0.254951 122.102 1.397 131.329C4.16345 146.775 11.8108 159.249 24.1353 168.827C24.4975 169.11 25.1495 169.283 24.914 169.967C24.6786 170.651 24.0085 170.532 23.4788 170.532C20.5448 170.532 17.5927 170.569 14.6723 170.532C13.2053 170.51 11.9059 170.765 11.4169 172.356C10.9279 173.947 11.7791 174.95 13.0695 175.693H161.448C162.657 174.895 163.576 173.87 163.042 172.324C162.507 170.779 161.23 170.523 159.741 170.551C156.92 170.605 154.095 170.519 151.274 170.592C150.838 170.641 150.398 170.554 150.013 170.344C149.628 170.134 149.316 169.81 149.119 169.415C147.865 167.391 146.488 165.444 145.076 163.53C143.885 161.911 142.436 161.647 141.168 162.677C139.9 163.707 139.918 165.025 141.023 166.598C141.929 167.865 142.997 169.014 143.645 170.45H48.6394C48.8793 170.25 48.9518 170.177 49.0333 170.117C58.2933 163.58 65.5041 154.513 69.8156 143.985C69.9287 143.673 70.1259 143.399 70.385 143.194C70.6441 142.988 70.9549 142.86 71.2825 142.822C82.6086 140.214 94.3957 140.429 105.621 143.447C115.48 146.021 124.626 150.823 132.366 157.489C133.725 158.67 135.309 158.619 136.269 157.489C137.229 156.358 137.021 154.799 135.635 153.609C134.457 152.547 133.214 151.56 131.913 150.655C130.804 149.93 130.614 149.374 131.343 148.152C134.327 143.137 137.157 138.026 140.104 132.984C140.579 132.251 140.886 131.42 141.002 130.553C141.118 129.685 141.04 128.802 140.774 127.969C140.074 125.576 140.254 123.009 141.281 120.738C143.183 121.846 144.971 122.917 146.792 123.929C149.531 125.47 151.985 124.841 153.583 122.133C154.679 120.282 155.743 118.404 156.78 116.516C158.315 113.722 157.685 111.324 154.991 109.678C153.156 108.562 151.303 107.483 149.431 106.441C148.757 106.067 148.585 105.789 149.019 105.041C152.379 99.2664 155.699 93.4627 158.98 87.6302C159.392 86.9007 159.754 86.7776 160.574 86.96C164.563 87.8718 168.452 85.5922 170.001 81.5803C171.531 77.6412 170.259 73.7159 166.637 71.5822ZM39.8601 169.762C38.1939 170.642 36.7224 170.674 35.0833 169.762C18.127 160.384 8.23841 146.118 5.9021 126.674C5.11911 119.811 5.70405 112.859 7.62263 106.227C8.42404 103.35 9.15301 102.798 12.1775 102.798H62.8066C65.65 102.798 66.4922 103.446 67.2529 106.176C70.6498 118.331 69.7799 131.292 64.7897 142.876C59.7996 154.459 50.9947 163.955 39.8601 169.762ZM86.2603 49.5209C85.1238 49.5209 84.7163 49.2884 84.7209 48.0437C84.7661 34.3665 84.748 20.7121 84.7209 7.04855C84.7209 6.34646 84.6167 5.78113 85.7124 5.78569C104.56 5.83128 123.409 5.85104 142.259 5.84496C142.3 5.84496 142.341 5.89967 142.608 6.10482C140.131 8.69438 137.713 11.2247 135.287 13.7458C132.185 16.9782 129.065 20.1924 125.973 23.4293C123.306 26.2194 123.297 29.0461 125.973 31.8226C131.104 37.1931 136.246 42.5516 141.399 47.8978C141.784 48.299 142.151 48.7185 142.499 49.1014C142.255 49.7351 141.788 49.4844 141.449 49.489C123.057 49.4981 104.661 49.5087 86.2603 49.5209ZM119.145 134.858C118.054 136.709 116.985 138.569 115.976 140.456C115.6 141.149 115.233 141.245 114.504 140.949C112.892 140.297 111.24 139.731 109.578 139.221C108.922 139.015 108.754 138.815 109.125 138.195C111.688 133.745 114.237 129.286 116.958 124.518C117.814 127.709 118.566 130.554 119.344 133.39C119.423 133.634 119.446 133.892 119.412 134.147C119.377 134.401 119.286 134.644 119.145 134.858ZM126.793 145.986C126.399 146.697 126.045 146.643 125.484 146.283C124.769 145.827 124.022 145.43 123.297 144.992C122.31 144.395 120.58 144.208 120.454 143.237C120.327 142.266 121.549 141.217 121.975 140.123C122.994 137.511 124.823 136.152 127.562 135.728C129.437 135.437 131.257 134.817 133.494 134.206C131.148 138.313 128.943 142.134 126.793 145.986ZM135.445 127.426C135.54 128.156 135.354 128.397 134.653 128.58C131.447 129.409 128.255 130.303 125.063 131.188C124.361 131.384 123.981 131.324 123.763 130.449C122.962 127.207 122.052 123.993 121.178 120.77C121.02 120.182 120.983 119.717 121.717 119.434C124.396 118.355 126.752 116.598 128.558 114.333C128.762 114.091 128.912 113.717 129.369 113.831L130.093 114.223L131.99 115.331C133.448 116.184 135.35 116.699 136.237 117.975C137.179 119.311 135.558 121.025 135.45 122.667C135.294 124.249 135.293 125.843 135.445 127.426ZM151.188 113.38C152.184 113.954 152.238 114.387 151.663 115.267C150.956 116.361 150.305 117.49 149.712 118.65C149.368 119.311 149.074 119.384 148.422 119.001C139.81 113.956 131.187 108.933 122.555 103.933C121.984 103.601 121.681 103.373 122.134 102.666C122.921 101.426 123.6 100.117 124.343 98.8455C124.506 98.5674 124.583 98.1798 125.018 98.1662L125.892 98.6768C134.318 103.578 142.735 108.511 151.188 113.371V113.38ZM154.593 85.1135C151.306 90.858 148.005 96.5887 144.754 102.351C144.279 103.19 143.894 103.313 143.092 102.807C141.734 101.923 140.312 101.089 138.873 100.327C138.193 99.967 138.166 99.6479 138.519 99.0324C141.906 93.1512 145.276 87.2624 148.63 81.366C148.956 80.7915 149.241 80.7277 149.784 81.0605C151.324 81.9951 152.895 82.8842 154.448 83.796C154.66 83.944 154.858 84.1103 155.041 84.2929C154.865 84.612 154.733 84.8628 154.593 85.109V85.1135ZM160.578 81.4982C156.707 78.977 152.614 76.8069 148.625 74.4681C146.787 73.3876 146.402 71.8193 147.471 70.0185C148.499 68.286 150.024 67.8438 151.781 68.8559C155.833 71.1901 159.868 73.5609 163.915 75.9042C164.916 76.4832 165.586 77.2446 165.523 78.4208C165.554 80.8645 162.892 83.0027 160.578 81.4936V81.4982Z" fill="#FEFEFE"/>
<path d="M58.65 107.937C44.4782 107.912 30.3079 107.912 16.1391 107.937C13.6171 107.937 12.0007 109.304 11.5253 111.821C10.5838 116.75 10.4111 121.797 11.0137 126.779C11.0483 127.326 11.2615 127.846 11.6202 128.259C11.9789 128.671 12.4629 128.952 12.9968 129.059C14.8396 129.515 16.2659 127.933 16.0078 125.653C15.5988 121.777 15.7023 117.863 16.3157 114.014C20.0556 117.825 23.4921 121.354 26.9739 124.837C27.5807 125.448 27.2999 125.863 27.0192 126.456C24.7554 131.261 25.5885 136.522 29.1835 140.156C32.7785 143.789 37.9718 144.61 42.7667 142.267C43.473 141.92 43.8986 141.874 44.4827 142.499C46.0266 144.159 47.6114 145.786 49.2776 147.327C50.0337 148.025 49.8254 148.43 49.2776 149.087C46.2126 152.818 42.6001 156.055 38.5649 158.688C37.7183 159.24 37.1568 159.213 36.3282 158.688C28.5467 153.716 22.4918 146.432 19.0006 137.844C18.1811 135.866 16.8635 135.177 15.3513 135.866C13.9386 136.508 13.5402 137.903 14.328 139.786C18.403 149.725 24.9999 157.466 33.9648 163.256C36.3554 164.802 38.4563 164.893 40.8379 163.329C44.9519 160.717 48.675 157.527 51.8946 153.856C62.1544 141.815 65.9306 127.915 63.4267 112.268C62.9513 109.35 61.3802 107.941 58.65 107.937ZM37.5055 138.455C36.63 138.465 35.7614 138.3 34.9497 137.969C34.138 137.639 33.3993 137.15 32.7762 136.531C32.1532 135.912 31.6582 135.174 31.3197 134.361C30.9813 133.548 30.8062 132.676 30.8044 131.794C30.7813 130.904 30.9355 130.018 31.2578 129.189C31.5802 128.359 32.0643 127.604 32.6815 126.966C33.2986 126.328 34.0364 125.821 34.8514 125.475C35.6663 125.128 36.5418 124.95 37.4262 124.95C38.3107 124.95 39.1862 125.128 40.0011 125.475C40.816 125.821 41.5538 126.328 42.171 126.966C42.7882 127.604 43.2722 128.359 43.5946 129.189C43.917 130.018 44.0711 130.904 44.048 131.794C44.0528 132.664 43.8874 133.527 43.5611 134.332C43.2349 135.138 42.7543 135.871 42.1468 136.489C41.5392 137.108 40.8167 137.6 40.0203 137.937C39.2239 138.274 38.3694 138.45 37.5055 138.455ZM52.8997 143.862C51.1294 142.039 49.5039 140.324 47.806 138.674C47.0273 137.917 47.7472 137.425 47.9917 136.896C48.8484 135.053 49.2194 133.018 49.069 130.989C48.9185 128.959 48.2517 127.003 47.1327 125.308C46.0137 123.614 44.4801 122.238 42.6798 121.313C40.8795 120.388 38.8729 119.945 36.8535 120.027C35.2103 120.06 33.5999 120.497 32.1627 121.299C31.4066 121.755 30.9267 121.682 30.2928 121.026C27.8297 118.454 25.2851 115.947 22.6545 113.294C23.2974 112.883 23.8091 113.043 24.2935 113.038C35.1239 113.038 45.9587 113.038 56.7891 112.997C58.0568 112.997 58.5051 113.348 58.6726 114.607C60.0626 124.965 58.1338 134.616 52.8952 143.862H52.8997Z" fill="#FEFEFE"/>
</g>
<defs>
<clipPath id="clip0_158_635">
<rect width="170.166" height="175" fill="white" transform="translate(0.468628 0.68457)"/>
</clipPath>
</defs>
</svg>
