<svg width="192" height="193" viewBox="0 0 192 193" fill="none" xmlns="http://www.w3.org/2000/svg">
<g clip-path="url(#clip0_158_638)">
<path d="M78.8526 1.44312H80.5926C81.3873 2.10233 82.1307 2.8216 82.8164 3.59463C85.0465 6.51009 87.2269 9.45829 89.3577 12.4392C90.0229 13.3747 90.6045 13.5244 91.6466 13.0239C95.0428 11.3962 98.4856 9.85274 101.924 8.30926C104.478 7.15867 105.948 7.84154 106.799 10.5777C107.762 13.6787 108.693 16.7937 109.665 19.9836C110.619 19.8012 111.466 19.6515 112.308 19.4784C118.174 18.2811 123.999 17.0416 129.852 15.8676C133.067 15.2222 134.593 16.8031 134.002 20.0771C133.381 23.5071 132.774 26.9495 132.178 30.4044C131.624 33.6036 131.085 36.8028 130.568 39.8337C130.764 40.0769 130.792 40.147 130.838 40.1611C133.392 40.9188 135.956 41.6578 138.505 42.4202C141.622 43.3556 142.292 44.7588 141.055 47.7615C139.464 51.6249 137.863 55.4836 136.226 59.4546L146.089 66.7276C149.01 68.8885 149.154 70.2823 146.726 72.9577L141.078 79.1409H143.209C151.859 79.1409 160.506 79.1409 169.15 79.1409C170.076 79.1159 171.002 79.1975 171.909 79.3841C175.706 80.2635 177.729 82.9295 178.79 86.5075V89.66C177.888 92.63 176.268 94.9827 173.365 96.3344C173.058 96.4747 172.9 97.1856 172.9 97.6393C172.844 99.4447 172.923 101.255 172.868 103.06C172.514 114.07 167.88 122.747 158.794 128.967C158.38 129.248 157.98 129.538 157.445 129.903C157.957 130.249 158.324 130.506 158.697 130.754C165.016 134.824 169.633 141.08 171.677 148.34C172.984 152.77 172.886 157.316 172.886 161.862C172.886 162.423 173.063 163.317 173.421 163.485C176.334 164.851 177.897 167.227 178.795 170.197V173.345C177.399 177.863 174.552 180.678 169.625 180.683C151.921 180.717 134.222 180.717 116.527 180.683C114.539 180.72 112.595 180.084 111.008 178.878C109.422 177.672 108.283 175.966 107.776 174.032C107.246 172.071 107.408 169.986 108.234 168.132C109.06 166.277 110.5 164.767 112.308 163.859C112.674 163.717 112.981 163.455 113.181 163.116C113.381 162.776 113.462 162.379 113.41 161.988C113.345 160.295 113.35 158.602 113.41 156.914C113.764 145.763 118.416 136.975 127.688 130.721C128.047 130.478 128.382 130.197 128.582 130.048L120.012 122.747C119.738 123.481 119.5 124.061 119.3 124.655C118.37 127.461 117.439 130.291 116.486 133.107C115.755 135.272 114.894 135.913 112.652 135.866C109.861 135.819 107.069 135.796 104.278 135.618C102.994 135.534 102.314 135.885 101.77 137.11C100.244 140.567 98.5647 143.958 96.941 147.377C95.4755 150.459 94.01 150.88 91.2 149.018C87.7665 146.745 84.3378 144.463 80.8624 142.152C80.3972 142.62 79.9599 142.994 79.5551 143.396C76.9172 146.025 74.298 148.672 71.6461 151.282C69.7433 153.153 68.0312 153.003 66.3889 150.875C65.9609 150.323 65.5515 149.757 65.1374 149.196C62.9663 146.265 60.7952 143.329 58.6241 140.389C54.7673 142.162 51.0826 143.855 47.3933 145.534C44.3321 146.937 42.9364 146.292 41.9594 143.046C40.7497 139.047 39.5448 135.048 38.2747 130.852C37.3954 131.063 36.4137 131.002 35.9159 131.47C33.3944 133.841 31.003 136.353 28.2814 139.098C28.8295 139.449 29.3533 139.836 29.8493 140.258C31.4915 141.9 31.673 143.696 30.3703 144.996C29.0677 146.296 27.3323 146.147 25.6482 144.463C22.1992 141.014 18.7487 137.553 15.2967 134.079L6.45717 125.169C4.452 123.149 4.13099 121.474 5.50343 120.052C6.87588 118.631 8.53212 118.841 10.5838 120.862C10.942 121.217 11.3328 121.535 11.5608 121.736L19.1209 114.164C16.2178 113.317 13.2868 112.466 10.3559 111.596C7.23877 110.661 6.60604 109.318 7.86684 106.255C9.45794 102.396 11.063 98.5373 12.6913 94.5991L2.51196 87.1156C-0.023575 85.2447 -0.177103 83.6965 1.94438 81.3626L10.4722 72.0082C8.06689 68.374 5.70349 64.8567 3.34939 61.3114C1.6001 58.6875 2.0002 57.1908 4.82884 55.7221C8.12271 54.015 11.4073 52.2797 14.7291 50.624C15.6595 50.1563 15.9247 49.6885 15.6316 48.5941C14.6081 44.8523 13.6869 41.0404 12.7704 37.2472C12.1331 34.6513 13.031 33.2481 15.7107 32.8553C19.4326 32.3377 23.1731 31.8699 26.9322 31.4521C28.086 31.3258 28.6164 30.9376 28.7048 29.656C28.97 25.7599 29.3887 21.8732 29.7655 17.963C29.9981 15.5589 31.4869 14.4504 33.8317 14.9836C37.3954 15.7881 40.9684 16.5599 44.4902 17.5187C46.0488 17.9396 46.8164 17.6964 47.491 16.1155C48.8309 12.8976 50.4267 9.78258 51.9201 6.63014C53.4135 3.4777 54.8418 3.12223 57.6518 4.98376L68.3522 12.0884C69.0786 11.1056 69.8551 10.1611 70.6784 9.25873C73.3721 6.63014 76.1263 4.04832 78.8526 1.44312ZM7.91336 83.6357L17.046 90.3709C19.6001 92.2418 19.7955 92.9808 18.5626 95.9836L14.222 106.475C17.4786 107.41 20.5631 108.345 23.6709 109.211C23.863 109.228 24.0564 109.203 24.2379 109.137C24.4194 109.072 24.5847 108.968 24.7224 108.832C28.7048 104.861 32.6593 100.881 36.8511 96.6431C36.2996 96.2397 35.7685 95.8089 35.26 95.3521C31.4357 91.5215 27.5603 87.7423 23.8384 83.8181C21.9757 81.8582 20.8435 79.3116 20.6332 76.6091C20.423 73.9066 21.1476 71.214 22.6846 68.9867C24.1981 66.7448 26.4262 65.0883 29.0017 64.2903C31.5772 63.4923 34.3463 63.6004 36.8525 64.5968C39.3587 65.5932 41.4524 67.4184 42.7884 69.7715C44.1244 72.1246 44.6229 74.8652 44.2018 77.5413C44.0877 78.0854 44.1702 78.6525 44.4344 79.1409C45.1788 80.1512 46.0907 81.0399 47.0258 82.0782C47.826 81.1428 48.3564 80.5394 48.8867 79.922C64.5094 61.2787 80.1522 42.654 95.8151 24.0481C96.6054 23.2304 97.5952 22.6353 98.6856 22.3222C100.361 21.8611 102.06 21.4895 103.775 21.209C103.129 19.0388 102.528 16.9995 101.886 14.8761L91.6513 19.5533C88.8598 20.8348 88.0271 20.6337 86.2033 18.1782C83.9516 15.152 81.7092 12.1212 79.1969 8.73021C76.6846 11.3822 74.3631 13.9032 71.9625 16.3541C68.971 19.4036 68.5244 19.4176 65.0304 17.0931C62.1785 15.166 59.2941 13.2577 56.298 11.2653C54.5207 15.007 52.8459 18.5991 51.1338 22.1632C50.2034 24.0808 49.2124 24.6047 47.2537 24.2211C45.8906 23.9545 44.5414 23.5991 43.1876 23.2857L35.4042 21.499C35.0087 25.6477 34.6272 29.5298 34.269 33.4165C34.0596 35.6616 33.292 36.5549 31.1194 36.8823C29.5143 37.1256 27.8999 37.308 26.2902 37.5184L19.2093 38.4539C20.1723 42.3126 21.0702 45.9374 21.9775 49.5295C22.7404 52.5931 22.4427 53.3181 19.5815 54.8101C16.3248 56.5266 13.017 58.2291 9.63008 59.9878C11.8911 63.3741 14.0591 66.6107 16.2132 69.852C17.6787 72.055 17.6089 72.9577 15.827 74.9408C13.2543 77.7845 10.6629 80.6143 7.91336 83.6357ZM68.3941 103.154C70.0131 105.244 71.4972 106.39 74.3863 106.189C81.6301 105.722 87.413 112.452 86.329 119.482C85.5753 124.276 82.9653 127.639 78.3967 129.225C73.7443 130.848 69.5572 129.73 66.0679 126.311C62.5786 122.892 59.2429 119.487 55.8327 116.035C55.0697 115.268 54.3858 114.421 53.8508 113.822L42.606 125.207C43.3504 127.485 44.1088 129.776 44.8392 132.082C45.5696 134.388 46.2628 136.703 47.0118 139.15C50.087 137.746 52.9808 136.427 55.8513 135.094C60.5037 132.966 60.5037 132.98 63.5277 137.026C65.491 139.678 67.4636 142.321 69.6177 145.221C72.2137 142.522 74.6097 139.982 77.0615 137.494C79.8203 134.687 80.3879 134.659 83.7283 136.876C86.6174 138.803 89.5112 140.721 92.5678 142.742C94.3357 139 96.0431 135.469 97.6854 131.895C98.4344 130.277 99.6022 129.514 101.407 129.599C104.073 129.72 106.748 129.669 109.405 129.884C110.931 130.01 111.535 129.454 111.936 128.051C112.652 125.534 113.48 123.041 114.415 120.6C114.913 119.313 115.741 118.149 116.551 116.685C116.039 115.282 115.304 113.453 114.69 111.577C113.238 107.12 113.382 102.499 113.345 97.8872C113.33 97.5471 113.244 97.2141 113.092 96.9101C112.939 96.6061 112.724 96.3381 112.461 96.1239C108.418 93.6964 106.669 89.8938 107.809 85.6656C108.879 81.6526 112.392 79.1503 117.011 79.1409C121.882 79.1409 126.758 79.1409 131.634 79.1409C132.225 79.1409 133.029 79.0801 133.378 78.706C135.928 76.0166 138.389 73.243 140.98 70.3852C137.993 68.1869 135.151 66.0962 132.308 63.9961C129.177 61.6809 129.052 61.1898 130.522 57.6024C131.917 54.2909 133.262 50.9748 134.681 47.5323L129.447 46.0637C129.066 48.1451 128.856 50.0674 128.317 51.8962C127.972 53.0468 127.386 54.333 126.488 55.072C115.295 64.4264 104.027 73.706 92.7818 83.0043L68.3941 103.154ZM119.621 53.0608C115.644 51.3489 111.852 49.7868 108.116 48.0749C107.004 47.5698 106.385 47.8036 105.58 48.6221C97.6466 56.6576 89.6895 64.6681 81.7092 72.6536C81.3559 73.0392 80.9799 73.4032 80.5833 73.7434C80.0224 74.218 79.3061 74.4659 78.5736 74.4391C77.841 74.4123 77.1445 74.1127 76.6195 73.5984C76.0851 73.0919 75.763 72.3996 75.719 71.6626C75.6749 70.9256 75.9121 70.1994 76.3822 69.6322C76.7137 69.2271 77.0728 68.8458 77.4569 68.4909C85.459 60.4461 93.4688 52.4076 101.486 44.3752C102.324 43.5427 102.463 42.9159 101.993 41.8308C100.677 38.7906 99.5091 35.6803 98.2716 32.6027C98.0948 32.163 97.8436 31.7468 97.5598 31.1995L51.5014 86.0351L55.7769 90.5814C56.7074 89.5711 57.5029 88.5842 58.3962 87.6768C61.5784 84.4449 64.7699 81.2129 67.9986 78.0231C69.3432 76.6948 71.1716 76.676 72.344 77.8641C73.5163 79.0521 73.5163 80.7686 72.1811 82.2279C71.6321 82.8266 71.0413 83.3878 70.4644 83.9631L60.0245 94.4261L64.1325 98.9583L119.621 53.0608ZM167.075 97.1482H119.156C119.342 100.577 119.538 103.879 119.696 107.181C119.766 108.659 120.482 109.014 121.924 109.005C136.081 108.944 150.243 108.968 164.4 108.968H166.471C166.699 104.983 166.889 101.166 167.094 97.1482H167.075ZM166.094 150.782C164.805 145.567 162.107 141.586 158.464 138.083C152.658 132.503 145.484 132.283 138.263 132.966C130.131 133.738 121.515 142.536 120.412 150.852C122.738 150.852 125.065 150.852 127.367 150.852C130.852 150.885 133.35 149.369 135.356 146.469C136.505 144.818 138.051 143.486 139.85 142.597C143.949 140.684 148.457 142.344 150.95 146.39C152.49 148.883 154.533 150.576 157.464 150.744C160.241 150.908 163.023 150.782 166.094 150.782ZM166.833 162.718V156.825C164.428 156.825 162.121 156.75 159.818 156.825C154.179 157.045 149.731 154.987 146.372 150.323C143.879 146.867 142.395 146.872 139.859 150.365C136.491 155.043 132.029 157.049 126.395 156.825C124.102 156.731 121.799 156.825 119.472 156.825V162.718H166.833ZM122.785 115.01C123.627 117.616 126.67 120.857 129.824 123.373C135.323 127.751 141.715 126.965 147.968 126.886C153.272 126.816 162.27 119.819 163.433 115.01H122.785ZM143.232 168.798C134.393 168.798 125.59 168.798 116.769 168.798C114.746 168.798 113.387 170.066 113.415 171.796C113.443 173.527 114.755 174.668 116.672 174.752C117.016 174.752 117.365 174.752 117.714 174.752H168.555C169.134 174.781 169.714 174.762 170.29 174.696C171.074 174.577 171.779 174.152 172.253 173.512C172.726 172.873 172.928 172.071 172.816 171.282C172.542 169.701 171.323 168.794 169.35 168.794C160.647 168.769 151.941 168.761 143.232 168.77V168.798ZM142.995 91.1006H167.722C168.476 91.1006 169.234 91.1427 169.983 91.1006C170.745 91.0733 171.466 90.7507 171.997 90.2005C172.527 89.6502 172.825 88.915 172.828 88.1488C172.831 87.3826 172.539 86.645 172.013 86.0906C171.487 85.5361 170.768 85.2078 170.006 85.1745C169.718 85.1465 169.425 85.1745 169.136 85.1745H117.076C116.727 85.162 116.377 85.1729 116.03 85.2073C115.327 85.2871 114.676 85.6185 114.197 86.1409C113.717 86.6632 113.44 87.3417 113.417 88.0523C113.394 88.7629 113.626 89.4582 114.07 90.011C114.515 90.5638 115.143 90.9373 115.839 91.0631C116.414 91.1405 116.995 91.1639 117.574 91.1333L142.995 91.1006ZM107.223 38.945C107.841 38.1499 108.153 37.6494 108.563 37.2378C111.093 34.6653 113.635 32.1069 116.188 29.5625C117.667 28.1032 119.398 27.991 120.654 29.207C121.994 30.4979 121.878 32.2098 120.342 33.8188C119.877 34.2865 119.444 34.7542 118.993 35.1798L111.228 42.9534L123.036 48.0047C124.553 39.4408 126.037 31.0452 127.558 22.4438L102.673 27.5887C104.18 31.3445 105.613 34.8852 107.223 38.945ZM62.9974 114.37L65.6539 109.781L40.6334 84.6039L36.0136 87.2512L62.9974 114.37ZM25.4156 117.232L16.4551 126.194L24.4013 134.248L30.803 127.92L25.4156 117.232ZM32.4499 81.6199C33.9637 81.5581 35.3964 80.9154 36.4532 79.824C37.5101 78.7327 38.1107 77.2756 38.1316 75.7526C38.1524 74.2297 37.5919 72.7565 36.5654 71.6363C35.5388 70.5161 34.1243 69.8341 32.6128 69.7304C31.8234 69.7001 31.036 69.8288 30.2969 70.109C29.5578 70.3893 28.8819 70.8153 28.309 71.3621C27.7362 71.9089 27.2779 72.5653 26.9612 73.2928C26.6444 74.0203 26.4757 74.8042 26.4648 75.5983C26.454 76.3923 26.6012 77.1806 26.8979 77.9165C27.1946 78.6525 27.6348 79.3214 28.1925 79.8838C28.7502 80.4462 29.4141 80.8908 30.1453 81.1913C30.8765 81.4919 31.6601 81.6424 32.4499 81.6339V81.6199ZM80.2855 117.995C80.2845 117.207 80.127 116.427 79.8224 115.701C79.5177 114.975 79.072 114.317 78.5113 113.767C77.9506 113.216 77.2863 112.783 76.5572 112.494C75.8281 112.205 75.049 112.065 74.2654 112.083C73.5099 112.091 72.7635 112.25 72.0692 112.549C71.3749 112.849 70.7464 113.283 70.2197 113.828C69.6931 114.373 69.2788 115.017 69.0006 115.723C68.7224 116.429 68.5859 117.184 68.5988 117.943C68.5982 118.718 68.7495 119.485 69.0442 120.2C69.3389 120.916 69.7711 121.566 70.316 122.113C70.861 122.661 71.508 123.095 72.22 123.39C72.932 123.686 73.6951 123.838 74.4654 123.836C75.2361 123.863 76.004 123.73 76.7215 123.446C77.4391 123.162 78.0909 122.733 78.6366 122.185C79.1823 121.638 79.6102 120.983 79.8939 120.262C80.1776 119.541 80.3109 118.769 80.2855 117.995ZM40.6614 100.913C39.8937 101.821 39.1261 102.616 38.5027 103.509C38.3794 103.707 38.3016 103.931 38.2751 104.163C38.2485 104.395 38.2738 104.63 38.3491 104.852C40.01 108.28 41.7454 111.671 43.4016 114.973L49.0263 109.314L40.6614 100.913ZM35.3623 123.738C36.5952 122.391 37.6094 121.353 38.5306 120.235C38.6543 120.07 38.7384 119.879 38.7763 119.676C38.8143 119.473 38.805 119.264 38.7492 119.066C37.0418 115.572 35.2693 112.111 33.3618 108.331C32.194 109.604 31.1426 110.67 30.1796 111.844C30.0641 112.015 29.9894 112.21 29.9612 112.414C29.9329 112.619 29.9519 112.827 30.0167 113.023C31.7056 116.46 33.4409 119.87 35.3623 123.738Z" fill="white"/>
</g>
<defs>
<clipPath id="clip0_158_638">
<rect width="191" height="192" fill="white" transform="translate(0.468628 0.68457)"/>
</clipPath>
</defs>
</svg>
