<svg width="188" height="181" viewBox="0 0 188 181" fill="none" xmlns="http://www.w3.org/2000/svg">
<g clip-path="url(#clip0_158_617)">
<path d="M0.634399 55.4099C1.66906 53.8688 3.09904 53.3195 4.94873 53.4653C6.90092 53.5869 8.85311 53.4167 10.8053 53.5188C12.1084 53.5869 12.2011 53.0667 11.9132 52.0263C11.3373 49.9311 10.8199 47.8163 10.2831 45.7065C9.92681 44.3015 9.79504 42.9306 11.0542 41.8513C12.206 40.8499 13.4944 40.9714 14.817 41.4381C17.4476 42.3569 20.1075 43.2028 22.7429 44.0973C25.0563 44.88 26.0324 46.4308 25.4077 48.2782C24.783 50.1255 23.026 50.7089 20.7078 49.9554L17.555 48.9247C18.1114 51.1659 18.6189 53.1931 19.1119 55.2446C19.7707 57.9719 18.5164 59.6491 15.7199 59.7171C13.7921 59.7658 11.8644 59.7171 9.65838 59.7171C10.6882 61.2874 11.5618 62.634 12.45 63.9806C13.47 65.5217 13.265 66.8975 12.0449 68.2636C10.8248 69.6296 8.51635 70.6603 8.62861 72.177C8.71645 73.5139 10.8346 74.7147 12.0449 75.9738C13.2553 77.2329 13.4456 78.7205 12.4451 80.247C11.5618 81.5937 10.6686 82.9403 9.61446 84.53C11.6887 84.53 13.4847 84.53 15.2807 84.53C18.6384 84.53 19.8098 86.0273 19.0191 89.2407C18.5734 91.0589 18.1358 92.8803 17.7063 94.705C17.7063 94.7973 17.76 94.914 17.838 95.1911C18.9703 94.8168 20.0928 94.4084 21.2544 94.0827C23.1822 93.5285 24.905 94.3209 25.4418 95.9544C25.9787 97.5878 25.1734 99.2553 23.2456 99.9359C20.3954 100.947 17.5111 101.88 14.6316 102.809C11.5764 103.781 9.53637 101.944 10.2392 98.8226C10.5369 97.4663 10.9322 96.1294 11.2689 94.7828C11.6057 93.4361 11.8936 92.2013 12.245 90.7478C9.71207 90.7478 7.28648 90.6554 4.87553 90.7769C2.96238 90.8742 1.58609 90.2373 0.683204 88.565V86.7468C1.17125 84.8265 2.47434 83.3438 3.51876 81.7346C5.64176 78.458 5.77353 79.1921 2.90382 76.2947C1.96677 75.3467 0.961391 74.5348 0.634399 73.232V71.0492C1.09316 69.3623 2.51826 68.4337 3.64077 67.2718C5.44654 65.4099 5.43678 65.4537 4.08489 63.3243C2.88918 61.4527 1.36647 59.7512 0.634399 57.5927V55.4099Z" fill="white"/>
<path d="M117.39 17.4858C115.203 18.0352 113.334 18.5213 111.46 18.9734C108.156 19.7756 106.58 18.5602 106.58 15.2009C106.58 13.4508 106.58 11.6958 106.58 9.62486C105.115 10.568 103.9 11.3896 102.651 12.1917C100.63 13.4946 99.4883 13.3779 97.7704 11.8125C96.5307 10.6798 95.5253 8.53104 94.0807 8.61368C92.8411 8.68174 91.7088 10.6409 90.5277 11.7639C88.8245 13.3876 87.6483 13.5043 85.6473 12.25C84.4223 11.4625 83.207 10.6652 81.9869 9.87766C81.9528 9.87766 81.8747 9.90683 81.6697 9.97003C81.6697 11.7785 81.6697 13.6356 81.6697 15.4926C81.6404 18.4484 80.0787 19.7026 77.2236 19.0707C76.2182 18.847 75.2226 18.5845 74.2221 18.3317L71.0498 17.549C71.0498 18.7984 71.6403 19.7853 71.9429 20.8305C72.6213 23.1737 71.982 24.7731 70.0249 25.376C68.2826 25.9107 66.7648 24.9822 66.0473 22.8869C65.0712 20.0867 64.1342 17.2865 63.2459 14.462C62.3186 11.516 64.222 9.51791 67.243 10.2277C69.5417 10.7673 71.86 11.2729 74.1294 11.9292C75.208 12.2403 75.5008 12.075 75.4666 10.9569C75.3983 8.65743 75.4129 6.35311 75.4666 4.05364C75.5252 1.21456 77.9947 -0.156371 80.4105 1.33609C82.475 2.60979 84.5052 3.94183 86.4721 5.35651C87.3018 5.95447 87.7654 5.86696 88.4243 5.15233C89.3516 4.11198 90.3764 3.15914 91.3525 2.18199C93.3389 0.237406 94.8762 0.237406 96.8333 2.12851C97.8094 3.1008 98.8733 4.04392 99.7909 5.08913C100.479 5.87183 100.982 5.97392 101.875 5.32248C103.681 3.99531 105.613 2.84314 107.458 1.56944C108.654 0.738136 109.898 0.412419 111.201 1.12219C112.504 1.83196 112.836 2.95982 112.802 4.34047C112.758 6.39686 112.895 8.46298 112.758 10.5145C112.656 12.1188 113.158 12.2792 114.569 11.8417C116.711 11.1805 118.913 10.7236 121.099 10.2131C123.978 9.53736 125.906 11.5694 125.003 14.4085C124.086 17.3254 123.095 20.2423 122.075 23.1591C121.392 25.1037 119.796 25.9253 118.102 25.3565C116.301 24.7537 115.574 23.1494 116.199 21.093C116.55 19.9749 116.926 18.8956 117.39 17.4858Z" fill="white"/>
<path d="M176.034 90.6943C176.697 93.3389 177.312 95.8523 177.952 98.3608C178.313 99.7658 178.44 101.137 177.268 102.25C176.097 103.363 174.76 103.188 173.364 102.702C170.675 101.774 167.956 100.923 165.262 100.004C163.217 99.3088 162.3 97.7337 162.822 95.969C163.344 94.2043 165.106 93.4556 167.136 94.0633C168.23 94.389 169.303 94.7828 170.689 95.2446C170.148 93.0181 169.674 91.0541 169.196 89.0852C168.459 86.0954 169.684 84.5203 172.729 84.5008C174.599 84.5008 176.463 84.5008 178.63 84.5008C177.61 82.9452 176.707 81.618 175.853 80.2616C174.755 78.5261 174.877 77.3448 176.297 75.862C177.273 74.8557 178.225 73.8397 179.274 72.9452C180.021 72.2889 179.938 71.8562 179.245 71.2388C178.269 70.354 177.327 69.3817 176.395 68.424C174.848 66.8343 174.73 65.6141 175.951 63.7278C176.766 62.4687 177.61 61.2339 178.625 59.7123C176.556 59.7123 174.769 59.7123 172.978 59.7123C169.665 59.7123 168.449 58.1372 169.23 54.9675C169.679 53.1493 170.12 51.3279 170.553 49.5033C170.555 49.3393 170.535 49.1759 170.494 49.0171C169.279 49.4012 168.098 49.8144 166.897 50.1547C165.096 50.6651 163.427 49.8873 162.866 48.3268C162.261 46.6447 163.081 44.9238 164.935 44.2626C167.903 43.2174 170.89 42.2111 173.906 41.2971C176.663 40.4561 178.664 42.2937 178.078 45.128C177.59 47.4371 176.975 49.7123 176.346 51.9826C176.009 53.1785 176.282 53.5917 177.586 53.5188C179.464 53.4167 181.353 53.5188 183.237 53.4848C184.799 53.4848 186.317 53.4848 187.205 55.0842C188.137 56.7711 187.249 58.0837 186.336 59.4157C185.209 61.0638 184.159 62.7701 182.974 64.3744C182.334 65.2446 182.393 65.7842 183.218 66.4697C184.194 67.2864 185.043 68.249 185.941 69.1532C188.176 71.4041 188.186 72.7799 185.985 74.987C185.009 75.9593 184.033 76.9899 183.008 77.9038C182.383 78.4726 182.383 78.915 182.856 79.5908C184.213 81.5353 185.497 83.5091 186.819 85.4634C187.586 86.5912 187.927 87.7628 187.21 89.0317C186.492 90.3005 185.404 90.7186 184.008 90.6992C181.412 90.6651 178.801 90.6943 176.034 90.6943Z" fill="white"/>
<path d="M123.173 155.211C123.034 154.916 122.871 154.633 122.685 154.365C120.43 151.744 118.195 149.105 115.877 146.543C115.238 145.833 115.423 145.527 116.033 145.002C126.477 136.018 136.904 127.017 147.312 118.001C147.99 117.418 148.361 117.471 148.913 118.118C151.153 120.748 153.403 123.378 155.745 125.935C156.609 126.907 155.775 127.155 155.282 127.583C145.309 136.184 135.334 144.773 125.355 153.349C124.696 153.913 124.057 154.457 123.173 155.211Z" fill="white"/>
<path d="M40.2833 117.486C40.5859 117.739 40.9178 118.001 41.2594 118.278C51.4596 127.077 61.6663 135.865 71.8795 144.642C72.9288 145.541 72.9336 146.018 72.0307 146.99C69.8833 149.299 67.8384 151.706 65.8179 154.122C65.1883 154.88 64.7979 155.021 63.978 154.316C53.6672 145.371 43.3303 136.458 32.9675 127.578C32.1232 126.854 32.0451 126.475 32.8211 125.634C34.9978 123.271 37.0573 120.801 39.1657 118.385C39.4634 118.03 39.6781 117.539 40.2833 117.486Z" fill="white"/>
<path d="M73.4705 93.7329C75.9986 96.5817 78.473 99.4159 81.0108 102.192C81.6404 102.882 81.6062 103.281 81.0108 103.966C74.5035 111.249 68.0207 118.555 61.5622 125.887C60.8984 126.645 60.5031 126.732 59.7271 126.027C57.2527 123.791 54.71 121.618 52.1722 119.455C51.5914 118.969 51.2693 118.672 51.9428 117.914C58.9576 110.025 65.953 102.114 72.9288 94.1802C73.0944 94.014 73.2758 93.8642 73.4705 93.7329Z" fill="white"/>
<path d="M31.7571 171.443C31.761 172.657 31.5238 173.86 31.0591 174.982C30.5945 176.105 29.9116 177.125 29.0498 177.983C28.1879 178.842 27.1642 179.522 26.0374 179.985C24.9106 180.447 23.703 180.684 22.4842 180.68C21.2503 180.686 20.0272 180.45 18.8855 179.983C17.7438 179.517 16.706 178.83 15.8319 177.962C14.9577 177.095 14.2645 176.064 13.7922 174.928C13.3198 173.792 13.0776 172.575 13.0796 171.346C13.1245 168.866 14.1485 166.503 15.9298 164.77C17.7111 163.036 20.1063 162.072 22.5965 162.085C25.0526 162.13 27.392 163.137 29.107 164.889C30.822 166.641 31.7742 168.996 31.7571 171.443Z" fill="white"/>
<path d="M156.482 171.322C156.5 169.485 157.063 167.694 158.101 166.175C159.139 164.657 160.605 163.478 162.314 162.789C164.024 162.099 165.9 161.93 167.706 162.301C169.512 162.673 171.167 163.569 172.463 164.876C173.758 166.183 174.636 167.844 174.986 169.648C175.335 171.451 175.14 173.318 174.426 175.011C173.711 176.705 172.509 178.15 170.972 179.164C169.434 180.178 167.629 180.716 165.785 180.709C164.552 180.713 163.33 180.472 162.192 180C161.053 179.528 160.021 178.835 159.155 177.961C158.288 177.087 157.606 176.049 157.147 174.909C156.688 173.769 156.462 172.55 156.482 171.322Z" fill="white"/>
<path d="M36.3594 164.404C34.1778 160.354 30.9665 157.845 26.6717 156.465C30.8591 151.603 34.944 146.917 39.0046 142.192C39.4536 141.667 39.7562 141.584 40.3077 142.07C42.9952 144.429 45.7055 146.766 48.4385 149.08C49.0242 149.566 49.0535 149.897 48.5215 150.495C44.5146 155.031 40.5419 159.605 36.3594 164.404Z" fill="white"/>
<path d="M161.382 156.547C159.352 157.153 157.465 158.159 155.833 159.505C154.2 160.851 152.856 162.51 151.88 164.384C148.347 160.335 144.925 156.426 141.514 152.508C139.118 149.751 139.118 149.741 141.924 147.301C143.876 145.585 145.887 143.898 147.834 142.172C148.386 141.686 148.718 141.56 149.274 142.211C153.251 146.863 157.273 151.482 161.27 156.12C161.338 156.193 161.329 156.329 161.382 156.547Z" fill="white"/>
<path d="M85.9059 107.797L87.5604 109.688C90.0007 112.444 90.0007 112.44 87.5995 115.128C82.1382 121.307 76.6623 127.471 71.2401 133.679C70.4153 134.627 69.8492 135.011 68.8633 133.898C67.8775 132.785 65.8131 132.085 65.7691 130.826C65.7252 129.756 67.4236 128.604 68.3899 127.52C74.1782 120.991 79.9762 114.467 85.9059 107.797Z" fill="white"/>
<path d="M121.46 163.49C121.289 164.875 120.743 165.921 119.362 166.436C117.805 167.005 116.643 166.402 115.652 165.264C112.47 161.602 109.292 157.933 106.116 154.258C105.32 153.339 104.486 152.459 103.744 151.497C102.563 149.975 102.724 148.278 104.081 147.121C105.438 145.964 107.19 146.076 108.473 147.515C112.534 152.109 116.526 156.752 120.552 161.38C121.053 161.981 121.368 162.714 121.46 163.49Z" fill="white"/>
<path d="M69.9371 166.679C69.3642 166.672 68.8041 166.51 68.3179 166.208C67.8316 165.906 67.4379 165.477 67.1796 164.968C66.87 164.403 66.7504 163.755 66.8382 163.118C66.9261 162.481 67.2168 161.889 67.6677 161.428C69.4051 159.401 71.1621 157.389 72.9142 155.376C75.0616 152.903 77.2122 150.43 79.3661 147.957C80.923 146.173 82.6361 145.867 84.1197 147.087C85.6034 148.307 85.6766 150.15 84.066 152.017C80.2593 156.431 76.4183 160.811 72.6067 165.216C72.2881 165.631 71.8862 165.975 71.4266 166.227C70.967 166.479 70.4597 166.633 69.9371 166.679Z" fill="white"/>
<path d="M165.204 125.998C164.748 125.964 164.305 125.833 163.903 125.615C163.502 125.398 163.152 125.097 162.876 124.734C158.937 120.199 154.984 115.677 151.075 111.122C149.664 109.484 149.762 107.656 151.207 106.46C152.568 105.332 154.374 105.488 155.726 107.043C159.733 111.599 163.696 116.188 167.668 120.772C168.101 121.224 168.386 121.796 168.487 122.412C168.587 123.028 168.498 123.66 168.232 124.226C167.965 124.791 167.534 125.262 166.993 125.579C166.453 125.895 165.829 126.041 165.204 125.998Z" fill="white"/>
<path d="M22.8942 125.993C22.3127 126.029 21.7337 125.892 21.2312 125.598C20.7287 125.305 20.3256 124.868 20.0733 124.345C19.7562 123.784 19.6323 123.135 19.7204 122.497C19.8085 121.858 20.1038 121.266 20.5613 120.811C23.4896 117.415 26.4309 114.023 29.3852 110.636C30.4589 109.401 31.5082 108.137 32.6258 106.941C33.9387 105.532 35.6859 105.361 37.0182 106.455C38.4238 107.588 38.6337 109.44 37.3257 110.972C33.3335 115.609 29.2876 120.213 25.2661 124.836C24.9852 125.196 24.6256 125.488 24.2145 125.688C23.8035 125.889 23.3519 125.993 22.8942 125.993Z" fill="white"/>
<path d="M135.882 117.359C107.575 85.2738 79.2896 53.1558 51.0252 21.0055C49.6684 19.4644 48.3019 17.9282 46.9403 16.3871C41.9573 21.0638 40.9324 26.1683 43.7338 31.9437C44.1 32.617 44.1984 33.4029 44.0094 34.1451C43.8204 34.8873 43.3578 35.5315 42.7138 35.9496C42.0815 36.3875 41.304 36.5658 40.5431 36.4472C39.7822 36.3285 39.0965 35.9222 38.6288 35.3127C37.6227 34.0919 36.874 32.6815 36.4277 31.1659C34.5829 25.128 36.5888 19.897 39.8441 14.8849C40.6542 13.6306 42.7723 12.8625 42.2843 11.2971C41.8841 9.92136 40.3321 8.91018 39.356 7.67051C38.7996 6.9656 38.458 7.0288 37.7747 7.55869C27.0377 15.9204 25.6321 30.0234 34.622 40.2179C61.419 70.6506 88.2404 101.064 115.086 131.458C116.062 132.581 116.912 134.477 118.185 134.554C119.459 134.632 120.465 132.77 121.699 131.905C122.773 131.156 122.675 130.646 121.841 129.698C103.246 108.79 84.6728 87.8585 66.1205 66.9024C64.5099 65.0891 62.875 63.2903 61.3035 61.4381C60.0834 59.9797 60.1517 58.1664 61.3718 57.0288C62.6944 55.7988 64.4855 55.9107 65.9302 57.3253C66.1888 57.5781 66.4182 57.8552 66.6671 58.1275C71.4988 63.5853 76.3304 69.0382 81.1621 74.4863C96.2655 91.5273 111.362 108.568 126.453 125.609C127.302 126.582 127.78 126.795 128.82 125.809C131.021 123.728 133.334 121.744 135.706 119.853C136.824 118.964 136.824 118.448 135.882 117.359ZM56.7158 52.6438C55.5348 53.2174 54.2756 53.1834 53.3483 52.2062C51.0594 49.7172 48.829 47.1649 46.6914 44.5495C46.2567 43.9562 46.0589 43.2231 46.1365 42.4927C46.214 41.7623 46.5614 41.0867 47.1111 40.5971C48.2873 39.5033 50.0979 39.3428 51.2156 40.5388C53.5631 43.057 55.7544 45.7211 57.9945 48.3171C58.3097 48.7667 58.4581 49.3115 58.4142 49.8582C58.4512 50.4398 58.3081 51.0187 58.0044 51.5168C57.7007 52.0149 57.251 52.4082 56.7158 52.6438Z" fill="white"/>
<path d="M151.88 8.77892C149.708 6.83434 149.708 6.83434 147.737 9.06575C147.356 9.5342 146.95 9.98209 146.521 10.4075C145.648 11.1805 145.545 11.7444 146.487 12.6875C148.892 15.1086 150.657 18.0848 151.626 21.3506C153.183 26.2558 152.851 30.9034 149.738 35.162C148.635 36.6739 146.809 37.0239 145.418 36.1051C143.91 35.1328 143.583 33.3341 144.662 31.6423C145.299 30.7555 145.759 29.7555 146.019 28.6963C146.868 24.321 145.043 20.8159 142.49 17.5149C141.641 16.4065 141.158 16.4551 140.226 17.5149C132.017 26.9462 123.734 36.3142 115.477 45.7113C110.069 51.8692 104.666 58.027 99.2686 64.1848C98.8489 64.671 97.9997 65.0405 98.8245 65.9496C101.47 68.8664 104.056 71.827 106.716 74.8266C107.126 74.389 107.468 74.0439 107.785 73.6841C112.539 68.3268 117.292 62.9695 122.046 57.6122C123.603 55.8621 125.369 55.5947 126.804 56.81C128.332 58.108 128.293 59.8971 126.663 61.7493C122.413 66.5751 118.156 71.3976 113.891 76.2169C112.914 77.3108 111.279 78.3706 111.211 79.5227C111.133 80.8013 112.993 81.7736 113.856 82.9889C114.637 84.0876 115.135 83.9612 115.97 82.9889C128.63 68.5796 141.372 54.2432 153.993 39.7998C162.232 30.3929 161.251 17.0677 151.88 8.77892ZM141.031 45.2641C139.206 47.3642 137.4 49.479 135.555 51.584C134.13 53.1931 132.309 53.4459 130.928 52.2889C129.547 51.1319 129.41 49.2602 130.772 47.6413C132.685 45.3727 134.637 43.1364 136.629 40.9325C137.02 40.4266 137.57 40.0659 138.191 39.9082C138.812 39.7504 139.468 39.8047 140.055 40.0623C140.653 40.2822 141.165 40.6865 141.516 41.2165C141.867 41.7464 142.039 42.3742 142.007 43.0084C141.991 43.8587 141.641 44.6688 141.031 45.2641Z" fill="white"/>
</g>
<defs>
<clipPath id="clip0_158_617">
<rect width="187" height="180" fill="white" transform="translate(0.634399 0.68457)"/>
</clipPath>
</defs>
</svg>
